<?xml version="1.0" encoding="utf-8"?>
<!-- Generator: Adobe Illustrator 27.6.0, SVG Export Plug-In . SVG Version: 6.00 Build 0)  -->
<svg version="1.1" id="Layer_1" xmlns="http://www.w3.org/2000/svg" xmlns:xlink="http://www.w3.org/1999/xlink" x="0px" y="0px"
	 viewBox="0 0 400 335.9" style="enable-background:new 0 0 400 335.9;" xml:space="preserve">
<style type="text/css">
	.st0{opacity:0.1;}
	.st1{fill:#FFA726;}
	.st2{clip-path:url(#SVGID_00000053519756688384769970000016850356522633049257_);}
	.st3{fill:#6F75E2;}
	.st4{fill:#FFFFFF;}
	.st5{fill:#61D1B1;}
	.st6{fill:#9DA5ED;}
	.st7{fill:none;stroke:#000000;stroke-miterlimit:10;}
	.st8{clip-path:url(#SVGID_00000071517899417721048650000010241239619461731727_);}
	.st9{fill:#C0DB5D;}
	.st10{fill:#FFD54F;}
	.st11{fill:#EBFCA4;}
	.st12{fill:#FFAE64;}
	.st13{fill:#7AD38F;}
	.st14{fill:#47AD62;}
	.st15{fill:#E28940;}
	.st16{fill:none;stroke:#000000;stroke-width:0.5;stroke-linecap:round;stroke-linejoin:round;}
	.st17{fill:#A9EAB7;}
	.st18{fill:#FFD54F;stroke:#000000;stroke-miterlimit:10;}
	.st19{clip-path:url(#SVGID_00000063594253416604106650000005391369694636790455_);}
	.st20{fill:#FFFDF5;}
</style>
<g id="Grupo_92555" transform="translate(-605.999 -1963.027)">
	<g id="Image_Place_Holder" transform="translate(605.999 1999.146)" class="st0">
		<path id="Image_Place_Holder-2" class="st1" d="M9.5,28.5h380c5.5,0,10,4.5,10,10v250.8c0,5.5-4.5,10-10,10H9.5
			c-5.5,0-10-4.5-10-10V38.5C-0.5,33,4,28.5,9.5,28.5z"/>
	</g>
	<g id="Grupo_85512" transform="translate(612.011 1963.027)">
		<g id="Grupo_85507" transform="translate(0 66.195)">
			<g>
				<defs>
					<rect id="SVGID_1_" x="-0.5" y="28.5" width="403" height="206.1"/>
				</defs>
				<clipPath id="SVGID_00000054962886806303057840000013848397189507709859_">
					<use xlink:href="#SVGID_1_"  style="overflow:visible;"/>
				</clipPath>
				<g id="Grupo_85506" style="clip-path:url(#SVGID_00000054962886806303057840000013848397189507709859_);">
					<path id="Trazado_118267" class="st3" d="M67.1,192.6c3.8,4.1,3.5,11.5,8.5,14.2c2.6,1.4,5.7,0.9,8.5,1.8
						c3,1.1,5.2,3.8,6.5,6.8c1.1,3,1.7,6.2,1.8,9.4c0.5,5.2,0.9,10.9-1.6,15.5c-0.9-3.3-3.4-6-6.7-7c-4.5-1.3-9.1,0.7-13.6,1.9
						s-10.1,1.6-13-2c-1.5-1.8-2-4.3-2.6-6.6s-1.8-4.7-3.9-5.7c-1.6-0.6-3.2-0.7-4.9-0.4c-2.5,0.3-5,0.3-7.5-0.1
						c-2.5-0.4-4.8-1.7-6.3-3.7c-2.5-3.7-1.2-9.1-3.3-13c-1.6-3-5-4.7-8.3-5.7s-6.8-1.6-9.7-3.4c-6.2-3.8-8.1-13-4.2-19.2
						s12.7-8.6,19.3-5.5c5.8,2.7,9.3,8.6,13.4,13.6c1.3,1.9,3.1,3.4,5,4.5c3.4,1.7,7.4,1.1,11.3,1C59.7,188.8,64.3,189.5,67.1,192.6
						"/>
					<path id="Trazado_118268" class="st4" d="M17.7,178.1c-0.6-0.1-1.1-0.2-1.7-0.3c-0.1,0-0.2-0.1-0.2-0.1
						c-3.5-0.3-7-0.3-10.4,0.1c-0.6,0.1-0.4,1,0.2,1c3.1-0.4,6.3-0.4,9.5-0.2c0.1,0,0.1,0.1,0.2,0.1c3.4,0.3,6.7,1.5,9.4,3.7
						c2.8,2.3,4.4,5.4,5.9,8.6c1.4,3.1,3,6.2,5.8,8.3c2.8,2,6.2,2.1,9.5,2.2c3.4,0,6.8,0.2,9.7,2.3c2.8,2,4.1,4.9,5.2,8
						c1,2.7,2,5.6,4.4,7.5c2.8,2.3,6.7,2.5,10.2,2.4c3.9-0.1,8.1-0.3,11,2.8c2.5,2.6,3.5,6.3,4,9.7c0.1,0.6,1.1,0.4,1-0.2
						c-0.3-3.2-1.4-6.2-3.1-8.9c-1.9-2.7-4.9-4.3-8.2-4.4c-3.8-0.3-7.6,0.5-11.3-0.7c-1.7-0.5-3.2-1.5-4.2-2.9
						c-0.9-1.2-1.6-2.6-2.1-4.1c-1.1-2.9-2-5.9-4.1-8.3c-2.3-2.5-5.6-4-9-4.1c-3.3-0.2-6.9,0.3-10.1-0.9c-3.4-1.3-5.4-4.6-6.9-7.8
						c-1.6-3.2-2.9-6.6-5.6-9.1C24,180.4,21,178.8,17.7,178.1"/>
					<path id="Trazado_118269" class="st4" d="M80.4,220.9c-7.5,4-14.9,8.2-22.9,11.2c-0.6,0.2-0.4,1.2,0.2,1
						c8-3,15.5-7.3,23.1-11.3c0.2-0.1,0.3-0.4,0.2-0.7S80.7,220.8,80.4,220.9L80.4,220.9"/>
					<path id="Trazado_118270" class="st4" d="M76,207.6c1.7,4.5,3,9.1,4,13.8c0.1,0.3,0.3,0.4,0.6,0.4c0.3-0.1,0.4-0.3,0.4-0.6
						c-1-4.7-2.3-9.3-4-13.8C76.8,206.7,75.8,207,76,207.6"/>
					<path id="Trazado_118271" class="st4" d="M59.3,208.1c-8.8,2.6-17.6,5.4-26.3,8.4c-0.6,0.2-0.4,1.2,0.2,1
						c8.7-3,17.5-5.8,26.3-8.4C60.2,208.9,60,207.9,59.3,208.1"/>
					<path id="Trazado_118272" class="st4" d="M55.7,189.4l3.7,19c0.1,0.6,1.1,0.4,1-0.2l-3.7-19C56.5,188.6,55.6,188.8,55.7,189.4"
						/>
					<path id="Trazado_118273" class="st4" d="M31.2,192c-6.2,0.7-12.3,1.6-18.4,2.6c-0.6,0.1-0.4,1.1,0.2,1
						c6.1-1.1,12.2-1.9,18.4-2.6C32.1,192.9,31.8,191.9,31.2,192"/>
					<path id="Trazado_118274" class="st4" d="M30.1,173.9c0.8,6,1.1,12.1,1,18.2c0,0.3,0.2,0.5,0.5,0.5s0.5-0.2,0.5-0.5
						c0.1-6.2-0.3-12.3-1.1-18.4C31,173.1,30.1,173.3,30.1,173.9"/>
					<path id="Trazado_118275" class="st5" d="M53.1,215c14.1,8.2,25.9,19.8,34.3,33.8c-9-9.9-22.6-14.9-36-15
						c-6.7-0.1-13.4,1-20.1,1.1s-13.7-0.6-19.5-4c-4.5-2.6-8.3-7.4-7.9-12.6c0.3-3.9,2.9-7.3,6.2-9.4c3.4-1.9,7.2-2.9,11.1-3
						C32.5,205.4,43.5,209.4,53.1,215"/>
					<path id="Trazado_118276" class="st3" d="M58.3,221.7c-5-2.8-10.3-5-15.7-6.7c-5.6-1.8-11.4-2.9-17.3-3.1
						c-6.7-0.2-13.3,1.4-19.7,3.1c-0.6,0.2-0.4,1.1,0.2,1c5.7-1.5,11.5-3,17.5-3.1c5.8,0,11.6,0.9,17.2,2.5
						c10.9,3.1,21.1,8.4,29.9,15.6c4.9,4,9.4,8.7,13.3,13.7c0.4,0.5,1.1-0.1,0.8-0.7C77.2,234.9,68.4,227.3,58.3,221.7"/>
					<path id="Trazado_118277" class="st3" d="M54.8,227.2c-5.3-1.5-10.6-2.7-16-3.5c-4.9-0.9-9.9-1.3-14.9-1.3
						c-5.5,0-11,0.9-16.2,2.6c-0.6,0.2-0.2,1.1,0.4,0.9c9.2-3.2,19.2-2.9,28.7-1.5c10.7,1.6,21.5,4.1,31.2,9.1
						c5.7,2.8,10.9,6.7,15.2,11.4c0.4,0.5,1.2-0.2,0.8-0.7C76.3,235.6,65.8,230.3,54.8,227.2"/>
					<path id="Trazado_118278" class="st6" d="M76,189.3c4.5,15.7,4.9,32.2,1.4,48.1c0.3-13.3-6-26.4-15.6-35.8
						c-4.8-4.7-10.3-8.6-15.3-13.1s-9.5-9.9-11.3-16.4c-1.4-5-0.9-11,3-14.5c2.9-2.6,7.2-3.3,11-2.5c3.8,1,7.3,2.9,10.1,5.5
						C67.8,168,73,178.5,76,189.3"/>
					<path id="Trazado_118279" class="st3" d="M75.1,197.6c-1.7-5.5-4-10.7-6.7-15.7c-2.8-5.2-6.3-10-10.4-14.3
						c-4.7-4.8-10.6-8.2-16.4-11.4c-0.6-0.3-1.1,0.5-0.5,0.8c5.2,2.9,10.4,5.8,14.7,9.9c4.2,4,7.8,8.7,10.7,13.8
						c5.8,9.8,9.4,20.7,10.8,31.9c0.8,6.3,0.8,12.8,0.1,19.1c-0.1,0.6,0.9,0.7,1,0C79.7,220.3,78.6,208.7,75.1,197.6"/>
					<path id="Trazado_118280" class="st3" d="M68.9,199.2c-2.8-4.7-5.8-9.3-9.1-13.7c-3-4-6.2-7.8-9.8-11.2c-4-3.8-8.5-7-13.5-9.3
						c-0.6-0.3-0.9,0.7-0.3,1c8.9,4,15.9,11.2,21.8,18.8c6.6,8.5,12.7,17.9,16.3,28.1c2.2,6,3.2,12.4,3.1,18.7
						c0,0.3,0.2,0.5,0.5,0.5c0.3,0,0.5-0.2,0.5-0.5C78.6,220.2,74.6,209.1,68.9,199.2"/>
					<path id="Trazado_118281" class="st3" d="M166.3,190.5c-3.8,4.1-3.5,11.5-8.5,14.2c-2.6,1.4-5.7,0.9-8.5,1.8
						c-3,1.1-5.2,3.8-6.5,6.8c-1.1,3-1.7,6.2-1.8,9.4c-0.5,5.2-0.9,10.9,1.6,15.5c0.9-3.3,3.4-6,6.7-7c4.5-1.3,9.1,0.7,13.6,1.9
						s10.1,1.6,13-2c1.5-1.8,2-4.3,2.6-6.6s1.8-4.7,3.9-5.7c1.6-0.6,3.2-0.7,4.9-0.4c2.5,0.3,5,0.3,7.5-0.1c2.5-0.4,4.8-1.7,6.3-3.7
						c2.5-3.7,1.2-9.1,3.3-13c1.6-3,5-4.7,8.3-5.7s6.8-1.6,9.7-3.4c6.2-3.8,8.1-13,4.2-19.2s-12.7-8.6-19.3-5.5
						c-5.8,2.7-9.3,8.6-13.4,13.6c-1.3,1.9-3.1,3.4-5,4.5c-3.4,1.7-7.4,1.1-11.3,1C173.7,186.6,169.1,187.4,166.3,190.5"/>
					<path id="Trazado_118282" class="st4" d="M215.7,176c0.6-0.1,1.1-0.2,1.7-0.3c0.1,0,0.2-0.1,0.2-0.1c3.5-0.3,7-0.3,10.4,0.1
						c0.6,0.1,0.4,1-0.2,1c-3.1-0.4-6.3-0.4-9.5-0.2c-0.1,0-0.1,0.1-0.2,0.1c-3.4,0.3-6.7,1.5-9.4,3.7c-2.8,2.3-4.4,5.4-5.9,8.6
						c-1.4,3.1-3,6.2-5.8,8.3c-2.8,2-6.2,2.1-9.5,2.2c-3.4,0-6.8,0.2-9.7,2.3c-2.8,2-4.1,4.9-5.2,8c-1,2.7-2,5.6-4.4,7.5
						c-2.8,2.3-6.7,2.5-10.2,2.4c-3.9-0.1-8.1-0.3-11,2.8c-2.5,2.6-3.5,6.3-4,9.7c-0.1,0.6-1.1,0.4-1-0.2c0.3-3.2,1.4-6.2,3.1-8.9
						c1.9-2.7,4.9-4.3,8.2-4.4c3.8-0.3,7.6,0.5,11.3-0.7c1.7-0.5,3.2-1.5,4.2-2.9c0.9-1.2,1.6-2.6,2.1-4.1c1.1-2.9,2-5.9,4.1-8.3
						c2.3-2.5,5.6-4,9-4.1c3.3-0.2,6.9,0.3,10.1-0.9c3.4-1.3,5.4-4.6,6.9-7.8c1.6-3.2,2.9-6.6,5.6-9.1
						C209.4,178.3,212.4,176.7,215.7,176"/>
					<path id="Trazado_118283" class="st4" d="M153,218.8c7.5,4,14.9,8.2,22.9,11.2c0.6,0.2,0.4,1.2-0.2,1c-8-3-15.5-7.3-23.1-11.3
						c-0.2-0.1-0.3-0.4-0.2-0.7C152.4,218.8,152.7,218.7,153,218.8"/>
					<path id="Trazado_118284" class="st4" d="M157.4,205.4c-1.7,4.5-3,9.1-4,13.8c-0.1,0.6-1.1,0.4-1-0.2c1-4.7,2.3-9.3,4-13.8
						C156.6,204.6,157.6,204.8,157.4,205.4"/>
					<path id="Trazado_118285" class="st4" d="M174.1,205.9c8.8,2.6,17.6,5.4,26.3,8.4c0.6,0.2,0.4,1.2-0.2,1
						c-8.7-3-17.5-5.8-26.3-8.4C173.2,206.7,173.4,205.8,174.1,205.9"/>
					<path id="Trazado_118286" class="st4" d="M177.7,187.3l-3.7,19c-0.1,0.6-1.1,0.4-1-0.2l3.7-19
						C176.9,186.4,177.8,186.7,177.7,187.3"/>
					<path id="Trazado_118287" class="st4" d="M202.2,189.8c6.2,0.7,12.3,1.6,18.4,2.6c0.6,0.1,0.4,1.1-0.2,1
						c-6.1-1.1-12.2-1.9-18.4-2.6C201.3,190.7,201.6,189.8,202.2,189.8"/>
					<path id="Trazado_118288" class="st4" d="M203.3,171.8c-0.8,6-1.1,12.1-1,18.2c0,0.3-0.2,0.5-0.5,0.5s-0.5-0.2-0.5-0.5
						c-0.1-6.2,0.3-12.3,1.1-18.4C202.4,170.9,203.3,171.1,203.3,171.8"/>
					<path id="Trazado_118289" class="st5" d="M180.3,212.9c-14.1,8.2-25.9,19.8-34.3,33.8c9-9.9,22.6-14.9,36-15
						c6.7-0.1,13.4,1,20.1,1.1s13.7-0.6,19.5-4c4.5-2.6,8.3-7.4,7.9-12.6c-0.3-3.9-2.9-7.3-6.2-9.4c-3.4-1.9-7.2-2.9-11.1-3
						C200.9,203.3,189.9,207.3,180.3,212.9"/>
					<path id="Trazado_118290" class="st3" d="M175.1,219.6c5-2.8,10.3-5,15.7-6.7c5.6-1.8,11.4-2.9,17.3-3.1
						c6.7-0.2,13.3,1.4,19.7,3.1c0.6,0.2,0.4,1.1-0.2,1c-5.7-1.5-11.5-3-17.5-3.1c-5.8,0-11.6,0.9-17.2,2.5
						c-10.9,3.1-21.1,8.4-29.9,15.6c-4.9,4-9.4,8.7-13.3,13.7c-0.4,0.5-1.1-0.1-0.8-0.7C156.2,232.8,165,225.1,175.1,219.6"/>
					<path id="Trazado_118291" class="st3" d="M178.6,225c5.3-1.5,10.6-2.7,16-3.5c4.9-0.9,9.9-1.3,14.9-1.3c5.5,0,11,0.9,16.2,2.6
						c0.6,0.2,0.2,1.1-0.4,0.9c-9.2-3.2-19.2-2.9-28.7-1.5c-10.7,1.6-21.6,4.1-31.2,9.1c-5.7,2.8-10.9,6.7-15.2,11.4
						c-0.4,0.5-1.2-0.2-0.8-0.7C157,233.5,167.6,228.2,178.6,225"/>
					<path id="Trazado_118292" class="st6" d="M157.4,187.1c-4.5,15.7-4.9,32.2-1.4,48.1c-0.3-13.3,6-26.4,15.6-35.8
						c4.8-4.7,10.3-8.6,15.3-13.1s9.5-9.9,11.3-16.4c1.4-5,0.9-11-3-14.5c-2.9-2.6-7.2-3.3-11-2.5c-3.8,1-7.3,2.9-10.1,5.5
						C165.6,165.9,160.4,176.4,157.4,187.1"/>
					<path id="Trazado_118293" class="st3" d="M158.3,195.5c1.7-5.5,4-10.7,6.7-15.7c2.8-5.2,6.3-10,10.4-14.3
						c4.7-4.8,10.6-8.2,16.4-11.4c0.6-0.3,1.1,0.5,0.5,0.8c-5.2,2.9-10.4,5.8-14.7,9.9c-4.2,4-7.8,8.7-10.7,13.8
						c-5.8,9.8-9.4,20.7-10.8,31.9c-0.8,6.3-0.8,12.8-0.1,19.1c0.1,0.6-0.9,0.7-1,0C153.7,218.1,154.8,206.5,158.3,195.5"/>
					<path id="Trazado_118294" class="st3" d="M164.5,197c2.8-4.7,5.8-9.3,9.1-13.7c3-4,6.2-7.8,9.8-11.2c4-3.8,8.5-7,13.5-9.3
						c0.6-0.3,0.9,0.7,0.3,1c-8.9,4-15.9,11.2-21.8,18.8c-6.6,8.5-12.7,17.9-16.3,28.1c-2.2,6-3.2,12.4-3.1,18.7
						c0,0.3-0.2,0.5-0.5,0.5c-0.3,0-0.5-0.2-0.5-0.5C154.8,218,158.8,206.9,164.5,197"/>
					<path id="Trazado_118295" class="st3" d="M320.9,193c-3.8,4.1-3.5,11.5-8.5,14.2c-2.6,1.4-5.7,0.9-8.5,1.8
						c-3,1.1-5.2,3.8-6.5,6.8c-1.1,3-1.7,6.2-1.8,9.4c-0.5,5.2-0.9,10.9,1.6,15.5c0.9-3.3,3.4-6,6.7-7c4.5-1.3,9.1,0.7,13.6,1.9
						s10.1,1.6,13-2c1.5-1.8,2-4.3,2.6-6.6s1.8-4.7,3.9-5.7c1.6-0.6,3.2-0.7,4.9-0.4c2.5,0.3,5,0.3,7.5-0.1c2.5-0.4,4.8-1.7,6.3-3.7
						c2.5-3.7,1.2-9.1,3.3-13c1.6-3,5-4.7,8.3-5.7s6.8-1.6,9.7-3.4c6.2-3.8,8.1-13,4.2-19.2s-12.7-8.6-19.3-5.5
						c-5.8,2.7-9.3,8.6-13.4,13.6c-1.3,1.9-3.1,3.4-5,4.5c-3.4,1.7-7.4,1.1-11.3,1C328.3,189.1,323.7,189.9,320.9,193"/>
					<path id="Trazado_118296" class="st4" d="M370.3,178.5c0.6-0.1,1.1-0.2,1.7-0.3c0.1,0,0.2-0.1,0.2-0.1c3.5-0.3,7-0.3,10.4,0.1
						c0.6,0.1,0.4,1-0.2,1c-3.1-0.4-6.3-0.4-9.5-0.2c-0.1,0-0.1,0.1-0.2,0.1c-3.4,0.3-6.7,1.5-9.4,3.7c-2.8,2.3-4.4,5.4-5.9,8.6
						c-1.4,3.1-3,6.2-5.8,8.3c-2.8,2-6.2,2.1-9.5,2.2c-3.4,0-6.8,0.2-9.7,2.3c-2.8,2-4.1,4.9-5.2,8c-1,2.7-2,5.6-4.4,7.5
						c-2.8,2.3-6.7,2.5-10.2,2.4c-3.9-0.1-8.1-0.3-11,2.8c-2.5,2.6-3.5,6.3-4,9.7c-0.1,0.6-1.1,0.4-1-0.2c0.3-3.2,1.4-6.2,3.1-8.9
						c1.9-2.7,4.9-4.3,8.2-4.4c3.8-0.3,7.6,0.5,11.3-0.7c1.7-0.5,3.2-1.5,4.2-2.9c0.9-1.2,1.6-2.6,2.1-4.1c1.1-2.9,2-5.9,4.1-8.3
						c2.3-2.5,5.6-4,9-4.1c3.3-0.2,6.9,0.3,10.1-0.9c3.4-1.3,5.4-4.6,6.9-7.8c1.6-3.2,2.9-6.6,5.6-9.1
						C364,180.8,367,179.2,370.3,178.5"/>
					<path id="Trazado_118297" class="st4" d="M307.6,221.3c7.5,4,14.9,8.2,22.9,11.2c0.6,0.2,0.4,1.2-0.2,1
						c-8-3-15.5-7.3-23.1-11.3c-0.2-0.1-0.3-0.4-0.2-0.7C307,221.3,307.3,221.2,307.6,221.3"/>
					<path id="Trazado_118298" class="st4" d="M312,207.9c-1.7,4.5-3,9.1-4,13.8c-0.1,0.3-0.3,0.4-0.6,0.4c-0.3-0.1-0.4-0.3-0.4-0.6
						c1-4.7,2.3-9.3,4-13.8C311.2,207.1,312.2,207.3,312,207.9"/>
					<path id="Trazado_118299" class="st4" d="M328.7,208.5c8.8,2.6,17.6,5.4,26.3,8.4c0.6,0.2,0.4,1.2-0.2,1
						c-8.7-3-17.5-5.8-26.3-8.4C327.8,209.2,328,208.3,328.7,208.5"/>
					<path id="Trazado_118300" class="st4" d="M332.3,189.8l-3.7,19c-0.1,0.6-1.1,0.4-1-0.2l3.7-19
						C331.5,188.9,332.4,189.2,332.3,189.8"/>
					<path id="Trazado_118301" class="st4" d="M356.8,192.3c6.2,0.7,12.3,1.6,18.4,2.6c0.6,0.1,0.4,1.1-0.2,1
						c-6.1-1.1-12.2-1.9-18.4-2.6C355.9,193.2,356.2,192.3,356.8,192.3"/>
					<path id="Trazado_118302" class="st4" d="M357.8,174.3c-0.8,6-1.1,12.1-1,18.2c0,0.3-0.2,0.5-0.5,0.5c-0.3,0-0.5-0.2-0.5-0.5
						c-0.1-6.2,0.3-12.3,1.1-18.4C357,173.4,357.9,173.7,357.8,174.3"/>
					<path id="Trazado_118303" class="st5" d="M334.9,215.4c-14.1,8.2-25.9,19.8-34.3,33.8c9-9.9,22.6-14.9,36-15
						c6.7-0.1,13.4,1,20.1,1.1s13.7-0.6,19.5-4c4.5-2.6,8.3-7.4,7.9-12.6c-0.3-3.9-2.9-7.3-6.2-9.4c-3.4-1.9-7.2-2.9-11.1-3
						C355.5,205.8,344.5,209.8,334.9,215.4"/>
					<path id="Trazado_118304" class="st3" d="M329.7,222.1c5-2.8,10.3-5,15.7-6.7c5.6-1.8,11.4-2.9,17.3-3.1
						c6.7-0.2,13.3,1.4,19.7,3.1c0.6,0.2,0.4,1.1-0.2,1c-5.7-1.5-11.5-3-17.5-3.1c-5.8,0-11.6,0.9-17.2,2.5
						c-10.9,3.1-21.1,8.4-29.9,15.6c-4.9,4-9.4,8.7-13.3,13.7c-0.4,0.5-1.1-0.1-0.8-0.7C310.8,235.3,319.6,227.7,329.7,222.1"/>
					<path id="Trazado_118305" class="st3" d="M333.2,227.5c5.3-1.5,10.6-2.7,16-3.5c4.9-0.9,9.9-1.3,14.9-1.3
						c5.5,0,11,0.9,16.2,2.6c0.6,0.2,0.2,1.1-0.4,0.9c-9.2-3.2-19.2-2.9-28.7-1.5c-10.7,1.6-21.5,4.1-31.2,9.1
						c-5.7,2.8-10.9,6.7-15.2,11.4c-0.4,0.5-1.2-0.2-0.8-0.7C311.6,236,322.2,230.7,333.2,227.5"/>
					<path id="Trazado_118306" class="st6" d="M312,189.6c-4.5,15.7-4.9,32.2-1.4,48.1c-0.3-13.3,6-26.4,15.6-35.8
						c4.8-4.7,10.3-8.6,15.3-13.1s9.5-9.9,11.3-16.4c1.4-5,0.9-11-3-14.5c-2.9-2.6-7.2-3.3-11-2.5c-3.8,1-7.3,2.9-10.1,5.5
						C320.2,168.4,315,178.9,312,189.6"/>
					<path id="Trazado_118307" class="st3" d="M312.9,198c1.7-5.5,4-10.7,6.7-15.7c2.8-5.2,6.3-10,10.4-14.3
						c4.7-4.8,10.6-8.2,16.4-11.4c0.6-0.3,1.1,0.5,0.5,0.8c-5.2,2.9-10.4,5.8-14.7,9.9c-4.2,4-7.8,8.7-10.7,13.8
						c-5.8,9.8-9.4,20.7-10.8,31.9c-0.8,6.3-0.8,12.8-0.1,19.1c0.1,0.6-0.9,0.7-1,0C308.3,220.7,309.4,209,312.9,198"/>
					<path id="Trazado_118308" class="st3" d="M319.1,199.6c2.8-4.7,5.8-9.3,9.1-13.7c3-4,6.2-7.8,9.8-11.2c4-3.8,8.5-7,13.5-9.3
						c0.6-0.3,0.9,0.7,0.3,1c-8.9,4-15.9,11.2-21.8,18.8c-6.6,8.5-12.7,17.9-16.3,28.1c-2.2,6-3.2,12.4-3.1,18.7
						c0,0.3-0.2,0.5-0.5,0.5c-0.3,0-0.5-0.2-0.5-0.5C309.4,220.5,313.4,209.4,319.1,199.6"/>
				</g>
			</g>
		</g>
		<path id="Trazado_118309" class="st7" d="M202.3,182l-2.4,26.3l0,0"/>
		<g id="Grupo_85509">
			<g>
				<defs>
					<rect id="SVGID_00000005255559704686868370000005805296736765324935_" x="-0.5" y="28.5" width="403" height="286.9"/>
				</defs>
				<clipPath id="SVGID_00000083785173494347574450000015066975307179104646_">
					<use xlink:href="#SVGID_00000005255559704686868370000005805296736765324935_"  style="overflow:visible;"/>
				</clipPath>
				<g id="Grupo_85508" style="clip-path:url(#SVGID_00000083785173494347574450000015066975307179104646_);">
					<path id="Trazado_118310" class="st9" d="M336.3,300.9H216.9l5.5-37l5.1-65.8c12.7-8.7,10.5-29.1,10.5-29.1l-2.4-52.9
						c2.4-0.4,5.1-1,7.9-1.4L255,169h47.9l11.4-54.4c2.8,0.5,5.5,1,7.9,1.4l-2.2,53c-3.4,21.8,6.3,35.5,6.3,35.5l2.4,59.4
						L336.3,300.9z"/>
					<path id="Trazado_118311" class="st9" d="M322.1,116.1c-2.4-0.4-5.1-0.9-7.9-1.4l0.3-1.4l7.7,1.4L322.1,116.1z"/>
					<path id="Trazado_118312" class="st10" d="M300.2,112.3c0,0,6.9,1.2,14,2.4L302.8,169H255l-11.6-54.3
						c7.1-1.3,14.2-2.4,14.2-2.4l-0.7,2.8c0,0,6.2,15.5,22.8,15.5s21.5-15.6,21.5-15.6l-1.1-2.6L300.2,112.3z"/>
					<path id="Trazado_118313" class="st10" d="M319.9,169.1l2.2-53c2.2,0.4,4.5,0.8,6.7,1.4c1.8,0.8,0,4.5,0,4.5s10.3-0.2,16.1,8.5
						s15.5,50.8,15.5,50.8l-4.9,0.8l-9.6,1.5l-0.2,0l0.5-4.9h2.3c2.6,0,4.8-2.1,4.8-4.8c0-2.6-2.1-4.8-4.8-4.8H319.9z"/>
					<path id="Trazado_118314" class="st9" d="M243.4,114.7c-2.8,0.5-5.5,1-7.9,1.4l-0.1-1.4l7.7-1.4L243.4,114.7z"/>
					<path id="Trazado_118315" class="st10" d="M235.5,116.1l2.4,52.9h-28.3c-2.6,0-4.8,2.1-4.8,4.8s2.1,4.8,4.8,4.8h2l0.5,4.9
						l-0.2,0l-9.6-1.5l-4.9-0.8c0,0,9.7-42,15.5-50.8S229,122,229,122s-1.8-3.7,0-4.5C231.2,117,233.3,116.5,235.5,116.1"/>
					<path id="Trazado_118316" class="st11" d="M357.9,208.3l5.9,0.5c0,0-0.8,23-4,31.1c-2.8,7.2-9.1,11.5-18.9,10
						c-1.3-0.2-2.6-0.5-3.8-0.8c-12-3.4-11.3-6.1-10.4-9.3l0,0c-1.8-0.3-3.5-0.9-5-1.8c-2.1-1.3-2.8-4.1-1.5-6.3
						c0.2-0.3,0.3-0.5,0.6-0.7c-0.5-0.1-0.9-0.3-1.2-0.6c-1.5-1.9-1.2-5.8,2.7-6.2c0.8-0.1,1.6-0.1,2.4,0l0-0.4
						c-3.2-0.6-4.9-4.1,0-5.4s23.2,0,23.2,0l-2.1-3.3c0,0-8.6,0.1-8.5-3.2s5.9-5,10-4.6h0L357.9,208.3z"/>
					<path id="Trazado_118317" class="st12" d="M357.9,208.3l-10.6-1h0l-4.1-0.4l2.5-23.4l0.2,0l9.6-1.5L357.9,208.3z"/>
					<path id="Trazado_118318" class="st13" d="M348.5,169c2.6,0,4.8,2.1,4.8,4.8c0,1.3-0.5,2.5-1.4,3.4c-0.9,0.9-2.1,1.4-3.4,1.4
						H209.6c-2.6,0-4.8-2.1-4.8-4.8s2.1-4.8,4.8-4.8H348.5z"/>
					<path id="Trazado_118319" class="st14" d="M345.8,215.1l2.1,3.3c0,0-18.3-1.3-23.2,0s-3.2,4.8,0,5.4l0,0.4c-0.8,0-1.6,0-2.4,0
						c-3.9,0.4-4.2,4.3-2.7,6.2c0.3,0.3,0.8,0.5,1.2,0.6c-1.7,1.8-1.6,4.7,0.2,6.4c0.2,0.2,0.5,0.4,0.7,0.6c1.5,0.9,3.2,1.5,5,1.8
						l0,0c-0.9,3.2-1.6,5.9,10.4,9.3c1.3,0.4,2.5,0.6,3.8,0.8l-1.8,14H218.7l-1.8-14c1.3-0.2,2.6-0.5,3.8-0.8
						c12-3.4,11.3-6.1,10.4-9.3l0,0c1.8-0.3,3.5-0.9,5-1.8c2.1-1.3,2.8-4.1,1.5-6.3c-0.2-0.3-0.3-0.5-0.6-0.7
						c0.4-0.1,0.9-0.3,1.2-0.6c1.5-1.9,1.2-5.8-2.7-6.2c-0.8-0.1-1.6-0.1-2.4,0l0-0.4c3.2-0.6,4.9-4.1,0-5.4s-23.2,0-23.2,0l2.1-3.3
						c0,0,8.6,0.1,8.6-3.2s-5.9-5-10-4.6l4.1-0.4l-2.5-23.4l-0.5-4.9h134.5l-0.5,4.9l-2.5,23.4l4.1,0.4c-4.2-0.4-10,1.3-10,4.6
						S345.8,215.1,345.8,215.1"/>
					<path id="Trazado_118320" class="st9" d="M254.5,62.3c-2.7,0.7-4.8,1.3-6,1.7c-0.7,0.2-1.1,0.4-1.1,0.4
						c0.4-0.7,0.8-1.4,1.4-2.1c3-3.7,6.9-6.5,11.4-8.1c5.3-2,11-3,16.7-2.9c5.6-0.1,11.2,0.8,16.4,2.9c4.2,1.6,7.8,4.4,10.5,8
						c0.5,0.7,0.9,1.4,1.2,2.2c-0.4-0.2-0.9-0.4-1.3-0.7c-1.9-0.9-3.8-1.7-5.8-2.3C282.1,56.6,264.2,59.8,254.5,62.3"/>
					<path id="Trazado_118321" class="st11" d="M301,40.2c4.7,7.1,2.6,22,2.6,22l0,0c-2.6-3.6-6.3-6.4-10.5-8
						c4.5-16.5-8.4-24.1-8.4-24.1C291.3,31.8,297.8,35.3,301,40.2"/>
					<path id="Trazado_118322" d="M303.6,63.7v3.1c-1.8,0.8-2.9,3.3-2.9,3.3l-2.9-8.7C299.7,62.1,301.7,62.8,303.6,63.7"/>
					<path id="Trazado_118323" class="st12" d="M294.1,98.9L294.1,98.9l5.9,13.4l1.1,2.6c0,0-4.8,15.6-21.5,15.6
						S256.9,115,256.9,115S281.6,126.1,294.1,98.9c-3.6,5.1-9.1,9.4-17.4,9.4c-6.3,0-12.3-2.8-16.2-7.8v0
						c-6.1-7.3-7.7-17.2-7.7-17.2c-5.9-0.8-10.3-11.9-6.5-15.6c0.6-0.6,1.3-1,2.1-1.1c2.7-0.4,4.4,3.5,4.4,3.5l1.6-7.8
						c9.7-2.5,27.7-5.7,43.2-0.8l2.9,8.7c0,0,1.1-2.5,2.9-3.3c1-0.4,2.2-0.3,3.5,0.9c3.8,3.6-0.6,14.8-6.5,15.6
						C299.6,88.9,297.3,94.2,294.1,98.9"/>
					<path id="Trazado_118324" class="st15" d="M291.6,76.2c3,0,5.5,2.4,5.5,5.5s-2.4,5.5-5.5,5.5c-3,0-5.5-2.4-5.5-5.5c0,0,0,0,0,0
						C286.1,78.6,288.6,76.2,291.6,76.2"/>
					<path id="Trazado_118325" class="st10" d="M284.8,30.1c0,0,12.9,7.6,8.4,24.1c-5.2-2-10.8-3-16.4-2.9
						c-5.7-0.1-11.4,0.9-16.7,2.9c0,0-6.2-15.2,8.2-24.3c0,0,0,0,0,0C273.7,28.6,279.4,28.6,284.8,30.1"/>
					<path id="Trazado_118326" class="st4" d="M285.2,91.1c0,0,2.9,6.1-4.3,9c-6.2,2.5-9-4.3-9-4.3L285.2,91.1z"/>
					<path id="Trazado_118327" class="st15" d="M276.8,71.4l2.2,16l-7.9,1.5C271.1,83.7,276.8,71.4,276.8,71.4"/>
					<path id="Trazado_118328" class="st15" d="M276.8,108.3c8.2,0,13.7-4.3,17.4-9.3c-12.5,27.2-37.3,16.1-37.3,16.1l0.7-2.8
						l3-11.8C264.5,105.4,270.5,108.3,276.8,108.3"/>
					<path id="Trazado_118329" class="st15" d="M261.5,77.6c3,0,5.5,2.4,5.5,5.5c0,3-2.4,5.5-5.5,5.5c-3,0-5.5-2.4-5.5-5.5
						C256.1,80.1,258.5,77.6,261.5,77.6"/>
					<path id="Trazado_118330" class="st11" d="M251.2,40.2c3.4-5.1,10.3-8.6,17.1-10.2c-14.4,9.1-8.2,24.3-8.2,24.3
						c-4.4,1.6-8.4,4.4-11.4,8.1l-0.2-0.2C248.5,62.2,246.4,47.2,251.2,40.2"/>
					<path id="Trazado_118331" d="M254.5,62.3l-1.6,7.8c0,0-1.7-3.9-4.4-3.5V64C249.7,63.6,251.8,63,254.5,62.3"/>
					<path id="Trazado_118332" class="st11" d="M237,231c1.7,1.8,1.6,4.7-0.2,6.4c-0.2,0.2-0.5,0.4-0.7,0.6c-1.5,0.9-3.2,1.5-5,1.8
						l0,0c0.9,3.2,1.6,5.9-10.4,9.3c-1.3,0.4-2.5,0.6-3.8,0.8c-9.8,1.5-16.1-2.8-18.9-10c-3.2-8.1-4-31.1-4-31.1l5.9-0.5l10.6-1h0
						c4.2-0.4,10,1.3,10,4.6s-8.6,3.2-8.6,3.2l-2.1,3.3c0,0,18.3-1.3,23.2,0c4.9,1.3,3.2,4.8,0,5.4l0,0.4c0.8,0,1.6,0,2.4,0
						c3.9,0.4,4.2,4.3,2.7,6.2C237.9,230.6,237.5,230.9,237,231"/>
					<path id="Trazado_118333" class="st12" d="M212.2,183.5l2.5,23.4l-4.1,0.4h0l-10.6,1l2.4-26.3l9.6,1.5L212.2,183.5z"/>
					<path id="Trazado_118334" class="st7" d="M294.1,98.9c3.2-4.7,5.4-10,6.5-15.6c5.9-0.8,10.3-11.9,6.5-15.6
						c-1.3-1.3-2.5-1.4-3.5-0.9c-1.8,0.8-2.9,3.3-2.9,3.3l-2.9-8.7"/>
					<path id="Trazado_118335" class="st7" d="M260.6,100.5c3.9,5,9.9,7.8,16.2,7.8c8.2,0,13.7-4.3,17.4-9.3"/>
					<path id="Trazado_118336" class="st7" d="M254.5,62.3L254.5,62.3l-1.6,7.8c0,0-1.7-3.9-4.4-3.5c-0.8,0.2-1.5,0.6-2.1,1.1
						c-3.8,3.6,0.6,14.8,6.5,15.6c0,0,1.6,9.8,7.7,17.2"/>
					<path id="Trazado_118337" class="st7" d="M304.9,64.4C304.9,64.4,304.9,64.4,304.9,64.4c-0.3-0.8-0.8-1.5-1.2-2.2
						c-2.6-3.6-6.3-6.4-10.5-8c-5.2-2-10.8-3-16.4-2.9c-5.7-0.1-11.4,0.9-16.7,2.9c-4.4,1.6-8.4,4.4-11.4,8.1
						c-0.5,0.6-1,1.3-1.4,2.1"/>
					<path id="Trazado_118338" class="st7" d="M247.4,64.4L247.4,64.4c0.1,0,0.5-0.2,1.2-0.4c1.2-0.4,3.3-1,6-1.7
						c9.7-2.5,27.7-5.7,43.2-0.8c2,0.6,3.9,1.4,5.8,2.3c0.4,0.2,0.9,0.4,1.3,0.7"/>
					<line id="Línea_296" class="st7" x1="303.6" y1="63.7" x2="303.6" y2="66.8"/>
					<line id="Línea_297" class="st7" x1="248.5" y1="64" x2="248.5" y2="66.6"/>
					<path id="Trazado_118339" class="st7" d="M268.3,29.9c5.4-1.3,11.1-1.3,16.5,0.2c6.5,1.7,13,5.2,16.2,10c4.7,7.1,2.6,22,2.6,22
						"/>
					<path id="Trazado_118340" class="st7" d="M248.5,62.2c0,0-2.1-14.9,2.7-22c3.4-5.1,10.3-8.6,17.1-10.2"/>
					<path id="Trazado_118341" class="st7" d="M268.2,29.9C268.2,29.9,268.3,29.9,268.2,29.9"/>
					<path id="Trazado_118342" class="st7" d="M235.5,116.1c-2.2,0.4-4.3,0.8-6.4,1.4c-1.8,0.8,0,4.5,0,4.5s-10.3-0.2-16.1,8.5
						s-15.5,50.8-15.5,50.8l4.9,0.8l9.6,1.5"/>
					<path id="Trazado_118343" class="st7" d="M257.6,112.3c0,0-7.1,1.2-14.2,2.4"/>
					<path id="Trazado_118344" class="st7" d="M214.7,242c5.5-0.4,11-1.1,16.4-2.2c1.8-0.3,3.5-0.9,5-1.8c2.1-1.3,2.8-4.1,1.5-6.3
						c-0.2-0.3-0.3-0.5-0.6-0.7c0,0,0,0-0.1,0"/>
					<path id="Trazado_118345" class="st7" d="M212.8,235.1c0,0,19.1-2.3,24.3-4.1c0.4-0.1,0.9-0.3,1.2-0.6c1.5-1.9,1.2-5.8-2.7-6.2
						c-0.8-0.1-1.6-0.1-2.4,0c-5.9,0.2-17.8,1.9-17.8,1.9"/>
					<path id="Trazado_118346" class="st7" d="M210.6,207.3c4.2-0.4,10,1.3,10,4.6s-8.6,3.2-8.6,3.2l-2.1,3.3c0,0,18.3-1.3,23.2,0
						c4.9,1.3,3.2,4.8,0,5.4"/>
					<path id="Trazado_118347" class="st7" d="M199.2,217.4c0,0,7.1-9.7,11.3-10.1"/>
					<path id="Trazado_118348" class="st7" d="M211.6,178.6l0.5,4.9l2.5,23.4l-4.1,0.4h0l-10.6,1l-5.9,0.5c0,0,0.8,23,4,31.1
						c2.8,7.2,9.1,11.5,18.9,10c1.3-0.2,2.6-0.5,3.8-0.8c12-3.4,11.3-6.1,10.4-9.3"/>
					<path id="Trazado_118349" class="st7" d="M216.9,249.9l1.8,14h60.1"/>
					<path id="Trazado_118350" class="st7" d="M322.1,116.1c2.2,0.4,4.5,0.8,6.7,1.4c1.8,0.8,0,4.5,0,4.5s10.3-0.2,16.1,8.5
						s15.5,50.8,15.5,50.8l-4.9,0.8l-9.6,1.5"/>
					<path id="Trazado_118351" class="st7" d="M300.2,112.3c0,0,6.9,1.2,14,2.4"/>
					<path id="Trazado_118352" class="st7" d="M355.5,182l2.4,26.3l0,0"/>
					<path id="Trazado_118353" class="st7" d="M343.1,242c-5.5-0.4-11-1.1-16.4-2.2c-1.8-0.3-3.5-0.9-5-1.8
						c-2.1-1.3-2.8-4.1-1.5-6.3c0.2-0.3,0.3-0.5,0.6-0.7c0,0,0,0,0.1,0"/>
					<path id="Trazado_118354" class="st7" d="M345,235.1c0,0-19.1-2.3-24.3-4.1c-0.5-0.1-0.9-0.3-1.2-0.6c-1.5-1.9-1.2-5.8,2.7-6.2
						c0.8-0.1,1.6-0.1,2.4,0c5.9,0.2,17.8,1.9,17.8,1.9"/>
					<path id="Trazado_118355" class="st7" d="M347.3,207.3c-4.2-0.4-10,1.3-10,4.6s8.5,3.2,8.5,3.2l2.1,3.3c0,0-18.3-1.3-23.2,0
						s-3.2,4.8,0,5.4"/>
					<path id="Trazado_118356" class="st7" d="M358.6,217.4c0,0-7.2-9.7-11.3-10.1"/>
					<path id="Trazado_118357" class="st7" d="M346.2,178.6l-0.5,4.9l-2.5,23.4l4.1,0.4h0l10.6,1l5.9,0.5c0,0-0.8,23-4,31.1
						c-2.8,7.2-9.1,11.5-18.9,10c-1.3-0.2-2.6-0.5-3.8-0.8c-12-3.4-11.3-6.1-10.4-9.3"/>
					<path id="Trazado_118358" class="st7" d="M340.9,249.9l-1.8,14h-60.4"/>
					<path id="Trazado_118359" class="st16" d="M294.1,98.9l5.9,13.4l1.1,2.6c0,0-4.8,15.6-21.5,15.6S256.9,115,256.9,115l0.7-2.8
						l3-11.8v0"/>
					<path id="Trazado_118360" class="st11" d="M244.2,162.9l-2.4-3.1c-0.2-0.2-0.4-0.4-0.7-0.4c-0.3-0.1-0.6,0-0.8,0.2
						c-0.5,0.4-0.6,1-0.3,1.5l2.4,3.1c0.2,0.2,0.4,0.4,0.7,0.4c0.6,0.1,1.2-0.3,1.3-0.9C244.5,163.4,244.4,163.1,244.2,162.9"/>
					<path id="Trazado_118361" class="st11" d="M247.9,155.3c-0.6,0.1-1,0.6-1,1.2v4c0.1,0.6,0.6,1.1,1.2,1c0.6-0.1,1-0.6,1-1.2v-4
						C249,155.7,248.5,155.3,247.9,155.3"/>
					<path id="Trazado_118362" class="st11" d="M244,152.7c-0.9-1.1-1.8-2.2-2.7-3.4c-0.2-0.2-0.4-0.4-0.7-0.4
						c-0.6-0.1-1.2,0.3-1.3,0.9c-0.1,0.3,0,0.6,0.2,0.8l2.7,3.4c0.2,0.2,0.4,0.4,0.7,0.4c0.3,0.1,0.6,0,0.8-0.2
						C244.2,153.9,244.3,153.2,244,152.7"/>
					<path id="Trazado_118363" class="st11" d="M249,145.4c-0.2-0.6-0.8-0.9-1.4-0.6l-4,1.8c-0.6,0.2-0.8,0.9-0.6,1.4
						c0.2,0.5,0.8,0.8,1.3,0.6l4-1.8C248.9,146.5,249.2,145.9,249,145.4"/>
					<path id="Trazado_118364" class="st11" d="M244.7,136.8c-0.1-0.3-0.3-0.5-0.6-0.6c-0.5-0.3-1.2,0-1.5,0.5l-1.5,4.6
						c-0.1,0.3-0.1,0.6,0,0.9c0.1,0.3,0.3,0.5,0.6,0.6c0.5,0.3,1.2,0,1.5-0.5l1.5-4.6C244.8,137.4,244.8,137.1,244.7,136.8"/>
					<path id="Trazado_118365" class="st11" d="M242.3,131.5l-4-2.7c-0.2-0.2-0.5-0.3-0.8-0.3c-0.6,0.1-1.1,0.6-1,1.2
						c0,0.3,0.2,0.6,0.4,0.7l4,2.7c0.2,0.2,0.5,0.3,0.8,0.3c0.6-0.1,1.1-0.6,1-1.2C242.6,131.9,242.5,131.6,242.3,131.5"/>
					<path id="Trazado_118366" class="st11" d="M242.2,121c-0.4-0.5-1-0.6-1.5-0.3c-0.2,0.2-0.4,0.4-0.4,0.7l-0.9,3.1
						c-0.1,0.3,0,0.6,0.2,0.8c0.2,0.2,0.4,0.4,0.7,0.4c0.3,0.1,0.6,0,0.8-0.2c0.2-0.2,0.4-0.4,0.4-0.7l0.9-3.1
						C242.4,121.5,242.3,121.2,242.2,121"/>
					<path id="Trazado_118367" class="st11" d="M311,161.7c-0.5-0.4-1.2-0.3-1.5,0.1l-2.7,3.1c-0.4,0.5-0.3,1.2,0.1,1.5
						c0.5,0.4,1.2,0.3,1.5-0.1l2.8-3.1C311.5,162.8,311.5,162.1,311,161.7"/>
					<path id="Trazado_118368" class="st11" d="M313.9,156.7l-2.7-4c-0.4-0.5-1.1-0.6-1.5-0.2c-0.5,0.3-0.6,1-0.3,1.5l2.7,4
						c0.4,0.5,1.1,0.6,1.5,0.2C314.1,157.8,314.2,157.2,313.9,156.7"/>
					<path id="Trazado_118369" class="st11" d="M318.3,161.1c-0.2-0.2-0.5-0.3-0.8-0.3c-0.3,0-0.5,0.2-0.7,0.4l-4,3.7
						c-0.2,0.2-0.3,0.5-0.3,0.8c0.1,0.6,0.6,1.1,1.2,1c0.3,0,0.5-0.2,0.7-0.4l4-3.7c0.2-0.2,0.3-0.5,0.3-0.8
						C318.7,161.5,318.5,161.3,318.3,161.1"/>
					<path id="Trazado_118370" class="st11" d="M317.9,150.9l-2.5-4.3c-0.4-0.5-1-0.6-1.5-0.3c-0.5,0.4-0.6,1-0.3,1.5l2.5,4.3
						c0.4,0.5,1,0.6,1.5,0.3C318.1,152.1,318.2,151.4,317.9,150.9"/>
					<path id="Trazado_118371" class="st11" d="M314.3,141.5c-0.4-0.5-1-0.6-1.5-0.3l-3.7,2.5c-0.5,0.4-0.6,1-0.3,1.5
						c0.4,0.5,1,0.6,1.5,0.3l3.7-2.5C314.5,142.7,314.6,142,314.3,141.5"/>
					<path id="Trazado_118372" class="st11" d="M320.2,138.6l-1.2-4.3c-0.2-0.6-0.8-0.9-1.4-0.6c-0.6,0.2-0.8,0.8-0.6,1.4l1.2,4.3
						c0.2,0.6,0.8,0.9,1.4,0.6C320.1,139.8,320.4,139.2,320.2,138.6"/>
					<path id="Trazado_118373" class="st11" d="M316.8,128.7c-0.2-0.2-0.5-0.3-0.8-0.3c-0.3,0-0.6,0.2-0.7,0.4l-3.4,3.4
						c-0.2,0.2-0.3,0.5-0.3,0.8c0.1,0.6,0.6,1.1,1.2,1c0.3,0,0.6-0.2,0.7-0.4l3.4-3.4C317.3,129.8,317.3,129.1,316.8,128.7"/>
					<path id="Trazado_118374" class="st11" d="M320.2,124.9l-0.9-3.4c-0.1-0.3-0.3-0.5-0.6-0.6c-0.5-0.3-1.2,0-1.5,0.5
						c-0.1,0.3-0.1,0.6,0,0.9l0.9,3.4c0.1,0.3,0.3,0.5,0.6,0.6c0.5,0.3,1.2,0,1.5-0.5C320.3,125.5,320.3,125.2,320.2,124.9"/>
					<path id="Trazado_118375" class="st11" d="M230.7,271.8c0-0.3-0.2-0.5-0.4-0.7c-1.2-1.3-2.4-2.6-3.7-4
						c-0.2-0.2-0.5-0.3-0.8-0.3c-0.6,0.1-1.1,0.6-1,1.2c0,0.3,0.2,0.5,0.4,0.7l3.7,4c0.2,0.2,0.5,0.3,0.8,0.3c0.3,0,0.6-0.2,0.7-0.4
						C230.7,272.4,230.8,272.1,230.7,271.8"/>
					<path id="Trazado_118376" class="st11" d="M239.7,267.5c-0.1-0.6-0.6-1-1.2-0.9c-0.6,0.1-1,0.6-0.9,1.1l0.3,3.4
						c0.1,0.6,0.6,1,1.2,1c0.6-0.1,1-0.6,1-1.1L239.7,267.5"/>
					<path id="Trazado_118377" class="st11" d="M235.2,276.7c-0.1-0.3-0.3-0.5-0.6-0.6c-0.3-0.1-0.6-0.1-0.9,0
						c-0.3,0.1-0.5,0.3-0.6,0.6l-2.4,4c-0.1,0.3-0.1,0.6,0,0.9c0.2,0.6,0.8,0.9,1.4,0.6c0.3-0.1,0.5-0.3,0.6-0.6l2.4-4
						C235.3,277.3,235.3,277,235.2,276.7"/>
					<path id="Trazado_118378" class="st11" d="M226.2,280.9c-0.6,0.1-1,0.6-1,1.2v5.2c0.1,0.6,0.6,1.1,1.2,1c0.6-0.1,1-0.6,1-1.2
						v-5.2C227.3,281.3,226.8,280.8,226.2,280.9"/>
					<path id="Trazado_118379" class="st11" d="M243,285.8c-0.1-0.6-0.6-1-1.2-1l-5.5,0.3c-0.6,0.1-1,0.6-1,1.2c0.1,0.6,0.6,1,1.2,1
						l5.5-0.3C242.6,287,243,286.4,243,285.8"/>
					<path id="Trazado_118380" class="st11" d="M235.7,290.4c-0.6-0.1-1.2,0.3-1.3,0.9l-0.9,3.7c-0.1,0.6,0.3,1.2,0.9,1.3
						c0.6,0.1,1.2-0.3,1.3-0.9l0.9-3.7C236.6,291,236.2,290.5,235.7,290.4"/>
					<path id="Trazado_118381" class="st11" d="M227.7,293.8c-0.4-0.5-1-0.6-1.5-0.3c-0.2,0.2-0.4,0.4-0.4,0.7l-0.3,4
						c0,0.3,0,0.6,0.2,0.8c0.4,0.5,1,0.6,1.5,0.3c0.2-0.2,0.4-0.4,0.4-0.7l0.3-4C228,294.4,227.9,294.1,227.7,293.8"/>
					<path id="Trazado_118382" class="st11" d="M250.3,278.9c-0.1-0.6-0.6-1-1.2-1l-3.7,0c-0.6,0.1-1.1,0.6-1,1.2
						c0.1,0.6,0.6,1,1.2,1l3.7,0C249.9,280,250.3,279.5,250.3,278.9"/>
					<path id="Trazado_118383" class="st11" d="M259.2,272.1c0-0.3-0.2-0.6-0.4-0.7l-3.1-3.1c-0.2-0.2-0.5-0.3-0.8-0.3
						c-0.3,0-0.6,0.2-0.7,0.4c-0.2,0.2-0.3,0.5-0.3,0.8c0,0.3,0.2,0.6,0.4,0.7l3.1,3.1c0.2,0.2,0.5,0.3,0.8,0.3
						c0.3,0,0.6-0.2,0.7-0.4C259.1,272.7,259.2,272.4,259.2,272.1"/>
					<path id="Trazado_118384" class="st11" d="M250.6,266c-0.5-0.2-1.2,0-1.5,0.5l-2.4,4.9c-0.3,0.5,0,1.2,0.5,1.5
						c0.5,0.2,1.2,0,1.5-0.5c0.8-1.6,1.6-3.3,2.4-4.9C251.3,266.9,251.1,266.2,250.6,266"/>
					<path id="Trazado_118385" class="st11" d="M260.7,279l-5.5-1.2c-0.6-0.1-1.2,0.3-1.3,0.9c-0.1,0.6,0.3,1.2,0.9,1.3l5.5,1.2
						c0.6,0.1,1.2-0.3,1.3-0.9C261.7,279.7,261.3,279.2,260.7,279"/>
					<path id="Trazado_118386" class="st11" d="M254.8,284.6c-0.5-0.2-1.2,0-1.5,0.5l-2.4,4.6c-0.3,0.5,0,1.2,0.5,1.5
						c0.5,0.2,1.2,0,1.5-0.5l2.4-4.6C255.6,285.5,255.3,284.9,254.8,284.6"/>
					<path id="Trazado_118387" class="st11" d="M247.8,288.3c-0.5-0.3-1.2,0-1.5,0.5l-1.8,4.9c-0.2,0.6,0,1.2,0.6,1.4
						c0.5,0.2,1.1,0,1.4-0.5l1.8-4.9C248.6,289.2,248.4,288.6,247.8,288.3"/>
					<path id="Trazado_118388" class="st11" d="M254.9,297.1c-0.1-0.6-0.6-1-1.2-1l-5.2,0.3c-0.6,0.1-1,0.6-1,1.2
						c0.1,0.6,0.6,1,1.2,1l5.2-0.3C254.5,298.2,254.9,297.7,254.9,297.1"/>
					<path id="Trazado_118389" class="st11" d="M263.8,286.7c-0.6-0.1-1.2,0.3-1.3,0.9c-0.2,1.2-0.4,2.4-0.6,3.7
						c-0.1,0.6,0.2,1.2,0.8,1.3c0.6,0.1,1.2-0.2,1.3-0.8c0,0,0,0,0-0.1c0.2-1.2,0.4-2.4,0.6-3.7
						C264.8,287.4,264.4,286.8,263.8,286.7"/>
					<path id="Trazado_118390" class="st11" d="M270.7,297.2c0-0.3-0.2-0.6-0.4-0.7l-3.1-2c-0.2-0.2-0.5-0.3-0.8-0.3
						c-0.3,0-0.6,0.2-0.7,0.4c-0.2,0.2-0.3,0.5-0.3,0.8c0,0.3,0.2,0.6,0.4,0.7l3.1,2c0.2,0.2,0.5,0.3,0.8,0.3c0.3,0,0.6-0.2,0.7-0.4
						C270.6,297.8,270.7,297.5,270.7,297.2"/>
					<path id="Trazado_118391" class="st11" d="M282.9,291.7c-0.2-0.6-0.8-0.8-1.4-0.6l-4.3,1.2c-0.6,0.2-0.9,0.8-0.6,1.4
						c0.2,0.6,0.8,0.8,1.4,0.6l4.3-1.2C282.8,292.9,283.1,292.3,282.9,291.7"/>
					<path id="Trazado_118392" class="st11" d="M278.7,284.7c-0.2-0.6-0.8-0.9-1.4-0.6l-3.4,1.5c-0.3,0.1-0.5,0.3-0.6,0.6
						c-0.1,0.3-0.1,0.6,0,0.9c0.2,0.6,0.8,0.9,1.4,0.6l3.4-1.5c0.3-0.1,0.5-0.3,0.6-0.6C278.8,285.3,278.8,285,278.7,284.7"/>
					<path id="Trazado_118393" class="st11" d="M273.8,274.3c-0.5-0.2-1.2,0-1.5,0.5l-2.1,4.3c-0.2,0.6,0,1.2,0.6,1.4
						c0.5,0.2,1.1,0,1.4-0.5l2.1-4.3C274.6,275.2,274.3,274.5,273.8,274.3"/>
					<path id="Trazado_118394" class="st11" d="M269,269.7c-0.1-0.3-0.3-0.5-0.6-0.6c-0.3-0.1-0.6-0.1-0.9,0
						c-0.3,0.1-0.5,0.3-0.6,0.6c-0.4,1.2-0.8,2.4-1.2,3.7c-0.1,0.3-0.1,0.6,0,0.9c0.1,0.3,0.3,0.5,0.6,0.6c0.3,0.1,0.6,0.1,0.9,0
						c0.3-0.1,0.5-0.3,0.6-0.6c0.4-1.2,0.8-2.4,1.2-3.7C269,270.3,269,270,269,269.7"/>
					<path id="Trazado_118395" class="st11" d="M281.4,269.6c-0.1-0.6-0.6-1-1.2-1l-4.9,0.3c-0.6,0.1-1,0.6-1,1.2
						c0.1,0.6,0.6,1,1.2,1l4.9-0.3C281.1,270.7,281.5,270.2,281.4,269.6"/>
					<path id="Trazado_118396" class="st11" d="M289.9,267.8c-0.6-0.1-1.2,0.3-1.3,0.9l-0.4,5.2c-0.1,0.6,0.3,1.2,0.9,1.3
						c0.6,0.1,1.2-0.3,1.3-0.9c0.1-1.7,0.3-3.5,0.4-5.2C290.9,268.5,290.5,267.9,289.9,267.8"/>
					<path id="Trazado_118397" class="st11" d="M302.2,270.9c-0.1-0.3-0.3-0.5-0.6-0.6l-3.4-2.1c-0.3-0.1-0.6-0.1-0.9,0
						c-0.3,0.1-0.5,0.3-0.6,0.6c-0.1,0.3-0.1,0.6,0,0.9c0.1,0.3,0.3,0.5,0.6,0.6l3.4,2.1c0.3,0.1,0.6,0.1,0.9,0
						c0.3-0.1,0.5-0.3,0.6-0.6C302.2,271.5,302.3,271.2,302.2,270.9"/>
					<path id="Trazado_118398" class="st11" d="M311.4,267.2c-0.5-0.3-1.2,0-1.5,0.5l-1.5,4c-0.2,0.6,0,1.2,0.6,1.4
						c0.5,0.2,1.2,0,1.4-0.5c0.5-1.3,1-2.6,1.5-4C312.1,268.1,311.9,267.5,311.4,267.2"/>
					<path id="Trazado_118399" class="st11" d="M323,270l-5.2-1.5c-0.6-0.1-1.2,0.3-1.3,0.9c-0.1,0.6,0.3,1.2,0.9,1.3l5.2,1.5
						c0.6,0.1,1.2-0.3,1.3-0.9C324,270.7,323.6,270.1,323,270"/>
					<path id="Trazado_118400" class="st11" d="M325.8,274c-0.5-0.3-1.2,0-1.5,0.5c-0.6,1.7-1.2,3.5-1.8,5.2c-0.2,0.5,0,1.2,0.5,1.5
						c0.5,0.3,1.2,0,1.5-0.5c0.6-1.7,1.2-3.5,1.8-5.2C326.6,274.9,326.3,274.2,325.8,274"/>
					<path id="Trazado_118401" class="st11" d="M315.9,276.7c-0.5-0.2-1.2,0-1.5,0.5c-0.7,1.5-1.4,3.1-2.1,4.6
						c-0.2,0.6,0,1.2,0.6,1.4c0.5,0.2,1.1,0,1.4-0.5l2.1-4.6C316.7,277.6,316.5,277,315.9,276.7"/>
					<path id="Trazado_118402" class="st11" d="M306.8,284c-0.7-1.5-1.4-3.1-2.1-4.6c-0.2-0.6-0.9-0.8-1.4-0.6
						c-0.5,0.2-0.8,0.8-0.6,1.3c0.7,1.5,1.4,3.1,2.1,4.6c0.2,0.6,0.8,0.9,1.4,0.7C306.7,285.3,307.1,284.6,306.8,284
						C306.9,284,306.8,284,306.8,284"/>
					<path id="Trazado_118403" class="st11" d="M296,280c-0.5-0.2-1.2,0-1.5,0.5l-1.7,3.7c-0.3,0.5-0.1,1.2,0.5,1.5s1.2,0.1,1.5-0.5
						c0,0,0-0.1,0-0.1l1.7-3.7C296.7,280.9,296.5,280.3,296,280"/>
					<path id="Trazado_118404" class="st11" d="M282.8,277.1c-0.4-0.5-1-0.6-1.5-0.3c-0.2,0.2-0.4,0.4-0.4,0.7l-0.9,3.1
						c-0.1,0.3,0,0.6,0.2,0.8c0.2,0.2,0.4,0.4,0.7,0.4c0.3,0.1,0.6,0,0.8-0.2c0.2-0.2,0.4-0.4,0.4-0.7l0.9-3.1
						C283,277.6,283,277.3,282.8,277.1"/>
					<path id="Trazado_118405" class="st11" d="M289.5,289.6c-0.9-1.5-1.8-3.1-2.7-4.6c-0.4-0.5-1-0.6-1.5-0.3
						c-0.5,0.4-0.6,1-0.3,1.5l2.7,4.6c0.4,0.5,1,0.6,1.5,0.3C289.7,290.7,289.8,290.1,289.5,289.6"/>
					<path id="Trazado_118406" class="st11" d="M272.8,292.4l-2.4-4.3c-0.2-0.2-0.4-0.4-0.7-0.4c-0.3-0.1-0.6,0-0.8,0.2
						c-0.2,0.2-0.4,0.4-0.4,0.7c0,0.3,0,0.6,0.2,0.8c0.8,1.4,1.6,2.9,2.4,4.3c0.2,0.2,0.4,0.4,0.7,0.4c0.3,0.1,0.6,0,0.8-0.2
						c0.2-0.2,0.4-0.4,0.4-0.7C273,293,273,292.7,272.8,292.4"/>
					<path id="Trazado_118407" class="st11" d="M294,297.1c-0.1-0.6-0.6-1-1.2-1l-6.7,0.9c-0.6,0-1.1,0.5-1.1,1.1s0.5,1.1,1.1,1.1
						c0,0,0.1,0,0.1,0l6.7-0.9C293.6,298.2,294,297.7,294,297.1"/>
					<path id="Trazado_118408" class="st11" d="M301.4,288.8c-0.6-0.1-1.2,0.3-1.3,0.9c-0.2,1.4-0.4,2.8-0.6,4.3
						c-0.1,0.6,0.3,1.2,0.9,1.3c0.6,0.1,1.1-0.3,1.2-0.9c0.2-1.4,0.4-2.8,0.6-4.3C302.4,289.5,302,289,301.4,288.8"/>
					<path id="Trazado_118409" class="st11" d="M312.9,296.3l-4.9-2.3c-0.6-0.2-1.2,0-1.4,0.6c-0.2,0.5,0,1.1,0.5,1.4l4.9,2.3
						c0.5,0.3,1.2,0.1,1.5-0.5S313.5,296.6,312.9,296.3C312.9,296.3,312.9,296.3,312.9,296.3"/>
					<path id="Trazado_118410" class="st11" d="M319.1,291l-1-4c-0.1-0.3-0.3-0.5-0.6-0.6c-0.5-0.3-1.2,0-1.5,0.5
						c-0.1,0.3-0.1,0.6,0,0.9c0.3,1.3,0.7,2.7,1,4c0.1,0.3,0.3,0.5,0.6,0.6c0.5,0.3,1.2,0,1.5-0.5
						C319.1,291.6,319.2,291.3,319.1,291"/>
					<path id="Trazado_118411" class="st11" d="M327.5,286.8c-0.1-0.6-0.6-1-1.2-1c-0.6,0.1-1,0.6-1,1.2c0.1,1.7,0.2,3.5,0.3,5.2
						c0.1,0.6,0.6,1,1.2,1c0.6-0.1,1-0.6,1-1.2C327.7,290.2,327.6,288.5,327.5,286.8"/>
					<path id="Trazado_118412" class="st11" d="M327.9,296.8l-6.4-0.8c-0.6-0.1-1.2,0.2-1.3,0.8c-0.1,0.6,0.2,1.2,0.8,1.3
						c0,0,0,0,0.1,0l6.4,0.8c0.6,0.1,1.2-0.2,1.3-0.8C328.9,297.5,328.6,296.9,327.9,296.8C327.9,296.8,327.9,296.8,327.9,296.8"/>
					<path id="Trazado_118413" class="st11" d="M272.9,247.7h-13.7c-10.3,0-18.6-8.3-18.6-18.6v-0.2l7.2-13.1l-5-2.9l18.3-2.7
						l6.6,17.5l-5.4-3.1l-3.3,6l14,0.2L272.9,247.7z M242,229.3c0.1,9.4,7.8,16.9,17.1,17h12.3v-14l-15-0.2l5.2-9.4l3.1,1.8
						l-4.7-12.5l-12.9,1.9l2.6,1.5L242,229.3z"/>
					<path id="Trazado_118414" class="st11" d="M270.5,213.9l-14.8-8.2l6.7-12c5-9,16.3-12.2,25.3-7.3c0,0,0,0,0,0l0.2,0.1l0.1,0.2
						l7.8,12.5l5-3l-6.5,17.3l-18.5-2.7l5.3-3.2l-3.6-5.8L270.5,213.9z M257.7,205.1l12.2,6.8l7.5-13l5.7,9.2l-3.1,1.8l13.2,2
						l4.6-12.2l-2.6,1.6l-8.5-13.5c-8.3-4.5-18.6-1.4-23.1,6.8L257.7,205.1z"/>
					<path id="Trazado_118415" class="st11" d="M288.4,254.1l-11.7-14.3l11.6-14.6l0.1,6.2l6.8-0.2l-7.1-12.1l14.5-8.7l7.1,11.7
						c5.3,8.8,2.5,20.2-6.3,25.5l-0.2,0.1l-14.9,0.6L288.4,254.1z M278.6,239.8l8.3,10.1l-0.1-3l15.9-0.6c8-4.9,10.5-15.4,5.7-23.4
						l-6.3-10.5l-12,7.2l7.6,13l-10.8,0.4l0-3.6L278.6,239.8z"/>
					<path id="Trazado_118416" d="M268.6,74c0,1.8-1.1,3.2-2.5,3.2s-2.5-1.4-2.5-3.2s1.1-3.2,2.5-3.2S268.6,72.2,268.6,74"/>
					<path id="Trazado_118417" d="M288.6,74c0,1.8-1.1,3.2-2.5,3.2s-2.5-1.4-2.5-3.2s1.1-3.2,2.5-3.2S288.6,72.2,288.6,74"/>
					<path id="Trazado_118418" d="M267.2,66.4c-0.2-0.6-0.9-0.9-1.5-0.7l-3.5,1.5c-0.3,0.1-0.5,0.3-0.7,0.6c-0.1,0.3-0.2,0.6,0,0.9
						c0.2,0.6,0.9,0.9,1.5,0.7l3.5-1.5c0.3-0.1,0.5-0.3,0.7-0.6C267.3,67,267.3,66.7,267.2,66.4"/>
					<path id="Trazado_118419" d="M288.8,67.2l-3.3-1c-0.3-0.1-0.6-0.1-0.9,0.1c-0.6,0.3-0.8,1-0.5,1.6c0.1,0.3,0.4,0.5,0.7,0.6
						l3.3,1c0.3,0.1,0.6,0.1,0.9-0.1c0.6-0.3,0.8-1,0.5-1.6C289.4,67.5,289.1,67.3,288.8,67.2"/>
					<path id="Trazado_118420" class="st11" d="M281.5,169.1h-60.6c0,0,8.3-18.7,26.4-20.1c-0.3-0.4-0.6-0.8-0.9-1.3
						c-0.7-1.1-1.3-2.3-1.7-3.5c-0.2-0.6-0.4-1.2-0.5-1.9c-0.1-0.4,0-0.9,0.3-1.3c0.5-0.4,1.2-0.1,1.6,0.2c0.6,0.3,1.1,0.7,1.5,1.1
						c0.7,0.7,1.4,1.5,2,2.3c-0.2-1.3-0.3-2.5-0.3-3.8c0-0.8,0-1.6,0.1-2.5c0-0.7,0.2-1.5,0.6-2.1c1-1.4,2.1,1.4,2.3,2
						c0.4,1.1,0.8,2.2,1,3.4c0.3-1.4,0.9-2.8,1.8-4.1c0.4-0.6,1-1.1,1.7-1.3c0.7-0.1,1.4,0.3,1.5,1c0.2,0.9,0.2,1.8-0.1,2.7
						c-0.2,0.9-0.5,1.8-0.9,2.7c-0.8,1.8-1.8,3.6-2.7,5.4c-0.2,0.4-0.4,0.8-0.6,1.2C272.1,152,281.5,169,281.5,169.1"/>
					<path id="Trazado_118421" d="M255.5,146.6c-3.2,0.5-6.5,0.8-9.8,1c-0.2,0-0.3,0.2-0.3,0.4c0,0.2,0.2,0.3,0.4,0.3
						c3.3-0.2,6.5-0.5,9.8-1C256,147.3,255.9,146.6,255.5,146.6"/>
					<path id="Trazado_118422" d="M256.3,149.5c-3.5,0-7-0.2-10.5-0.4c-0.5,0-0.6,0.7-0.1,0.7c3.6,0.3,7.1,0.4,10.7,0.4
						C256.8,150.3,256.8,149.5,256.3,149.5"/>
					<path id="Trazado_118423" class="st14" d="M336.3,169H269c0,0,4.7-21.8,26.6-25.3c-0.5-0.4-0.9-0.9-1.3-1.3
						c-1-1.1-2-2.2-2.8-3.4c-0.4-0.6-0.8-1.3-1.2-1.9c-0.4-0.5-0.7-1.2-0.9-1.8c-0.1-0.5,0.2-0.9,0.6-1c0.1,0,0.1,0,0.2,0
						c0.7,0.1,1.3,0.4,1.9,0.8c0.8,0.5,1.5,1,2.1,1.6c-0.3-1.2-0.6-2.4-0.7-3.7c-0.1-0.9-0.2-1.8-0.2-2.7c0-0.6-0.2-1.6,0.4-2.1
						c0.6-0.5,1.2,0.2,1.5,0.6c0.5,0.8,0.9,1.6,1.3,2.4c0.6,1,1.1,2.1,1.6,3.2c0-1.5,0.1-2.9,0.2-4.4c0.1-1,0.3-2,0.5-3
						c0.1-0.8,0.5-1.5,1.1-2c0.1-0.1,0.2-0.1,0.4,0c0.6,0.4,1,1.1,1.1,1.8c0.2,1.1,0.4,2.2,0.6,3.3c0.3,1.8,0.6,3.6,0.9,5.4
						c0.4-1.1,1-2.2,1.6-3.2c0.7-1.2,1.6-2.2,2.7-3c0.5-0.4,1.2-0.8,1.9-0.5c0.4,0.3,0.7,0.8,0.6,1.3c-0.1,0.7-0.3,1.4-0.7,2
						c-0.3,0.8-0.7,1.5-1.1,2.3c-0.4,0.8-0.9,1.6-1.3,2.3c0.6-0.4,1.3-0.8,2-1c0.9-0.3,2.8-1.1,3.3,0.1c0.2,0.6,0,1.2-0.4,1.6
						c-0.5,0.6-1.2,1.1-1.8,1.6c-1.7,1.5-3.3,3-5,4.4C325.8,145.9,336.2,169.1,336.3,169"/>
					<path id="Trazado_118424" class="st9" d="M305.4,141.8l-10.2,1.3c-0.5,0.1-0.4,0.8,0.1,0.7l10.2-1.3
						C305.9,142.4,305.8,141.7,305.4,141.8"/>
					<path id="Trazado_118425" class="st9" d="M307,144.7c-4-0.4-8-0.6-12-0.7c-0.5,0-0.4,0.7,0.1,0.7c3.9,0.1,7.9,0.3,11.8,0.7
						C307.3,145.5,307.5,144.7,307,144.7"/>
					<path id="Trazado_118426" d="M286.5,152.6c-1.3-1.1-2.8-2.1-4.4-2.8c1-1.1,1.9-2.3,2.7-3.5c0.4-0.7,0.9-1.3,1.3-2
						c0.3-0.5,0.6-1.1,0.7-1.7c0.2-0.9-0.3-1.8-1.2-2c-0.3-0.1-0.6-0.1-0.8,0c-1.3,0.4-2.5,1.3-3.3,2.3c-0.8,0.9-1.5,1.8-2,2.9
						c-0.2-1.2-0.4-2.4-0.7-3.6c-0.2-1-0.7-2.8-2.1-2.3c-1.2,0.4-1.6,2.2-1.8,3.3c-0.3,1.3-0.3,2.6-0.2,3.9c-1-0.9-2-1.8-3.1-2.6
						c-0.9-0.7-2.5-1.8-3.3-0.5c-0.3,0.6-0.2,1.3,0.1,1.9c0.3,0.7,0.7,1.3,1.1,1.9c0.7,1,1.6,1.9,2.5,2.7
						c-6.7,1.9-12.4,6.4-15.7,12.5c-1,1.8-1.7,3.7-2.2,5.6c-0.1,0.5,0.6,0.6,0.7,0.1c1.8-6.8,6.4-12.5,12.6-15.7
						c1.7-0.9,3.6-1.6,5.5-2c0.2-0.1,0.3-0.3,0.2-0.5c0-0.1-0.1-0.1-0.1-0.1c-1-0.7-1.8-1.6-2.6-2.6c-0.4-0.5-0.7-0.9-1-1.4
						c-0.3-0.5-0.8-1.2-0.7-1.8c0.2-0.8,1.1-0.4,1.5-0.1c0.5,0.4,1.1,0.8,1.6,1.2c1.1,0.9,2.1,1.7,3.1,2.7c0.2,0.1,0.4,0.1,0.5-0.1
						c0.1-0.1,0.1-0.2,0.1-0.3c-0.2-1.3-0.3-2.6-0.1-3.9c0.1-0.7,0.3-1.4,0.5-2c0.1-0.5,0.4-1,0.8-1.4c1.1-0.7,1.4,1.9,1.5,2.5
						c0.3,1.3,0.5,2.7,0.7,4c0,0.3,0.6,0.5,0.7,0.1c0.5-1.5,1.3-2.8,2.3-3.9c0.5-0.6,1.1-1.1,1.8-1.5c0.5-0.4,1.6-1,2.1-0.4
						c0.4,0.5,0.1,1.3-0.1,1.8c-0.4,0.8-0.8,1.5-1.3,2.2c-1,1.5-2,2.9-3.2,4.2c-0.1,0.2-0.1,0.4,0,0.5c0,0,0,0,0.1,0
						c1.5,0.6,2.9,1.4,4.2,2.5c1.3,1,2.6,2,3.8,3.1c2.4,2.2,4.4,4.8,5.7,7.8c0.7,1.6,1.2,3.4,1.4,5.1c0,0.2,0.2,0.3,0.4,0.3
						c0.2,0,0.3-0.2,0.3-0.4C296.4,161.9,291.8,156.6,286.5,152.6"/>
					<path id="Trazado_118427" class="st9" d="M156.6,281.4v0.3l-0.3-0.3H156.6z"/>
					<path id="Trazado_118428" class="st9" d="M60.2,122c4.1-0.9,7.4-1.5,7.4-1.5L96.2,166h36.2l-4.4-42.9c1.5,0.2,3.3,0.6,5.2,0.9
						c0,0,15,40.5,18,55.7c0.3,1.4,0.5,2.9,0.5,4.4c-0.5,8.9-5.7,29.2-5.7,29.2l10.6,68.2h-0.3l0.3,0.3l3.3,19.2H49.4L68.6,212
						l0.2,0C100.9,216.2,60.2,122,60.2,122"/>
					<path id="Trazado_118429" class="st9" d="M156.6,281.6l-0.3-0.3h0.3L156.6,281.6z"/>
					<path id="Trazado_118430" class="st11" d="M130.7,289.3c-3.3-0.5-6.4-2-8.9-4.1c-1.6-1.7-3.1-3.5-4.2-5.5
						c-4.3-6.8-9.2-16.8-9.2-16.8l-7.5-0.7l-13-1.2l0.4-3.8l2.4-20l0.4-3.1l4.4,2.6v0l14.2,8.2c0,0,27.8-0.4,36.6,3.3
						s-17.3,6-17.3,6l12.9,25.6l11.3,1.4l1.5,0.2c-1.8,1.4-3.8,2.4-6,3c-3.2,3.1-6.2,4.1-8.9,3.9c-1.8,1.9-4.4,2.7-6.9,2.3
						C132.1,290.3,131.3,289.9,130.7,289.3"/>
					<path id="Trazado_118431" class="st17" d="M211.9,222.9c1.6,0,2.9,1.3,2.9,2.9c0,1.6-1.3,2.9-2.9,2.9H90.8
						c-1.6,0-2.9-1.3-2.9-2.9c0-0.8,0.3-1.5,0.8-2c0.5-0.5,1.3-0.9,2-0.9L211.9,222.9L211.9,222.9z"/>
					<path id="Trazado_118432" class="st11" d="M208.7,240.6l0-0.2l2.1-7.9c0.9,0.1,1.7,0.8,1.9,1.7c0.2,0.9,0.2,1.9-0.1,2.8
						c-0.4,1.8-0.9,3.5-1.7,5.1c2,0.3,3.4,2.1,3.1,4.1c-0.1,1.1-0.7,2-1.6,2.6c-0.1,0.1-0.3,0.2-0.3,0.3c0,0.2,0.1,0.4,0.3,0.6
						c1.2,1.4,1.1,3.5-0.1,4.8c-0.3,0.2-0.5,0.5-0.7,0.8c-0.1,0.4-0.1,0.9,0.1,1.3c0.5,1.4,0.5,2.9,0,4.4c-0.5,1.4-1.7,2.5-3.2,2.8
						c0.7,1.5,0.3,3.2-0.9,4.3c-1.3,1-2.8,1.5-4.4,1.6c-0.9,0.1-1.7,0.1-2.6,0.1c-2.7-0.1-5.4-0.7-7.9-1.9c-0.5-0.3-1.1-0.6-1.2-1.2
						c-0.1-0.6,0.4-1,0.9-1.4c2.5-1.8,5.7-2.3,8.8-2.7c-1.7-0.3-3.4-0.6-5.1-1c-1.3-0.2-2.4-0.8-3.3-1.8c-0.2-0.3-0.3-0.6-0.2-1
						c0.1-0.3,0.4-0.5,0.7-0.7c1.2-0.6,2.5-1,3.9-1.2c2.3-0.6,4.7-1.1,7-1.7c-2-0.3-4.1-0.6-6.1-1c-0.6-0.1-1.2-0.3-1.7-0.6
						c-0.5-0.3-0.8-0.9-0.7-1.6c0.2-0.4,0.5-0.8,0.9-1c1.2-0.7,2.6-1.3,4-1.7c1.9-0.6,3.9-1.2,5.8-1.8c-1.9,0.3-3.9,0.4-5.8,0.3
						c-1.4,0.1-2.7-0.4-3.8-1.3c-0.3-0.3-0.4-0.6-0.4-1c0.1-0.6,0.6-0.9,1.1-1.1C201.1,242.8,204.8,241.5,208.7,240.6"/>
					<path id="Trazado_118433" class="st13" d="M210.8,232.6l-2.1,7.9l0,0.2c-3.9,0.9-7.6,2.2-11.2,3.9c-0.5,0.2-1.1,0.6-1.1,1.1
						c0,0.4,0.1,0.8,0.4,1c1,0.9,2.4,1.4,3.8,1.3c1.9,0.1,3.9,0,5.8-0.3c-1.9,0.6-3.9,1.2-5.8,1.8c-1.4,0.4-2.7,0.9-4,1.7
						c-0.4,0.2-0.7,0.6-0.9,1c-0.1,0.6,0.1,1.2,0.7,1.6c0.5,0.3,1.1,0.5,1.7,0.6c2,0.4,4.1,0.7,6.1,1l-7,1.7
						c-1.3,0.3-2.6,0.7-3.9,1.2c-0.3,0.1-0.6,0.4-0.7,0.7c-0.1,0.3,0,0.7,0.2,1c0.8,1,2,1.6,3.3,1.8c1.7,0.4,3.4,0.8,5.1,1
						c-3.1,0.4-6.2,0.9-8.8,2.7c-0.5,0.3-0.9,0.8-0.9,1.4s0.6,0.9,1.2,1.2c2.5,1.2,5.2,1.8,7.9,1.9v0l-3.2,11.6h-42.8l-1.5-0.2
						l6.6-52.4h52L210.8,232.6z"/>
					<path id="Trazado_118434" class="st12" d="M159.9,176.4l10.3,46.5h-23.6l-0.6-9.8c0,0,5.2-20.3,5.7-29.2c0-1.5-0.2-2.9-0.5-4.4
						l0.1,0L159.9,176.4z"/>
					<path id="Trazado_118435" class="st3" d="M159.9,176.4l-8.7,3.2l-0.1,0c-3-15.2-18-55.7-18-55.7c3.6,0.6,7.1,1.5,10.6,2.6
						c6.7,2.3,1.1,4.7,1.1,4.7s4.4,0,7.4,11.7s10.6,32.4,10.6,32.4L159.9,176.4z"/>
					<path id="Trazado_118436" class="st14" d="M159.9,228.7l-6.6,52.4l-11.3-1.4L129,254.2c0,0,26.1-2.3,17.3-6s-36.6-3.3-36.6-3.3
						l-14.2-8.2v0l-1.7-7.9H159.9z"/>
					<path id="Trazado_118437" class="st10" d="M127.9,123l4.4,42.9H96.2l-28.6-45.5l1.6-2c0,0-2.7-1.4-1.1-3.5s6.8-0.5,6.8-0.5
						s19.6,27.3,33.7,34.1c0,0,6.4-17.1,7.1-27.9c0,0,5.2-3.1,7.4-2.1s1.1,3.9,1.1,3.9S125.7,122.7,127.9,123"/>
					<path id="Trazado_118438" class="st9" d="M115.7,61.9c-4.2-0.5-8.5-0.7-12.8-0.4c-8.9,0.5-17.6,2.8-25.7,6.5
						c0.2-0.4,7.7-13.7,30.6-13.6c8.8,0,14.9,2,19.1,4.4c6.7,3.9,8.4,8.9,8.5,9.2C129.3,64.9,122.6,62.8,115.7,61.9"/>
					<path id="Trazado_118439" class="st10" d="M101.9,33.1c13.1,1.3,25.3,7.6,25.1,25.8c-4.2-2.4-10.3-4.4-19.1-4.4
						C85,54.4,77.5,67.6,77.3,68.1l0,0v0C80.1,36.1,101.9,33.1,101.9,33.1"/>
					<path id="Trazado_118440" class="st14" d="M117.6,279.6h-12.9l-3.7-17.5l7.5,0.7C108.4,262.8,113.3,272.8,117.6,279.6"/>
					<path id="Trazado_118441" class="st15" d="M113.4,106.6l2.4,14.1c0,0-33.4,6.4-37.9-33c0.3,1.6,3.3,18.3,19.8,22.5
						C104,111.8,109.2,110.5,113.4,106.6"/>
					<path id="Trazado_118442" class="st12" d="M77.9,87.7c4.5,39.4,37.9,33,37.9,33c-0.7,10.7-7.1,27.9-7.1,27.9
						c-14.1-6.8-33.7-34.1-33.7-34.1l2.9-26.8c-13.3-3-12.1-18.1-6.3-18.6s6.3,3.9,6.3,3.9l0.1,0c8.8-1.8,17-5.6,25.1-9.4
						c-0.7,0.7-1.3,1.6-1.6,2.6c-0.3,1,0.2,2.1,1.1,2.6c0.5,0.2,1.1,0.1,1.7,0c4.4-1,8.5-3.3,11.5-6.7c3.1,0.4,6.2,1.1,9.3,2l0,0.1
						c-0.7,21.2-4.5,35.9-11.6,42.6c-4.1,3.9-9.3,5.2-15.7,3.6C81.1,106,78.1,89.3,77.9,87.7"/>
					<path id="Trazado_118443" d="M115.7,61.9c-3,3.4-7.1,5.7-11.5,6.7c-0.5,0.2-1.1,0.2-1.7,0c-0.9-0.5-1.4-1.6-1.1-2.6
						c0.3-1,0.9-1.8,1.6-2.6l-0.1-2C107.2,61.3,111.5,61.4,115.7,61.9"/>
					<path id="Trazado_118444" class="st15" d="M106.4,72.9c0,0,5.3,16.5,3.4,16.8s-5.1-1.5-5.1-1.5l-2.3,0.7L106.4,72.9z"/>
					<path id="Trazado_118445" class="st4" d="M94.1,94.9l15.5-0.3c0,0-0.6,7.6-7.4,7.3C95.5,101.5,94.1,94.9,94.1,94.9"/>
					<path id="Trazado_118446" d="M103,61.5l0.1,2C95,67.3,86.8,71.2,78,72.9l-0.1,0c0,0-0.6-4.4-6.3-3.9s-7,15.6,6.3,18.6
						l-2.9,26.8c0,0-5.2-1.6-6.8,0.5s1.1,3.5,1.1,3.5l-1.6,2c0,0-3.3,0.6-7.4,1.5c-6.4,1.4-14.7,3.6-15,5.4c-0.3,1.7,0.5,3.3,2.1,4
						c0,0-12.7,4.6-6.8,7.8l-2,12.5l-0.1,0c-1.4,1.2-3.4,1.5-5.1,0.9c-1.7-0.6-3.2-1.8-4.3-3.2c-2.3-2.9-3.4-7.2-1.5-10.4
						c0.7-1.1,1.7-2.1,2.7-2.9c4.6-3.8,10.1-7.4,11.4-13.2c0.7-3.2,0-6.7,1.2-9.8c1.3-3.3,4.6-5.4,7.9-6.7s6.9-2,10-3.7
						c3.9-2.2,6.9-5.7,8.3-10c0.2-0.5,0.2-1,0-1.5c-0.2-0.3-0.6-0.6-1-0.7c-2.4-1.3-4.4-3.3-5.5-5.9c-1.8-4.3-0.9-9.3,0.6-13.8
						c1.5-4.3,3.5-8.4,4.2-12.9l9.8,10.1v0l0,0C85.4,64.3,94.1,62.1,103,61.5"/>
					<path id="Trazado_118447" class="st11" d="M67.5,58l-1.1-1.2c0,0-1-19.1,11.8-22c7.8-1.8,15.8-2.4,23.7-1.7c0,0-21.8,3-24.6,35
						L67.5,58z"/>
					<path id="Trazado_118448" class="st15" d="M90.1,80.5c2.9,0,5.2,2.3,5.2,5.2c0,2.9-2.3,5.2-5.2,5.2c-2.9,0-5.2-2.3-5.2-5.2
						c0,0,0,0,0,0C84.8,82.9,87.2,80.5,90.1,80.5"/>
					<path id="Trazado_118449" class="st12" d="M57.5,248.5c-5.7-2-10.3-4.1-11.4-5.8c-3.7-5.6-8.8-60.6-8.8-60.6l33.9,1.9l0,0.1
						l-2.6,28l-1,11l23.1,14.2l-2.4,20l-0.4-0.1C87.9,257.1,70,252.9,57.5,248.5"/>
					<path id="Trazado_118450" class="st10" d="M71.2,183.9L37.4,182l-3.7-0.2l4.8-30.1l2-12.5c-5.9-3.2,6.8-7.8,6.8-7.8
						c-1.5-0.7-2.4-2.4-2.1-4c0.3-1.8,8.6-4,15-5.4c0,0,40.7,94.3,8.7,90.1l-0.2,0L71.2,183.9L71.2,183.9z"/>
					<path id="Trazado_118451" class="st7" d="M77.9,87.7c0.3,1.6,3.3,18.3,19.8,22.5c6.4,1.6,11.6,0.3,15.7-3.6
						c7.1-6.8,10.9-21.4,11.6-42.6"/>
					<path id="Trazado_118452" class="st7" d="M77.8,72.9c0,0-0.6-4.4-6.3-3.9s-7,15.6,6.3,18.6"/>
					<path id="Trazado_118453" class="st7" d="M135.5,68.1C135.5,68.1,135.5,68.1,135.5,68.1c-0.1-0.3-1.8-5.3-8.5-9.2
						c-4.2-2.4-10.3-4.4-19.1-4.4C85,54.4,77.5,67.6,77.3,68.1l0,0"/>
					<path id="Trazado_118454" class="st7" d="M77.3,68.1c8.1-3.8,16.8-6,25.7-6.5c4.3-0.3,8.5-0.2,12.8,0.4
						c6.9,0.9,13.6,3,19.7,6.1"/>
					<path id="Trazado_118455" class="st7" d="M77.3,68.1L67.5,58l-1.1-1.2c0,0-1-19.1,11.8-22c7.8-1.8,15.8-2.4,23.7-1.7
						c13.1,1.3,25.3,7.6,25.1,25.8"/>
					<path id="Trazado_118456" class="st18" d="M115.8,120.7c0,0,5.2-3.1,7.4-2.1s1.1,3.9,1.1,3.9s1.5,0.2,3.7,0.6
						c1.5,0.2,3.3,0.6,5.2,0.9c3.6,0.6,7.1,1.5,10.6,2.6c6.7,2.3,1.1,4.7,1.1,4.7s4.4,0,7.4,11.7c3,11.7,10.6,32.4,10.6,32.4
						l-2.9,1.1l-8.7,3.2"/>
					<path id="Trazado_118457" class="st7" d="M113.4,106.6L113.4,106.6l2.4,14.1c-0.7,10.7-7.1,27.9-7.1,27.9
						c-14.1-6.8-33.7-34.1-33.7-34.1l2.9-26.8"/>
					<path id="Trazado_118458" class="st7" d="M95.5,236.7l-4.4-2.6l-0.4,3.1l-2.4,20l-0.4,3.8l13,1.2l7.5,0.7c0,0,4.9,10,9.2,16.8
						c1.2,2,2.6,3.9,4.2,5.5c2.5,2.2,5.6,3.6,8.9,4.1c0.1,0,0.3,0,0.4,0.1"/>
					<path id="Trazado_118459" class="st7" d="M132,276.5c0,0,0.5,6.3,8.4,8.2c2.8,0.6,5.7,0.5,8.4-0.4c2.1-0.7,4.2-1.7,6-3
						l-1.5-0.2l-11.3-1.4L129,254.2c0,0,26.1-2.3,17.3-6s-36.6-3.3-36.6-3.3l-14.2-8.2"/>
					<path id="Trazado_118460" class="st7" d="M126.2,277.1c0,0,5.7,10.7,13.7,11.2c2.7,0.2,5.8-0.8,8.9-3.9l0,0"/>
					<path id="Trazado_118461" class="st7" d="M121.3,277.1c0,0,5.2,8.8,9.4,12.2c0.6,0.6,1.4,1,2.3,1.3c2.5,0.4,5.1-0.4,6.9-2.2"/>
					<path id="Trazado_118462" class="st7" d="M74.9,114.4c0,0-5.2-1.6-6.8,0.5s1.1,3.5,1.1,3.5l-1.6,2c0,0-3.3,0.6-7.4,1.5
						c-6.4,1.4-14.7,3.6-15,5.4c-0.3,1.7,0.5,3.3,2.1,4c0,0-12.7,4.6-6.8,7.8l-2,12.5l-4.8,30.1l3.7,0.2l33.9,1.9l1.4,0.1"/>
					<path id="Trazado_118463" class="st7" d="M37.4,182c0,0,5,55,8.8,60.6c1.2,1.8,5.7,3.8,11.4,5.8c12.4,4.4,30.4,8.6,30.4,8.6"/>
					<path id="Trazado_118464" class="st7" d="M90.7,237.2l-23.1-14.2l1-11l2.6-28"/>
					<path id="Trazado_118465" class="st7" d="M100.9,262.1l3.7,17.5h13.3"/>
					<path id="Trazado_118466" class="st7" d="M93.8,228.7l1.7,7.9v0"/>
					<path id="Trazado_118467" class="st7" d="M208.7,240.5l2.1-7.9l1.1-3.9"/>
					<path id="Trazado_118468" class="st7" d="M154.7,281.4h42.8l3.2-11.6"/>
					<path id="Trazado_118469" class="st7" d="M210.8,232.6C210.8,232.6,210.8,232.6,210.8,232.6c1,0.1,1.8,0.8,2,1.7
						c0.2,0.9,0.2,1.9-0.1,2.8c-0.4,1.8-0.9,3.5-1.7,5.1c2,0.3,3.4,2.1,3.1,4.1c-0.1,1.1-0.7,2-1.6,2.6c-0.1,0.1-0.3,0.2-0.3,0.3
						c0,0.2,0.1,0.4,0.3,0.6c1.2,1.4,1.1,3.5-0.1,4.8c-0.3,0.2-0.5,0.5-0.7,0.8c-0.1,0.4-0.1,0.9,0.1,1.3c0.5,1.4,0.5,2.9,0,4.4
						c-0.5,1.4-1.7,2.5-3.2,2.8c0.7,1.5,0.3,3.2-0.9,4.3c-1.3,1-2.8,1.5-4.4,1.6c-0.9,0.1-1.7,0.1-2.6,0.1c-2.7-0.1-5.4-0.7-7.9-1.9
						c-0.5-0.3-1.1-0.6-1.2-1.2c-0.1-0.6,0.4-1,0.9-1.4c2.5-1.8,5.7-2.3,8.8-2.7c-1.7-0.3-3.4-0.6-5.1-1c-1.3-0.2-2.4-0.8-3.3-1.8
						c-0.2-0.3-0.3-0.6-0.2-1c0.1-0.3,0.4-0.5,0.7-0.7c1.2-0.6,2.5-1,3.9-1.2l7-1.7c-2-0.3-4.1-0.6-6.1-1c-0.6-0.1-1.2-0.3-1.7-0.6
						c-0.5-0.3-0.8-0.9-0.7-1.6c0.2-0.4,0.5-0.8,0.9-1c1.2-0.7,2.6-1.3,4-1.7c1.9-0.6,3.9-1.2,5.8-1.8c-1.9,0.3-3.9,0.4-5.8,0.3
						c-1.4,0.1-2.7-0.4-3.8-1.3c-0.3-0.3-0.4-0.6-0.4-1c0.1-0.6,0.6-0.9,1.1-1.1c3.6-1.7,7.3-3,11.2-3.9l0.3-0.1"/>
					<path id="Trazado_118470" class="st7" d="M159.9,176.3L159.9,176.3l10.3,46.6"/>
					<path id="Trazado_118471" class="st11" d="M91.3,167.9c-0.6-0.3-1.3,0-1.6,0.6c-1,1.7-2,3.5-3,5.2c-0.3,0.6,0,1.3,0.6,1.6
						c0.6,0.3,1.3,0,1.6-0.6l3-5.2C92.1,168.8,91.9,168.1,91.3,167.9"/>
					<path id="Trazado_118472" class="st11" d="M105,175.2l-3.3-2.6c-0.5-0.4-1.2-0.4-1.7,0.1c-0.4,0.5-0.4,1.2,0.1,1.7c0,0,0,0,0,0
						l3.3,2.6c0.5,0.4,1.2,0.4,1.7-0.1C105.5,176.4,105.5,175.6,105,175.2"/>
					<path id="Trazado_118473" class="st11" d="M95.4,180c-0.4-0.5-1.1-0.7-1.6-0.3c-0.3,0.2-0.4,0.4-0.5,0.7l-0.3,3.9
						c0,0.3,0,0.6,0.2,0.9c0.4,0.5,1.1,0.7,1.6,0.3c0.3-0.2,0.4-0.4,0.5-0.7l0.3-3.9C95.6,180.6,95.6,180.3,95.4,180"/>
					<path id="Trazado_118474" class="st11" d="M91.9,194.4c-0.4-1.2-0.9-2.4-1.3-3.6c-0.2-0.6-0.9-0.9-1.5-0.7
						c-0.6,0.2-0.9,0.9-0.7,1.5l0,0l1.3,3.6c0.2,0.6,0.9,0.9,1.5,0.7S92.1,195.1,91.9,194.4C91.9,194.5,91.9,194.4,91.9,194.4"/>
					<path id="Trazado_118475" class="st11" d="M106.7,187.4c-0.2-0.6-0.9-0.9-1.5-0.7c-1.5,0.6-3.1,1.3-4.6,1.9
						c-0.6,0.2-0.9,0.9-0.7,1.5c0.2,0.6,0.9,0.9,1.5,0.7l0,0l4.6-1.9C106.6,188.7,106.9,188,106.7,187.4"/>
					<path id="Trazado_118476" class="st11" d="M119,182.3l-2-3.6c-0.2-0.3-0.4-0.4-0.8-0.5c-0.3-0.1-0.6,0-0.9,0.2
						c-0.3,0.2-0.4,0.4-0.5,0.7c0,0.3,0,0.6,0.2,0.9l2,3.6c0.2,0.3,0.4,0.4,0.8,0.5c0.3,0.1,0.6,0,0.9-0.2c0.3-0.2,0.4-0.4,0.5-0.7
						C119.2,182.9,119.1,182.6,119,182.3"/>
					<path id="Trazado_118477" class="st11" d="M126.1,171.4c-0.1-0.6-0.6-1.1-1.3-1.1h-5.2c-0.6,0.1-1.1,0.6-1.1,1.3
						c0.1,0.6,0.6,1.1,1.3,1.1h5.3C125.6,172.7,126.1,172.1,126.1,171.4"/>
					<path id="Trazado_118478" class="st11" d="M134.7,170.7c-0.6-0.1-1.2,0.3-1.4,0.9c-0.2,1.6-0.5,3.3-0.7,4.9
						c-0.1,0.6,0.3,1.3,0.9,1.4c0.6,0.1,1.3-0.3,1.4-0.9c0.2-1.6,0.5-3.3,0.7-4.9C135.8,171.5,135.3,170.8,134.7,170.7"/>
					<path id="Trazado_118479" class="st11" d="M142.7,165.2l-3.9-6c-0.4-0.5-1.1-0.7-1.6-0.3c-0.5,0.4-0.6,1.1-0.3,1.6l3.9,6
						c0.4,0.5,1.1,0.7,1.6,0.3C142.9,166.5,143,165.7,142.7,165.2"/>
					<path id="Trazado_118480" class="st11" d="M144.1,174c-0.6-0.1-1.2,0.3-1.4,0.9c-0.7,2.2-1.3,4.4-2,6.6
						c-0.1,0.6,0.3,1.3,0.9,1.4c0.6,0.1,1.2-0.3,1.4-0.9c0.7-2.2,1.3-4.4,2-6.6C145.2,174.7,144.8,174.1,144.1,174"/>
					<path id="Trazado_118481" class="st11" d="M128.3,189.8c-0.3-1.5-0.7-3.1-1-4.6c0-0.3-0.2-0.6-0.4-0.8
						c-0.5-0.4-1.2-0.4-1.7,0.1c-0.2,0.2-0.3,0.5-0.3,0.9c0.3,1.5,0.7,3.1,1,4.6c0,0.3,0.2,0.6,0.4,0.8c0.5,0.4,1.2,0.4,1.7-0.1
						c0,0,0,0,0,0C128.3,190.4,128.4,190.1,128.3,189.8"/>
					<path id="Trazado_118482" class="st11" d="M140.5,191.1l-4.9-0.3c-0.3,0-0.6,0-0.9,0.2c-0.5,0.4-0.7,1.1-0.3,1.6
						c0.2,0.3,0.4,0.4,0.8,0.5l4.9,0.3c0.3,0,0.6,0,0.9-0.2c0.5-0.4,0.7-1.1,0.3-1.6C141.1,191.3,140.8,191.2,140.5,191.1"/>
					<path id="Trazado_118483" class="st11" d="M146.3,196c-0.1-0.3-0.3-0.5-0.6-0.7c-0.6-0.3-1.3,0-1.6,0.6l-1.6,4.9
						c-0.1,0.3-0.1,0.6,0,0.9c0.1,0.3,0.3,0.5,0.6,0.7c0.6,0.3,1.3,0,1.6-0.6c0.5-1.6,1.1-3.3,1.6-4.9
						C146.4,196.7,146.4,196.3,146.3,196"/>
					<path id="Trazado_118484" class="st11" d="M134,199.6c-0.6-0.1-1.2,0.3-1.4,0.9l-0.7,3.9c-0.1,0.6,0.3,1.3,1,1.4
						c0.6,0.1,1.2-0.3,1.4-0.9l0.7-3.9C135,200.3,134.6,199.7,134,199.6"/>
					<path id="Trazado_118485" class="st11" d="M119.7,198.4l-3-4.6c-0.4-0.5-1.1-0.7-1.6-0.3c-0.5,0.4-0.6,1.1-0.3,1.6l3,4.6
						c0.4,0.5,1.1,0.7,1.6,0.3C119.9,199.6,120,198.9,119.7,198.4"/>
					<path id="Trazado_118486" class="st11" d="M111.2,201.6c-0.2-0.6-0.9-0.9-1.5-0.7l-5.2,1.3c-0.6,0.2-0.9,0.9-0.7,1.5
						c0.2,0.6,0.9,0.9,1.5,0.7l5.2-1.3C111.1,202.9,111.4,202.2,111.2,201.6"/>
					<path id="Trazado_118487" class="st11" d="M119.3,205.6c-0.4-0.5-1.1-0.7-1.6-0.3c-0.3,0.2-0.4,0.4-0.5,0.8l-0.3,3.6
						c0,0.3,0,0.6,0.2,0.9c0.4,0.5,1.1,0.7,1.6,0.3c0,0,0,0,0,0c0.3-0.2,0.4-0.4,0.5-0.7l0.3-3.6
						C119.6,206.2,119.5,205.9,119.3,205.6"/>
					<path id="Trazado_118488" class="st11" d="M104.8,215.1c-0.2-1.6-0.4-3.3-0.6-4.9c-0.1-0.6-0.7-1.1-1.3-1
						c-0.6,0.1-1.1,0.6-1,1.2c0.2,1.6,0.4,3.3,0.6,4.9c0,0.7,0.6,1.1,1.2,1.1C104.4,216.3,104.9,215.8,104.8,215.1
						C104.8,215.1,104.8,215.1,104.8,215.1"/>
					<path id="Trazado_118489" class="st11" d="M95.5,208.5c-0.3-1.5-0.7-3.1-1-4.6c0-0.3-0.2-0.6-0.4-0.8c-0.2-0.2-0.6-0.3-0.9-0.3
						c-0.6,0.1-1.2,0.6-1.1,1.3c0.3,1.5,0.7,3.1,1,4.6c0,0.3,0.2,0.6,0.4,0.8c0.2,0.2,0.6,0.3,0.9,0.3
						C95,209.7,95.7,209.2,95.5,208.5"/>
					<path id="Trazado_118490" class="st11" d="M88.3,214.2c-0.1-0.6-0.6-1.1-1.3-1.1l-3.3,0.1c-0.6,0.1-1.1,0.6-1.1,1.3
						c0.1,0.6,0.6,1.1,1.3,1.1l3.3-0.1C87.9,215.4,88.4,214.8,88.3,214.2"/>
					<path id="Trazado_118491" class="st11" d="M78,224.6c-0.5-1.9-1.1-3.7-1.6-5.6c-0.2-0.6-0.9-0.9-1.5-0.7
						c-0.6,0.2-0.9,0.9-0.7,1.5c0.5,1.9,1.1,3.7,1.6,5.6c0.2,0.6,0.9,0.9,1.5,0.7C77.9,225.9,78.2,225.2,78,224.6"/>
					<path id="Trazado_118492" class="st11" d="M96.8,217.9c-0.1-0.6-0.6-1.1-1.3-1.1c-1.7,0.3-3.5,0.7-5.2,1
						c-0.3,0-0.6,0.2-0.8,0.4c-0.2,0.2-0.3,0.6-0.3,0.9c0.1,0.6,0.6,1.1,1.3,1.1l5.2-1c0.3,0,0.6-0.2,0.8-0.4
						C96.8,218.6,96.9,218.2,96.8,217.9"/>
					<path id="Trazado_118493" class="st11" d="M118.5,217.7c-0.1-0.6-0.6-1.1-1.3-1.1h-6.6c-0.6,0.1-1.1,0.6-1.1,1.3
						c0.1,0.6,0.6,1.1,1.3,1.1h6.6C118.1,218.9,118.6,218.4,118.5,217.7"/>
					<path id="Trazado_118494" class="st11" d="M129.9,215.4l-1.6-4.3c-0.2-0.6-0.9-0.9-1.5-0.7c-0.6,0.2-0.9,0.9-0.7,1.5
						c0.5,1.4,1.1,2.8,1.6,4.3c0.2,0.6,0.9,0.9,1.5,0.7C129.8,216.8,130.1,216.1,129.9,215.4C129.9,215.5,129.9,215.5,129.9,215.4"
						/>
					<path id="Trazado_118495" class="st11" d="M141.6,212.3c-0.4-0.5-1.1-0.6-1.6-0.3l-6.2,5.3c-0.5,0.4-0.6,1.1-0.3,1.6
						c0.4,0.5,1.1,0.7,1.6,0.3l6.2-5.3C141.9,213.5,142,212.8,141.6,212.3"/>
					<path id="Trazado_118496" class="st11" d="M85.7,163.9l-6.2-2.6c-0.6-0.3-1.3,0-1.6,0.6c-0.3,0.6,0,1.3,0.6,1.5l6.2,2.6
						c0.6,0.3,1.3,0.1,1.6-0.5C86.5,164.9,86.3,164.2,85.7,163.9C85.7,163.9,85.7,163.9,85.7,163.9"/>
					<path id="Trazado_118497" class="st11" d="M79.9,149.2c-0.4-0.5-1.1-0.7-1.6-0.3c-0.3,0.2-0.4,0.4-0.5,0.8
						c-0.1,1.5-0.2,3.1-0.3,4.6c0,0.3,0,0.6,0.2,0.9c0.4,0.5,1.1,0.7,1.6,0.3c0.3-0.2,0.4-0.4,0.5-0.8c0.1-1.5,0.2-3.1,0.3-4.6
						C80.1,149.8,80.1,149.5,79.9,149.2"/>
					<path id="Trazado_118498" class="st11" d="M74.3,144l-2.3-2.9c-0.2-0.2-0.4-0.4-0.8-0.5c-0.3-0.1-0.6,0-0.9,0.2
						c-0.5,0.4-0.7,1.1-0.3,1.6c0,0,0,0,0,0l2.3,2.9c0.2,0.2,0.4,0.4,0.8,0.5c0.3,0.1,0.6,0,0.9-0.2C74.5,145.3,74.6,144.5,74.3,144
						C74.3,144,74.3,144,74.3,144"/>
					<path id="Trazado_118499" class="st11" d="M135,144.8c-0.6-0.1-1.2,0.3-1.4,0.9c-0.2,1.6-0.5,3.3-0.7,4.9
						c-0.1,0.6,0.3,1.3,0.9,1.4c0.6,0.1,1.3-0.3,1.4-0.9c0,0,0,0,0,0l0.7-4.9C136.1,145.5,135.6,144.9,135,144.8"/>
					<path id="Trazado_118500" class="st11" d="M144,156.2l-4.3-3c-0.2-0.2-0.6-0.3-0.9-0.3c-0.6,0.1-1.1,0.6-1.1,1.3
						c0,0.3,0.2,0.6,0.4,0.8l4.3,3c0.2,0.2,0.6,0.3,0.9,0.3c0.6-0.1,1.1-0.6,1.1-1.3C144.4,156.7,144.3,156.4,144,156.2"/>
					<path id="Trazado_118501" class="st11" d="M65.6,259.7l-2-4.9c-0.2-0.6-0.9-0.9-1.5-0.7c-0.6,0.2-0.9,0.9-0.7,1.5
						c0.7,1.6,1.3,3.3,2,4.9c0.2,0.6,0.9,0.9,1.5,0.7C65.5,261,65.8,260.3,65.6,259.7"/>
					<path id="Trazado_118502" class="st11" d="M77.2,258.9c-0.1-0.6-0.6-1.1-1.3-1.1l-4.6,0c-0.6,0.1-1.1,0.6-1.1,1.3
						c0.1,0.6,0.6,1.1,1.3,1.1l4.6,0C76.7,260.2,77.2,259.6,77.2,258.9"/>
					<path id="Trazado_118503" class="st11" d="M86.3,268.9c-0.3-1.5-0.7-3.1-1-4.6c0-0.3-0.2-0.6-0.4-0.8c-0.2-0.2-0.6-0.3-0.9-0.3
						c-0.6,0.1-1.2,0.6-1.1,1.3c0.3,1.5,0.7,3.1,1,4.6c0,0.3,0.2,0.6,0.4,0.8c0.2,0.2,0.6,0.3,0.9,0.3
						C85.8,270.1,86.5,269.5,86.3,268.9"/>
					<path id="Trazado_118504" class="st11" d="M76.2,267.2c-0.6-0.1-1.2,0.3-1.4,0.9c-0.3,1.5-0.7,3.1-1,4.6
						c-0.1,0.6,0.3,1.3,0.9,1.4c0.6,0.1,1.2-0.3,1.4-0.9c0.3-1.5,0.7-3.1,1-4.6C77.3,267.9,76.8,267.3,76.2,267.2"/>
					<path id="Trazado_118505" class="st11" d="M64.7,266.5c-0.6,0.1-1.1,0.6-1.1,1.3v4.6c0.1,0.6,0.6,1.1,1.3,1.1
						c0.6-0.1,1.1-0.6,1.1-1.3v-4.6C65.9,266.9,65.4,266.5,64.7,266.5"/>
					<path id="Trazado_118506" class="st11" d="M61.8,278.6l-4.6-0.3c-0.3,0-0.6,0-0.9,0.2c-0.5,0.4-0.7,1.1-0.3,1.6
						c0.2,0.3,0.4,0.4,0.8,0.5l4.6,0.3c0.3,0,0.6,0,0.9-0.2c0.5-0.4,0.7-1.1,0.3-1.6C62.3,278.8,62.1,278.7,61.8,278.6"/>
					<path id="Trazado_118507" class="st11" d="M73.5,284.7l-1-5.2c-0.1-0.6-0.6-1.1-1.3-1.1c-0.6,0.1-1.1,0.6-1.1,1.3l1,5.2
						c0.1,0.6,0.6,1.1,1.3,1.1C73.1,285.9,73.6,285.3,73.5,284.7"/>
					<path id="Trazado_118508" class="st11" d="M89.3,281.5c-0.1-0.6-0.6-1.1-1.3-1.1l-5.3-0.1c-0.6,0.1-1.1,0.6-1.1,1.3
						c0.1,0.6,0.6,1.1,1.3,1.1l5.3,0.1C88.9,282.7,89.4,282.1,89.3,281.5"/>
					<path id="Trazado_118509" class="st11" d="M98.4,271.9l-2.3-4.9c-0.2-0.6-0.9-0.9-1.5-0.7c-0.6,0.2-0.9,0.9-0.7,1.5l0,0
						l2.3,4.9c0.2,0.6,0.9,0.9,1.5,0.7C98.3,273.2,98.7,272.5,98.4,271.9C98.4,271.9,98.4,271.9,98.4,271.9"/>
					<path id="Trazado_118510" class="st11" d="M99.5,286.3c-0.1-0.6-0.6-1.1-1.3-1.1h-3.9c-0.3,0-0.6,0.2-0.8,0.4
						c-0.4,0.5-0.4,1.2,0.1,1.7c0.2,0.2,0.5,0.3,0.9,0.3h3.9c0.3,0,0.6-0.2,0.8-0.4C99.4,286.9,99.5,286.6,99.5,286.3"/>
					<path id="Trazado_118511" class="st11" d="M87.2,287.5c-0.6-0.1-1.2,0.3-1.4,0.9c-0.4,1.8-0.8,3.5-1.2,5.3
						c-0.1,0.6,0.3,1.3,0.9,1.4c0.6,0.1,1.2-0.3,1.4-0.9c0.4-1.8,0.8-3.5,1.2-5.3C88.3,288.2,87.9,287.6,87.2,287.5"/>
					<path id="Trazado_118512" class="st11" d="M76.5,290c-0.2-0.2-0.4-0.4-0.8-0.5c-0.6-0.1-1.3,0.3-1.4,0.9
						c-0.1,1.5-0.2,3.1-0.3,4.6c0,0.3,0,0.6,0.2,0.9c0.4,0.5,1.1,0.7,1.6,0.3c0.3-0.2,0.4-0.4,0.5-0.7c0.1-1.5,0.2-3.1,0.3-4.6
						C76.8,290.6,76.7,290.2,76.5,290"/>
					<path id="Trazado_118513" class="st11" d="M65,291.6l-3.9-1.6c-0.6-0.3-1.3-0.1-1.6,0.5s-0.1,1.3,0.5,1.6c0,0,0,0,0,0l3.9,1.6
						c0.6,0.3,1.3,0.1,1.6-0.5S65.6,291.9,65,291.6C65,291.6,65,291.6,65,291.6"/>
					<path id="Trazado_118514" class="st11" d="M60.1,297.2c-0.1-0.6-0.6-1.1-1.3-1.1c0,0,0,0,0,0l-2.3,0.3c-0.3,0-0.6,0.2-0.8,0.4
						c-0.4,0.5-0.4,1.2,0.1,1.7c0.2,0.2,0.6,0.3,0.9,0.3l2.3-0.3c0.3,0,0.6-0.2,0.8-0.4C60,297.8,60.1,297.5,60.1,297.2"/>
					<path id="Trazado_118515" class="st11" d="M109.2,288.9l-2.6-3.6c-0.4-0.5-1.1-0.7-1.6-0.3s-0.7,1.1-0.3,1.6c0,0,0,0,0,0
						l2.6,3.6c0.4,0.5,1.1,0.6,1.7,0.2C109.4,290.2,109.5,289.5,109.2,288.9"/>
					<path id="Trazado_118516" class="st11" d="M110.2,293.5c-0.2-0.6-0.9-0.9-1.5-0.7l-7.2,2c-0.6,0.2-0.9,0.9-0.7,1.5
						c0.2,0.6,0.9,0.9,1.5,0.7l7.2-2C110.2,294.8,110.5,294.2,110.2,293.5"/>
					<path id="Trazado_118517" class="st11" d="M121,288.6l-2.2-3c-0.2-0.2-0.4-0.4-0.7-0.5c-0.6-0.1-1.3,0.3-1.4,0.9
						c-0.1,0.3,0,0.6,0.2,0.9l2.2,3c0.2,0.2,0.4,0.4,0.8,0.5c0.6,0.1,1.3-0.3,1.4-0.9C121.2,289.2,121.1,288.9,121,288.6"/>
					<path id="Trazado_118518" class="st11" d="M123.8,295.8c-0.1-0.6-0.6-1.1-1.3-1.1l-6.2,1.1c-0.6,0.1-1.1,0.6-1.1,1.3
						c0.1,0.6,0.6,1.1,1.3,1.1l6.2-1.1C123.3,297,123.8,296.4,123.8,295.8"/>
					<path id="Trazado_118519" class="st11" d="M137.2,294.4l-4.9-0.6c-0.6-0.1-1.3,0.3-1.4,0.9c-0.1,0.6,0.3,1.3,0.9,1.4
						c0,0,0,0,0,0l4.9,0.6c0.6,0.1,1.3-0.3,1.4-0.9C138.3,295.2,137.9,294.6,137.2,294.4C137.2,294.4,137.2,294.4,137.2,294.4"/>
					<path id="Trazado_118520" class="st11" d="M150.6,295.4l-3.9-4.3c-0.2-0.2-0.5-0.4-0.7-0.5c-0.3-0.1-0.6,0-0.9,0.2
						c-0.5,0.4-0.7,1.1-0.3,1.6l3.9,4.3c0.2,0.2,0.5,0.4,0.8,0.5c0.3,0.1,0.6,0,0.9-0.2C150.8,296.7,151,295.9,150.6,295.4"/>
					<path id="Trazado_118521" class="st11" d="M156.3,287.6c-0.1-0.6-0.7-1.1-1.3-1c-0.6,0.1-1.1,0.6-1,1.2l0.4,4.6
						c0.1,0.6,0.7,1.1,1.3,1c0.6-0.1,1.1-0.6,1-1.2L156.3,287.6"/>
					<path id="Trazado_118522" d="M176.7,267.6h-7.1c-5.4-0.1-9.7-4.5-9.6-9.9v-0.1l3.7-6.9l-2.6-1.5l9.5-1.4l3.4,9.3l-2.8-1.7
						l-1.7,3.2l7.3,0.1L176.7,267.6z M160.8,257.9c0,4.9,3.9,8.9,8.9,9h6.3v-7.4l-7.8-0.1l2.7-5l1.6,1l-2.4-6.6l-6.7,1l1.4,0.8
						L160.8,257.9z"/>
					<path id="Trazado_118523" d="M175.5,249.7l-7.7-4.4l3.4-6.4c1.2-2.3,3.3-4,5.8-4.7c2.5-0.7,5.1-0.4,7.3,0.9l0.1,0l0.1,0.1
						l4.1,6.6l2.6-1.6l-3.4,9.2l-9.6-1.5l2.8-1.7l-1.9-3.1L175.5,249.7z M168.9,245l6.3,3.6l3.9-6.9l2.9,4.9l-1.6,1l6.8,1l2.4-6.5
						l-1.3,0.8l-4.4-7.2c-2-1.1-4.4-1.4-6.7-0.7c-2.3,0.7-4.2,2.2-5.3,4.3L168.9,245z"/>
					<path id="Trazado_118524" d="M196.9,256.8L196.9,256.8c-0.2-1-0.6-1.9-1.1-2.8l-3.7-6.2l-7.5,4.6l3.7,6.4l-3.5,0.1l0-3.3
						l-6,7.8l6.1,7.6l-0.1-3.1l6.9-0.3c-0.2-0.2-0.3-0.5-0.3-0.8l-7.4,0.3l0,1.6l-4.3-5.4l4.3-5.6l0,1.9l5.6-0.2l-3.9-6.9l6.2-3.8
						l3.3,5.6c0.5,0.8,0.8,1.7,1,2.6C196.3,256.9,196.6,256.8,196.9,256.8"/>
					<path id="Trazado_118525" d="M99.3,76.5c0,1.7-1.1,3.1-2.5,3.1s-2.5-1.4-2.5-3.1s1.1-3.1,2.5-3.1S99.3,74.7,99.3,76.5"/>
					<path id="Trazado_118526" d="M118.9,76.5c0,1.7-1.1,3.1-2.5,3.1s-2.5-1.4-2.5-3.1s1.1-3.1,2.5-3.1S118.9,74.7,118.9,76.5"/>
					<path id="Trazado_118527" d="M97.9,69c-0.2-0.6-0.9-0.9-1.5-0.7l-3.4,1.5c-0.3,0.1-0.5,0.3-0.7,0.6c-0.3,0.6,0,1.3,0.6,1.6
						c0.3,0.1,0.6,0.2,0.9,0l3.4-1.5c0.3-0.1,0.5-0.3,0.7-0.6C98,69.6,98,69.3,97.9,69"/>
					<path id="Trazado_118528" d="M119.2,69.8l-3.2-1c-0.3-0.1-0.6-0.1-0.9,0.1c-0.6,0.3-0.8,1-0.5,1.6c0.1,0.3,0.4,0.5,0.7,0.6
						l3.2,1c0.3,0.1,0.6,0.1,0.9-0.1c0.6-0.3,0.8-1,0.5-1.6C119.7,70.1,119.4,69.9,119.2,69.8"/>
				</g>
			</g>
		</g>
		<g id="Grupo_85511" transform="translate(91.219 145.322)">
			<g>
				<defs>
					<rect id="SVGID_00000109714488768962962340000000396363714472413096_" x="-0.5" y="28.5" width="130.1" height="49.1"/>
				</defs>
				<clipPath id="SVGID_00000053528526193381555660000017445981799058777755_">
					<use xlink:href="#SVGID_00000109714488768962962340000000396363714472413096_"  style="overflow:visible;"/>
				</clipPath>
				<g id="Grupo_85510" style="clip-path:url(#SVGID_00000053528526193381555660000017445981799058777755_);">
					<path id="Trazado_118529" class="st14" d="M59.8,71.4v33.8H37.6V70.8c0-2.8,1.1-5.4,3-7.4l0.2-0.2c1.9-2,3-4.6,3-7.4V35.6h8.7
						v19.8c0,3.1,1.3,6,3.7,8C58.4,65.4,59.8,68.3,59.8,71.4"/>
					<rect id="Rectángulo_49222" x="44.7" y="30" class="st20" width="6.7" height="5.4"/>
					<rect id="Rectángulo_49223" x="44.7" y="30" class="st7" width="6.7" height="5.4"/>
					<rect id="Rectángulo_49224" x="37.6" y="72.5" class="st20" width="22.2" height="25.3"/>
					<rect id="Rectángulo_49225" x="37.6" y="72.5" class="st7" width="22.2" height="25.3"/>
					<path id="Trazado_118530" class="st11" d="M107.3,86.7L91,116.2l-19.4-10.7l16.5-30c1.3-2.4,3.5-4.2,6.2-5l0.2-0.1
						c2.6-0.8,4.9-2.6,6.2-5l9.4-17.1l-1.7-0.9c-0.7-0.4-0.9-1.2-0.6-1.9c0.4-0.7,1.2-0.9,1.9-0.6l11.1,6.1c0.7,0.4,0.9,1.2,0.6,1.9
						c-0.4,0.7-1.2,0.9-1.9,0.6l-1.8-1l-9.1,16.6c-1.5,2.7-1.7,5.9-0.6,8.8C109,80.8,108.7,84,107.3,86.7"/>
					<path id="Trazado_118531" class="st4" d="M76.2,104.9L76.2,104.9c-0.5-0.3-0.6-0.8-0.4-1.3l15.6-28.3c0.3-0.5,0.8-0.6,1.3-0.4
						c0.5,0.3,0.6,0.8,0.4,1.3l0,0l-15.6,28.3C77.2,105,76.7,105.2,76.2,104.9"/>
					<path id="Trazado_118532" class="st13" d="M82.9,64.7L88.5,98l-21.9,3.7L61,67.8c-0.5-2.7,0.2-5.5,1.7-7.8l0.1-0.2
						c1.6-2.3,2.2-5,1.7-7.8L63.2,44l-1.9,0.3c-0.8,0.1-1.5-0.4-1.6-1.2s0.4-1.5,1.2-1.6l0,0l12.5-2.1c0.8-0.1,1.5,0.4,1.6,1.2
						c0.1,0.8-0.4,1.5-1.2,1.6l-2.1,0.3l1.3,7.6c0.5,3,2.3,5.7,4.9,7.3C80.6,59,82.4,61.6,82.9,64.7"/>
					<path id="Trazado_118533" class="st4" d="M69.9,98.3L69.9,98.3c-0.5,0.1-1-0.3-1.1-0.8l-5.4-31.9c-0.1-0.5,0.2-1,0.7-1.1
						s1,0.2,1.1,0.7c0,0,0,0,0,0.1l5.4,31.9C70.8,97.7,70.5,98.2,69.9,98.3"/>
					<path id="Trazado_118534" class="st7" d="M100.3,72.7l-1.2,25.3l-16.6-0.8l1.2-25.7c0.1-2.1,1-4,2.5-5.4l0.1-0.1
						c1.5-1.4,2.4-3.3,2.5-5.4l0.3-21.3l-1.4-0.1c-0.6,0-1-0.5-1-1.1c0-0.6,0.5-1,1.1-1l0,0l9.5,0.5c0.6,0,1,0.5,1,1.1
						c0,0.3-0.1,0.5-0.3,0.7c-0.2,0.2-0.5,0.3-0.8,0.3l-1.6-0.1l-0.3,20.8c-0.1,2.3,0.8,4.5,2.5,6.1
						C99.5,68.1,100.4,70.3,100.3,72.7L100.3,72.7z"/>
					<path id="Trazado_118535" class="st3" d="M26,74.3l4.5,33.5l-22,2.9l-4.6-34c-0.4-2.7,0.4-5.5,2-7.7l0.1-0.2
						c1.6-2.2,2.4-5,2-7.7L5.5,41.8l-1.9,0.3c-0.8,0.1-1.5-0.4-1.6-1.2c-0.1-0.8,0.4-1.5,1.2-1.6c0,0,0,0,0,0l12.6-1.7
						c0.8-0.1,1.5,0.4,1.6,1.2c0.1,0.8-0.4,1.5-1.2,1.6l-2.1,0.3l2.5,18.8c0.4,3,2.1,5.7,4.7,7.4C23.9,68.5,25.6,71.2,26,74.3"/>
					<path id="Trazado_118536" class="st4" d="M11.9,107.4L11.9,107.4c-0.5,0.1-1-0.3-1.1-0.8L6.5,74.5c-0.1-0.5,0.3-1,0.8-1.1
						c0.5-0.1,1,0.3,1.1,0.8l4.3,32.1C12.8,106.9,12.4,107.3,11.9,107.4"/>
					<path id="Trazado_118537" class="st7" d="M42.3,62.6l13.1,35.5l-23.3,8.6L18.7,70.7c-1.1-2.9-1-6.1,0.3-8.9l0.1-0.2
						c1.3-2.8,1.4-6,0.3-8.9L16.2,44l-2,0.7c-0.8,0.3-1.7-0.1-2-0.9c-0.3-0.8,0.1-1.7,0.9-2c0,0,0,0,0.1,0l13.3-4.9
						c0.8-0.3,1.7,0.1,2,0.9c0.3,0.8-0.1,1.7-0.9,2l-2.2,0.8l3,8.1c1.2,3.2,3.7,5.8,7,7C38.5,56.8,41.1,59.4,42.3,62.6L42.3,62.6z"
						/>
				</g>
			</g>
		</g>
	</g>
</g>
</svg>
