<svg id="Grupo_92543" data-name="Grupo 92543" xmlns="http://www.w3.org/2000/svg" xmlns:xlink="http://www.w3.org/1999/xlink" width="383.232" height="271.53" viewBox="0 0 383.232 271.53">
  <defs>
    <clipPath id="clip-path">
      <rect id="Rectángulo_48722" data-name="Rectángulo 48722" width="383.232" height="271.53" fill="none"/>
    </clipPath>
    <clipPath id="clip-path-4">
      <rect id="Rectángulo_48697" data-name="Rectángulo 48697" width="22.606" height="27.177" fill="none"/>
    </clipPath>
    <clipPath id="clip-path-5">
      <rect id="Rectángulo_48698" data-name="Rectángulo 48698" width="21.47" height="28.757" fill="none"/>
    </clipPath>
    <clipPath id="clip-path-6">
      <rect id="Rectángulo_48699" data-name="Rectángulo 48699" width="15.791" height="22.413" fill="none"/>
    </clipPath>
    <clipPath id="clip-path-7">
      <rect id="Rectángulo_48700" data-name="Rectángulo 48700" width="8.634" height="13.844" fill="none"/>
    </clipPath>
    <clipPath id="clip-path-8">
      <rect id="Rectángulo_48701" data-name="Rectángulo 48701" width="7.46" height="26.86" fill="none"/>
    </clipPath>
    <clipPath id="clip-path-9">
      <rect id="Rectángulo_48702" data-name="Rectángulo 48702" width="4.782" height="3.294" fill="none"/>
    </clipPath>
    <clipPath id="clip-path-11">
      <rect id="Rectángulo_48704" data-name="Rectángulo 48704" width="15.362" height="21.749" fill="none"/>
    </clipPath>
    <clipPath id="clip-path-13">
      <rect id="Rectángulo_48708" data-name="Rectángulo 48708" width="26.049" height="10.236" fill="none"/>
    </clipPath>
    <clipPath id="clip-path-15">
      <rect id="Rectángulo_48712" data-name="Rectángulo 48712" width="26.05" height="10.236" fill="none"/>
    </clipPath>
  </defs>
  <g id="Grupo_85024" data-name="Grupo 85024" clip-path="url(#clip-path)">
    <g id="Grupo_84978" data-name="Grupo 84978">
      <g id="Grupo_84977" data-name="Grupo 84977" clip-path="url(#clip-path)">
        <path id="Trazado_117054" data-name="Trazado 117054" d="M126.661,153.478s-3.487-2.856-8.962,5.623a116.712,116.712,0,0,0-7.73,13.461s-1.4,1.751-2.559.394-2.57-5.013-4.822-4.611c-2.336.416-3.343,2.873-3.291,6.639s-.138,12.022-.158,12.768-.545,1.762-1.485.964-6.091-7.869-9.3-5.223-1.341,13.114-1.159,14.262-.085,1.6-.645,1.826-2.067-2.318-3.614-4.269-3.684-3.942-5.408-2.261-3,9.262,3,22.4l3.176,5.906,6.728.314c14.44-.206,20.748-4.6,21.53-6.878s-1.932-3.356-4.357-3.92-5.367-.839-5.4-1.44.258-1.037,1.374-1.364,11.377-3.119,12.394-7.151-7.578-5.662-8.7-6.171-.419-1.424.236-1.755,8.046-4.042,11.473-5.607,5.215-3.526,4.592-5.815c-.6-2.208-4.508-1.915-6.231-2.385s-.739-2.482-.739-2.482a116.829,116.829,0,0,0,8.857-12.747c5.32-8.577,1.135-10.534,1.135-10.534" transform="translate(-28.68 -57.671)" fill="#ebebeb"/>
        <path id="Trazado_117055" data-name="Trazado 117055" d="M86.391,227.318c3.932-6.283,11.107-17.334,17.219-26.853s11.633-18.137,15.6-24.4l4.686-7.422,1.276-2.018.336-.522c.077-.117.121-.174.121-.174s-.032.065-.1.186l-.318.533c-.289.473-.707,1.158-1.242,2.038-1.081,1.769-2.663,4.317-4.63,7.458-3.932,6.283-9.436,14.917-15.545,24.434S90.479,221.134,86.516,227.4" transform="translate(-32.56 -62.538)" fill="#e0e0e0"/>
        <path id="Trazado_117056" data-name="Trazado 117056" d="M121.438,185.952a2.168,2.168,0,0,1,.122.47c.066.3.15.748.247,1.3.193,1.1.421,2.62.642,4.305.212,1.662.4,3.165.55,4.315.07.518.128.955.175,1.306a2.179,2.179,0,0,1,.046.482,2.136,2.136,0,0,1-.125-.469c-.065-.3-.149-.748-.241-1.3-.183-1.1-.39-2.625-.611-4.309-.224-1.66-.426-3.161-.581-4.309-.072-.518-.133-.954-.182-1.305a2.147,2.147,0,0,1-.042-.484" transform="translate(-45.767 -70.084)" fill="#e0e0e0"/>
        <path id="Trazado_117057" data-name="Trazado 117057" d="M125.264,204.26c-.01-.057,3.108-.665,6.964-1.358s6.991-1.21,7-1.153-3.108.665-6.965,1.358-6.991,1.209-7,1.153" transform="translate(-47.211 -76.036)" fill="#e0e0e0"/>
        <path id="Trazado_117058" data-name="Trazado 117058" d="M109.147,228.555a2.242,2.242,0,0,1,.495.028l1.338.141c1.13.118,2.691.275,4.419.384s3.3.161,4.433.187l1.345.032a2.27,2.27,0,0,1,.493.036,2.248,2.248,0,0,1-.493.045c-.318.016-.778.03-1.347.035-1.138.012-2.711-.013-4.445-.126s-3.3-.29-4.424-.446c-.563-.08-1.019-.15-1.332-.207a2.24,2.24,0,0,1-.484-.108" transform="translate(-41.137 -86.139)" fill="#e0e0e0"/>
        <path id="Trazado_117059" data-name="Trazado 117059" d="M101.741,211.384a1.952,1.952,0,0,1,.223.4l.537,1.122c.446.951,1.047,2.272,1.7,3.735s1.234,2.794,1.646,3.76l.477,1.15a1.923,1.923,0,0,1,.149.433,1.939,1.939,0,0,1-.223-.4l-.537-1.122c-.446-.951-1.048-2.272-1.7-3.736s-1.234-2.793-1.646-3.76l-.477-1.15a1.946,1.946,0,0,1-.149-.433" transform="translate(-38.345 -79.669)" fill="#e0e0e0"/>
        <path id="Trazado_117060" data-name="Trazado 117060" d="M84.957,229.685a3.154,3.154,0,0,1,.28.515c.181.374.414.857.694,1.436.578,1.216,1.362,2.9,2.218,4.77s1.619,3.564,2.163,4.8l.634,1.463a3.159,3.159,0,0,1,.206.548,3.188,3.188,0,0,1-.28-.515l-.694-1.436c-.578-1.216-1.363-2.9-2.218-4.771s-1.619-3.563-2.162-4.8l-.634-1.463a3.158,3.158,0,0,1-.206-.548" transform="translate(-32.019 -86.567)" fill="#e0e0e0"/>
        <path id="Trazado_117061" data-name="Trazado 117061" d="M94.809,250.8a3.6,3.6,0,0,1,.627.019l1.7.118c1.438.1,3.425.227,5.622.307s4.189.106,5.63.112l1.707.009a3.633,3.633,0,0,1,.627.027,3.6,3.6,0,0,1-.625.054c-.4.021-.986.043-1.708.057-1.442.031-3.438.032-5.639-.052s-4.19-.232-5.626-.368c-.718-.07-1.3-.133-1.7-.184a3.63,3.63,0,0,1-.619-.1" transform="translate(-35.733 -94.524)" fill="#e0e0e0"/>
        <path id="Trazado_117062" data-name="Trazado 117062" d="M43.075,178.434a17.909,17.909,0,0,1-.174,3.072,22.325,22.325,0,0,1-2.8,8.245l-.065-.113h.136l-.064.113L22.653,220.7l-.109.194-.118-.189L3.975,191.277l-.907-1.449-.141-.225h.266l-.127.221a22.616,22.616,0,0,1-2.78-7.774A21.525,21.525,0,0,1,.011,178q.054-1,.109-2,.149-.988.3-1.967a22.693,22.693,0,0,1,7.531-12.878,21.827,21.827,0,0,1,6.07-3.567l.8-.3.4-.149.41-.109,1.626-.424a22.676,22.676,0,0,1,3.251-.394,21.879,21.879,0,0,1,3.164.057c.516.041,1.02.153,1.523.224l.749.121c.246.052.486.126.727.188l1.429.387,1.353.516c.222.088.448.164.663.26l.63.315,1.236.625a22.36,22.36,0,0,1,7.167,6.616,22.762,22.762,0,0,1,3.122,6.681,20.213,20.213,0,0,1,.55,2.639,14.506,14.506,0,0,1,.209,1.963q.028.79.042,1.213c.007.274,0,.413,0,.413s-.016-.14-.034-.412-.04-.684-.07-1.209a15.171,15.171,0,0,0-.236-1.953,20.641,20.641,0,0,0-.573-2.622,22.856,22.856,0,0,0-3.147-6.619,22.261,22.261,0,0,0-7.135-6.53l-1.226-.614-.624-.311c-.214-.094-.437-.169-.657-.255L28.03,157.4l-1.414-.378c-.239-.06-.476-.134-.72-.184l-.741-.117c-.5-.069-1-.178-1.507-.218a21.666,21.666,0,0,0-3.128-.047,22.5,22.5,0,0,0-3.213.4l-1.606.422-.405.108-.394.148-.792.3a21.6,21.6,0,0,0-5.99,3.534A22.44,22.44,0,0,0,.7,174.09q-.146.966-.292,1.942-.052.985-.106,1.978A21.245,21.245,0,0,0,.574,182a22.355,22.355,0,0,0,2.746,7.673l.129.221H3.192l.125-.224.907,1.448L22.65,220.567l-.227,0,17.553-30.9.065.112H39.9l.065-.113a22.577,22.577,0,0,0,2.852-8.18c.143-.993.184-1.762.217-2.277.009-.252.016-.446.021-.585s.014-.2.014-.2" transform="translate(0 -58.861)" fill="#e0e0e0"/>
        <path id="Trazado_117063" data-name="Trazado 117063" d="M39.977,183.165a1.253,1.253,0,0,1-.026-.221c-.011-.16-.026-.374-.045-.647-.009-.144-.019-.3-.03-.476s-.057-.363-.088-.569a9.976,9.976,0,0,0-.285-1.405A13.023,13.023,0,0,0,38,176.238a13.519,13.519,0,0,0-16.224-5.8,12.39,12.39,0,0,0-3.42,1.831,15.179,15.179,0,0,0-1.534,1.3,15.312,15.312,0,0,0-1.326,1.562,13.071,13.071,0,0,0-1.937,3.712,13.371,13.371,0,0,0-.022,8.515,13.063,13.063,0,0,0,1.919,3.724,15.313,15.313,0,0,0,1.318,1.568,15.2,15.2,0,0,0,1.527,1.306,12.424,12.424,0,0,0,3.411,1.848,13.555,13.555,0,0,0,16.254-5.719,13.044,13.044,0,0,0,1.525-3.6,10.04,10.04,0,0,0,.292-1.4c.032-.2.07-.394.09-.568s.022-.332.032-.476c.021-.272.037-.487.049-.646a1.231,1.231,0,0,1,.027-.221,1.213,1.213,0,0,1,0,.221c0,.161-.011.376-.02.65-.006.145-.011.3-.018.479s-.049.366-.077.573a9.669,9.669,0,0,1-.267,1.419,12.919,12.919,0,0,1-1.5,3.658,13.726,13.726,0,0,1-9.257,6.487,13.785,13.785,0,0,1-7.231-.6,12.645,12.645,0,0,1-3.485-1.877,15.438,15.438,0,0,1-1.562-1.33,15.515,15.515,0,0,1-1.348-1.6,13.324,13.324,0,0,1-1.964-3.8,13.638,13.638,0,0,1,.022-8.7,13.334,13.334,0,0,1,1.983-3.79,15.51,15.51,0,0,1,1.357-1.592,15.577,15.577,0,0,1,1.568-1.322,14.414,14.414,0,0,1,1.694-1.077,14.33,14.33,0,0,1,1.8-.781,13.779,13.779,0,0,1,7.232-.561,13.731,13.731,0,0,1,9.225,6.532,12.92,12.92,0,0,1,1.477,3.666,9.776,9.776,0,0,1,.26,1.421c.026.207.06.4.074.574s.011.335.016.479c.007.274.012.489.017.65a1.266,1.266,0,0,1,0,.221" transform="translate(-4.732 -63.839)" fill="#e0e0e0"/>
        <path id="Trazado_117064" data-name="Trazado 117064" d="M29.447,193.631,21.519,188.1l1.93-2.766,5.316,3.709,6.877-8.738,2.65,2.086Z" transform="translate(-8.11 -67.956)" fill="#e0e0e0"/>
        <path id="Trazado_117065" data-name="Trazado 117065" d="M368.825,33.665a26.24,26.24,0,0,1,6.743,1.78l4.956-4.153,8.513,6.48-2.682,5.883a26.237,26.237,0,0,1,3.514,6.025l6.439.568,1.437,10.6-6.054,2.263a26.157,26.157,0,0,1-1.781,6.743l4.154,4.957-6.478,8.512L381.7,80.644a26.231,26.231,0,0,1-6.026,3.512l-.566,6.439-10.6,1.439-2.263-6.055A26.2,26.2,0,0,1,355.5,84.2l-4.957,4.154-8.513-6.48,2.683-5.885a26.275,26.275,0,0,1-3.513-6.025l-6.439-.568-1.439-10.6,6.055-2.262a26.17,26.17,0,0,1,1.781-6.744L337,44.83l6.478-8.512L349.368,39a26.2,26.2,0,0,1,6.026-3.514l.566-6.439,10.6-1.438Zm-3.18,14.619a11.479,11.479,0,1,0,11.528,8.78,11.482,11.482,0,0,0-11.528-8.78" transform="translate(-125.627 -10.406)" fill="#f5f5f5" fill-rule="evenodd"/>
        <path id="Trazado_117066" data-name="Trazado 117066" d="M221.422,89.347A17.033,17.033,0,0,1,225.8,90.5l3.217-2.7,5.526,4.206-1.741,3.82a17.008,17.008,0,0,1,2.281,3.911l4.18.368.933,6.882-3.93,1.469a16.977,16.977,0,0,1-1.156,4.377l2.7,3.218-4.205,5.526-3.82-1.741a17.01,17.01,0,0,1-3.912,2.28l-.368,4.18-6.883.934-1.469-3.931a17.007,17.007,0,0,1-4.377-1.156l-3.218,2.7-5.526-4.206,1.742-3.82a17.053,17.053,0,0,1-2.281-3.911l-4.179-.368-.934-6.882,3.931-1.469a16.983,16.983,0,0,1,1.156-4.377l-2.7-3.218,4.205-5.526,3.82,1.741a17.044,17.044,0,0,1,3.912-2.281l.368-4.179,6.882-.934Zm-2.064,9.49a7.451,7.451,0,1,0,7.484,5.7,7.453,7.453,0,0,0-7.484-5.7" transform="translate(-74.766 -32.193)" fill="#ebebeb" fill-rule="evenodd"/>
        <path id="Trazado_117067" data-name="Trazado 117067" d="M317.054,171.443a9.1,9.1,0,0,1,2.488,1.645,11.989,11.989,0,0,1,3.857,7.09,12.134,12.134,0,0,1-.426,5.649,12.327,12.327,0,0,1-3.557,5.444,12.335,12.335,0,0,1-6.531,2.986,12.285,12.285,0,0,1-12.83-7.037,12.335,12.335,0,0,1-.992-7.113,12.322,12.322,0,0,1,2.68-5.927,12.142,12.142,0,0,1,4.536-3.395,11.987,11.987,0,0,1,8.051-.556,9.1,9.1,0,0,1,2.724,1.214c-.036.078-.953-.493-2.792-.953a12,12,0,0,0-7.785.743,11.761,11.761,0,0,0-6.784,8.972,11.76,11.76,0,0,0,.977,6.73,11.664,11.664,0,0,0,12.126,6.652,11.763,11.763,0,0,0,6.2-2.793,11.763,11.763,0,0,0,3.921-10.542,12,12,0,0,0-3.557-6.966c-1.376-1.3-2.351-1.77-2.3-1.843" transform="translate(-112.655 -63.989)" fill="#ebebeb"/>
        <path id="Trazado_117068" data-name="Trazado 117068" d="M316.558,148.5a2.591,2.591,0,0,1,.092-.413c.08-.3.188-.713.327-1.241l1.34-4.9.053.127-9.871-5.341.216-.037-4.473,5.1-.08.092-.12-.029a27.474,27.474,0,0,0-7.219-.764l-.137,0-.067-.121-3.308-5.923.284.117-10.765,3.165.2-.277c.132,2.1.277,4.4.426,6.77l.011.173-.148.09a27.3,27.3,0,0,0-5.64,4.539l-.123.131-.174-.05-6.521-1.857.355-.148-5.386,9.846-.069-.4,5.081,4.488.148.131-.047.193a27.388,27.388,0,0,0-.778,7.186l.006.2-.178.1-5.931,3.294.161-.39,3.145,10.773-.351-.247,6.772-.414.209-.012.108.179a27.236,27.236,0,0,0,4.516,5.631l0,0h0c.042.155-.093-.344.095.346l0,.007,0,.012-.007.026-.015.051-.029.1-.059.205-.117.411-.235.819-.469,1.634-.931,3.25-.166-.4,9.839,5.4-.421.074,4.5-5.076.136-.154.2.049a27.147,27.147,0,0,0,7.184.789l.2,0,.1.178,3.286,5.934-.379-.156,10.776-3.13-.228.325q-.207-3.446-.405-6.771l-.011-.188.161-.1a27.2,27.2,0,0,0,5.652-4.518l.125-.131.174.05,6.515,1.877-.331.138,5.419-9.828.057.325-5.067-4.506-.112-.1.036-.145a27.38,27.38,0,0,0,.807-7.209l0-.138.12-.066,5.943-3.271-.1.236-3.094-10.788.158.111-6.773.37-.068,0-.034-.057a28.542,28.542,0,0,0-3.253-4.432l-.925-1a2.782,2.782,0,0,1-.3-.334,3.393,3.393,0,0,1,.344.293c.219.206.55.52.969.962a26.638,26.638,0,0,1,3.36,4.394l-.1-.054,6.768-.456.123-.008.036.12,3.188,10.76.046.156-.143.08-5.92,3.31.117-.2a27.736,27.736,0,0,1-.78,7.339l-.076-.245,5.089,4.481.158.14-.1.186-5.379,9.85-.11.2-.221-.063-6.521-1.856.3-.081a27.781,27.781,0,0,1-5.765,4.637l.149-.284q.207,3.326.421,6.771l.016.254-.245.071L301.507,202.4l-.252.074-.128-.231-3.3-5.929.3.172a27.81,27.81,0,0,1-7.363-.8l.335-.1-4.491,5.081-.181.2-.24-.131-9.843-5.395-.242-.133.076-.265.931-3.25.468-1.635.235-.819.117-.411.059-.2.029-.1.014-.052.007-.026,0-.013,0-.006c.188.69.052.191.093.344h0l0,0a27.877,27.877,0,0,1-4.63-5.775l.316.166-6.771.411-.274.017-.077-.264-3.135-10.775-.075-.26.236-.131,5.935-3.286-.172.3a28,28,0,0,1,.809-7.36l.1.324-5.072-4.5-.193-.171.124-.225,5.41-9.833.118-.216.236.067,6.515,1.877-.3.081a27.835,27.835,0,0,1,5.777-4.617l-.137.262c-.14-2.367-.276-4.676-.4-6.772l-.013-.218.209-.06,10.78-3.116.189-.054.095.171,3.274,5.941-.2-.117a27.719,27.719,0,0,1,7.328.824l-.2.062,4.514-5.059.093-.106.122.068,9.808,5.455.078.043-.025.084c-.624,2.091-1.105,3.7-1.44,4.819l-.384,1.243a3.224,3.224,0,0,1-.148.426" transform="translate(-99.308 -50.746)" fill="#ebebeb"/>
        <path id="Trazado_117069" data-name="Trazado 117069" d="M385.083,151.045,375.3,112.161l39.784-.657Z" transform="translate(-141.45 -42.025)" fill="#ebebeb"/>
        <rect id="Rectángulo_48695" data-name="Rectángulo 48695" width="22.607" height="91.422" transform="translate(247.976 95.041) rotate(-52.806)" fill="#ebebeb"/>
      </g>
    </g>
    <g id="Grupo_84998" data-name="Grupo 84998">
      <g id="Grupo_84997" data-name="Grupo 84997" clip-path="url(#clip-path)">
        <path id="Trazado_117070" data-name="Trazado 117070" d="M502.674,331.746l5.053,11.458s-9.949,8.985-9.221,11.193l22.568-9-7.141-18.176Z" transform="translate(-187.87 -123.327)" fill="#e8505b"/>
        <g id="Grupo_84981" data-name="Grupo 84981" transform="translate(310.599 203.893)" opacity="0.5">
          <g id="Grupo_84980" data-name="Grupo 84980">
            <g id="Grupo_84979" data-name="Grupo 84979" clip-path="url(#clip-path-4)">
              <path id="Trazado_117071" data-name="Trazado 117071" d="M502.674,331.746l5.053,11.458s-9.949,8.985-9.221,11.193l22.568-9-7.141-18.176Z" transform="translate(-498.468 -327.22)"/>
            </g>
          </g>
        </g>
        <path id="Trazado_117072" data-name="Trazado 117072" d="M521.033,355.3l-.791-1.8L498.9,362.8s-.831.838-.435,1.5Z" transform="translate(-187.828 -133.23)" fill="#263238"/>
        <path id="Trazado_117073" data-name="Trazado 117073" d="M568.01,357.036l6.326,10.808s-8.861,10.059-7.886,12.171l21.4-11.513-9.165-17.244Z" transform="translate(-213.463 -132.387)" fill="#e8505b"/>
        <g id="Grupo_84984" data-name="Grupo 84984" transform="translate(352.912 218.87)" opacity="0.5">
          <g id="Grupo_84983" data-name="Grupo 84983">
            <g id="Grupo_84982" data-name="Grupo 84982" clip-path="url(#clip-path-5)">
              <path id="Trazado_117074" data-name="Trazado 117074" d="M568.01,357.036l6.326,10.808s-8.861,10.059-7.886,12.171l21.4-11.513-9.165-17.244Z" transform="translate(-566.375 -351.257)"/>
            </g>
          </g>
        </g>
        <path id="Trazado_117075" data-name="Trazado 117075" d="M587.8,377.9l-.993-1.7-20.143,11.675s-.73.927-.261,1.54Z" transform="translate(-213.413 -141.788)" fill="#263238"/>
        <path id="Trazado_117076" data-name="Trazado 117076" d="M511.133,97.162l-13.868,1.08-.46-7.765s-5.594-.082-6.432-5.546-1.656-18.166-1.656-18.166a19.21,19.21,0,0,1,19.453-.285l.9.51Z" transform="translate(-184.194 -24.113)" fill="#ffbe9d"/>
        <path id="Trazado_117077" data-name="Trazado 117077" d="M501.664,104.549a12.852,12.852,0,0,0,6.85-3.031s-1.213,4.3-6.743,4.572Z" transform="translate(-189.074 -38.261)" fill="#eb996e"/>
        <path id="Trazado_117078" data-name="Trazado 117078" d="M521.576,77.837c.088-.054,3.6-1.641,4.011,2.119s-3.451,3.392-3.469,3.284-.542-5.4-.542-5.4" transform="translate(-196.579 -29.194)" fill="#ffbe9d"/>
        <path id="Trazado_117079" data-name="Trazado 117079" d="M524.022,82.4c.015-.014.07.039.186.077a.657.657,0,0,0,.491-.042,1.631,1.631,0,0,0,.593-1.535,2.176,2.176,0,0,0-.285-.917.762.762,0,0,0-.547-.45.336.336,0,0,0-.367.222c-.039.11-.007.183-.026.191s-.088-.054-.074-.212a.42.42,0,0,1,.122-.252.5.5,0,0,1,.352-.135.924.924,0,0,1,.747.508,2.233,2.233,0,0,1,.34,1.023,1.709,1.709,0,0,1-.779,1.727.7.7,0,0,1-.609-.035c-.126-.08-.156-.162-.143-.17" transform="translate(-197.489 -29.907)" fill="#eb996e"/>
        <path id="Trazado_117080" data-name="Trazado 117080" d="M492.506,81.76a.789.789,0,0,0,.865.682.755.755,0,0,0,.707-.818.79.79,0,0,0-.864-.684.756.756,0,0,0-.707.819" transform="translate(-185.621 -30.505)" fill="#263238"/>
        <path id="Trazado_117081" data-name="Trazado 117081" d="M492.106,79.937c.111.088.642-.433,1.484-.549s1.517.217,1.593.1c.039-.052-.086-.222-.382-.38a2.165,2.165,0,0,0-1.294-.208,2.077,2.077,0,0,0-1.163.565c-.231.235-.293.432-.239.47" transform="translate(-185.465 -29.729)" fill="#263238"/>
        <path id="Trazado_117082" data-name="Trazado 117082" d="M505.635,80.241a.79.79,0,0,0,.865.683.756.756,0,0,0,.707-.818.79.79,0,0,0-.864-.684.756.756,0,0,0-.707.819" transform="translate(-190.569 -29.933)" fill="#263238"/>
        <path id="Trazado_117083" data-name="Trazado 117083" d="M505.411,78.323c.112.088.643-.433,1.484-.549s1.517.218,1.594.1c.038-.052-.085-.222-.383-.379a2.17,2.17,0,0,0-1.294-.208,2.081,2.081,0,0,0-1.163.565c-.231.235-.292.432-.239.47" transform="translate(-190.479 -29.121)" fill="#263238"/>
        <path id="Trazado_117084" data-name="Trazado 117084" d="M500.578,85.391a5.628,5.628,0,0,0-1.4-.054c-.218.008-.427-.006-.484-.148a1.1,1.1,0,0,1,.054-.657q.193-.823.405-1.725a28.372,28.372,0,0,0,.825-4.479,28.5,28.5,0,0,0-1.184,4.4c-.131.6-.257,1.18-.377,1.731a1.255,1.255,0,0,0,.007.859.542.542,0,0,0,.4.264,1.479,1.479,0,0,0,.372,0,5.537,5.537,0,0,0,1.385-.193" transform="translate(-187.821 -29.522)" fill="#263238"/>
        <path id="Trazado_117085" data-name="Trazado 117085" d="M504.6,90.039c-.138.011-.011.925-.7,1.682s-1.676.794-1.666.923c-.005.059.242.147.654.1a2.3,2.3,0,0,0,1.4-.718,2,2,0,0,0,.53-1.4c-.019-.387-.153-.6-.214-.584" transform="translate(-189.29 -33.935)" fill="#263238"/>
        <path id="Trazado_117086" data-name="Trazado 117086" d="M504.324,73.182c.115.217.94-.009,1.943-.029,1-.04,1.839.137,1.942-.087.044-.107-.125-.3-.477-.478a3.376,3.376,0,0,0-2.96.088c-.341.2-.5.4-.448.506" transform="translate(-190.073 -27.245)" fill="#263238"/>
        <path id="Trazado_117087" data-name="Trazado 117087" d="M492.044,75.937c.174.17.726-.11,1.421-.217.692-.131,1.3-.052,1.413-.272.047-.105-.074-.284-.357-.428a2.084,2.084,0,0,0-2.284.393c-.218.231-.272.439-.193.523" transform="translate(-185.435 -28.206)" fill="#263238"/>
        <path id="Trazado_117088" data-name="Trazado 117088" d="M483.623,59.485a2.04,2.04,0,0,1,.492-1.91,1.447,1.447,0,0,1,1.876-.123,1.689,1.689,0,0,1,1.153-2.23c.885-.182,1.741.385,2.637.5a4.1,4.1,0,0,0,2.514-.654c.764-.44,1.457-1,2.236-1.412a7.068,7.068,0,0,1,9.53,2.851,3.14,3.14,0,0,1,3.471.784,5.151,5.151,0,0,1,1.285,3.482,11.54,11.54,0,0,1-.28,2.544c.01.07.026.138.035.209.367,3.018.523,6.6-.758,6.8-2.233.349-2.293-3.942-2.293-3.942-2.9-.675-2.451-4.934-3.226-5.462s-2.415-1.776-7.753,1.972a11.247,11.247,0,0,1-6.719,1.7c-.049,0-.1,0-.147-.009l-.034,0c-.018,0-.032-.01-.05-.012a5.221,5.221,0,0,1-1.563-.418,2.944,2.944,0,0,1-1.406-1.18,1.612,1.612,0,0,1,.073-1.758,3.543,3.543,0,0,1-1.074-1.727" transform="translate(-182.253 -19.912)" fill="#263238"/>
        <path id="Trazado_117089" data-name="Trazado 117089" d="M501.664,108.052l.619,21.73,13.52-29.106-.339-2.694Z" transform="translate(-189.074 -36.928)" fill="#ebebeb"/>
        <path id="Trazado_117090" data-name="Trazado 117090" d="M499.109,218.023c-.5.162-28.645,28.631-28.012,33.744s20.671,42.984,20.671,42.984l14.3-7.049-13.411-33.2.176-2.06,16.39-13.43-.875-21.6Z" transform="translate(-177.549 -81.941)" fill="#263238"/>
        <path id="Trazado_117091" data-name="Trazado 117091" d="M525.8,220.911c.327.5,5.2,45.221,6.508,47.536s20.887,40.5,20.887,40.5l14.537-5.858-17.747-41.964,2.023-39.717-1.095-11.215-21.948,4.5Z" transform="translate(-198.171 -79.219)" fill="#263238"/>
        <path id="Trazado_117092" data-name="Trazado 117092" d="M532.044,275.526a2.526,2.526,0,0,1-.095-.447c-.054-.325-.124-.755-.212-1.292l-.72-4.757c-.583-4.051-1.38-9.591-2.261-15.713-.846-6.128-1.611-11.674-2.17-15.728-.26-1.99-.471-3.612-.622-4.771-.064-.541-.115-.973-.153-1.3a2.49,2.49,0,0,1-.032-.456,2.531,2.531,0,0,1,.095.447c.054.325.123.754.212,1.291l.72,4.757c.583,4.051,1.38,9.592,2.261,15.716.846,6.126,1.611,11.671,2.17,15.725.26,1.99.471,3.612.622,4.772q.1.81.153,1.3a2.493,2.493,0,0,1,.032.456" transform="translate(-198.161 -87.086)" fill="#455a64"/>
        <path id="Trazado_117093" data-name="Trazado 117093" d="M562.81,289.87a42.43,42.43,0,0,1-1.991,7,42.444,42.444,0,0,1,1.991-7" transform="translate(-211.365 -109.25)" fill="#455a64"/>
        <path id="Trazado_117094" data-name="Trazado 117094" d="M566.221,300.813a4.05,4.05,0,0,1-.794-1.1,10.876,10.876,0,0,1-1.353-6.35,4.063,4.063,0,0,1,.274-1.331,14.187,14.187,0,0,0,1.873,8.785" transform="translate(-212.577 -110.063)" fill="#455a64"/>
        <path id="Trazado_117095" data-name="Trazado 117095" d="M498.172,269.2a7.659,7.659,0,0,1,4.022,3.668c-.078.052-.772-.965-1.885-1.972s-2.182-1.613-2.137-1.7" transform="translate(-187.757 -101.457)" fill="#455a64"/>
        <path id="Trazado_117096" data-name="Trazado 117096" d="M501.712,267.083a6.224,6.224,0,0,1,2.172,3.516,53.15,53.15,0,0,0-2.172-3.516" transform="translate(-189.09 -100.66)" fill="#455a64"/>
        <path id="Trazado_117097" data-name="Trazado 117097" d="M504.007,138.855l3.6,17.853,2.929,24.914s12.073-1.686,17.219-3.315c5.968-1.889,18.954-3.5,18.954-3.5l-2.189,2.166c4.646-1.3,7.6-5.735,7.6-5.735-8.009-7.427-14.84-22.707-14.84-22.707l-6.09-30.235s-.925-4.265-1.482-6.162-9.8-8.014-11.086-8.788l-.806-.381-.256-2.423-.953-.57L506.6,109.064a10.845,10.845,0,0,0-3.483,6.794,78.429,78.429,0,0,0-.436,11.374c.119,3.542,1.322,11.623,1.322,11.623" transform="translate(-189.442 -37.679)" fill="#ffa726"/>
        <path id="Trazado_117098" data-name="Trazado 117098" d="M501.681,112.521s-5.287,2.835-6.2,5.24,1.809,28.778,1.809,28.778l-18.985.356-.06,11.313s30.156,2.383,31.329.753c1.586-2.2,3.43-22.812,3.43-22.812l.685-14.827s-1.748-11.307-12-8.8" transform="translate(-180.246 -42.272)" fill="#ffa726"/>
        <g id="Grupo_84987" data-name="Grupo 84987" transform="translate(317.808 97.439)" opacity="0.3">
          <g id="Grupo_84986" data-name="Grupo 84986">
            <g id="Grupo_84985" data-name="Grupo 84985" clip-path="url(#clip-path-6)">
              <path id="Trazado_117099" data-name="Trazado 117099" d="M510.393,177.966a18.159,18.159,0,0,0,7.6.71c2.674-.248,5.395-1.712,6.406-4.2.774-1.9.451-4.052.568-6.105.1-1.783.544-3.528.813-5.294s-.646-5.012-1.229-6.7c0,0-.677,12.242-2.592,17.382a4.212,4.212,0,0,1-1.174,1.877,4.612,4.612,0,0,1-2.482.684,71.923,71.923,0,0,1-8.266-.167" transform="translate(-510.038 -156.376)"/>
            </g>
          </g>
        </g>
        <path id="Trazado_117100" data-name="Trazado 117100" d="M513.564,129.434a1.643,1.643,0,0,1,0,.269c-.008.191-.017.452-.031.788-.034.708-.083,1.725-.146,3.029-.069,1.32-.153,2.927-.251,4.791-.114,1.867-.176,4-.4,6.341-.2,2.345-.45,4.913-.744,7.665s-.632,5.693-1.156,8.769a19.108,19.108,0,0,1-.521,2.325,4.539,4.539,0,0,1-1.369,2.051,3.467,3.467,0,0,1-2.362.844c-.838.019-1.676,0-2.525-.013-3.389-.083-6.892-.257-10.478-.452-5.389-.3-10.582-.634-15.436-.975l-.14-.01v-.14c.024-4.018.047-7.8.068-11.294v-.13l.13,0,18.324-.394,5.126-.089,1.35-.013c.305,0,.463.01.463.01s-.157.017-.462.032l-1.349.054-5.124.163-18.322.506.131-.133c-.012,3.491-.024,7.277-.037,11.294l-.138-.15c4.852.331,10.045.662,15.432.96,3.585.194,7.086.37,10.468.458.845.011,1.684.034,2.509.016a3.166,3.166,0,0,0,2.182-.771,4.239,4.239,0,0,0,1.281-1.916,19,19,0,0,0,.515-2.28c.529-3.059.866-6,1.182-8.747s.563-5.314.781-7.657c.243-2.341.32-4.47.451-6.334s.22-3.468.3-4.787c.088-1.3.157-2.317.2-3.024.026-.335.047-.6.061-.786a1.662,1.662,0,0,1,.032-.267" transform="translate(-180.156 -48.783)" fill="#263238"/>
        <path id="Trazado_117101" data-name="Trazado 117101" d="M484.145,179.157a48.239,48.239,0,0,1-.128-5.486,48.169,48.169,0,0,1,.186-5.485,48.341,48.341,0,0,1,.127,5.486,48.087,48.087,0,0,1-.185,5.484" transform="translate(-182.422 -63.389)" fill="#263238"/>
        <path id="Trazado_117102" data-name="Trazado 117102" d="M480.721,170.855c-.036-.021.153-.232.514-.112a.585.585,0,0,1,.385.5.69.69,0,0,1-.386.677.708.708,0,0,1-.764-.14.638.638,0,0,1-.185-.6c.085-.358.335-.434.343-.4.031.035-.118.168-.123.425a.434.434,0,0,0,.158.356.446.446,0,0,0,.442.07.425.425,0,0,0,.227-.376.368.368,0,0,0-.19-.318c-.218-.13-.4-.048-.421-.088" transform="translate(-181.011 -64.338)" fill="#263238"/>
        <path id="Trazado_117103" data-name="Trazado 117103" d="M548.6,133.539s9.877,12.914,11.08,16.434.274,8.572-1.738,10.988-3.634,1.434-3.634,1.434Z" transform="translate(-206.764 -50.33)" fill="#ffa726"/>
        <path id="Trazado_117104" data-name="Trazado 117104" d="M554.167,178.17a20.7,20.7,0,0,1-5,.859,20.633,20.633,0,0,1,5-.859" transform="translate(-206.976 -67.141)" fill="#263238"/>
        <path id="Trazado_117105" data-name="Trazado 117105" d="M560.238,193.467a3.3,3.3,0,0,1,.268.682c.15.445.377,1.085.67,1.871A55.557,55.557,0,0,0,563.829,202a63.078,63.078,0,0,0,3.318,5.648c.461.7.842,1.264,1.108,1.651a3.36,3.36,0,0,1,.386.623,3.267,3.267,0,0,1-.484-.551c-.3-.366-.707-.911-1.193-1.6a48.456,48.456,0,0,1-3.413-5.629,44.048,44.048,0,0,1-2.583-6.054c-.268-.8-.464-1.452-.578-1.91a3.324,3.324,0,0,1-.151-.717" transform="translate(-211.149 -72.916)" fill="#263238"/>
        <g id="Grupo_84990" data-name="Grupo 84990" transform="translate(349.761 122.08)" opacity="0.3">
          <g id="Grupo_84989" data-name="Grupo 84989">
            <g id="Grupo_84988" data-name="Grupo 84988" clip-path="url(#clip-path-7)">
              <path id="Trazado_117106" data-name="Trazado 117106" d="M561.318,195.922c1.565,2.79,3.174,5.634,5.559,7.766a14.352,14.352,0,0,1,2.426,2.35,2.957,2.957,0,0,1,.31,3.178,1,1,0,0,1-.984.532,1.266,1.266,0,0,1-.645-.522,38.491,38.491,0,0,1-6.558-12.877" transform="translate(-561.318 -195.922)"/>
            </g>
          </g>
        </g>
        <g id="Grupo_84993" data-name="Grupo 84993" transform="translate(342.666 85.157)" opacity="0.3">
          <g id="Grupo_84992" data-name="Grupo 84992">
            <g id="Grupo_84991" data-name="Grupo 84991" clip-path="url(#clip-path-8)">
              <path id="Trazado_117107" data-name="Trazado 117107" d="M555.723,163.525a4.776,4.776,0,0,0,1.624-4.473,16.556,16.556,0,0,0-1.64-4.7,77.332,77.332,0,0,1-4.811-14.11l-.965-3.582,4.886,25.559Z" transform="translate(-549.932 -136.665)"/>
            </g>
          </g>
        </g>
        <path id="Trazado_117108" data-name="Trazado 117108" d="M519.984,108.672a21.92,21.92,0,0,1,1.841-1.839,21.75,21.75,0,0,1,1.839-1.841,10.939,10.939,0,0,1-3.679,3.68" transform="translate(-195.978 -39.57)" fill="#263238"/>
        <path id="Trazado_117109" data-name="Trazado 117109" d="M513.945,114.407c.016.052-.57.229-1.444.661a11.478,11.478,0,0,0-5.243,5.305c-.422.879-.591,1.467-.644,1.452a1.17,1.17,0,0,1,.069-.427,7.038,7.038,0,0,1,.374-1.115,10.309,10.309,0,0,1,5.351-5.415,7.108,7.108,0,0,1,1.111-.388,1.172,1.172,0,0,1,.426-.073" transform="translate(-190.937 -43.117)" fill="#263238"/>
        <path id="Trazado_117110" data-name="Trazado 117110" d="M556.4,165.083a1.091,1.091,0,0,1-.155-.248l-.4-.741-1.421-2.781-.006-.011,0-.014c-.617-2.83-1.492-6.958-2.441-11.549l-2.256-11.129-.648-3.38c-.065-.371-.118-.677-.161-.922a.164.164,0,1,1,.062-.012l.218.91.746,3.36,2.345,11.111c.95,4.591,1.786,8.727,2.342,11.569l-.009-.025,1.335,2.823.346.766a1.1,1.1,0,0,1,.1.274" transform="translate(-206.868 -50.497)" fill="#263238"/>
        <path id="Trazado_117111" data-name="Trazado 117111" d="M506.981,152.826a5.562,5.562,0,0,1-.145-.936c-.072-.66-.166-1.523-.279-2.562-.221-2.165-.506-5.159-.8-8.466s-.545-6.306-.71-8.475c-.073-1.043-.133-1.909-.179-2.572a5.406,5.406,0,0,1-.023-.946,5.589,5.589,0,0,1,.145.937c.072.66.165,1.523.279,2.563.221,2.165.506,5.158.8,8.466s.545,6.3.71,8.472c.073,1.043.133,1.909.179,2.572a5.471,5.471,0,0,1,.024.947" transform="translate(-190.268 -48.57)" fill="#263238"/>
        <path id="Trazado_117112" data-name="Trazado 117112" d="M470.172,167.987s-4.094-3.106-5.093-3.293c-.765-.144-5.335-.067-7.437-.024a1.5,1.5,0,0,0-1.508,1.459.868.868,0,0,0,.014.149,1.371,1.371,0,0,0,1,1.038,1.593,1.593,0,0,0-1.107,1.5c-.017,1.187,1.419,1.436,1.419,1.436a2.039,2.039,0,0,0-.2.183,1.416,1.416,0,0,0,.695,2.376l.648.147a1.4,1.4,0,0,0-.864,1.179c.024,1.562,3.536,1.861,3.536,1.861s8.68,1.374,8.868,1.312.035-9.322.035-9.322" transform="translate(-171.879 -62.04)" fill="#ffbe9d"/>
        <path id="Trazado_117113" data-name="Trazado 117113" d="M459.906,161.294a2.531,2.531,0,0,0,1.035,2.107l4.837-.189s-3.6-1.243-4.114-1.857a4.162,4.162,0,0,0-.69-.675.684.684,0,0,0-1.067.616" transform="translate(-173.335 -60.511)" fill="#ffbe9d"/>
        <path id="Trazado_117114" data-name="Trazado 117114" d="M463.01,164.645a7.1,7.1,0,0,1-2.209.156,8.964,8.964,0,0,1-2.2-.156,7.1,7.1,0,0,1,2.209-.156,8.966,8.966,0,0,1,2.2.156" transform="translate(-172.842 -61.994)" fill="#eb996e"/>
        <path id="Trazado_117115" data-name="Trazado 117115" d="M461.639,168.968a7.007,7.007,0,0,1-3.8-.135,35.937,35.937,0,0,1,3.8.135" transform="translate(-172.558 -63.616)" fill="#eb996e"/>
        <path id="Trazado_117116" data-name="Trazado 117116" d="M467.367,168.517c.072.044-.021.308-.294.484s-.551.154-.562.07.179-.193.392-.333.391-.27.464-.221" transform="translate(-175.825 -63.509)" fill="#eb996e"/>
        <path id="Trazado_117117" data-name="Trazado 117117" d="M462.275,173.85a13.908,13.908,0,0,1-4.159-.137,13.909,13.909,0,0,1,4.159.137" transform="translate(-172.661 -65.433)" fill="#eb996e"/>
        <path id="Trazado_117118" data-name="Trazado 117118" d="M468.615,171.919c.039-.011.114.087.137.277a1,1,0,0,1-.846,1.077c-.191.022-.3-.028-.3-.068,0-.085.416-.14.693-.495s.234-.772.317-.791" transform="translate(-176.237 -64.795)" fill="#eb996e"/>
        <path id="Trazado_117119" data-name="Trazado 117119" d="M463.71,178.5a11.311,11.311,0,0,1-3.723-.46,11.354,11.354,0,0,1,3.723.46" transform="translate(-173.366 -67.086)" fill="#eb996e"/>
        <path id="Trazado_117120" data-name="Trazado 117120" d="M469.708,176.362c.04-.006.1.1.094.288a1.173,1.173,0,0,1-.259.657c-.355.428-.751.584-.8.525-.062-.074.257-.358.549-.717s.331-.739.412-.753" transform="translate(-176.665 -66.47)" fill="#eb996e"/>
        <path id="Trazado_117121" data-name="Trazado 117121" d="M566.931,221.977a5.528,5.528,0,0,0,4.195-2.643c.1-.167.184-.4.055-.541a.481.481,0,0,0-.365-.11,11.349,11.349,0,0,0-3.975.682.542.542,0,0,0-.356.267.548.548,0,0,0,.017.328l.51,1.965" transform="translate(-213.497 -82.42)" fill="#e8505b"/>
        <g id="Grupo_84996" data-name="Grupo 84996" transform="translate(352.967 136.263)" opacity="0.4">
          <g id="Grupo_84995" data-name="Grupo 84995">
            <g id="Grupo_84994" data-name="Grupo 84994" clip-path="url(#clip-path-9)">
              <path id="Trazado_117122" data-name="Trazado 117122" d="M566.931,221.977a5.528,5.528,0,0,0,4.195-2.643c.1-.167.184-.4.055-.541a.481.481,0,0,0-.365-.11,11.349,11.349,0,0,0-3.975.682.542.542,0,0,0-.356.267.548.548,0,0,0,.017.328l.51,1.965" transform="translate(-566.464 -218.683)"/>
            </g>
          </g>
        </g>
        <path id="Trazado_117123" data-name="Trazado 117123" d="M500.734,114.143s-1.991,6.685-1.442,6.305,1.738-1.436,1.738-1.436Z" transform="translate(-188.144 -43.02)" fill="#ebebeb"/>
        <path id="Trazado_117124" data-name="Trazado 117124" d="M501.013,119.089l-1.089,2.6a3.516,3.516,0,0,0-.211.841c-.09.729-.194,2.066.24,2.158a1.463,1.463,0,0,0,1.165-.481Z" transform="translate(-188.309 -44.884)" fill="#263238"/>
        <path id="Trazado_117125" data-name="Trazado 117125" d="M534.706,118.538s-10.653-4.156-16.552-.486-6.973,9.527-10.486,9.527c-6.85,0-6.631-4.833-6.631-4.833l-1.456.441c-.028.99-1.588,8.09,5.632,8.971s10.253-8.962,16.748-8.971a21.557,21.557,0,0,1,11.425,3.512l4.666-2.951Z" transform="translate(-188.229 -43.923)" fill="#263238"/>
        <path id="Trazado_117126" data-name="Trazado 117126" d="M512.181,132.375a10.01,10.01,0,0,0,4.109-4.715c1.654-3.818,5.207-8.177,8.174-9.272s9.83-1.859,14.57,1.23l3.036,4.1-3.942,2.557a36.6,36.6,0,0,0-6.946-2.781c-4.9-1.368-7.876.177-10.724,2.873-.177.168-.34.333-.482.494a32.306,32.306,0,0,1-4.509,3.992,7.108,7.108,0,0,1-3.286,1.522" transform="translate(-193.038 -44.258)" fill="#455a64"/>
      </g>
    </g>
    <g id="Grupo_85003" data-name="Grupo 85003">
      <g id="Grupo_85002" data-name="Grupo 85002" clip-path="url(#clip-path)">
        <path id="Trazado_117127" data-name="Trazado 117127" d="M127.4,30.117c-6.319.973-10.95-4.334-12.427-9.059-1.363-4.362-2.012-8.9-3.928-13.049-2.677-5.8-9.768-8.478-16.132-7.942S82.139,3.793,76.509,6.807l1.553,34.9S90.324,28.654,96.216,28.416c9.831-.4,9.3,15.762,18.841,18.148,0,0,13.383,3.628,22.432-8.059a32.88,32.88,0,0,0,6.25-16.428s-4.4,6.2-16.335,8.039" transform="translate(-28.836 0)" fill="#ffa726"/>
        <path id="Trazado_117128" data-name="Trazado 117128" d="M76.092,1.63c.087,0,1.806,37.061,3.84,82.777,2.035,45.731,3.615,82.795,3.528,82.8s-1.805-37.053-3.84-82.785C77.586,38.705,76.006,1.634,76.092,1.63" transform="translate(-28.677 -0.614)" fill="#263238"/>
        <g id="Grupo_85001" data-name="Grupo 85001" transform="translate(81.163 18.644)" opacity="0.2">
          <g id="Grupo_85000" data-name="Grupo 85000">
            <g id="Grupo_84999" data-name="Grupo 84999" clip-path="url(#clip-path-11)">
              <path id="Trazado_117129" data-name="Trazado 117129" d="M130.255,29.921A42.506,42.506,0,0,0,134.9,40.4a12.89,12.89,0,0,0,7.89,5.938,7.689,7.689,0,0,1,1.771.46,1.71,1.71,0,0,1,1.054,1.389c.026.914-.919,1.512-1.74,1.917a14.338,14.338,0,0,1-3.631,1.4c-1.279.239-2.281.372-3.16-.588a18.386,18.386,0,0,1-2.285-2.737c-2.884-4.915-4.311-11.945-4.546-17.506" transform="translate(-130.255 -29.921)"/>
            </g>
          </g>
        </g>
        <path id="Trazado_117130" data-name="Trazado 117130" d="M138.443,47.939a1.281,1.281,0,0,1-.284-.162c-.179-.116-.437-.3-.755-.555a13.008,13.008,0,0,1-2.33-2.532,19.449,19.449,0,0,1-2.333-4.538,50.084,50.084,0,0,1-1.728-6,66.959,66.959,0,0,1-1.61-11.208c-.08-1.448-.094-2.621-.093-3.431.008-.376.015-.684.021-.933a1.257,1.257,0,0,1,.029-.325,1.318,1.318,0,0,1,.034.325c.01.248.023.556.038.932.036.808.084,1.977.192,3.418a74.848,74.848,0,0,0,1.694,11.152,53.387,53.387,0,0,0,1.693,5.968,20.048,20.048,0,0,0,2.244,4.511,14.127,14.127,0,0,0,2.228,2.566c.6.533.975.786.96.809" transform="translate(-48.736 -6.881)" fill="#263238"/>
      </g>
    </g>
    <path id="Trazado_117131" data-name="Trazado 117131" d="M14.951,279.182l83.478,13.666V279.182Z" transform="translate(-5.635 -105.222)" fill="#e0e0e0"/>
    <path id="Trazado_117132" data-name="Trazado 117132" d="M171.038,328.727l83.478,13.666V328.727Z" transform="translate(-64.463 -123.895)" fill="#e0e0e0"/>
    <path id="Trazado_117133" data-name="Trazado 117133" d="M326.051,376.121l83.478,13.666V376.121Z" transform="translate(-122.886 -141.758)" fill="#e0e0e0"/>
    <path id="Trazado_117134" data-name="Trazado 117134" d="M480.858,413.836,564.336,427.5V413.836Z" transform="translate(-181.232 -155.972)" fill="#e0e0e0"/>
    <rect id="Rectángulo_48706" data-name="Rectángulo 48706" width="83.478" height="10.236" transform="translate(9.316 163.724)" fill="#ffa726"/>
    <g id="Grupo_85008" data-name="Grupo 85008">
      <g id="Grupo_85007" data-name="Grupo 85007" clip-path="url(#clip-path)">
        <g id="Grupo_85006" data-name="Grupo 85006" transform="translate(66.745 163.724)" opacity="0.3">
          <g id="Grupo_85005" data-name="Grupo 85005">
            <g id="Grupo_85004" data-name="Grupo 85004" clip-path="url(#clip-path-13)">
              <rect id="Rectángulo_48707" data-name="Rectángulo 48707" width="26.05" height="10.236" transform="translate(-0.001)"/>
            </g>
          </g>
        </g>
      </g>
    </g>
    <rect id="Rectángulo_48710" data-name="Rectángulo 48710" width="83.478" height="10.236" transform="translate(106.575 194.596)" fill="#ffa726"/>
    <g id="Grupo_85013" data-name="Grupo 85013">
      <g id="Grupo_85012" data-name="Grupo 85012" clip-path="url(#clip-path)">
        <g id="Grupo_85011" data-name="Grupo 85011" transform="translate(164.004 194.596)" opacity="0.3">
          <g id="Grupo_85010" data-name="Grupo 85010">
            <g id="Grupo_85009" data-name="Grupo 85009" clip-path="url(#clip-path-15)">
              <rect id="Rectángulo_48711" data-name="Rectángulo 48711" width="26.05" height="10.236"/>
            </g>
          </g>
        </g>
      </g>
    </g>
    <rect id="Rectángulo_48714" data-name="Rectángulo 48714" width="83.478" height="10.236" transform="translate(203.164 224.128)" fill="#ffa726"/>
    <g id="Grupo_85018" data-name="Grupo 85018">
      <g id="Grupo_85017" data-name="Grupo 85017" clip-path="url(#clip-path)">
        <g id="Grupo_85016" data-name="Grupo 85016" transform="translate(260.593 224.128)" opacity="0.3">
          <g id="Grupo_85015" data-name="Grupo 85015">
            <g id="Grupo_85014" data-name="Grupo 85014" clip-path="url(#clip-path-15)">
              <rect id="Rectángulo_48715" data-name="Rectángulo 48715" width="26.05" height="10.236"/>
            </g>
          </g>
        </g>
      </g>
    </g>
    <rect id="Rectángulo_48718" data-name="Rectángulo 48718" width="83.478" height="10.236" transform="translate(299.753 247.628)" fill="#ffa726"/>
    <g id="Grupo_85023" data-name="Grupo 85023">
      <g id="Grupo_85022" data-name="Grupo 85022" clip-path="url(#clip-path)">
        <g id="Grupo_85021" data-name="Grupo 85021" transform="translate(357.182 247.628)" opacity="0.3">
          <g id="Grupo_85020" data-name="Grupo 85020">
            <g id="Grupo_85019" data-name="Grupo 85019" clip-path="url(#clip-path-15)">
              <rect id="Rectángulo_48719" data-name="Rectángulo 48719" width="26.05" height="10.236" transform="translate(0 0)"/>
            </g>
          </g>
        </g>
        <path id="Trazado_117135" data-name="Trazado 117135" d="M532.471,336.243a2.27,2.27,0,1,0,2.27-2.27,2.27,2.27,0,0,0-2.27,2.27" transform="translate(-200.685 -125.872)" fill="#ebebeb"/>
      </g>
    </g>
  </g>
</svg>
