<svg id="Grupo_85072" data-name="Grupo 85072" xmlns="http://www.w3.org/2000/svg" xmlns:xlink="http://www.w3.org/1999/xlink" width="367.722" height="270.343" viewBox="0 0 367.722 270.343">
  <defs>
    <clipPath id="clip-path">
      <rect id="Rectángulo_48740" data-name="Rectángulo 48740" width="367.722" height="270.343" fill="none"/>
    </clipPath>
    <clipPath id="clip-path-5">
      <rect id="Rectángulo_48726" data-name="Rectángulo 48726" width="16.399" height="164.63" fill="none"/>
    </clipPath>
    <clipPath id="clip-path-7">
      <rect id="Rectángulo_48729" data-name="Rectángulo 48729" width="44.747" height="22.809" fill="none"/>
    </clipPath>
    <clipPath id="clip-path-8">
      <rect id="Rectángulo_48730" data-name="Rectángulo 48730" width="57.627" height="29.375" fill="none"/>
    </clipPath>
    <clipPath id="clip-path-9">
      <rect id="Rectángulo_48731" data-name="Rectángulo 48731" width="46.82" height="16.819" fill="none"/>
    </clipPath>
    <clipPath id="clip-path-12">
      <rect id="Rectángulo_48734" data-name="Rectángulo 48734" width="1.841" height="1.836" fill="none"/>
    </clipPath>
    <clipPath id="clip-path-14">
      <rect id="Rectángulo_48736" data-name="Rectángulo 48736" width="27.677" height="2.457" fill="none"/>
    </clipPath>
    <clipPath id="clip-path-15">
      <rect id="Rectángulo_48737" data-name="Rectángulo 48737" width="26.908" height="8.87" fill="none"/>
    </clipPath>
    <clipPath id="clip-path-16">
      <rect id="Rectángulo_48738" data-name="Rectángulo 48738" width="12.236" height="26.282" fill="none"/>
    </clipPath>
  </defs>
  <g id="Grupo_85071" data-name="Grupo 85071" clip-path="url(#clip-path)">
    <path id="Trazado_117136" data-name="Trazado 117136" d="M33.76,6.9l-1.3,35.765,8.794,4L43.2,51.7l15.76-6.416L56.8,40.2l3.012-9.387Z" transform="translate(-12.228 -2.598)" fill="#f5f5f5"/>
    <g id="Grupo_85034" data-name="Grupo 85034">
      <g id="Grupo_85033" data-name="Grupo 85033" clip-path="url(#clip-path)">
        <path id="Trazado_117137" data-name="Trazado 117137" d="M33.689,6.895,59.818,30.732l.052.047-.021.067-3,9.39,0-.081c.684,1.609,1.416,3.333,2.16,5.084l.047.11-.112.046L50.891,48.67l-7.716,3.14-.115.047-.045-.115L41.071,46.7l.062.065-8.791-4-.069-.031,0-.074C33.1,21.718,33.65,7.887,33.689,6.895c-.033.99-.492,14.827-1.188,35.77l-.065-.105,8.8,3.993.044.02.017.045,1.948,5.04-.16-.069L50.8,48.447l8.045-3.274-.065.156c-.742-1.751-1.473-3.475-2.156-5.085L56.6,40.2l.013-.041,3.019-9.385.031.114-25.977-24" transform="translate(-12.158 -2.597)" fill="#e0e0e0"/>
        <path id="Trazado_117138" data-name="Trazado 117138" d="M53.414,40.5a5.1,5.1,0,0,1-2.8,6.728,5.285,5.285,0,0,1-6.846-2.8,5.1,5.1,0,0,1,2.8-6.728,5.285,5.285,0,0,1,6.846,2.8" transform="translate(-16.333 -14.054)" fill="#e0e0e0"/>
        <path id="Trazado_117139" data-name="Trazado 117139" d="M34.544,6.895c.062-.026,2.513,5.35,5.474,12.006S45.33,30.978,45.269,31,42.756,25.656,39.794,19s-5.311-12.076-5.249-12.1" transform="translate(-13.013 -2.597)" fill="#e0e0e0"/>
        <path id="Trazado_117140" data-name="Trazado 117140" d="M101.548,173.855h0a8.424,8.424,0,0,1-10.894-4.42L53.576,83.422l15.38-6.262L106,163.09a8.129,8.129,0,0,1-4.45,10.765" transform="translate(-20.183 -29.067)" fill="#e0e0e0"/>
        <path id="Trazado_117141" data-name="Trazado 117141" d="M68.1,72.445,50.013,79.808l-2.633-6.2L65.466,66.24Z" transform="translate(-17.848 -24.954)" fill="#e0e0e0"/>
        <path id="Trazado_117142" data-name="Trazado 117142" d="M56.187,288.218l-9.4,34.068,11.52,8.215,25.907,6.311,10.271-38.463Z" transform="translate(-17.625 -108.575)" fill="#f5f5f5"/>
        <path id="Trazado_117143" data-name="Trazado 117143" d="M51.791,340.43l-5,1.525a15.207,15.207,0,0,0,4.046,4.715,21.965,21.965,0,0,0,7.474,3.5,14.6,14.6,0,0,1-6.516-9.74" transform="translate(-17.625 -128.244)" fill="#ebebeb"/>
        <path id="Trazado_117144" data-name="Trazado 117144" d="M93.7,317.526c-.017.064-6.55-1.606-14.59-3.729s-14.547-3.9-14.53-3.959,6.548,1.606,14.591,3.729,14.546,3.895,14.529,3.958" transform="translate(-24.33 -116.719)" fill="#e0e0e0"/>
        <path id="Trazado_117145" data-name="Trazado 117145" d="M91.273,325.9c-.017.064-6.55-1.606-14.59-3.729s-14.547-3.9-14.53-3.959,6.548,1.606,14.591,3.729,14.546,3.895,14.529,3.959" transform="translate(-23.414 -119.873)" fill="#e0e0e0"/>
        <path id="Trazado_117146" data-name="Trazado 117146" d="M89.563,333.436c-.017.064-6.55-1.606-14.59-3.729s-14.547-3.9-14.53-3.959,6.548,1.606,14.591,3.729,14.546,3.895,14.529,3.959" transform="translate(-22.77 -122.713)" fill="#e0e0e0"/>
        <path id="Trazado_117147" data-name="Trazado 117147" d="M87.615,340.615c-.017.064-6.55-1.606-14.59-3.729s-14.547-3.9-14.53-3.959,6.548,1.606,14.591,3.729,14.546,3.895,14.529,3.958" transform="translate(-22.036 -125.417)" fill="#e0e0e0"/>
        <path id="Trazado_117148" data-name="Trazado 117148" d="M538.774,238.119,531.6,264.1l8.787,6.265,19.759,4.813,7.833-29.336Z" transform="translate(-200.261 -89.702)" fill="#f5f5f5"/>
        <path id="Trazado_117149" data-name="Trazado 117149" d="M535.421,277.941,531.6,279.1a11.6,11.6,0,0,0,3.086,3.6,16.76,16.76,0,0,0,5.7,2.67,11.14,11.14,0,0,1-4.969-7.429" transform="translate(-200.261 -104.703)" fill="#ebebeb"/>
        <path id="Trazado_117150" data-name="Trazado 117150" d="M567.388,260.472c-.013.049-5-1.225-11.128-2.844s-11.1-2.971-11.082-3.019,4.994,1.225,11.128,2.844,11.094,2.971,11.081,3.019" transform="translate(-205.375 -95.914)" fill="#e0e0e0"/>
        <path id="Trazado_117151" data-name="Trazado 117151" d="M565.535,266.857c-.013.049-5-1.225-11.128-2.844s-11.1-2.971-11.082-3.019,4.994,1.225,11.128,2.844,11.094,2.971,11.081,3.019" transform="translate(-204.677 -98.319)" fill="#e0e0e0"/>
        <path id="Trazado_117152" data-name="Trazado 117152" d="M564.23,272.606c-.013.049-5-1.225-11.128-2.843s-11.1-2.971-11.082-3.02,4.994,1.225,11.128,2.844,11.094,2.971,11.081,3.019" transform="translate(-204.185 -100.485)" fill="#e0e0e0"/>
        <path id="Trazado_117153" data-name="Trazado 117153" d="M562.744,278.081c-.013.049-5-1.225-11.128-2.843s-11.1-2.971-11.082-3.02,4.994,1.225,11.128,2.844,11.094,2.971,11.081,3.019" transform="translate(-203.625 -102.547)" fill="#e0e0e0"/>
        <path id="Trazado_117154" data-name="Trazado 117154" d="M473.387,19.258l-9.477,2.424-.459,2.9a5.989,5.989,0,0,0,0,2.3,1.848,1.848,0,0,0,1.335,1.429,7.9,7.9,0,0,0,2.752-.2l.187.732L458.8,31.125l-.187-.732a4.118,4.118,0,0,0,2.067-1.8,16.433,16.433,0,0,0,1.26-4.633L466.061.1l.376-.1,15.3,19.525a13.8,13.8,0,0,0,3.282,3.355,3.2,3.2,0,0,0,2.081.227l.188.732-12.978,3.32-.187-.732.534-.136a4.2,4.2,0,0,0,2.084-1,1.091,1.091,0,0,0,.2-1.022,2.494,2.494,0,0,0-.305-.7q-.086-.167-.973-1.331Zm-1.047-1.292L465.98,9.749l-1.752,10.292Z" transform="translate(-172.765)" fill="#e0e0e0"/>
        <path id="Trazado_117155" data-name="Trazado 117155" d="M549.712,174.182l-27.137-.8a5.564,5.564,0,0,1-5.4-5.724l.695-23.7a5.563,5.563,0,0,1,5.723-5.4l27.138.8a5.563,5.563,0,0,1,5.4,5.724l-.694,23.7a5.563,5.563,0,0,1-5.724,5.4" transform="translate(-194.825 -52.2)" fill="#ebebeb"/>
        <path id="Trazado_117156" data-name="Trazado 117156" d="M517.23,171.428l12.921-8.671a2.592,2.592,0,0,1,3.386.128l6.366,3.269,9.083-8.881a2.669,2.669,0,0,1,3.865.329l2.966,3.724-.143,15.262a4.369,4.369,0,0,1-4.506,4.326l-29.857-.944a4.369,4.369,0,0,1-4.228-4.527Z" transform="translate(-194.79 -58.992)" fill="#e0e0e0"/>
        <path id="Trazado_117157" data-name="Trazado 117157" d="M542.348,151.393a3.826,3.826,0,1,1-4-3.647,3.826,3.826,0,0,1,4,3.647" transform="translate(-201.428 -55.656)" fill="#e0e0e0"/>
        <path id="Trazado_117158" data-name="Trazado 117158" d="M282.454,360.894a16.654,16.654,0,1,1-21.586-9.355,16.636,16.636,0,0,1,21.586,9.355" transform="translate(-94.293 -131.99)" fill="#f5f5f5"/>
        <path id="Trazado_117159" data-name="Trazado 117159" d="M281.163,364.738a12.692,12.692,0,1,1-16.449-7.129,12.678,12.678,0,0,1,16.449,7.129" transform="translate(-96.688 -134.381)" fill="#ebebeb"/>
        <path id="Trazado_117160" data-name="Trazado 117160" d="M280.818,364.086c-.07.031-.325-.467-.871-1.3a13.476,13.476,0,0,0-2.788-3.083,13.017,13.017,0,0,0-2.409-1.53,12.7,12.7,0,0,0-3.091-1.033,12.419,12.419,0,0,0-3.586-.177,12.287,12.287,0,0,0-1.873.327,12.369,12.369,0,0,0-3.587,1.544,12.366,12.366,0,0,0-1.525,1.137,12.418,12.418,0,0,0-2.335,2.727,12.694,12.694,0,0,0-1.372,2.957,13,13,0,0,0-.544,2.8,13.483,13.483,0,0,0,.325,4.142,7.435,7.435,0,0,1,.344,1.524,3.724,3.724,0,0,1-.707-1.418,11.737,11.737,0,0,1-.648-4.285,12.72,12.72,0,0,1,1.839-6.19,12.94,12.94,0,0,1,2.468-2.971,12.959,12.959,0,0,1,1.637-1.239,13.028,13.028,0,0,1,3.869-1.666,12.938,12.938,0,0,1,2.024-.337,12.916,12.916,0,0,1,3.854.248,12.709,12.709,0,0,1,5.763,2.916,11.748,11.748,0,0,1,2.669,3.415,3.727,3.727,0,0,1,.545,1.488" transform="translate(-96.492 -134.098)" fill="#e0e0e0"/>
        <path id="Trazado_117161" data-name="Trazado 117161" d="M277.464,378.365l.84,2.045-1.826.75-.818-1.99a9.356,9.356,0,0,1-5.146.407l.089-2.64a7.978,7.978,0,0,0,4.075-.158l-1.253-3.05c-2.229.34-4.77.594-5.843-2.017-.795-1.935-.071-4.174,2.679-5.687L269.429,364l1.826-.75.818,1.99a8.936,8.936,0,0,1,4.164-.409l.01,2.622a8.086,8.086,0,0,0-3.184.2l1.275,3.1c2.221-.358,4.726-.6,5.784,1.977.78,1.9.067,4.112-2.657,5.636m-5.14-7.321-1.065-2.592c-.877.616-1.043,1.3-.8,1.906.262.639.953.762,1.861.686m4.948,3.111c-.263-.639-.934-.768-1.832-.72l1.035,2.52c.831-.575,1.038-1.215.8-1.8" transform="translate(-100.687 -136.839)" fill="#e0e0e0"/>
        <path id="Trazado_117162" data-name="Trazado 117162" d="M70.7,202.049a16.654,16.654,0,1,1-21.586-9.355A16.636,16.636,0,0,1,70.7,202.049" transform="translate(-14.523 -72.151)" fill="#f5f5f5"/>
        <path id="Trazado_117163" data-name="Trazado 117163" d="M69.408,205.893a12.692,12.692,0,1,1-16.449-7.129,12.678,12.678,0,0,1,16.449,7.129" transform="translate(-16.918 -74.542)" fill="#ebebeb"/>
        <path id="Trazado_117164" data-name="Trazado 117164" d="M69.063,205.241c-.07.031-.325-.467-.871-1.3a13.49,13.49,0,0,0-2.788-3.083A13.02,13.02,0,0,0,63,199.331,12.7,12.7,0,0,0,59.9,198.3a12.423,12.423,0,0,0-3.586-.177,12.283,12.283,0,0,0-1.873.327,12.414,12.414,0,0,0-3.587,1.544,12.368,12.368,0,0,0-1.525,1.137A12.421,12.421,0,0,0,47,203.856a12.7,12.7,0,0,0-1.372,2.957,13,13,0,0,0-.544,2.8,13.484,13.484,0,0,0,.325,4.142,7.487,7.487,0,0,1,.344,1.524,3.724,3.724,0,0,1-.707-1.418,11.737,11.737,0,0,1-.648-4.285,12.719,12.719,0,0,1,1.839-6.191,12.94,12.94,0,0,1,2.468-2.971,12.959,12.959,0,0,1,1.637-1.239,13.028,13.028,0,0,1,3.869-1.666,12.932,12.932,0,0,1,2.024-.337,12.914,12.914,0,0,1,3.854.248,12.708,12.708,0,0,1,5.763,2.916,11.749,11.749,0,0,1,2.669,3.415,3.726,3.726,0,0,1,.545,1.488" transform="translate(-16.722 -74.259)" fill="#e0e0e0"/>
        <path id="Trazado_117165" data-name="Trazado 117165" d="M65.71,219.52l.84,2.045-1.826.75-.818-1.99a9.354,9.354,0,0,1-5.145.407l.089-2.64a7.975,7.975,0,0,0,4.074-.158l-1.253-3.05c-2.228.34-4.769.594-5.842-2.017-.795-1.935-.071-4.174,2.678-5.687l-.832-2.027,1.826-.75.818,1.99a8.936,8.936,0,0,1,4.164-.409l.009,2.622a8.091,8.091,0,0,0-3.184.2l1.276,3.1c2.22-.358,4.726-.6,5.784,1.977.78,1.9.067,4.112-2.657,5.636m-5.14-7.321L59.5,209.607c-.878.616-1.043,1.3-.8,1.906.262.639.953.762,1.861.686m4.948,3.111c-.264-.639-.934-.769-1.832-.721l1.034,2.52c.831-.575,1.038-1.215.8-1.8" transform="translate(-20.917 -77.001)" fill="#e0e0e0"/>
        <path id="Trazado_117166" data-name="Trazado 117166" d="M0,74.026c.012.051.022.1.033.153l-.024.011c0-.055-.006-.109-.009-.164" transform="translate(0 -27.886)" fill="#263238"/>
      </g>
    </g>
    <g id="Grupo_85036" data-name="Grupo 85036">
      <g id="Grupo_85035" data-name="Grupo 85035" clip-path="url(#clip-path)">
        <path id="Trazado_117167" data-name="Trazado 117167" d="M376.537,421.239s.363-.013,1.109-.019l3.406-.017v.072l-162.385.126-118.032-.047L64.866,421.3l-9.725-.031-2.529-.016c-.57-.006-.862-.017-.862-.017s.292-.011.862-.017l2.529-.016,9.725-.031,35.769-.051,118.032-.047,162.385.126v.072l-3.406-.017c-.746-.006-1.109-.019-1.109-.019" transform="translate(-19.495 -158.624)" fill="#263238"/>
      </g>
    </g>
    <g id="Grupo_85041" data-name="Grupo 85041">
      <g id="Grupo_85040" data-name="Grupo 85040" clip-path="url(#clip-path)">
        <path id="Trazado_117168" data-name="Trazado 117168" d="M179.875,23.76H148.259a2.679,2.679,0,0,1-2.676-2.807l.641-13.394A2.68,2.68,0,0,1,148.9,5.007h31.615a2.68,2.68,0,0,1,2.676,2.807l-.642,13.394a2.678,2.678,0,0,1-2.676,2.551" transform="translate(-54.842 -1.886)" fill="#fafafa"/>
        <path id="Trazado_117169" data-name="Trazado 117169" d="M179.783,23.662a3.3,3.3,0,0,0,1.043-.248,2.666,2.666,0,0,0,1.576-2.426c.118-2.718.287-6.623.5-11.442-.01-1.185.39-2.567-.495-3.568a2.522,2.522,0,0,0-1.639-.912c-.649-.049-1.374-.011-2.077-.021l-9.077.015-20.8.013a2.532,2.532,0,0,0-2.154,1.213,2.568,2.568,0,0,0-.365,1.214q-.033.678-.065,1.351-.131,2.693-.257,5.3t-.249,5.116q-.031.626-.061,1.247a3.12,3.12,0,0,0,.08,1.174,2.537,2.537,0,0,0,1.483,1.641,2.768,2.768,0,0,0,1.111.186h1.176l2.3,0,4.407.008,7.909.02,11.452.052,3.113.031.81.016a1.738,1.738,0,0,1,.276.017,1.739,1.739,0,0,1-.276.017l-.81.016-3.113.031-11.452.052-7.909.02-4.407.008-2.3,0h-1.176a3.066,3.066,0,0,1-1.222-.2,2.835,2.835,0,0,1-1.664-1.833,3.415,3.415,0,0,1-.1-1.275q.029-.62.059-1.247.118-2.507.241-5.117t.251-5.3q.032-.672.064-1.351a2.893,2.893,0,0,1,.411-1.367,2.857,2.857,0,0,1,2.431-1.369l20.8.012,9.077.015c.718.014,1.394-.024,2.111.032a2.776,2.776,0,0,1,1.8,1.012A2.817,2.817,0,0,1,183.22,7.7q-.048.948-.093,1.854c-.252,4.817-.457,8.72-.6,11.437a2.754,2.754,0,0,1-.616,1.689,2.69,2.69,0,0,1-1.06.791,2.722,2.722,0,0,1-.792.19c-.184.006-.277,0-.277,0" transform="translate(-54.75 -1.788)" fill="#263238"/>
        <path id="Trazado_117170" data-name="Trazado 117170" d="M358.4,28.127l1.353-8.465,5.767-3.35,4.735,5.076-1.427,8.681Z" transform="translate(-135.015 -6.145)" fill="#34af00"/>
        <path id="Trazado_117171" data-name="Trazado 117171" d="M324.686,42.941l-7,153.59-112.846-3.207L198.128,181.6,210.265,38.852,315.285,31.9Z" transform="translate(-74.637 -12.017)" fill="#e0e0e0"/>
        <g id="Grupo_85039" data-name="Grupo 85039" transform="translate(233.65 19.884)" opacity="0.3">
          <g id="Grupo_85038" data-name="Grupo 85038">
            <g id="Grupo_85037" data-name="Grupo 85037" clip-path="url(#clip-path-5)">
              <path id="Trazado_117172" data-name="Trazado 117172" d="M384.268,196.531l-9.4-11.04,7-153.59,9.4,11.04Z" transform="translate(-374.866 -31.901)"/>
            </g>
          </g>
        </g>
        <path id="Trazado_117173" data-name="Trazado 117173" d="M315.285,30.962l-7,153.59-110.159-3.895,8.333-151.248Z" transform="translate(-74.637 -11.079)" fill="#fafafa"/>
        <path id="Trazado_117174" data-name="Trazado 117174" d="M315.181,30.882,206.355,29.46l.133-.124c-2.32,42.266-5.194,94.62-8.3,151.25l-.156-.171,1.819.064,108.339,3.845-.153.141c4.22-90.7,7.084-152.273,7.145-153.583-.059,1.31-2.8,62.885-6.85,153.6l-.006.146-.146,0L199.837,180.8l-1.818-.064-.166-.006.009-.165c3.131-56.628,6.027-108.981,8.364-151.247l.007-.127.126,0,108.822,1.685" transform="translate(-74.533 -10.998)" fill="#263238"/>
        <path id="Trazado_117175" data-name="Trazado 117175" d="M230.981,86.188l38.47,1.128a1.463,1.463,0,0,0,1.5-1.42L271,84.454a1.463,1.463,0,0,0-1.419-1.505l-38.469-1.128a1.463,1.463,0,0,0-1.505,1.419l-.042,1.442a1.463,1.463,0,0,0,1.419,1.505" transform="translate(-86.478 -30.823)" fill="#e0e0e0"/>
        <path id="Trazado_117176" data-name="Trazado 117176" d="M230.386,99.734l38.469,1.128a1.463,1.463,0,0,0,1.505-1.42L270.4,98a1.463,1.463,0,0,0-1.419-1.505l-38.47-1.128a1.462,1.462,0,0,0-1.5,1.419l-.042,1.442a1.463,1.463,0,0,0,1.419,1.505" transform="translate(-86.254 -35.926)" fill="#e0e0e0"/>
        <path id="Trazado_117177" data-name="Trazado 117177" d="M229.791,113.28l38.47,1.128a1.463,1.463,0,0,0,1.5-1.42l.042-1.442a1.463,1.463,0,0,0-1.419-1.505l-38.469-1.128a1.463,1.463,0,0,0-1.505,1.419l-.042,1.442a1.463,1.463,0,0,0,1.419,1.505" transform="translate(-86.03 -41.029)" fill="#e0e0e0"/>
        <path id="Trazado_117178" data-name="Trazado 117178" d="M229.2,126.825l38.47,1.129a1.463,1.463,0,0,0,1.5-1.42l.042-1.441a1.463,1.463,0,0,0-1.419-1.506l-38.47-1.127a1.461,1.461,0,0,0-1.5,1.419l-.042,1.442a1.463,1.463,0,0,0,1.419,1.505" transform="translate(-85.806 -46.132)" fill="#e0e0e0"/>
        <path id="Trazado_117179" data-name="Trazado 117179" d="M228.6,140.371l38.47,1.128a1.463,1.463,0,0,0,1.5-1.42l.042-1.442a1.463,1.463,0,0,0-1.419-1.505L228.729,136a1.463,1.463,0,0,0-1.505,1.419l-.042,1.442a1.463,1.463,0,0,0,1.419,1.505" transform="translate(-85.582 -51.234)" fill="#e0e0e0"/>
        <path id="Trazado_117180" data-name="Trazado 117180" d="M228.006,153.917l38.469,1.128a1.463,1.463,0,0,0,1.505-1.42l.042-1.442a1.463,1.463,0,0,0-1.419-1.505l-38.47-1.128a1.462,1.462,0,0,0-1.5,1.419l-.042,1.442a1.463,1.463,0,0,0,1.419,1.505" transform="translate(-85.357 -56.337)" fill="#e0e0e0"/>
        <path id="Trazado_117181" data-name="Trazado 117181" d="M227.411,167.463l38.47,1.128a1.463,1.463,0,0,0,1.5-1.42l.042-1.442a1.463,1.463,0,0,0-1.419-1.505L227.539,163.1a1.463,1.463,0,0,0-1.505,1.419l-.042,1.442a1.463,1.463,0,0,0,1.419,1.505" transform="translate(-85.133 -61.44)" fill="#e0e0e0"/>
        <path id="Trazado_117182" data-name="Trazado 117182" d="M301.208,155.943l38.47,1.128a1.463,1.463,0,0,0,1.5-1.42l.042-1.442a1.463,1.463,0,0,0-1.419-1.505l-38.47-1.128a1.462,1.462,0,0,0-1.5,1.419l-.042,1.442a1.463,1.463,0,0,0,1.419,1.505" transform="translate(-112.933 -57.1)" fill="#e0e0e0"/>
        <path id="Trazado_117183" data-name="Trazado 117183" d="M300.613,169.489l38.469,1.128a1.463,1.463,0,0,0,1.505-1.42l.042-1.442a1.463,1.463,0,0,0-1.419-1.505l-38.47-1.128a1.463,1.463,0,0,0-1.5,1.419l-.042,1.442a1.463,1.463,0,0,0,1.419,1.505" transform="translate(-112.709 -62.203)" fill="#e0e0e0"/>
        <path id="Trazado_117184" data-name="Trazado 117184" d="M299.895,183.773l38.469,1.128a1.462,1.462,0,0,0,1.505-1.419l.042-1.442a1.463,1.463,0,0,0-1.419-1.505l-38.47-1.128a1.463,1.463,0,0,0-1.5,1.419l-.042,1.442a1.463,1.463,0,0,0,1.419,1.505" transform="translate(-112.439 -67.584)" fill="#e0e0e0"/>
        <path id="Trazado_117185" data-name="Trazado 117185" d="M299.177,198.058l38.469,1.128a1.462,1.462,0,0,0,1.505-1.419l.042-1.442a1.463,1.463,0,0,0-1.419-1.505l-38.47-1.128a1.463,1.463,0,0,0-1.5,1.419l-.042,1.442a1.463,1.463,0,0,0,1.419,1.505" transform="translate(-112.168 -72.966)" fill="#e0e0e0"/>
        <path id="Trazado_117186" data-name="Trazado 117186" d="M298.459,212.342l38.47,1.128a1.463,1.463,0,0,0,1.5-1.42l.042-1.442a1.463,1.463,0,0,0-1.419-1.505l-38.47-1.128a1.463,1.463,0,0,0-1.5,1.419l-.042,1.442a1.463,1.463,0,0,0,1.419,1.505" transform="translate(-111.898 -78.347)" fill="#e0e0e0"/>
        <path id="Trazado_117187" data-name="Trazado 117187" d="M297.741,226.626l38.47,1.128a1.462,1.462,0,0,0,1.5-1.419l.042-1.442a1.463,1.463,0,0,0-1.419-1.505l-38.47-1.128a1.463,1.463,0,0,0-1.5,1.419l-.042,1.442a1.463,1.463,0,0,0,1.419,1.505" transform="translate(-111.627 -83.727)" fill="#e0e0e0"/>
        <path id="Trazado_117188" data-name="Trazado 117188" d="M297.022,240.91l38.47,1.128a1.462,1.462,0,0,0,1.5-1.419l.042-1.442a1.463,1.463,0,0,0-1.419-1.505l-38.47-1.128a1.463,1.463,0,0,0-1.5,1.419L295.6,239.4a1.463,1.463,0,0,0,1.419,1.505" transform="translate(-111.357 -89.108)" fill="#e0e0e0"/>
        <path id="Trazado_117189" data-name="Trazado 117189" d="M221.351,251.559l84.9,2.489a1.463,1.463,0,0,0,1.505-1.42l.042-1.442a1.464,1.464,0,0,0-1.42-1.505l-84.9-2.489a1.462,1.462,0,0,0-1.5,1.419l-.042,1.442a1.463,1.463,0,0,0,1.419,1.505" transform="translate(-82.85 -93.12)" fill="#e0e0e0"/>
        <path id="Trazado_117190" data-name="Trazado 117190" d="M232.048,68.55l25.943.76a1.462,1.462,0,0,0,1.5-1.419l.042-1.442a1.463,1.463,0,0,0-1.419-1.505l-25.943-.76a1.463,1.463,0,0,0-1.5,1.419l-.042,1.442a1.463,1.463,0,0,0,1.419,1.505" transform="translate(-86.88 -24.178)" fill="#e0e0e0"/>
        <path id="Trazado_117191" data-name="Trazado 117191" d="M207.893,192.1s.181.016.536.033l1.579.067,6.095.231,22.623.8,76.42,2.581.163.006.008-.163c.289-6.074.591-12.443.9-18.925,1.631-34.834,3.108-66.365,4.177-89.2.518-11.409.937-20.641,1.227-27.031.137-3.186.244-5.662.317-7.35q.049-1.252.074-1.912c.014-.431.014-.652.014-.652s-.022.22-.048.65-.06,1.076-.107,1.91c-.087,1.688-.215,4.162-.379,7.347-.316,6.389-.771,15.62-1.334,27.026-1.095,22.83-2.605,54.359-4.275,89.191l-.9,18.926.171-.158-76.423-2.469-22.626-.7-6.1-.173-1.579-.037c-.355-.006-.537,0-.537,0" transform="translate(-78.316 -19.055)" fill="#263238"/>
        <path id="Trazado_117192" data-name="Trazado 117192" d="M222.253,198.247s.171.016.506.034l1.49.068,5.757.235,21.406.818,72.617,2.664.162.006.009-.163c.386-7.328.789-14.95,1.2-22.739,1.791-34.371,3.413-65.483,4.587-88.011.57-11.257,1.033-20.367,1.353-26.672.151-3.144.269-5.587.35-7.253q.054-1.236.083-1.887c.017-.425.017-.643.017-.643s-.023.217-.051.641-.065,1.062-.116,1.885c-.1,1.665-.234,4.107-.414,7.249-.344,6.3-.843,15.412-1.458,26.667-1.2,22.527-2.855,53.637-4.685,88.006-.41,7.789-.81,15.411-1.195,22.739l.171-.156-72.621-2.55-21.409-.719-5.759-.178-1.492-.039c-.335-.007-.507,0-.507,0" transform="translate(-83.725 -20.608)" fill="#263238"/>
        <path id="Trazado_117193" data-name="Trazado 117193" d="M280.777,27.769l1.663-1.628,19.838.1.961,1.814Z" transform="translate(-105.772 -9.848)" fill="#263238"/>
        <rect id="Rectángulo_48727" data-name="Rectángulo 48727" width="9.452" height="22.464" transform="translate(174.886 27.373) rotate(-89.278)" fill="#263238"/>
        <path id="Trazado_117194" data-name="Trazado 117194" d="M303.32,44.031l0-.326a.781.781,0,0,0-.771-.79l-22.461-.283a.78.78,0,0,0-.79.771l0,.326a.781.781,0,0,0,.77.79l22.461.282a.78.78,0,0,0,.79-.77" transform="translate(-105.215 -16.06)" fill="#263238"/>
        <path id="Trazado_117195" data-name="Trazado 117195" d="M300.1,29.414h-.011l-9.88-.125a.871.871,0,0,1-.807-1.174l2.91-7.825a5.158,5.158,0,0,1,2.941-9.3,5.158,5.158,0,0,1,3.076,9.4l2.6,7.882a.871.871,0,0,1-.827,1.143m-4.709-17.8c-.04,0-.081,0-.121,0a4.606,4.606,0,0,0-4.416,4.6,4.541,4.541,0,0,0,2.008,3.7l.2.137-3.08,8.28a.248.248,0,0,0,.028.226.242.242,0,0,0,.2.107l9.879.125a.24.24,0,0,0,.2-.1.247.247,0,0,0,.036-.225l-2.749-8.34.208-.13a4.535,4.535,0,0,0-2.4-8.382" transform="translate(-108.999 -4.141)" fill="#455a64"/>
        <path id="Trazado_117196" data-name="Trazado 117196" d="M302.976,42.9a1.1,1.1,0,0,0-.226-.013l-.645-.016-2.375-.049-7.836-.128-7.838-.088-2.375-.007-.646.007a1.062,1.062,0,0,0-.226.015,1.05,1.05,0,0,0,.225.022l.646.027,2.375.065c2.005.047,4.776.1,7.837.142s5.831.069,7.837.074c1,0,1.815,0,2.376-.009.281-.006.5-.009.648-.018a1.018,1.018,0,0,0,.224-.024" transform="translate(-105.784 -16.048)" fill="#455a64"/>
        <path id="Trazado_117197" data-name="Trazado 117197" d="M303.491,28.714a1.1,1.1,0,0,0-.226-.013l-.644-.016-2.375-.049-7.836-.128-7.838-.088-2.376-.007-.646.007a1.062,1.062,0,0,0-.226.015,1.05,1.05,0,0,0,.225.022l.646.027,2.374.066c2.006.047,4.776.1,7.838.141s5.831.069,7.837.074c1,0,1.815,0,2.376-.009.281-.006.5-.009.647-.018a1.021,1.021,0,0,0,.224-.024" transform="translate(-105.978 -10.703)" fill="#455a64"/>
        <path id="Trazado_117198" data-name="Trazado 117198" d="M257.364,216.032l-27.137-.8a5.564,5.564,0,0,1-5.4-5.724l.695-23.7a5.562,5.562,0,0,1,5.723-5.4l27.138.8a5.563,5.563,0,0,1,5.4,5.724l-.694,23.7a5.563,5.563,0,0,1-5.724,5.4" transform="translate(-84.695 -67.965)" fill="#ebebeb"/>
        <path id="Trazado_117199" data-name="Trazado 117199" d="M224.884,213.754a.934.934,0,0,1,.413-.742l12.526-8.405a2.592,2.592,0,0,1,3.311.06.843.843,0,0,0,.166.114l5.676,2.914a.935.935,0,0,0,1.081-.163l8.6-8.41a2.669,2.669,0,0,1,3.865.329l2.76,3.464a.934.934,0,0,1,.2.591l-.131,13.993a5.285,5.285,0,0,1-5.451,5.233l-28-.885a5.285,5.285,0,0,1-5.114-5.476Z" transform="translate(-84.679 -74.757)" fill="#e0e0e0"/>
        <path id="Trazado_117200" data-name="Trazado 117200" d="M250,193.242a3.826,3.826,0,1,1-4-3.647,3.826,3.826,0,0,1,4,3.647" transform="translate(-91.297 -71.421)" fill="#e0e0e0"/>
        <path id="Trazado_117201" data-name="Trazado 117201" d="M336.685,121.45l-27.137-.8a5.564,5.564,0,0,1-5.4-5.724l.695-23.7a5.562,5.562,0,0,1,5.723-5.4l27.138.8a5.563,5.563,0,0,1,5.4,5.724l-.694,23.7a5.563,5.563,0,0,1-5.724,5.4" transform="translate(-114.576 -32.335)" fill="#ebebeb"/>
        <path id="Trazado_117202" data-name="Trazado 117202" d="M304.243,118.7l12.921-8.671a2.592,2.592,0,0,1,3.386.128l6.366,3.269L336,104.542a2.669,2.669,0,0,1,3.865.329l2.966,3.724-.125,13.4a6.193,6.193,0,0,1-6.389,6.133l-26.159-.827a6.193,6.193,0,0,1-5.994-6.417Z" transform="translate(-114.58 -39.127)" fill="#e0e0e0"/>
        <path id="Trazado_117203" data-name="Trazado 117203" d="M329.32,98.661a3.826,3.826,0,1,1-4-3.647,3.826,3.826,0,0,1,4,3.647" transform="translate(-121.178 -35.792)" fill="#e0e0e0"/>
        <path id="Trazado_117204" data-name="Trazado 117204" d="M232.917,113.374a1.639,1.639,0,0,1-.5-.14,2.767,2.767,0,0,1-1.141-.964,3.241,3.241,0,0,1-.557-2.287,4.551,4.551,0,0,1,1.513-2.731,7.943,7.943,0,0,1,3.408-1.675,18.736,18.736,0,0,1,4.321-.558,19.038,19.038,0,0,1,9.594,2.433,7,7,0,0,1,2.033,1.706,4.228,4.228,0,0,1,.913,2.425,3.238,3.238,0,0,1-.911,2.329,5.353,5.353,0,0,1-2.026,1.272,13.728,13.728,0,0,1-4.3.7,24.521,24.521,0,0,1-3.788-.163,23.719,23.719,0,0,1-5.322-1.284c-.607-.224-1.07-.421-1.377-.567a2.955,2.955,0,0,1-.463-.234,3.2,3.2,0,0,1,.489.175c.315.126.783.3,1.394.507a25.339,25.339,0,0,0,5.307,1.175,24.874,24.874,0,0,0,3.75.123,13.614,13.614,0,0,0,4.209-.707,5.067,5.067,0,0,0,1.906-1.2,2.928,2.928,0,0,0,.819-2.108,3.922,3.922,0,0,0-.851-2.236,6.71,6.71,0,0,0-1.942-1.624,18.915,18.915,0,0,0-9.427-2.414,18.7,18.7,0,0,0-4.258.52,7.765,7.765,0,0,0-3.32,1.586,4.382,4.382,0,0,0-1.487,2.585,3.135,3.135,0,0,0,.482,2.191,2.827,2.827,0,0,0,1.064.975c.3.148.48.182.475.2" transform="translate(-86.902 -39.561)" fill="#263238"/>
        <path id="Trazado_117205" data-name="Trazado 117205" d="M258.764,253.07a1.639,1.639,0,0,1-.5-.14,2.771,2.771,0,0,1-1.141-.964,3.244,3.244,0,0,1-.557-2.287,4.552,4.552,0,0,1,1.513-2.731,7.942,7.942,0,0,1,3.408-1.675,18.726,18.726,0,0,1,4.321-.558,19.037,19.037,0,0,1,9.594,2.433,7.02,7.02,0,0,1,2.033,1.706,4.236,4.236,0,0,1,.913,2.425,3.238,3.238,0,0,1-.911,2.329,5.349,5.349,0,0,1-2.026,1.272,13.729,13.729,0,0,1-4.3.7,24.445,24.445,0,0,1-3.788-.163,23.719,23.719,0,0,1-5.322-1.284c-.607-.224-1.07-.421-1.377-.567a2.957,2.957,0,0,1-.463-.234,3.2,3.2,0,0,1,.489.175c.315.126.784.3,1.394.507a25.339,25.339,0,0,0,5.307,1.175,24.872,24.872,0,0,0,3.75.123,13.631,13.631,0,0,0,4.209-.706,5.068,5.068,0,0,0,1.906-1.2,2.928,2.928,0,0,0,.819-2.108,3.922,3.922,0,0,0-.851-2.236,6.71,6.71,0,0,0-1.942-1.624,18.914,18.914,0,0,0-9.426-2.414,18.7,18.7,0,0,0-4.258.52,7.763,7.763,0,0,0-3.321,1.586,4.386,4.386,0,0,0-1.487,2.585,3.135,3.135,0,0,0,.482,2.191,2.832,2.832,0,0,0,1.064.975c.3.148.48.182.475.2" transform="translate(-96.639 -92.186)" fill="#263238"/>
        <path id="Trazado_117206" data-name="Trazado 117206" d="M228.762,67.625a1.639,1.639,0,0,1-.5-.14,2.77,2.77,0,0,1-1.141-.964,3.243,3.243,0,0,1-.557-2.287,4.551,4.551,0,0,1,1.513-2.731,7.942,7.942,0,0,1,3.408-1.675,18.726,18.726,0,0,1,4.321-.558A19.037,19.037,0,0,1,245.4,61.7a7.02,7.02,0,0,1,2.033,1.706,4.232,4.232,0,0,1,.913,2.425,3.238,3.238,0,0,1-.911,2.329,5.349,5.349,0,0,1-2.026,1.272,13.726,13.726,0,0,1-4.3.7,24.51,24.51,0,0,1-3.787-.163,23.717,23.717,0,0,1-5.323-1.284c-.607-.224-1.07-.421-1.377-.567a3.025,3.025,0,0,1-.463-.234,3.2,3.2,0,0,1,.489.175c.315.126.784.3,1.394.507a25.338,25.338,0,0,0,5.307,1.175,24.873,24.873,0,0,0,3.75.123,13.613,13.613,0,0,0,4.209-.707,5.067,5.067,0,0,0,1.906-1.2,2.928,2.928,0,0,0,.819-2.108,3.926,3.926,0,0,0-.85-2.236,6.712,6.712,0,0,0-1.942-1.624,18.914,18.914,0,0,0-9.426-2.414,18.694,18.694,0,0,0-4.258.52,7.764,7.764,0,0,0-3.321,1.586,4.386,4.386,0,0,0-1.487,2.585,3.135,3.135,0,0,0,.482,2.191,2.833,2.833,0,0,0,1.065.975c.3.148.479.182.474.2" transform="translate(-85.337 -22.327)" fill="#263238"/>
        <path id="Trazado_117207" data-name="Trazado 117207" d="M383.23,212.985l8.57.214,4.089,5.269-4.4,5.368-8.794-.258Z" transform="translate(-144.165 -80.234)" fill="#34af00"/>
        <path id="Trazado_117208" data-name="Trazado 117208" d="M384.533,188.868l8.57.214,4.089,5.269-4.4,5.368L384,199.462Z" transform="translate(-144.656 -71.149)" fill="#455a64"/>
        <path id="Trazado_117209" data-name="Trazado 117209" d="M180.922,15.463H153.814a.322.322,0,0,0-.322.322v.134a.322.322,0,0,0,.322.322h27.109a.323.323,0,0,0,.322-.322v-.134a.323.323,0,0,0-.322-.322" transform="translate(-57.822 -5.825)" fill="#e0e0e0"/>
        <path id="Trazado_117210" data-name="Trazado 117210" d="M180.922,19.426H153.814a.322.322,0,0,0-.322.323v.134a.322.322,0,0,0,.322.322h27.109a.323.323,0,0,0,.322-.322v-.134a.323.323,0,0,0-.322-.323" transform="translate(-57.822 -7.318)" fill="#e0e0e0"/>
        <path id="Trazado_117211" data-name="Trazado 117211" d="M180.922,23.39H153.814a.322.322,0,0,0-.322.322v.135a.322.322,0,0,0,.322.322h27.109a.323.323,0,0,0,.322-.322v-.135a.323.323,0,0,0-.322-.322" transform="translate(-57.822 -8.811)" fill="#e0e0e0"/>
        <path id="Trazado_117212" data-name="Trazado 117212" d="M206.043,19.161c.072-.054,4.385,5.531,9.633,12.473s9.447,12.617,9.375,12.671-4.384-5.53-9.634-12.474-9.445-12.615-9.374-12.67" transform="translate(-77.619 -7.218)" fill="#263238"/>
        <path id="Trazado_117213" data-name="Trazado 117213" d="M206.206,17.719a1.056,1.056,0,1,1-1.056-1.056,1.056,1.056,0,0,1,1.056,1.056" transform="translate(-76.885 -6.277)" fill="#263238"/>
        <path id="Trazado_117214" data-name="Trazado 117214" d="M232.171,350.247H200.555a2.679,2.679,0,0,1-2.676-2.807l.641-13.394a2.68,2.68,0,0,1,2.676-2.551h31.615a2.679,2.679,0,0,1,2.676,2.807l-.642,13.395a2.678,2.678,0,0,1-2.676,2.551" transform="translate(-74.542 -124.878)" fill="#fafafa"/>
        <path id="Trazado_117215" data-name="Trazado 117215" d="M232.079,350.149a3.3,3.3,0,0,0,1.043-.248,2.666,2.666,0,0,0,1.576-2.426c.118-2.718.287-6.623.5-11.442-.01-1.185.39-2.566-.495-3.568a2.525,2.525,0,0,0-1.639-.913c-.649-.049-1.374-.011-2.077-.021l-9.077.015-20.8.013a2.532,2.532,0,0,0-2.154,1.213,2.567,2.567,0,0,0-.365,1.214q-.033.678-.065,1.351-.131,2.693-.257,5.3t-.249,5.115q-.031.627-.061,1.247a3.12,3.12,0,0,0,.08,1.174,2.537,2.537,0,0,0,1.483,1.641,2.778,2.778,0,0,0,1.111.186h1.176l2.3,0,4.407.008,7.909.02,11.452.052,3.113.03.81.016a.139.139,0,1,1,0,.034l-.81.016-3.113.031-11.452.052-7.909.02-4.407.008-2.3,0h-1.176a3.066,3.066,0,0,1-1.222-.2,2.835,2.835,0,0,1-1.664-1.833,3.413,3.413,0,0,1-.1-1.274q.029-.621.059-1.247.118-2.507.241-5.117t.251-5.3q.033-.673.065-1.351a2.844,2.844,0,0,1,2.842-2.736l20.8.012,9.077.015c.718.014,1.394-.024,2.111.032a2.776,2.776,0,0,1,1.8,1.012,2.817,2.817,0,0,1,.623,1.883q-.048.948-.093,1.854c-.252,4.817-.457,8.72-.6,11.437a2.754,2.754,0,0,1-.616,1.689,2.658,2.658,0,0,1-1.852.981c-.184.006-.277,0-.277,0" transform="translate(-74.45 -124.78)" fill="#263238"/>
        <path id="Trazado_117216" data-name="Trazado 117216" d="M233.219,341.95H206.111a.322.322,0,0,0-.322.322v.134a.322.322,0,0,0,.322.322h27.108a.322.322,0,0,0,.322-.322v-.134a.322.322,0,0,0-.322-.322" transform="translate(-77.523 -128.816)" fill="#e0e0e0"/>
        <path id="Trazado_117217" data-name="Trazado 117217" d="M233.219,345.914H206.111a.322.322,0,0,0-.322.322v.134a.322.322,0,0,0,.322.322h27.108a.322.322,0,0,0,.322-.322v-.134a.322.322,0,0,0-.322-.322" transform="translate(-77.523 -130.31)" fill="#e0e0e0"/>
        <path id="Trazado_117218" data-name="Trazado 117218" d="M233.219,349.878H206.111a.322.322,0,0,0-.322.322v.134a.322.322,0,0,0,.322.322h27.108a.322.322,0,0,0,.322-.322V350.2a.322.322,0,0,0-.322-.322" transform="translate(-77.523 -131.803)" fill="#e0e0e0"/>
        <path id="Trazado_117219" data-name="Trazado 117219" d="M258.275,261.074c.08.041-4.976,9.9-11.29,22.02s-11.5,21.914-11.578,21.872,4.974-9.9,11.29-22.022,11.5-21.912,11.578-21.871" transform="translate(-88.68 -98.349)" fill="#263238"/>
        <path id="Trazado_117220" data-name="Trazado 117220" d="M235.826,330.857a1.056,1.056,0,1,1-1.056-1.056,1.055,1.055,0,0,1,1.056,1.056" transform="translate(-88.043 -124.24)" fill="#263238"/>
      </g>
    </g>
    <g id="Grupo_85052" data-name="Grupo 85052">
      <g id="Grupo_85051" data-name="Grupo 85051" clip-path="url(#clip-path)">
        <path id="Trazado_117221" data-name="Trazado 117221" d="M495.257,346.23H403.652v-3.786h91.605a1.566,1.566,0,0,1,1.566,1.566v.654a1.566,1.566,0,0,1-1.566,1.566" transform="translate(-152.06 -129.003)" fill="#34af00"/>
        <path id="Trazado_117222" data-name="Trazado 117222" d="M380.918,345.872c0,.075-7.686.137-17.165.137s-17.166-.061-17.166-.137,7.684-.137,17.166-.137,17.165.061,17.165.137" transform="translate(-130.563 -130.243)" fill="#263238"/>
        <path id="Trazado_117223" data-name="Trazado 117223" d="M390.174,334.733H347.146a9.435,9.435,0,0,1-9.435-9.434v-3.941a9.434,9.434,0,0,1,9.435-9.434h43.029Z" transform="translate(-127.22 -117.505)" fill="#34af00"/>
        <path id="Trazado_117224" data-name="Trazado 117224" d="M495.257,315.71H404.365a.713.713,0,0,1-.713-.714v-2.36a.713.713,0,0,1,.713-.713h90.892a1.566,1.566,0,0,1,1.566,1.566v.654a1.566,1.566,0,0,1-1.566,1.566" transform="translate(-152.06 -117.505)" fill="#34af00"/>
        <path id="Trazado_117225" data-name="Trazado 117225" d="M495.724,333.235h-80a7.618,7.618,0,0,1,0-15.236h80a18.839,18.839,0,0,0,0,15.236" transform="translate(-153.74 -119.794)" fill="#f5f5f5"/>
        <g id="Grupo_85044" data-name="Grupo 85044" transform="translate(210.492 194.419)" opacity="0.3">
          <g id="Grupo_85043" data-name="Grupo 85043">
            <g id="Grupo_85042" data-name="Grupo 85042" clip-path="url(#clip-path-7)">
              <path id="Trazado_117226" data-name="Trazado 117226" d="M381.59,334.733H346.355a8.644,8.644,0,0,1-8.644-8.643V320.5a8.574,8.574,0,0,1,8.574-8.573h36.173c-8.259,5-7.641,16.983-.868,22.809" transform="translate(-337.712 -311.924)"/>
            </g>
          </g>
        </g>
        <path id="Trazado_117227" data-name="Trazado 117227" d="M488.756,331.273c0,.075-16.419.137-36.669.137s-36.672-.061-36.672-.137,16.416-.137,36.672-.137,36.669.061,36.669.137" transform="translate(-156.491 -124.743)" fill="#263238"/>
        <path id="Trazado_117228" data-name="Trazado 117228" d="M500.865,336.706c0,.075-16.419.137-36.669.137s-36.672-.061-36.672-.137,16.416-.136,36.672-.136,36.669.061,36.669.136" transform="translate(-161.053 -126.79)" fill="#263238"/>
        <path id="Trazado_117229" data-name="Trazado 117229" d="M497.295,323.568c0,.075-16.419.137-36.669.137s-36.672-.061-36.672-.137,16.416-.136,36.672-.136,36.669.061,36.669.136" transform="translate(-159.708 -121.84)" fill="#263238"/>
        <path id="Trazado_117230" data-name="Trazado 117230" d="M380.918,314.878c0,.075-7.686.137-17.165.137s-17.166-.061-17.166-.137,7.684-.136,17.166-.136,17.165.061,17.165.136" transform="translate(-130.563 -118.567)" fill="#263238"/>
        <path id="Trazado_117231" data-name="Trazado 117231" d="M369.778,403.583h-50.7a12.15,12.15,0,0,1-12.15-12.15v-5.075a12.15,12.15,0,0,1,12.15-12.15h50.7a4.71,4.71,0,0,1,4.71,4.71v19.955a4.71,4.71,0,0,1-4.71,4.71" transform="translate(-115.622 -140.968)" fill="#34af00"/>
        <path id="Trazado_117232" data-name="Trazado 117232" d="M509.818,379.085H393.008a1.164,1.164,0,0,1-1.164-1.164v-2.548a1.164,1.164,0,0,1,1.164-1.164H509.818a2.017,2.017,0,0,1,2.017,2.017v.843a2.017,2.017,0,0,1-2.017,2.017" transform="translate(-147.612 -140.968)" fill="#34af00"/>
        <path id="Trazado_117233" data-name="Trazado 117233" d="M509.818,418.39H393.008a1.164,1.164,0,0,1-1.164-1.164v-2.548a1.164,1.164,0,0,1,1.164-1.164H509.818a2.017,2.017,0,0,1,2.017,2.017v.843a2.017,2.017,0,0,1-2.017,2.017" transform="translate(-147.612 -155.775)" fill="#34af00"/>
        <path id="Trazado_117234" data-name="Trazado 117234" d="M510.419,401.653H407.4a9.811,9.811,0,0,1,0-19.622H510.419a24.262,24.262,0,0,0,0,19.622" transform="translate(-149.775 -143.915)" fill="#f5f5f5"/>
        <g id="Grupo_85047" data-name="Grupo 85047" transform="translate(191.302 233.24)" opacity="0.3">
          <g id="Grupo_85046" data-name="Grupo 85046">
            <g id="Grupo_85045" data-name="Grupo 85045" clip-path="url(#clip-path-8)">
              <path id="Trazado_117235" data-name="Trazado 117235" d="M363.433,403.583H321.454a14.53,14.53,0,0,1-14.53-14.53,14.845,14.845,0,0,1,14.844-14.845h42.783c-10.636,6.443-9.841,21.872-1.118,29.375" transform="translate(-306.924 -374.208)"/>
            </g>
          </g>
        </g>
        <path id="Trazado_117236" data-name="Trazado 117236" d="M501.445,399.151c0,.075-21.146.137-47.224.137s-47.229-.061-47.229-.137,21.141-.136,47.229-.136,47.224.061,47.224.136" transform="translate(-153.318 -150.313)" fill="#263238"/>
        <path id="Trazado_117237" data-name="Trazado 117237" d="M517.039,406.148c0,.075-21.146.137-47.224.137s-47.229-.061-47.229-.137,21.141-.137,47.229-.137,47.224.061,47.224.137" transform="translate(-159.193 -152.949)" fill="#263238"/>
        <path id="Trazado_117238" data-name="Trazado 117238" d="M512.441,392.657c0,.075-21.146.137-47.224.137s-47.229-.061-47.229-.137,21.141-.136,47.229-.136,47.224.061,47.224.136" transform="translate(-157.461 -147.867)" fill="#263238"/>
        <path id="Trazado_117239" data-name="Trazado 117239" d="M362.566,417.951c0,.075-9.9.137-22.106.137s-22.107-.061-22.107-.137,9.9-.136,22.107-.136,22.106.061,22.106.136" transform="translate(-119.927 -157.396)" fill="#263238"/>
        <path id="Trazado_117240" data-name="Trazado 117240" d="M362.566,378.037c0,.075-9.9.137-22.106.137s-22.107-.061-22.107-.137,9.9-.136,22.107-.136,22.106.061,22.106.136" transform="translate(-119.927 -142.36)" fill="#263238"/>
        <path id="Trazado_117241" data-name="Trazado 117241" d="M409.973,364.215H362.359a6.957,6.957,0,0,1-6.957-6.957v-2.906a6.957,6.957,0,0,1,6.957-6.957h47.614a.323.323,0,0,1,.323.323v16.172a.323.323,0,0,1-.323.324" transform="translate(-133.884 -130.868)" fill="#455a64"/>
        <path id="Trazado_117242" data-name="Trazado 117242" d="M520.248,351.357h-95.1a.746.746,0,0,1-.746-.746v-2.469a.747.747,0,0,1,.746-.747h95.1a1.639,1.639,0,0,1,1.639,1.639v.684a1.639,1.639,0,0,1-1.639,1.639" transform="translate(-159.876 -130.868)" fill="#455a64"/>
        <path id="Trazado_117243" data-name="Trazado 117243" d="M520.248,371.985h-95.1a.746.746,0,0,1-.746-.746V368.77a.747.747,0,0,1,.746-.747h95.1a1.639,1.639,0,0,1,1.639,1.639v.684a1.639,1.639,0,0,1-1.639,1.639" transform="translate(-159.876 -138.638)" fill="#455a64"/>
        <path id="Trazado_117244" data-name="Trazado 117244" d="M520.736,362.647H433.511a4.447,4.447,0,1,1,0-8.895h87.226a6.717,6.717,0,0,0,0,8.895" transform="translate(-161.633 -133.262)" fill="#f5f5f5"/>
        <g id="Grupo_85050" data-name="Grupo 85050" transform="translate(221.518 216.528)" opacity="0.3">
          <g id="Grupo_85049" data-name="Grupo 85049">
            <g id="Grupo_85048" data-name="Grupo 85048" clip-path="url(#clip-path-9)">
              <path id="Trazado_117245" data-name="Trazado 117245" d="M401.314,364.215h-37.57a8.342,8.342,0,0,1-8.341-8.342,8.477,8.477,0,0,1,8.477-8.477h38.343c-8.641,3.689-8,12.523-.908,16.819" transform="translate(-355.402 -347.396)"/>
            </g>
          </g>
        </g>
        <path id="Trazado_117246" data-name="Trazado 117246" d="M513.446,359.682c0,.075-17.18.136-38.368.136s-38.372-.061-38.372-.136,17.177-.137,38.372-.137,38.368.061,38.368.137" transform="translate(-164.512 -135.445)" fill="#263238"/>
        <path id="Trazado_117247" data-name="Trazado 117247" d="M526.115,363.523c0,.075-17.18.136-38.368.136s-38.372-.061-38.372-.136,17.177-.137,38.372-.137,38.368.061,38.368.137" transform="translate(-169.284 -136.892)" fill="#263238"/>
        <path id="Trazado_117248" data-name="Trazado 117248" d="M400.61,371.614c0,.075-8.042.136-17.96.136s-17.961-.061-17.961-.136,8.04-.137,17.961-.137,17.96.061,17.96.137" transform="translate(-137.382 -139.94)" fill="#263238"/>
        <path id="Trazado_117249" data-name="Trazado 117249" d="M400.61,350.492c0,.075-8.042.136-17.96.136s-17.961-.061-17.961-.136,8.04-.137,17.961-.137,17.96.061,17.96.137" transform="translate(-137.382 -131.983)" fill="#263238"/>
        <path id="Trazado_117250" data-name="Trazado 117250" d="M499.329,347.313c0,.075-29.5.137-65.883.137s-65.888-.061-65.888-.137,29.494-.137,65.888-.137,65.883.061,65.883.137" transform="translate(-138.463 -130.785)" fill="#263238"/>
        <path id="Trazado_117251" data-name="Trazado 117251" d="M494.091,323.25v9.135l3.166-2.03,3.532,2.03V323.25Z" transform="translate(-186.129 -121.772)" fill="#ff725e"/>
      </g>
    </g>
    <g id="Grupo_85054" data-name="Grupo 85054">
      <g id="Grupo_85053" data-name="Grupo 85053" clip-path="url(#clip-path)">
        <path id="Trazado_117252" data-name="Trazado 117252" d="M537.694,72.6H509.43a10.829,10.829,0,0,0-.627,21.641l2.559,4.428,3.2-4.4h23.135a10.836,10.836,0,0,0,0-21.673" transform="translate(-187.826 -27.351)" fill="#fff"/>
        <path id="Trazado_117253" data-name="Trazado 117253" d="M537.607,72.524s.1-.006.288,0l.847.03a11.425,11.425,0,0,1,3.167.8,11.18,11.18,0,0,1,4.147,3.092,11.685,11.685,0,0,1,1.677,2.8,10.669,10.669,0,0,1,.792,3.583,10.879,10.879,0,0,1-2.744,7.822,11.143,11.143,0,0,1-3.824,2.783,11.656,11.656,0,0,1-4.945.907l-22.539.017.13-.066-3.2,4.4-.147.2-.125-.216-1.042-1.8-1.517-2.625.131.08a12.056,12.056,0,0,1-3.168-.661,11.517,11.517,0,0,1-2.8-1.53,10.955,10.955,0,0,1-1.68-15.973,10.842,10.842,0,0,1,4.448-3.076c.209-.074.414-.156.623-.221l.636-.163a10.372,10.372,0,0,1,1.275-.231c.425-.057.853-.052,1.273-.08h1.24l9.106.02,13.143.05,3.562.03.926.016c.208.006.315.016.315.016s-.107.011-.315.016l-.926.016-3.562.03-13.143.05-9.106.02-1.239,0c-.411.03-.828.026-1.242.083a10.049,10.049,0,0,0-1.243.229l-.62.16c-.2.064-.4.145-.606.218a10.57,10.57,0,0,0-4.324,3.007,10.662,10.662,0,0,0,1.651,15.523,11.176,11.176,0,0,0,2.718,1.484,11.772,11.772,0,0,0,3.075.641l.089.007.043.074,1.517,2.625,1.042,1.8-.271-.014c1.1-1.508,2.182-3,3.2-4.4l.048-.067h.082l22.539.017a11.375,11.375,0,0,0,4.837-.87,10.893,10.893,0,0,0,3.742-2.7,10.662,10.662,0,0,0,2.719-7.641,10.494,10.494,0,0,0-.756-3.521,11.553,11.553,0,0,0-1.628-2.768,11.147,11.147,0,0,0-4.063-3.092,11.923,11.923,0,0,0-4.255-.935" transform="translate(-187.739 -27.271)" fill="#263238"/>
        <path id="Trazado_117254" data-name="Trazado 117254" d="M516.744,84.555l1.013,2.054,2.266.329-1.64,1.6.387,2.257-2.027-1.065-2.027,1.065.387-2.257-1.64-1.6,2.266-.329Z" transform="translate(-193.428 -31.853)" fill="#ffd54f"/>
        <path id="Trazado_117255" data-name="Trazado 117255" d="M530.539,84.555l1.013,2.054,2.266.329-1.64,1.6.387,2.257-2.027-1.065-2.027,1.065.387-2.257-1.64-1.6,2.266-.329Z" transform="translate(-198.624 -31.853)" fill="#ffd54f"/>
        <path id="Trazado_117256" data-name="Trazado 117256" d="M544.334,84.555l1.013,2.054,2.266.329-1.64,1.6.387,2.257-2.027-1.065-2.027,1.065.387-2.257-1.64-1.6,2.266-.329Z" transform="translate(-203.821 -31.853)" fill="#ffd54f"/>
        <path id="Trazado_117257" data-name="Trazado 117257" d="M558.129,84.555l1.013,2.054,2.266.329-1.64,1.6.387,2.257-2.027-1.065L556.1,90.793l.387-2.257-1.64-1.6,2.266-.329Z" transform="translate(-209.018 -31.853)" fill="#ffd54f"/>
      </g>
    </g>
    <g id="Grupo_85059" data-name="Grupo 85059">
      <g id="Grupo_85058" data-name="Grupo 85058" clip-path="url(#clip-path)">
        <path id="Trazado_117258" data-name="Trazado 117258" d="M438.111,85.619s-2.832,10.587-3.075,18.077l-.081,2.5s6.247,5.188,11.488,5.507l4.392-10.8Z" transform="translate(-163.852 -32.254)" fill="#263238"/>
        <path id="Trazado_117259" data-name="Trazado 117259" d="M467.021,85.406c-1.194-5.163-1.653-11.173-5.947-14.54-3.186-2.5-6.816-3.194-10.862-3.025a14.333,14.333,0,0,0-5.976,1.985c-2.378,1.347-3.386,4.078-4.534,6.558-2.3,4.971-2.008,11.7-.451,13.571l20.77,10.968c4.147-2.158,6.745-3.018,7.408-8.547a20.255,20.255,0,0,0-.408-6.97" transform="translate(-165.011 -25.547)" fill="#263238"/>
        <path id="Trazado_117260" data-name="Trazado 117260" d="M461.73,76.93l-13.071-3.857c-4.211-.613-7.227,4.482-7.661,8.715-.482,4.7-.886,10.463-.466,14,.845,7.117,6.23,8.231,6.23,8.231,0-.024.012.107-.03,2.209l-.016,4.331a3.592,3.592,0,0,0,1.029,2.932c1.928,2.5,5.441,2.831,9.584,1.3a5.973,5.973,0,0,0,4.255-5.11l2.273-30.141a2.49,2.49,0,0,0-2.127-2.611" transform="translate(-165.887 -27.509)" fill="#ae7461"/>
        <path id="Trazado_117261" data-name="Trazado 117261" d="M443.378,96.945a.908.908,0,0,0,.839.949.867.867,0,0,0,.967-.781.908.908,0,0,0-.838-.95.869.869,0,0,0-.968.782" transform="translate(-167.024 -36.224)" fill="#263238"/>
        <path id="Trazado_117262" data-name="Trazado 117262" d="M442.764,93.394c.108.123.815-.359,1.791-.318s1.672.557,1.783.442c.054-.05-.052-.269-.355-.508a2.5,2.5,0,0,0-1.421-.5,2.393,2.393,0,0,0-1.432.4c-.309.219-.419.429-.366.484" transform="translate(-166.789 -34.849)" fill="#263238"/>
        <path id="Trazado_117263" data-name="Trazado 117263" d="M457.147,97.17a.907.907,0,0,0,.838.949.868.868,0,0,0,.967-.781.908.908,0,0,0-.838-.95.869.869,0,0,0-.968.782" transform="translate(-172.211 -36.309)" fill="#263238"/>
        <path id="Trazado_117264" data-name="Trazado 117264" d="M458.17,93.579c.108.123.816-.358,1.791-.317s1.672.557,1.783.441c.054-.05-.051-.269-.355-.508a2.5,2.5,0,0,0-1.422-.5,2.392,2.392,0,0,0-1.431.4c-.309.219-.419.429-.366.484" transform="translate(-172.593 -34.918)" fill="#263238"/>
        <path id="Trazado_117265" data-name="Trazado 117265" d="M450.591,99.363a6.438,6.438,0,0,0-1.574-.348c-.248-.036-.482-.095-.517-.266a1.269,1.269,0,0,1,.2-.732l.812-1.869a32.576,32.576,0,0,0,1.851-4.9,32.751,32.751,0,0,0-2.241,4.739q-.409.985-.781,1.882a1.439,1.439,0,0,0-.168.973.626.626,0,0,0,.4.381,1.71,1.71,0,0,0,.421.075,6.343,6.343,0,0,0,1.607.065" transform="translate(-168.816 -34.374)" fill="#263238"/>
        <path id="Trazado_117266" data-name="Trazado 117266" d="M450.577,121.456a18.007,18.007,0,0,0,9.572-2.154s-2.537,4.857-9.59,3.917Z" transform="translate(-169.731 -44.942)" fill="#6f4439"/>
        <path id="Trazado_117267" data-name="Trazado 117267" d="M455.343,107.327a1.416,1.416,0,0,0-1.151-.687,1.842,1.842,0,0,0-1.71.765,1.141,1.141,0,0,0-.107.823c.056.143.011.072.116.173a3.222,3.222,0,0,0,1.285.868,1.383,1.383,0,0,0,1.48-.48,1.411,1.411,0,0,0,.088-1.462" transform="translate(-170.403 -40.17)" fill="#6f4439"/>
        <path id="Trazado_117268" data-name="Trazado 117268" d="M454.975,105.6c-.158-.016-.208,1.043-1.149,1.754s-2.062.544-2.077.691c-.018.066.242.217.718.251a2.636,2.636,0,0,0,1.732-.517,2.3,2.3,0,0,0,.9-1.474c.06-.441-.045-.708-.118-.706" transform="translate(-170.178 -39.781)" fill="#263238"/>
        <path id="Trazado_117269" data-name="Trazado 117269" d="M457.584,88.039c.07.274,1.053.242,2.18.491,1.133.226,2.02.649,2.195.427.079-.107-.057-.371-.405-.664a3.891,3.891,0,0,0-3.333-.7c-.435.128-.666.315-.636.445" transform="translate(-172.376 -32.952)" fill="#263238"/>
        <path id="Trazado_117270" data-name="Trazado 117270" d="M442.876,88.924c.221.192.932-.143,1.826-.284.889-.168,1.674-.092,1.815-.346.06-.123-.091-.325-.452-.486a2.782,2.782,0,0,0-1.539-.145,2.746,2.746,0,0,0-1.394.652c-.284.272-.355.512-.256.608" transform="translate(-166.821 -33.007)" fill="#263238"/>
        <path id="Trazado_117271" data-name="Trazado 117271" d="M453.583,71.881c-.012.051-.022.1-.033.153l.024.011c0-.055.006-.109.009-.164" transform="translate(-170.857 -27.078)" fill="#263238"/>
        <path id="Trazado_117272" data-name="Trazado 117272" d="M457,105.95c.2-1.855-.547-3.718-.33-5.571.229-1.964,1.5-3.647,2.024-5.555.837-3.055-.311-6.3-.731-9.461a7.5,7.5,0,0,1-4.6-2.656,20.762,20.762,0,0,1-3.112-5.716,9.572,9.572,0,0,0,1.925,5.5,2.582,2.582,0,0,1-2.205-.716,5.785,5.785,0,0,1-1.294-2.009,15.707,15.707,0,0,1-1.253-5.659,20.347,20.347,0,0,0,.924,8.264,3.527,3.527,0,0,0-1.538.059,1.688,1.688,0,0,1-1.464-.311,1.846,1.846,0,0,1-.4-.944,21.212,21.212,0,0,1-.235-7.2,21.942,21.942,0,0,0-1.622,3.99,7.731,7.731,0,0,0-.03,4.258.625.625,0,0,1-.879-.006,1.49,1.49,0,0,1-.385-.889,10.971,10.971,0,0,1,.233-3.584,18.147,18.147,0,0,0-1.333,4.094,6.106,6.106,0,0,1-2.218,3.6A18.846,18.846,0,0,1,438.651,80a16.421,16.421,0,0,1,1.591-4.309,12.8,12.8,0,0,1,2.868-3.992c2.084-1.826,2.956-1.04,4.286-.344l.158.066c0-.032.006-.065.011-.1l.059-.284a19.969,19.969,0,0,1,10.516.492c2.509.818,2.739,6.22,3.351,3.653.371-1.553,2.384-.135,2.409-.09,2.96,5.338,6.1,13.805,6.24,27.185Z" transform="translate(-165.134 -26.581)" fill="#263238"/>
        <path id="Trazado_117273" data-name="Trazado 117273" d="M476.2,60.568a6.665,6.665,0,0,0-4.6-2.239,5.023,5.023,0,0,0-4.443,2.314,4.048,4.048,0,0,0,.547,4.841l2.187,1.75a5.987,5.987,0,0,0,4.966.482,4.317,4.317,0,0,0,2.8-3.939,5.078,5.078,0,0,0-1.459-3.207" transform="translate(-175.775 -21.972)" fill="#263238"/>
        <path id="Trazado_117274" data-name="Trazado 117274" d="M474.485,73.982c-.423.2-1.62-1.636-3.757-3.076-2.1-1.49-4.243-1.96-4.207-2.426.018-.212.62-.383,1.6-.282a8.17,8.17,0,0,1,6.068,4.192c.439.877.492,1.5.3,1.592" transform="translate(-175.743 -25.68)" fill="#455a64"/>
        <path id="Trazado_117275" data-name="Trazado 117275" d="M423.709,166.153l8.19-7.671,5.549,8.814c-.11.79-7.183,16.03-10.245,19.188-3.494,3.6-8.256,3.325-10.357-1.65-1.657-3.922-4.406-16-4.406-16Z" transform="translate(-155.37 -59.702)" fill="#ffd54f"/>
        <path id="Trazado_117276" data-name="Trazado 117276" d="M437.357,133.018c-1.956.7-6.456,3.164-7.767,4.779a12.346,12.346,0,0,0-1.654,2.557c-1.025,2.254-2.972,18.969-2.972,18.969l8.722,6.317L441.28,136.4l-.485-4.636Z" transform="translate(-160.089 -49.638)" fill="#ffd54f"/>
        <path id="Trazado_117277" data-name="Trazado 117277" d="M439.022,180.03l.549-4.318a140.356,140.356,0,0,1-2.3-14.392c-.982-10.633,1.791-17.241,2.17-18.362.215-.635,5.911-12.433,5.911-12.433s1.2,3.634,6,2.775c6.7-1.2,9.145-4.832,9.145-4.832l8.661,1.872s3.374,13.552,3.871,18.042c.266,2.407-2.906,16.014-2.906,16.014l5.108,7.641c.153.376-2.219,10.818-2.683,11.249s-8.773,2.361-8.876,2.716-15.839,6.943-15.829,6.674-7.571-9.274-7.571-9.274Z" transform="translate(-164.647 -48.395)" fill="#ffd54f"/>
        <path id="Trazado_117278" data-name="Trazado 117278" d="M436.466,154.318a1.221,1.221,0,0,1-.021.316c-.029.242-.064.538-.107.9-.093.778-.224,1.9-.34,3.3a47.355,47.355,0,0,0,.2,10.9c.56,4.236,1.377,8.025,1.9,10.78.268,1.377.472,2.494.6,3.268l.138.893a1.145,1.145,0,0,1,.026.315,1.2,1.2,0,0,1-.09-.3l-.2-.881c-.177-.815-.414-1.912-.7-3.245-.584-2.741-1.439-6.529-2-10.784a43.917,43.917,0,0,1-.11-10.962c.145-1.4.312-2.522.443-3.3.067-.387.124-.687.168-.889a1.126,1.126,0,0,1,.085-.305" transform="translate(-164.049 -58.133)" fill="#263238"/>
        <path id="Trazado_117279" data-name="Trazado 117279" d="M475.55,206.479c1.553,2.635,5.1,12.722,6.477,17.873,6.29,23.507,11.611,55.121,13.378,61.563,2.355,8.585,7.629,28.007,10.312,40.941l-12.89,5.621s-16.882-45.491-21.488-56.669c-4.773-11.583-12.734-33.431-12.734-33.431l-4.6,86.658-12.348.381s-4.223-24.419-5.9-39.013-1.867-44.637-1.88-52.262c-.017-9.285,4.007-30.173,4.007-30.173s4.816,3.614,13.847,2.231c7.192-1.1,22.1-6.634,22.1-6.634Z" transform="translate(-163.446 -76.686)" fill="#263238"/>
        <path id="Trazado_117280" data-name="Trazado 117280" d="M460.461,219.034a5.955,5.955,0,0,0,.072,1c.066.638.178,1.559.33,2.7.3,2.274.775,5.408,1.39,8.854s1.26,6.551,1.765,8.789c.252,1.119.467,2.022.626,2.643a5.919,5.919,0,0,0,.277.958,5.931,5.931,0,0,0-.155-.985c-.135-.684-.312-1.581-.525-2.663-.448-2.248-1.055-5.355-1.671-8.8s-1.123-6.566-1.482-8.83c-.175-1.089-.32-1.992-.431-2.681a5.986,5.986,0,0,0-.2-.978" transform="translate(-173.458 -82.513)" fill="#455a64"/>
        <path id="Trazado_117281" data-name="Trazado 117281" d="M466.178,218.539c.017,0-.019-.155-.241-.252a1.576,1.576,0,0,0-.941-.031,1.894,1.894,0,0,0-.616.252,1.035,1.035,0,0,0-.421.684,1.58,1.58,0,0,0,.707,1.569,1.627,1.627,0,0,0,1.72.077,1.121,1.121,0,0,0,.475-.641,1.6,1.6,0,0,0,.046-.668,1.345,1.345,0,0,0-.416-.848c-.178-.148-.312-.158-.315-.143s.1.077.226.231a1.36,1.36,0,0,1,.279.782,1.087,1.087,0,0,1-.449,1.035,1.359,1.359,0,0,1-1.39-.094,1.309,1.309,0,0,1-.591-1.25.773.773,0,0,1,.284-.517,1.782,1.782,0,0,1,.519-.249,1.7,1.7,0,0,1,.841-.071c.194.045.257.15.282.134" transform="translate(-174.771 -82.199)" fill="#455a64"/>
        <path id="Trazado_117282" data-name="Trazado 117282" d="M454.862,254.093a12.052,12.052,0,0,0,1.493,1.024c.934.611,2.212,1.471,3.581,2.479s2.568,1.978,3.427,2.69a12.087,12.087,0,0,0,1.42,1.124,8.718,8.718,0,0,0-1.271-1.3,42.574,42.574,0,0,0-7.038-5.191,8.706,8.706,0,0,0-1.613-.831" transform="translate(-171.351 -95.719)" fill="#455a64"/>
        <path id="Trazado_117283" data-name="Trazado 117283" d="M505.023,326.883a1.709,1.709,0,0,0,.534.018c.343-.007.838-.044,1.447-.113a25.86,25.86,0,0,0,9.1-2.853c.54-.29.967-.543,1.253-.733s.439-.3.428-.319a19.028,19.028,0,0,0-1.784.85,32.509,32.509,0,0,1-9.031,2.83,19.277,19.277,0,0,0-1.95.32" transform="translate(-190.248 -121.632)" fill="#455a64"/>
        <path id="Trazado_117284" data-name="Trazado 117284" d="M508.381,324.982a4.846,4.846,0,0,0,1.265-.337c.765-.256,1.808-.653,2.931-1.158s2.112-1.023,2.811-1.427a4.849,4.849,0,0,0,1.091-.723c-.047-.082-1.8.855-4.034,1.857s-4.094,1.7-4.064,1.788" transform="translate(-191.513 -121.05)" fill="#455a64"/>
        <path id="Trazado_117285" data-name="Trazado 117285" d="M438.134,391.064l-.065,12.865s-13.1,4.255-13.341,6.631l24.94,1.021.924-20.041Z" transform="translate(-160 -147.318)" fill="#263238"/>
        <path id="Trazado_117286" data-name="Trazado 117286" d="M457.819,410.446a1.019,1.019,0,0,1,.656,1.191.98.98,0,0,1-1.175.661,1.076,1.076,0,0,1-.689-1.265,1.017,1.017,0,0,1,1.3-.552" transform="translate(-171.993 -154.6)" fill="#e0e0e0"/>
        <path id="Trazado_117287" data-name="Trazado 117287" d="M449.664,422.624l.014-2.024-23.917-.223s-1.131.438-1.037,1.225Z" transform="translate(-159.996 -158.361)" fill="#455a64"/>
        <path id="Trazado_117288" data-name="Trazado 117288" d="M445.493,411.415c0,.122.606.2,1.189.618.595.4.881.941,1,.9.113-.019-.038-.755-.753-1.246s-1.453-.383-1.431-.27" transform="translate(-167.822 -154.948)" fill="#fff"/>
        <path id="Trazado_117289" data-name="Trazado 117289" d="M441.224,413.011c-.032.117.486.345.879.878.408.52.49,1.081.611,1.081.113.024.227-.686-.274-1.338s-1.209-.737-1.217-.621" transform="translate(-166.214 -155.569)" fill="#fff"/>
        <path id="Trazado_117290" data-name="Trazado 117290" d="M438.1,416.67c.11.031.3-.571.019-1.251s-.844-.969-.9-.869c-.074.1.282.47.507,1.032s.253,1.071.373,1.088" transform="translate(-164.701 -156.159)" fill="#fff"/>
        <path id="Trazado_117291" data-name="Trazado 117291" d="M446.037,406.536c.047.113.612-.032,1.3.043s1.214.314,1.282.212c.074-.085-.431-.557-1.24-.635s-1.4.281-1.34.38" transform="translate(-168.026 -152.999)" fill="#fff"/>
        <path id="Trazado_117292" data-name="Trazado 117292" d="M534.459,388.9l4.777,14.814,7.157,10.627a1.595,1.595,0,0,1-1.982,2.343c-2.992-1.371-13.974-6.469-14.263-7.572-.334-1.278-6.076-15.291-6.076-15.291Z" transform="translate(-197.424 -146.502)" fill="#263238"/>
        <path id="Trazado_117293" data-name="Trazado 117293" d="M549.334,428.226l-16.066-8.493.217.623a2.4,2.4,0,0,0,1.049,1.283c1.315.772,4.993,2.825,13.3,6.675a1.594,1.594,0,0,0,1.5-.088" transform="translate(-200.888 -158.118)" fill="#455a64"/>
        <g id="Grupo_85057" data-name="Grupo 85057" transform="translate(332.591 255.782)" opacity="0.6">
          <g id="Grupo_85056" data-name="Grupo 85056">
            <g id="Grupo_85055" data-name="Grupo 85055" clip-path="url(#clip-path-12)">
              <path id="Trazado_117294" data-name="Trazado 117294" d="M534.762,410.416a.966.966,0,0,1,.664,1.1.928.928,0,0,1-1.088.668,1.018,1.018,0,0,1-.7-1.172.962.962,0,0,1,1.209-.568" transform="translate(-533.606 -410.376)" fill="#fff"/>
            </g>
          </g>
        </g>
        <path id="Trazado_117295" data-name="Trazado 117295" d="M550.033,423.382a3.441,3.441,0,0,1,2.471-2.5c0-.041-.226-.09-.586-.019a2.543,2.543,0,0,0-1.911,1.937c-.066.362-.014.587.027.586" transform="translate(-207.182 -158.529)" fill="#fff"/>
        <path id="Trazado_117296" data-name="Trazado 117296" d="M552.834,426.4c.092.039.4-.6,1.082-1.085a13.077,13.077,0,0,1,1.371-.684,1.768,1.768,0,0,0-1.571.407c-.777.555-.972,1.349-.882,1.362" transform="translate(-208.251 -159.94)" fill="#fff"/>
        <path id="Trazado_117297" data-name="Trazado 117297" d="M545.525,420.112a8.194,8.194,0,0,1,3.561-3.055,4.361,4.361,0,0,0-3.561,3.055" transform="translate(-205.501 -157.103)" fill="#fff"/>
        <path id="Trazado_117298" data-name="Trazado 117298" d="M542.595,413.98c.07.074.764-.547,1.807-.953s1.97-.444,1.969-.546a3.959,3.959,0,0,0-3.776,1.5" transform="translate(-204.4 -155.353)" fill="#fff"/>
        <path id="Trazado_117299" data-name="Trazado 117299" d="M540.169,407.1a5.059,5.059,0,0,1,3.974-1.231c.013-.039-.211-.168-.618-.246a3.475,3.475,0,0,0-2.985.924c-.292.294-.4.527-.371.552" transform="translate(-203.485 -152.783)" fill="#fff"/>
        <path id="Trazado_117300" data-name="Trazado 117300" d="M540.928,403.216a1.347,1.347,0,0,0-.173-.563,4.089,4.089,0,0,0-.949-1.3,1.812,1.812,0,0,0-1.019-.562.641.641,0,0,0-.636.372,1.042,1.042,0,0,0,0,.744,2.254,2.254,0,0,0,2.551,1.321,2.613,2.613,0,0,0,1.976-2.135.907.907,0,0,0-.208-.727.628.628,0,0,0-.731-.1,2.235,2.235,0,0,0-.793.84,4.578,4.578,0,0,0-.606,1.492,1.393,1.393,0,0,0-.049.586,7.275,7.275,0,0,1,.857-1.945,2.079,2.079,0,0,1,.709-.716.334.334,0,0,1,.4.051.621.621,0,0,1,.109.486,2.333,2.333,0,0,1-1.734,1.832,1.957,1.957,0,0,1-2.182-1.09.758.758,0,0,1-.021-.52.348.348,0,0,1,.348-.211,1.641,1.641,0,0,1,.872.46,6.037,6.037,0,0,1,1.282,1.685" transform="translate(-202.701 -150.756)" fill="#fff"/>
        <path id="Trazado_117301" data-name="Trazado 117301" d="M411.8,154.318l5.948,6.144.241,5.35-6.9,1.588h-.351l-.446-3.453-3.979-5.29Z" transform="translate(-153.06 -58.133)" fill="#ae7461"/>
        <path id="Trazado_117302" data-name="Trazado 117302" d="M367.052,110.334a36.25,36.25,0,1,1,9.071-31.841,35.981,35.981,0,0,1-9.071,31.841m-49.532-.1a33.821,33.821,0,1,0-10.027-18.054,33.563,33.563,0,0,0,10.027,18.054" transform="translate(-114.678 -18.594)" fill="#455a64"/>
        <path id="Trazado_117303" data-name="Trazado 117303" d="M367.052,110.334a36.25,36.25,0,1,1,9.071-31.841,35.981,35.981,0,0,1-9.071,31.841m-49.532-.1a33.821,33.821,0,1,0-10.027-18.054,33.563,33.563,0,0,0,10.027,18.054" transform="translate(-114.678 -18.594)" fill="#263238"/>
        <path id="Trazado_117304" data-name="Trazado 117304" d="M368.48,107.538A36.251,36.251,0,1,1,377.551,75.7a35.975,35.975,0,0,1-9.071,31.841m-49.532-.1a33.82,33.82,0,1,0-10.027-18.054,33.563,33.563,0,0,0,10.027,18.054" transform="translate(-115.216 -17.54)" fill="#455a64"/>
        <path id="Trazado_117305" data-name="Trazado 117305" d="M443.434,189.149l1.152-1.115c1.028-.995.451-3.269-.627-4.372l-40.46-41.82-5.41,5.234,40.4,41.757a3.622,3.622,0,0,0,4.945.316" transform="translate(-149.965 -53.433)" fill="#455a64"/>
        <path id="Trazado_117306" data-name="Trazado 117306" d="M408.871,149.781a.952.952,0,0,0-.818-.218,1.6,1.6,0,0,0-.642.448,7.339,7.339,0,0,0-2.084,5.074,2.248,2.248,0,0,0,.927,2.092l.812-.47c.252-.325,1-.869,1.1-1.268.421-1.68-.183-1.61.871-4.524a1,1,0,0,0-.17-1.133" transform="translate(-152.691 -56.333)" fill="#ae7461"/>
        <path id="Trazado_117307" data-name="Trazado 117307" d="M409.8,152.894a3.994,3.994,0,0,1,.8-1.06,1.169,1.169,0,0,1,1.07-.32c.561.176.834.984.77,1.735a6.531,6.531,0,0,1-.7,2.136q-1,2.166-2,4.333l-.387-.285a.548.548,0,0,1-.863-.19,2.3,2.3,0,0,1-.19-1.18,11.31,11.31,0,0,1,1.492-5.169" transform="translate(-153.813 -57.064)" fill="#ae7461"/>
        <path id="Trazado_117308" data-name="Trazado 117308" d="M411.691,158.6a10.131,10.131,0,0,1,2-2.681,2.462,2.462,0,0,1,.929-.706.874.874,0,0,1,1.044.307,1.207,1.207,0,0,1-.141,1.063,49.658,49.658,0,0,1-3.441,6.042l-1.195-1.2c-.542-.977.343-1.8.8-2.82" transform="translate(-154.722 -58.451)" fill="#ae7461"/>
        <path id="Trazado_117309" data-name="Trazado 117309" d="M451.283,176.856l-1.1-.232-5.741-4.893-3.141-2.639a1.915,1.915,0,0,0-.92-.424l-3.109-.519a1.767,1.767,0,0,0,.931,2.132l1.7.882,1.559,1.843-.2.4s-10.219,1.586-10.857,2.365a1.062,1.062,0,0,0,.284,1.631,1.654,1.654,0,0,0,.78.07,1.855,1.855,0,0,0,.992,2.2s-1.134,1.488.85,2.2a3.2,3.2,0,0,0,1.7,1.488,73.592,73.592,0,0,0,7.867,1.063l7.326.011,1.471.241Z" transform="translate(-162.038 -63.344)" fill="#ae7461"/>
        <path id="Trazado_117310" data-name="Trazado 117310" d="M431.907,182.947a8.153,8.153,0,0,0,2.827.152,11.31,11.31,0,0,0,2.8-.415,13.949,13.949,0,0,0-2.817.095,26.985,26.985,0,0,0-2.806.168" transform="translate(-162.704 -68.802)" fill="#6f4439"/>
        <path id="Trazado_117311" data-name="Trazado 117311" d="M433.876,186.577c0,.046.266.082.691.138s1.015.137,1.68.178a14.555,14.555,0,0,0,1.7-.037,2.726,2.726,0,0,0,.7-.062c.013-.046-.259-.136-.695-.165s-1.033-.015-1.679-.057-1.248-.088-1.685-.084-.706.046-.706.089" transform="translate(-163.446 -70.252)" fill="#6f4439"/>
        <path id="Trazado_117312" data-name="Trazado 117312" d="M434.914,190.051a12.1,12.1,0,0,0,2.756.37,6.564,6.564,0,0,1,1.885.292c.451.17.656.411.7.375.031-.015-.125-.333-.6-.582a4.985,4.985,0,0,0-1.955-.406,12.111,12.111,0,0,0-2.78-.049" transform="translate(-163.837 -71.574)" fill="#6f4439"/>
        <path id="Trazado_117313" data-name="Trazado 117313" d="M479.308,131.472s4.319.745,7.594,7.181c1.81,3.558,10.269,24.951,10.771,26.827,2.147,8.026-2.007,13.2-6.006,13.551-4.4.387-27.167-6.958-27.167-6.958l-.5-9.726,20.766,3.153-9.977-19.366s-.383-12.9,4.521-14.661" transform="translate(-174.793 -49.527)" fill="#ffd54f"/>
        <path id="Trazado_117314" data-name="Trazado 117314" d="M504.04,191.38a3.54,3.54,0,0,0-.558-1.3,8.758,8.758,0,0,0-5.444-3.884,3.539,3.539,0,0,0-1.407-.107c0,.056.532.095,1.352.327a9.883,9.883,0,0,1,5.309,3.788c.486.7.7,1.194.749,1.172" transform="translate(-187.086 -70.092)" fill="#263238"/>
        <path id="Trazado_117315" data-name="Trazado 117315" d="M485.86,187.488a.342.342,0,0,1-.107-.014l-.311-.067c-.276-.057-.674-.176-1.2-.318-1.038-.3-2.549-.763-4.45-1.369-3.8-1.214-9.177-2.988-15.494-5.125l-.1-.032-.006-.1c-.146-2.8-.307-5.85-.474-9.031l-.011-.2.2.032,5.108.826,15.66,2.555-.153.212-6.9-13.5-1.933-3.839-.5-1.022a2.539,2.539,0,0,1-.158-.358,2.343,2.343,0,0,1,.2.337l.542,1,2.006,3.8,7,13.448.135.258-.288-.047-15.665-2.524-5.108-.83.186-.167c.159,3.183.312,6.234.452,9.033l-.1-.134,15.454,5.236L484.273,187c.516.156.91.29,1.18.362l.3.09a.375.375,0,0,1,.1.039" transform="translate(-174.687 -58.817)" fill="#263238"/>
        <path id="Trazado_117316" data-name="Trazado 117316" d="M486.512,132.1c.031.051-.588.407-1.449,1.149a12.321,12.321,0,0,0-4.135,7.612c-.154,1.126-.116,1.838-.176,1.841a1.548,1.548,0,0,1-.073-.5,7.956,7.956,0,0,1,.021-1.369,10.761,10.761,0,0,1,.374-2,11.474,11.474,0,0,1,2.368-4.359,10.742,10.742,0,0,1,1.475-1.4,7.852,7.852,0,0,1,1.138-.762,1.512,1.512,0,0,1,.457-.21" transform="translate(-181.069 -49.763)" fill="#263238"/>
      </g>
    </g>
    <g id="Grupo_85070" data-name="Grupo 85070">
      <g id="Grupo_85069" data-name="Grupo 85069" clip-path="url(#clip-path)">
        <path id="Trazado_117317" data-name="Trazado 117317" d="M103.162,153.122s-4.589,25.528-4.367,27.915,1.442,6.184,4.21,6.836a12.437,12.437,0,0,0,5.317,0L105,156.516Z" transform="translate(-37.214 -57.683)" fill="#ffc09d"/>
        <path id="Trazado_117318" data-name="Trazado 117318" d="M127.1,94.752l-.322-26.379c-.294-6.559,3.279-12.2,9.844-12.309l.607.025a11.738,11.738,0,0,1,11.247,11.266c.223,5.687.4,11.973.233,15.013-.338,6.291-6.674,7.011-6.674,7.011S142,93.207,142,95.056l-5.067,7.029v.376Z" transform="translate(-47.753 -21.12)" fill="#ffc09d"/>
        <path id="Trazado_117319" data-name="Trazado 117319" d="M146.375,107.843a15.216,15.216,0,0,1-8.1-2.762s1.776,4.814,8.081,4.507Z" transform="translate(-52.091 -39.585)" fill="#ff9b6c"/>
        <path id="Trazado_117320" data-name="Trazado 117320" d="M157.3,82.378a.9.9,0,0,1-.9.871.861.861,0,0,1-.893-.849.9.9,0,0,1,.9-.871.861.861,0,0,1,.894.849" transform="translate(-58.579 -30.713)" fill="#263238"/>
        <path id="Trazado_117321" data-name="Trazado 117321" d="M157.124,77.934c-.117.113-.777-.419-1.744-.457s-1.7.417-1.8.294c-.049-.055.073-.262.391-.474a2.466,2.466,0,0,1,1.444-.381,2.376,2.376,0,0,1,1.382.51c.288.241.38.457.323.507" transform="translate(-57.853 -28.974)" fill="#263238"/>
        <path id="Trazado_117322" data-name="Trazado 117322" d="M143.437,82.378a.9.9,0,0,1-.9.871.859.859,0,0,1-.893-.848.9.9,0,0,1,.9-.871.861.861,0,0,1,.894.849" transform="translate(-53.357 -30.713)" fill="#263238"/>
        <path id="Trazado_117323" data-name="Trazado 117323" d="M141.9,77.665c-.117.113-.778-.419-1.745-.457s-1.7.417-1.8.294c-.049-.054.072-.261.391-.474a2.475,2.475,0,0,1,1.444-.381,2.378,2.378,0,0,1,1.382.51c.287.241.38.457.323.507" transform="translate(-52.116 -28.873)" fill="#263238"/>
        <path id="Trazado_117324" data-name="Trazado 117324" d="M149.042,85.554a6.452,6.452,0,0,1,1.583-.219c.248-.015.484-.054.532-.221a1.261,1.261,0,0,0-.135-.739l-.653-1.911a32.311,32.311,0,0,1-1.438-4.988,32.407,32.407,0,0,1,1.836,4.86c.217.671.424,1.31.621,1.922a1.428,1.428,0,0,1,.089.975.62.62,0,0,1-.421.344,1.658,1.658,0,0,1-.422.041,6.272,6.272,0,0,1-1.593-.064" transform="translate(-56.1 -29.186)" fill="#263238"/>
        <path id="Trazado_117325" data-name="Trazado 117325" d="M142.071,72.771c-.141.241-1.07-.057-2.211-.128-1.141-.095-2.1.065-2.207-.194-.046-.123.156-.338.567-.521a3.851,3.851,0,0,1,3.366.246c.38.241.548.482.486.6" transform="translate(-51.853 -26.992)" fill="#263238"/>
        <path id="Trazado_117326" data-name="Trazado 117326" d="M157.179,73.352c-.207.214-.989-.034-1.937-.07-.946-.064-1.753.1-1.932-.133-.078-.113.054-.33.41-.529A3.053,3.053,0,0,1,155.3,72.3a3,3,0,0,1,1.533.482c.328.235.433.464.341.569" transform="translate(-57.745 -27.235)" fill="#263238"/>
        <path id="Trazado_117327" data-name="Trazado 117327" d="M124.7,83.168c-.105-.051-4.273-1.458-4.313,2.852s4.294,3.461,4.3,3.337.009-6.189.009-6.189" transform="translate(-45.351 -31.233)" fill="#ffc09d"/>
        <path id="Trazado_117328" data-name="Trazado 117328" d="M124.049,88.55c-.019-.014-.075.052-.2.109a.754.754,0,0,1-.561.006,1.858,1.858,0,0,1-.844-1.675,2.482,2.482,0,0,1,.22-1.073.868.868,0,0,1,.57-.571.382.382,0,0,1,.441.21c.056.121.028.206.051.214s.093-.072.06-.25a.477.477,0,0,0-.167-.272.565.565,0,0,0-.414-.113,1.056,1.056,0,0,0-.79.661,2.545,2.545,0,0,0-.272,1.2,1.948,1.948,0,0,0,1.078,1.871.8.8,0,0,0,.687-.107c.135-.105.158-.2.143-.209" transform="translate(-46.012 -32.07)" fill="#ff9b6c"/>
        <path id="Trazado_117329" data-name="Trazado 117329" d="M144.153,91.4c.148-.009.155.98,1,1.679s1.9.585,1.912.723c.014.062-.234.193-.679.208a2.468,2.468,0,0,1-1.6-.548,2.145,2.145,0,0,1-.778-1.408c-.04-.414.069-.659.137-.654" transform="translate(-54.249 -34.431)" fill="#263238"/>
        <path id="Trazado_117330" data-name="Trazado 117330" d="M153.278,59a1.025,1.025,0,0,0-.473-.6,3.146,3.146,0,0,0-1.609-.28,9.077,9.077,0,0,1-3.932-1.035,4.5,4.5,0,0,0,1.169-.8,2.705,2.705,0,0,0,.809-2.681.6.6,0,0,0-.333-.416c-.279-.089-.527.183-.725.4a2.328,2.328,0,0,1-2.2.9,3.816,3.816,0,0,1-1.633-.5c-.018-.019-.035-.041-.053-.06-.222-.234-.438-.457-.651-.674v0h0a14.268,14.268,0,0,0-4.414-3.35,14.641,14.641,0,0,0-7.809-.7A5.916,5.916,0,0,0,126.9,53.75a4.55,4.55,0,0,0-4.57-.481l-.038-.017c-1.675.576-2.643,2.328-3.154,4.024-.028.093-.052.187-.079.28a6.615,6.615,0,0,1-2.27,2.167c-.163.092-.349.205-.37.391s.132.338.28.448a3.342,3.342,0,0,0,1.344.577,7.566,7.566,0,0,1-.567,1.166c-.192.317-.42.7-.259,1.03a.7.7,0,0,0,.733.33,2.069,2.069,0,0,0,.781-.343l-.573,1.33a3.939,3.939,0,0,0,1.816-.1c.336,1.6.568,4.546.966,5.629a6.549,6.549,0,0,1,2,.11c.743.256.443,1.574,1.419,1.21.5-.186,1.276-2.051,1.448-2.552a24.6,24.6,0,0,0,1.184-10.4,7.917,7.917,0,0,1,2.463-1.735l-.075.067c1.769-.592,3.769-1.171,5.432-.325,1.29.657,2.036,2.011,2.993,3.1a9.022,9.022,0,0,0,6.62,3.315c.225,1.905.263,5.017.336,6.793l1.556-3.536v.014a6.751,6.751,0,0,0,.328-.625l.034-.064v-.008a11.118,11.118,0,0,1,.511-1l.017.016a1.109,1.109,0,0,0,1.637-1.465,2.513,2.513,0,0,0-.53-.545,1.754,1.754,0,0,0,1.666.453,1.377,1.377,0,0,0,.99-1.351,1.171,1.171,0,0,0-.687-.947,3.96,3.96,0,0,0,2.255-.47c.446-.248.886-.66.743-1.22" transform="translate(-43.855 -18.437)" fill="#263238"/>
        <path id="Trazado_117331" data-name="Trazado 117331" d="M130.743,57.854a5.417,5.417,0,0,0-.639.572,4.527,4.527,0,0,0-.992,2.083,7.987,7.987,0,0,0-.18,1.6c-.009.581.031,1.2.068,1.859a16.692,16.692,0,0,1,.024,2.069,7.289,7.289,0,0,1-.155,1.09,2.275,2.275,0,0,1-.458,1.053.952.952,0,0,1-.893.289,1.416,1.416,0,0,1-.8-.461,3.271,3.271,0,0,1-.589-1.611l.132.017a5.3,5.3,0,0,1-.782,1.313,1.879,1.879,0,0,1-1.235.654,1.208,1.208,0,0,1-.649-.121,1.05,1.05,0,0,1-.437-.44,1.084,1.084,0,0,1-.128-.561.785.785,0,0,1,.208-.488l.066.06a4.061,4.061,0,0,1-1.366,1,3.64,3.64,0,0,1-.421.158.7.7,0,0,1-.151.036.759.759,0,0,1,.143-.059c.094-.037.234-.092.409-.178a4.185,4.185,0,0,0,1.32-1.017l.066.06a.81.81,0,0,0-.052.937.945.945,0,0,0,.4.39,1.1,1.1,0,0,0,.588.1,1.761,1.761,0,0,0,1.146-.622,5.192,5.192,0,0,0,.754-1.285l.093-.2.039.219a3.158,3.158,0,0,0,.561,1.538,1.276,1.276,0,0,0,.712.413.8.8,0,0,0,.76-.245,2.151,2.151,0,0,0,.422-.985,7.256,7.256,0,0,0,.154-1.066,16.978,16.978,0,0,0-.016-2.051c-.033-.656-.069-1.281-.054-1.869a7.921,7.921,0,0,1,.2-1.622,4.46,4.46,0,0,1,1.051-2.1,2.551,2.551,0,0,1,.681-.532" transform="translate(-45.722 -21.794)" fill="#455a64"/>
        <path id="Trazado_117332" data-name="Trazado 117332" d="M155.982,62.1s-.016.016-.051.043l-.16.113a1.972,1.972,0,0,1-.269.168,3.276,3.276,0,0,1-.386.2,5.6,5.6,0,0,1-2.706.454,7.142,7.142,0,0,1-3.79-1.449,12.389,12.389,0,0,1-3.227-3.806c-.45-.769-.815-1.556-1.219-2.284a8.391,8.391,0,0,0-1.387-1.935,4.312,4.312,0,0,0-1.8-1.124,3.109,3.109,0,0,0-.958-.121,3.384,3.384,0,0,0-.878.158A3.649,3.649,0,0,0,137.1,54.2a4.363,4.363,0,0,0-.336.942.188.188,0,0,1,0-.067l.032-.193a3.211,3.211,0,0,1,.247-.709,3.587,3.587,0,0,1,.717-.949,3.69,3.69,0,0,1,1.348-.816,3.477,3.477,0,0,1,.908-.173,3.151,3.151,0,0,1,1,.118,4.4,4.4,0,0,1,1.866,1.144,8.38,8.38,0,0,1,1.418,1.962c.409.733.774,1.518,1.22,2.281a12.392,12.392,0,0,0,3.181,3.77,7.115,7.115,0,0,0,3.717,1.455,5.682,5.682,0,0,0,2.675-.4,8.882,8.882,0,0,0,.888-.469" transform="translate(-51.52 -19.679)" fill="#455a64"/>
        <path id="Trazado_117333" data-name="Trazado 117333" d="M164.528,63.619a.993.993,0,0,1-.228.155,4.866,4.866,0,0,1-.674.332,6.465,6.465,0,0,1-1.064.336,6.872,6.872,0,0,1-2.723.057,6.524,6.524,0,0,1-1.077-.292,4.889,4.889,0,0,1-.687-.3,1.006,1.006,0,0,1-.234-.145c.012-.025.358.158.954.351a7.485,7.485,0,0,0,1.066.257,7.342,7.342,0,0,0,2.671-.055,7.44,7.44,0,0,0,1.055-.3c.587-.217.926-.414.939-.39" transform="translate(-59.461 -23.965)" fill="#455a64"/>
        <path id="Trazado_117334" data-name="Trazado 117334" d="M133.718,384.787l-.623,14.246s14.271,5.418,14.412,8.062l-27.665-.216.059-22.237Z" transform="translate(-45.146 -144.899)" fill="#455a64"/>
        <path id="Trazado_117335" data-name="Trazado 117335" d="M126.9,405.674a1.13,1.13,0,0,0-.792,1.283,1.087,1.087,0,0,0,1.265.8,1.191,1.191,0,0,0,.831-1.363,1.126,1.126,0,0,0-1.407-.681" transform="translate(-47.499 -152.805)" fill="#e0e0e0"/>
        <g id="Grupo_85062" data-name="Grupo 85062" transform="translate(74.696 259.739)" opacity="0.6">
          <g id="Grupo_85061" data-name="Grupo 85061">
            <g id="Grupo_85060" data-name="Grupo 85060" clip-path="url(#clip-path-14)">
              <path id="Trazado_117336" data-name="Trazado 117336" d="M119.842,418.964l.093-2.241,26.49,1.045s1.227.546,1.081,1.412Z" transform="translate(-119.842 -416.723)" fill="#fff"/>
            </g>
          </g>
        </g>
        <path id="Trazado_117337" data-name="Trazado 117337" d="M140.295,407.433c-.006.135-.681.191-1.349.62-.679.412-1.027.994-1.151.94-.124-.027.084-.833.9-1.339s1.629-.345,1.6-.221" transform="translate(-51.896 -153.436)" fill="#263238"/>
        <path id="Trazado_117338" data-name="Trazado 117338" d="M145.349,409.438c.03.131-.557.357-1.02.924-.48.554-.6,1.171-.735,1.164-.127.021-.214-.772.375-1.467s1.378-.75,1.38-.621" transform="translate(-54.058 -154.219)" fill="#263238"/>
        <path id="Trazado_117339" data-name="Trazado 117339" d="M148.971,413.661c-.123.028-.305-.649.047-1.386s.986-1.027,1.043-.914c.075.112-.338.505-.618,1.115s-.338,1.172-.472,1.184" transform="translate(-56.06 -154.956)" fill="#263238"/>
        <path id="Trazado_117340" data-name="Trazado 117340" d="M139.737,401.977c-.057.123-.676-.069-1.44-.022-.765.031-1.361.282-1.431.165-.077-.1.507-.593,1.407-.635s1.531.386,1.463.492" transform="translate(-51.556 -151.242)" fill="#263238"/>
        <path id="Trazado_117341" data-name="Trazado 117341" d="M141.852,402.018a23.161,23.161,0,0,1,.038,3.431l-.11-.169c1.616.613,3.765,1.441,6.047,2.517a32.448,32.448,0,0,1,6.131,3.531,6.555,6.555,0,0,1,1.516,1.545c.288.444.249.784.2.767a1.93,1.93,0,0,0-.353-.664,7.707,7.707,0,0,0-1.566-1.386,40.168,40.168,0,0,0-6.129-3.373c-2.268-1.07-4.393-1.934-5.979-2.613l-.117-.05.007-.118a23.134,23.134,0,0,1,.31-3.417" transform="translate(-53.318 -151.445)" fill="#263238"/>
        <path id="Trazado_117342" data-name="Trazado 117342" d="M113.4,225.5v12.911l5.093,41.229s-1.614,19.335-2.605,30.249c-.861,9.479.546,25.986.546,25.986h15.1l5.4-55.051,3.353-34.333,6.082-20.337Z" transform="translate(-42.719 -84.947)" fill="#263238"/>
        <path id="Trazado_117343" data-name="Trazado 117343" d="M145.058,378.86l-3.955,13.7s12.6,8.621,12.113,11.224l-26.839-6.714,5.286-21.6Z" transform="translate(-47.608 -141.444)" fill="#455a64"/>
        <path id="Trazado_117344" data-name="Trazado 117344" d="M136.508,397.686a1.129,1.129,0,0,0-1.071,1.061,1.086,1.086,0,0,0,1.043,1.071,1.193,1.193,0,0,0,1.128-1.13,1.127,1.127,0,0,0-1.208-.993" transform="translate(-51.021 -149.809)" fill="#e0e0e0"/>
        <g id="Grupo_85065" data-name="Grupo 85065" transform="translate(78.769 253.47)" opacity="0.6">
          <g id="Grupo_85064" data-name="Grupo 85064">
            <g id="Grupo_85063" data-name="Grupo 85063" clip-path="url(#clip-path-15)">
              <path id="Trazado_117345" data-name="Trazado 117345" d="M126.377,408.822l.618-2.156,25.5,7.243s1.065.819.719,1.627Z" transform="translate(-126.377 -406.666)" fill="#fff"/>
            </g>
          </g>
        </g>
        <path id="Trazado_117346" data-name="Trazado 117346" d="M149.054,402.674c-.037.13-.707.026-1.457.285-.757.241-1.232.726-1.339.643-.115-.056.277-.79,1.191-1.09s1.664.047,1.606.161" transform="translate(-55.089 -151.585)" fill="#263238"/>
        <path id="Trazado_117347" data-name="Trazado 117347" d="M153.449,405.774c0,.135-.625.215-1.209.658-.6.426-.86,1-.989.959-.128-.01-.027-.8.709-1.337s1.516-.406,1.488-.28" transform="translate(-56.96 -152.817)" fill="#263238"/>
        <path id="Trazado_117348" data-name="Trazado 117348" d="M155.973,410.669c-.126,0-.145-.7.371-1.336s1.2-.766,1.229-.643c.047.126-.447.411-.863.938s-.6,1.06-.737,1.04" transform="translate(-58.729 -153.942)" fill="#263238"/>
        <path id="Trazado_117349" data-name="Trazado 117349" d="M149.938,397.15c-.085.106-.641-.226-1.394-.36-.75-.151-1.389-.046-1.429-.176-.052-.113.632-.458,1.517-.286s1.4.736,1.306.822" transform="translate(-55.419 -149.283)" fill="#263238"/>
        <path id="Trazado_117350" data-name="Trazado 117350" d="M157.274,226.91l.693,7.022-.837,50.989-11.95,40.96-2.9,9.933-15.425-2.9L138.75,226.924Z" transform="translate(-47.79 -85.48)" fill="#263238"/>
        <path id="Trazado_117351" data-name="Trazado 117351" d="M156.706,294.652s-.016.083-.059.242l-.194.707-.777,2.743c-.691,2.4-1.695,5.894-2.961,10.3l-10.4,35.873-.034.118-.121-.022-15.425-2.9-.141-.026.027-.141c.787-4.156,1.609-8.5,2.448-12.928l6.894-36.3v.044c-2.554-16.035-4.591-28.822-5.761-36.164l.007.019-2.576-4.686-.657-1.212c-.146-.273-.214-.416-.214-.416s.086.133.241.4l.684,1.2,2.626,4.658,0,.009,0,.011,5.9,36.141,0,.022,0,.022-6.863,36.3c-.84,4.428-1.663,8.772-2.451,12.928l-.114-.168,15.423,2.913-.155.1c4.273-14.583,7.921-27.031,10.5-35.844,1.3-4.394,2.327-7.878,3.035-10.276l.819-2.731.216-.7c.05-.157.08-.236.08-.236" transform="translate(-47.688 -94.142)" fill="#455a64"/>
        <path id="Trazado_117352" data-name="Trazado 117352" d="M166.137,233.618a4.849,4.849,0,0,1-.84,1.232,11.359,11.359,0,0,1-6.074,3.7,4.817,4.817,0,0,1-1.48.181,13.925,13.925,0,0,0,8.393-5.114" transform="translate(-59.424 -88.006)" fill="#455a64"/>
        <path id="Trazado_117353" data-name="Trazado 117353" d="M219.316,109.592a.652.652,0,0,0-.146-.9.32.32,0,0,0-.231-.068c-.309.051-1.121.644-1.747.655s-1.69-.181-2.316.4a19.558,19.558,0,0,0-2.345,4.458c-.194.692-.872,6.768-.872,6.768Z" transform="translate(-79.735 -40.919)" fill="#ffc09d"/>
        <path id="Trazado_117354" data-name="Trazado 117354" d="M221.281,108.9c-.034.038-7.486,3.327-10.759,4.771a1.112,1.112,0,0,0-.318,1.826,1.164,1.164,0,0,0,1.332.207l10.694-5.211.881-1.339Z" transform="translate(-79.056 -41.024)" fill="#263238"/>
        <path id="Trazado_117355" data-name="Trazado 117355" d="M213.226,115.585l2.376-1.75,3.138-4.552s1.284-.764,1.95-.282.883,1.037.574,1.659c0,0,1.772.423,1.9,1.017a6.78,6.78,0,0,1-.256,2.038,3.579,3.579,0,0,1,.013,1.7,2.726,2.726,0,0,0-.224,1.094,3.326,3.326,0,0,1,.654,2.842,17.216,17.216,0,0,1-3.671,5.471,24.065,24.065,0,0,1-3.2,1.822l-1.369,2.868-5.683-5.145Z" transform="translate(-78.892 -41.002)" fill="#ffc09d"/>
        <path id="Trazado_117356" data-name="Trazado 117356" d="M221.38,109.863a1.318,1.318,0,0,1-.142.246l-.424.644c-.361.542-.868,1.285-1.433,2.1l-.8,1.15a2.862,2.862,0,0,1-.408.468,1.978,1.978,0,0,1-.456.3,3.765,3.765,0,0,1-.736.247,1.282,1.282,0,0,1-.279.051,1.44,1.44,0,0,1,.267-.095,4.644,4.644,0,0,0,.712-.277c.613-.257,1.02-1.113,1.606-1.906.565-.817,1.082-1.553,1.461-2.083l.454-.623a1.361,1.361,0,0,1,.18-.22" transform="translate(-81.634 -41.387)" fill="#ff9b6c"/>
        <path id="Trazado_117357" data-name="Trazado 117357" d="M225.378,115.33a34.815,34.815,0,0,1,1.933-3.523,34.807,34.807,0,0,1-1.933,3.523" transform="translate(-84.902 -42.119)" fill="#ff9b6c"/>
        <path id="Trazado_117358" data-name="Trazado 117358" d="M225.8,121.423c-.018,0-.027-.1-.085-.25a1.048,1.048,0,0,0-.37-.475,1.071,1.071,0,0,0-.575-.183c-.159,0-.258.021-.264,0s.089-.068.261-.085a.986.986,0,0,1,.644.17.966.966,0,0,1,.381.545c.042.168.02.275.007.275" transform="translate(-84.572 -45.367)" fill="#ff9b6c"/>
        <path id="Trazado_117359" data-name="Trazado 117359" d="M229.81,122.945c-.011.012-.1-.053-.234-.161a2.846,2.846,0,0,0-.555-.363,1.064,1.064,0,0,0-.627-.1.647.647,0,0,0-.235.12c-.017,0,.026-.137.213-.2a.992.992,0,0,1,.7.077,1.965,1.965,0,0,1,.562.406c.124.125.191.211.18.222" transform="translate(-85.948 -46.036)" fill="#ff9b6c"/>
        <path id="Trazado_117360" data-name="Trazado 117360" d="M229.175,118.46a9.845,9.845,0,0,1,1.14-1.8,9.846,9.846,0,0,1-1.14,1.8" transform="translate(-86.332 -43.947)" fill="#ff9b6c"/>
        <path id="Trazado_117361" data-name="Trazado 117361" d="M221.165,119.309c-.018,0-.016-.1-.059-.24a.894.894,0,0,0-.321-.459.92.92,0,0,0-.536-.165c-.149,0-.241.031-.247.014s.079-.073.241-.1a.859.859,0,0,1,.61.153.842.842,0,0,1,.333.534c.026.162-.007.261-.021.259" transform="translate(-82.877 -44.586)" fill="#ff9b6c"/>
        <path id="Trazado_117362" data-name="Trazado 117362" d="M211.486,118.751c-.014-.016.1-.1.205-.3a1.03,1.03,0,0,0,.055-.826,1.088,1.088,0,0,0-.591-.585c-.205-.085-.352-.082-.35-.1a.57.57,0,0,1,.379.025,1.081,1.081,0,0,1,.671.621,1.029,1.029,0,0,1-.094.908c-.131.2-.271.272-.275.261" transform="translate(-79.413 -44.044)" fill="#455a64"/>
        <path id="Trazado_117363" data-name="Trazado 117363" d="M172.146,137.606l9.013,7.714,11.064-16.528,7.194,4.243s-10.782,24.82-13.7,27.013-5.388,1.624-9.147-.112-17.15-15.219-17.15-15.219Z" transform="translate(-60.053 -48.517)" fill="#ffc09d"/>
        <path id="Trazado_117364" data-name="Trazado 117364" d="M194.584,162.1c-.089-.014.157-1.572.048-3.5s-.507-3.45-.42-3.472a11.869,11.869,0,0,1,.372,6.97" transform="translate(-73.157 -58.44)" fill="#ff9b6c"/>
        <path id="Trazado_117365" data-name="Trazado 117365" d="M112.521,122.531s7.662.111,7.774,9.661-1.951,22.326-1.951,22.326l-19.557-3.447s2.426-17.779,4.5-22.9c2.084-5.153,6.066-6.508,9.237-5.64" transform="translate(-37.214 -46.067)" fill="#34af00"/>
        <path id="Trazado_117366" data-name="Trazado 117366" d="M119.692,111.65l-.244,1.557S109,120.113,108.4,121.9c-.917,2.764,1.082,26.111,1.964,32.728s1.061,21.2,1.061,21.2a20.254,20.254,0,0,0-1.612,5.664,6.983,6.983,0,0,0,1.612,4.546c11.215,3.66,24.916.85,39.738-2.529l-.14-4.2-4.845-45.644s1.412-11.864-4.375-15.3c-.636-.377-5.684-3.245-5.684-3.245Z" transform="translate(-40.749 -42.06)" fill="#34af00"/>
        <g id="Grupo_85068" data-name="Grupo 85068" transform="translate(95.751 89.376)" opacity="0.3">
          <g id="Grupo_85067" data-name="Grupo 85067">
            <g id="Grupo_85066" data-name="Grupo 85066" clip-path="url(#clip-path-16)">
              <path id="Trazado_117367" data-name="Trazado 117367" d="M153.624,143.394a35.394,35.394,0,0,0,3.444,14.079,41.721,41.721,0,0,0,8.792,12.2l-1.568-13.658Z" transform="translate(-153.623 -143.394)"/>
            </g>
          </g>
        </g>
        <path id="Trazado_117368" data-name="Trazado 117368" d="M161.411,123.92c-1.833-1.483-5.241-2.289-7.185-.956a5.856,5.856,0,0,0-2.359,2.9c-1.66,4.854-.668,10.072.661,13.945s7.746,11.333,7.746,11.333l15.858-9.625s-10.614-12.865-11.721-14.194a28.008,28.008,0,0,0-3-3.408" transform="translate(-56.882 -46.067)" fill="#34af00"/>
        <path id="Trazado_117369" data-name="Trazado 117369" d="M161.343,123.88a2.783,2.783,0,0,1,.335.267,11.69,11.69,0,0,1,.874.889c.735.809,1.7,2.071,3.012,3.608l10.6,12.754.1.116-.129.079L161.149,150.7l-.868.527-.106.064-.079-.094c-1.773-2.1-3.422-4.2-4.9-6.323a33.943,33.943,0,0,1-2.023-3.224,13.524,13.524,0,0,1-.78-1.684c-.213-.573-.383-1.147-.55-1.717-1.324-4.554-1.359-9.022-.15-12.421a5.077,5.077,0,0,1,5.274-3.641,7.322,7.322,0,0,1,1.642.28,7.788,7.788,0,0,1,2.1.927,3.762,3.762,0,0,1,.638.481c-.012.017-.218-.169-.669-.432a8.163,8.163,0,0,0-2.1-.869,7.288,7.288,0,0,0-1.619-.251,5.268,5.268,0,0,0-1.914.249,5.7,5.7,0,0,0-3.161,3.32c-1.166,3.361-1.114,7.77.213,12.283.168.563.34,1.138.55,1.7a13.069,13.069,0,0,0,.769,1.645,33.79,33.79,0,0,0,2.013,3.194c1.474,2.105,3.123,4.209,4.888,6.295l-.185-.029.868-.527,15-9.086-.033.2-10.518-12.82c-1.291-1.552-2.244-2.833-2.954-3.654-.353-.412-.641-.715-.841-.912s-.313-.29-.306-.3" transform="translate(-56.814 -46.027)" fill="#263238"/>
        <path id="Trazado_117370" data-name="Trazado 117370" d="M108.209,136.569a1.017,1.017,0,0,1,.046.277c.02.215.044.478.073.8.054.737.125,1.728.213,2.933.16,2.517.375,5.918.614,9.677.247,3.779.507,7.2.731,9.667.112,1.2.2,2.19.272,2.925.028.318.051.581.07.8a1.029,1.029,0,0,1,0,.28,1.019,1.019,0,0,1-.062-.273c-.034-.214-.074-.475-.124-.79-.1-.687-.229-1.684-.364-2.919-.277-2.468-.569-5.887-.817-9.668s-.416-7.205-.529-9.685c-.049-1.206-.09-2.2-.12-2.937-.007-.319-.014-.583-.019-.8a1.02,1.02,0,0,1,.013-.28" transform="translate(-40.759 -51.447)" fill="#263238"/>
        <path id="Trazado_117371" data-name="Trazado 117371" d="M146.365,225.494a1.175,1.175,0,0,1-.294.092l-.856.208c-.371.092-.83.187-1.363.287s-1.141.222-1.818.323c-1.348.232-2.967.421-4.768.6-1.8.151-3.789.262-5.876.289s-4.078-.057-5.883-.177c-1.8-.145-3.426-.309-4.776-.529-.678-.094-1.286-.205-1.82-.307s-.994-.189-1.365-.281l-.856-.205a1.281,1.281,0,0,1-.294-.092,1.253,1.253,0,0,1,.307.034l.866.152c.374.075.835.151,1.371.231s1.143.185,1.821.266c1.349.192,2.968.333,4.766.465,1.8.1,3.781.168,5.861.153s4.059-.129,5.857-.264c1.8-.16,3.411-.328,4.759-.532.676-.089,1.285-.191,1.819-.28s1-.164,1.37-.239l.865-.153a1.292,1.292,0,0,1,.307-.036" transform="translate(-43.848 -84.945)" fill="#263238"/>
      </g>
    </g>
  </g>
</svg>
