<svg xmlns="http://www.w3.org/2000/svg" xmlns:xlink="http://www.w3.org/1999/xlink" width="434" height="288" viewBox="0 0 434 288">
  <defs>
    <clipPath id="clip-path">
      <rect id="Rectángulo_49093" data-name="Rectángulo 49093" width="434" height="288" transform="translate(-0.299 0.122)" fill="none"/>
    </clipPath>
    <clipPath id="clip-path-2">
      <path id="Trazado_117719" data-name="Trazado 117719" d="M294.814,88.814c-16.984,0-32.655,12.932-35.675,29.438-2.886,15.773-2.52,103.088-1.632,124.009.775,18.252-2.553,32.22-9.37,39.332-4.068,4.245-9.614,6.308-16.953,6.308-17.62,0-25.709-13.767-25.769-26.558l0-.46c-.1-22.5-.222-48-14.6-60.877-6.52-5.841-14.922-8.265-24.977-7.2-12.6,1.329-22.124,7.841-27.546,18.83-4.132,8.375-5.267,17.96-6.178,25.661-.409,3.448-1.025,8.659-1.722,10.052-1.89,3.369-3.03,4.407-5.807,5.285-4.741,1.5-13.138,1.81-26.423.977-21.631-1.357-32.566-.374-33.021-.332v20.309c.1-.009,11.948-.55,31.724.69,16.353,1.025,26.511.458,33.964-1.9,9.925-3.14,14.477-9.292,17.622-14.9,2.694-4.8,3.4-10.8,4.226-17.749,2.187-18.469,4.833-25.224,15.334-26.332,5.385-.569,7.707.889,8.986,2.035,7.53,6.745,7.633,29.173,7.71,45.549l0,.46a48.43,48.43,0,0,0,12.434,32.735c8.556,9.308,20.646,14.434,34.043,14.434,13.1,0,23.834-4.269,31.9-12.687,6.025-6.286,10.325-14.76,12.779-25.186a108.938,108.938,0,0,0,2.33-29.354c-1.036-24.388-.931-107.144,1.312-119.4,1.214-6.636,8.366-12.457,15.305-12.457,7.832,0,10.677,2.1,12.426,4.146,2.668,3.126,5.847,10.341,5.844,26.956-.005,29.671.706,69.283,2.729,83.275,1.358,9.393,9.77,13.345,14.663,14.866a65.168,65.168,0,0,0,17.51,2.4,166.661,166.661,0,0,0,22.384-1.13l-2.613-20.542a152.135,152.135,0,0,1-15.39,1c-9.832.111-14.452-1.014-16.33-1.692-1.361-12.254-2.251-42.868-2.246-78.163,0-18.666-3.529-31.881-10.8-40.4-6.553-7.68-15.77-11.413-28.178-11.414Z" transform="translate(-65.14 -88.814)" fill="none"/>
    </clipPath>
    <clipPath id="clip-path-4">
      <path id="Trazado_117724" data-name="Trazado 117724" d="M540.158,173.479a10.868,10.868,0,0,0-9.187,10.8,10.854,10.854,0,0,0-10.688-1.471c-3.481,1.452-6.472,6.355-6.472,12.835l57.507-.529A12.529,12.529,0,0,0,551.711,181.7a10.926,10.926,0,0,0-10.4-8.291,9.381,9.381,0,0,0-1.15.07" transform="translate(-513.811 -173.409)" fill="#a8cefc"/>
    </clipPath>
    <clipPath id="clip-path-6">
      <path id="Trazado_117729" data-name="Trazado 117729" d="M664.248,120.983a8.454,8.454,0,0,0-7.145,8.4,8.442,8.442,0,0,0-8.312-1.144c-2.707,1.13-5.034,4.943-5.034,9.982l44.725-.411a9.744,9.744,0,0,0-15.249-10.433,8.5,8.5,0,0,0-8.092-6.448,7.251,7.251,0,0,0-.893.055" transform="translate(-643.757 -120.928)" fill="none"/>
    </clipPath>
    <clipPath id="clip-path-8">
      <path id="Trazado_117734" data-name="Trazado 117734" d="M268.825,35.287a7.179,7.179,0,0,0-6.069,7.134,7.171,7.171,0,0,0-7.06-.972c-2.3.96-4.275,4.2-4.275,8.478l37.986-.35a8.276,8.276,0,0,0-12.952-8.861,7.218,7.218,0,0,0-6.872-5.476,6.1,6.1,0,0,0-.759.047" transform="translate(-251.422 -35.24)" fill="none"/>
    </clipPath>
    <clipPath id="clip-path-10">
      <path id="Trazado_117739" data-name="Trazado 117739" d="M461.336,395.13a6.466,6.466,0,0,0-5.466,6.426,6.458,6.458,0,0,0-6.359-.875c-2.071.864-3.852,3.782-3.852,7.637L479.878,408a7.455,7.455,0,0,0-11.667-7.982,6.5,6.5,0,0,0-6.191-4.934,5.554,5.554,0,0,0-.684.042" transform="translate(-445.659 -395.088)" fill="#a8cefc"/>
    </clipPath>
    <clipPath id="clip-path-12">
      <path id="Trazado_117743" data-name="Trazado 117743" d="M68.966,119.58a9.607,9.607,0,0,0-8.121,9.548,9.6,9.6,0,0,0-9.449-1.3c-3.077,1.284-5.722,5.618-5.722,11.346l50.838-.467A11.076,11.076,0,0,0,79.18,126.847a9.661,9.661,0,0,0-9.2-7.33,8.225,8.225,0,0,0-1.016.063" transform="translate(-45.675 -119.517)" fill="none"/>
    </clipPath>
  </defs>
  <g id="Grupo_85326" data-name="Grupo 85326" transform="translate(0.607 -0.25)">
    <path id="Trazado_117744" data-name="Trazado 117744" d="M434,288h0Z" transform="translate(-0.607 0.25)" fill="#fff"/>
    <rect id="Rectángulo_48882" data-name="Rectángulo 48882" width="27.082" height="94.564" transform="translate(206.111 157.742)" fill="#f3f2f4"/>
    <rect id="Rectángulo_48883" data-name="Rectángulo 48883" width="27.083" height="198.526" transform="translate(173.248 51.243)" fill="#f3f2f4"/>
    <rect id="Rectángulo_48884" data-name="Rectángulo 48884" width="4.738" height="4.738" transform="translate(178.196 72.362)" fill="#ded9e9"/>
    <rect id="Rectángulo_48885" data-name="Rectángulo 48885" width="4.738" height="4.738" transform="translate(184.42 72.362)" fill="#ded9e9"/>
    <rect id="Rectángulo_48886" data-name="Rectángulo 48886" width="4.738" height="4.738" transform="translate(190.645 72.362)" fill="#ded9e9"/>
    <rect id="Rectángulo_48887" data-name="Rectángulo 48887" width="4.738" height="4.738" transform="translate(178.196 65.418)" fill="#ded9e9"/>
    <rect id="Rectángulo_48888" data-name="Rectángulo 48888" width="4.738" height="4.738" transform="translate(184.42 65.418)" fill="#ded9e9"/>
    <rect id="Rectángulo_48889" data-name="Rectángulo 48889" width="4.738" height="4.738" transform="translate(190.645 65.418)" fill="#ded9e9"/>
    <rect id="Rectángulo_48890" data-name="Rectángulo 48890" width="4.738" height="4.738" transform="translate(178.196 58.473)" fill="#ded9e9"/>
    <rect id="Rectángulo_48891" data-name="Rectángulo 48891" width="4.738" height="4.738" transform="translate(184.42 58.473)" fill="#ded9e9"/>
    <rect id="Rectángulo_48892" data-name="Rectángulo 48892" width="4.738" height="4.738" transform="translate(190.645 58.473)" fill="#ded9e9"/>
    <rect id="Rectángulo_48893" data-name="Rectángulo 48893" width="4.738" height="4.738" transform="translate(178.196 79.654)" fill="#ded9e9"/>
    <rect id="Rectángulo_48894" data-name="Rectángulo 48894" width="4.738" height="4.738" transform="translate(184.42 79.654)" fill="#ded9e9"/>
    <rect id="Rectángulo_48895" data-name="Rectángulo 48895" width="4.738" height="4.738" transform="translate(190.645 79.654)" fill="#ded9e9"/>
    <rect id="Rectángulo_48896" data-name="Rectángulo 48896" width="4.738" height="4.738" transform="translate(178.196 86.946)" fill="#ded9e9"/>
    <rect id="Rectángulo_48897" data-name="Rectángulo 48897" width="4.738" height="4.738" transform="translate(184.42 86.946)" fill="#ded9e9"/>
    <rect id="Rectángulo_48898" data-name="Rectángulo 48898" width="4.738" height="4.738" transform="translate(190.645 86.946)" fill="#ded9e9"/>
    <rect id="Rectángulo_48899" data-name="Rectángulo 48899" width="4.738" height="4.738" transform="translate(178.196 94.237)" fill="#ded9e9"/>
    <rect id="Rectángulo_48900" data-name="Rectángulo 48900" width="4.738" height="4.738" transform="translate(184.42 94.237)" fill="#ded9e9"/>
    <rect id="Rectángulo_48901" data-name="Rectángulo 48901" width="4.738" height="4.738" transform="translate(190.645 94.237)" fill="#ded9e9"/>
    <rect id="Rectángulo_48902" data-name="Rectángulo 48902" width="4.738" height="4.738" transform="translate(178.196 101.529)" fill="#ded9e9"/>
    <rect id="Rectángulo_48903" data-name="Rectángulo 48903" width="4.738" height="4.738" transform="translate(184.42 101.529)" fill="#ded9e9"/>
    <rect id="Rectángulo_48904" data-name="Rectángulo 48904" width="4.738" height="4.738" transform="translate(190.645 101.529)" fill="#ded9e9"/>
    <rect id="Rectángulo_48905" data-name="Rectángulo 48905" width="4.738" height="4.738" transform="translate(178.196 108.82)" fill="#ded9e9"/>
    <rect id="Rectángulo_48906" data-name="Rectángulo 48906" width="4.738" height="4.738" transform="translate(184.42 108.82)" fill="#ded9e9"/>
    <rect id="Rectángulo_48907" data-name="Rectángulo 48907" width="4.738" height="4.738" transform="translate(190.645 108.82)" fill="#ded9e9"/>
    <rect id="Rectángulo_48908" data-name="Rectángulo 48908" width="4.738" height="4.738" transform="translate(178.196 116.112)" fill="#ded9e9"/>
    <rect id="Rectángulo_48909" data-name="Rectángulo 48909" width="4.738" height="4.738" transform="translate(184.42 116.112)" fill="#ded9e9"/>
    <rect id="Rectángulo_48910" data-name="Rectángulo 48910" width="4.738" height="4.738" transform="translate(190.645 116.112)" fill="#ded9e9"/>
    <rect id="Rectángulo_48911" data-name="Rectángulo 48911" width="4.738" height="4.738" transform="translate(178.196 123.403)" fill="#ded9e9"/>
    <rect id="Rectángulo_48912" data-name="Rectángulo 48912" width="4.738" height="4.738" transform="translate(184.42 123.403)" fill="#ded9e9"/>
    <rect id="Rectángulo_48913" data-name="Rectángulo 48913" width="4.738" height="4.738" transform="translate(190.645 123.403)" fill="#ded9e9"/>
    <rect id="Rectángulo_48914" data-name="Rectángulo 48914" width="4.738" height="4.738" transform="translate(178.196 130.695)" fill="#ded9e9"/>
    <rect id="Rectángulo_48915" data-name="Rectángulo 48915" width="4.738" height="4.738" transform="translate(184.42 130.695)" fill="#ded9e9"/>
    <rect id="Rectángulo_48916" data-name="Rectángulo 48916" width="4.738" height="4.738" transform="translate(190.645 130.695)" fill="#ded9e9"/>
    <rect id="Rectángulo_48917" data-name="Rectángulo 48917" width="4.738" height="4.738" transform="translate(178.196 137.986)" fill="#ded9e9"/>
    <rect id="Rectángulo_48918" data-name="Rectángulo 48918" width="4.738" height="4.738" transform="translate(184.42 137.986)" fill="#ded9e9"/>
    <rect id="Rectángulo_48919" data-name="Rectángulo 48919" width="4.738" height="4.738" transform="translate(190.645 137.986)" fill="#ded9e9"/>
    <rect id="Rectángulo_48920" data-name="Rectángulo 48920" width="4.738" height="4.738" transform="translate(178.196 145.278)" fill="#ded9e9"/>
    <rect id="Rectángulo_48921" data-name="Rectángulo 48921" width="4.738" height="4.738" transform="translate(184.42 145.278)" fill="#ded9e9"/>
    <rect id="Rectángulo_48922" data-name="Rectángulo 48922" width="4.738" height="4.738" transform="translate(190.645 145.278)" fill="#ded9e9"/>
    <rect id="Rectángulo_48923" data-name="Rectángulo 48923" width="4.738" height="4.738" transform="translate(178.196 152.569)" fill="#ded9e9"/>
    <rect id="Rectángulo_48924" data-name="Rectángulo 48924" width="4.738" height="4.738" transform="translate(184.42 152.569)" fill="#ded9e9"/>
    <rect id="Rectángulo_48925" data-name="Rectángulo 48925" width="4.738" height="4.738" transform="translate(190.645 152.569)" fill="#ded9e9"/>
    <rect id="Rectángulo_48926" data-name="Rectángulo 48926" width="4.738" height="4.738" transform="translate(178.196 159.684)" fill="#ded9e9"/>
    <rect id="Rectángulo_48927" data-name="Rectángulo 48927" width="4.738" height="4.738" transform="translate(184.42 159.684)" fill="#ded9e9"/>
    <rect id="Rectángulo_48928" data-name="Rectángulo 48928" width="4.738" height="4.738" transform="translate(190.645 159.684)" fill="#ded9e9"/>
    <rect id="Rectángulo_48929" data-name="Rectángulo 48929" width="4.738" height="4.738" transform="translate(178.196 166.798)" fill="#ded9e9"/>
    <rect id="Rectángulo_48930" data-name="Rectángulo 48930" width="4.738" height="4.738" transform="translate(184.42 166.798)" fill="#ded9e9"/>
    <rect id="Rectángulo_48931" data-name="Rectángulo 48931" width="4.738" height="4.738" transform="translate(190.645 166.798)" fill="#ded9e9"/>
    <rect id="Rectángulo_48932" data-name="Rectángulo 48932" width="4.738" height="4.738" transform="translate(177.503 174.233)" fill="#ded9e9"/>
    <rect id="Rectángulo_48933" data-name="Rectángulo 48933" width="4.738" height="4.738" transform="translate(183.728 174.233)" fill="#ded9e9"/>
    <rect id="Rectángulo_48934" data-name="Rectángulo 48934" width="4.738" height="4.738" transform="translate(189.952 174.233)" fill="#ded9e9"/>
    <rect id="Rectángulo_48935" data-name="Rectángulo 48935" width="4.738" height="4.738" transform="translate(177.503 181.525)" fill="#ded9e9"/>
    <rect id="Rectángulo_48936" data-name="Rectángulo 48936" width="4.738" height="4.738" transform="translate(183.728 181.525)" fill="#ded9e9"/>
    <rect id="Rectángulo_48937" data-name="Rectángulo 48937" width="4.738" height="4.738" transform="translate(189.952 181.525)" fill="#ded9e9"/>
    <rect id="Rectángulo_48938" data-name="Rectángulo 48938" width="4.738" height="4.738" transform="translate(177.503 188.816)" fill="#ded9e9"/>
    <rect id="Rectángulo_48939" data-name="Rectángulo 48939" width="4.738" height="4.738" transform="translate(183.728 188.816)" fill="#ded9e9"/>
    <rect id="Rectángulo_48940" data-name="Rectángulo 48940" width="4.738" height="4.738" transform="translate(189.952 188.816)" fill="#ded9e9"/>
    <rect id="Rectángulo_48941" data-name="Rectángulo 48941" width="4.738" height="4.738" transform="translate(177.503 196.108)" fill="#ded9e9"/>
    <rect id="Rectángulo_48942" data-name="Rectángulo 48942" width="4.738" height="4.738" transform="translate(183.728 196.108)" fill="#ded9e9"/>
    <rect id="Rectángulo_48943" data-name="Rectángulo 48943" width="4.738" height="4.738" transform="translate(189.952 196.108)" fill="#ded9e9"/>
    <rect id="Rectángulo_48944" data-name="Rectángulo 48944" width="4.738" height="4.738" transform="translate(177.503 203.4)" fill="#ded9e9"/>
    <rect id="Rectángulo_48945" data-name="Rectángulo 48945" width="4.738" height="4.738" transform="translate(183.728 203.4)" fill="#ded9e9"/>
    <rect id="Rectángulo_48946" data-name="Rectángulo 48946" width="4.738" height="4.738" transform="translate(189.952 203.4)" fill="#ded9e9"/>
    <rect id="Rectángulo_48947" data-name="Rectángulo 48947" width="4.738" height="4.738" transform="translate(177.503 210.691)" fill="#ded9e9"/>
    <rect id="Rectángulo_48948" data-name="Rectángulo 48948" width="4.738" height="4.738" transform="translate(183.728 210.691)" fill="#ded9e9"/>
    <rect id="Rectángulo_48949" data-name="Rectángulo 48949" width="4.738" height="4.738" transform="translate(189.952 210.691)" fill="#ded9e9"/>
    <rect id="Rectángulo_48950" data-name="Rectángulo 48950" width="4.738" height="4.738" transform="translate(177.503 217.983)" fill="#ded9e9"/>
    <rect id="Rectángulo_48951" data-name="Rectángulo 48951" width="4.738" height="4.738" transform="translate(183.728 217.983)" fill="#ded9e9"/>
    <rect id="Rectángulo_48952" data-name="Rectángulo 48952" width="4.738" height="4.738" transform="translate(189.952 217.983)" fill="#ded9e9"/>
    <rect id="Rectángulo_48953" data-name="Rectángulo 48953" width="4.738" height="4.738" transform="translate(177.503 225.098)" fill="#ded9e9"/>
    <rect id="Rectángulo_48954" data-name="Rectángulo 48954" width="4.738" height="4.738" transform="translate(183.728 225.098)" fill="#ded9e9"/>
    <rect id="Rectángulo_48955" data-name="Rectángulo 48955" width="4.738" height="4.738" transform="translate(189.952 225.098)" fill="#ded9e9"/>
    <rect id="Rectángulo_48956" data-name="Rectángulo 48956" width="4.738" height="4.738" transform="translate(177.503 232.214)" fill="#ded9e9"/>
    <rect id="Rectángulo_48957" data-name="Rectángulo 48957" width="4.738" height="4.738" transform="translate(183.728 232.214)" fill="#ded9e9"/>
    <rect id="Rectángulo_48958" data-name="Rectángulo 48958" width="4.738" height="4.738" transform="translate(189.952 232.214)" fill="#ded9e9"/>
    <rect id="Rectángulo_48959" data-name="Rectángulo 48959" width="27.083" height="127.926" transform="translate(83.672 96.422)" fill="#f3f2f4"/>
    <rect id="Rectángulo_48960" data-name="Rectángulo 48960" width="4.738" height="4.738" transform="translate(88.621 102.323)" fill="#ded9e9"/>
    <rect id="Rectángulo_48961" data-name="Rectángulo 48961" width="4.738" height="4.738" transform="translate(94.845 102.323)" fill="#ded9e9"/>
    <rect id="Rectángulo_48962" data-name="Rectángulo 48962" width="4.738" height="4.738" transform="translate(101.069 102.323)" fill="#ded9e9"/>
    <rect id="Rectángulo_48963" data-name="Rectángulo 48963" width="4.738" height="4.738" transform="translate(88.621 109.614)" fill="#ded9e9"/>
    <rect id="Rectángulo_48964" data-name="Rectángulo 48964" width="4.738" height="4.738" transform="translate(94.845 109.614)" fill="#ded9e9"/>
    <rect id="Rectángulo_48965" data-name="Rectángulo 48965" width="4.738" height="4.738" transform="translate(101.069 109.614)" fill="#ded9e9"/>
    <rect id="Rectángulo_48966" data-name="Rectángulo 48966" width="4.738" height="4.738" transform="translate(88.621 116.906)" fill="#ded9e9"/>
    <rect id="Rectángulo_48967" data-name="Rectángulo 48967" width="4.738" height="4.738" transform="translate(94.845 116.906)" fill="#ded9e9"/>
    <rect id="Rectángulo_48968" data-name="Rectángulo 48968" width="4.738" height="4.738" transform="translate(101.069 116.906)" fill="#ded9e9"/>
    <rect id="Rectángulo_48969" data-name="Rectángulo 48969" width="4.738" height="4.738" transform="translate(88.621 124.197)" fill="#ded9e9"/>
    <rect id="Rectángulo_48970" data-name="Rectángulo 48970" width="4.738" height="4.738" transform="translate(94.845 124.197)" fill="#ded9e9"/>
    <rect id="Rectángulo_48971" data-name="Rectángulo 48971" width="4.738" height="4.738" transform="translate(101.069 124.197)" fill="#ded9e9"/>
    <rect id="Rectángulo_48972" data-name="Rectángulo 48972" width="4.738" height="4.738" transform="translate(88.621 131.489)" fill="#ded9e9"/>
    <rect id="Rectángulo_48973" data-name="Rectángulo 48973" width="4.738" height="4.738" transform="translate(94.845 131.489)" fill="#ded9e9"/>
    <rect id="Rectángulo_48974" data-name="Rectángulo 48974" width="4.738" height="4.738" transform="translate(101.069 131.489)" fill="#ded9e9"/>
    <rect id="Rectángulo_48975" data-name="Rectángulo 48975" width="4.738" height="4.738" transform="translate(88.621 138.78)" fill="#ded9e9"/>
    <rect id="Rectángulo_48976" data-name="Rectángulo 48976" width="4.738" height="4.738" transform="translate(94.845 138.78)" fill="#ded9e9"/>
    <rect id="Rectángulo_48977" data-name="Rectángulo 48977" width="4.738" height="4.738" transform="translate(101.069 138.78)" fill="#ded9e9"/>
    <rect id="Rectángulo_48978" data-name="Rectángulo 48978" width="4.738" height="4.738" transform="translate(88.621 146.072)" fill="#ded9e9"/>
    <rect id="Rectángulo_48979" data-name="Rectángulo 48979" width="4.738" height="4.738" transform="translate(94.845 146.072)" fill="#ded9e9"/>
    <rect id="Rectángulo_48980" data-name="Rectángulo 48980" width="4.738" height="4.738" transform="translate(101.069 146.072)" fill="#ded9e9"/>
    <rect id="Rectángulo_48981" data-name="Rectángulo 48981" width="4.738" height="4.738" transform="translate(88.621 153.363)" fill="#ded9e9"/>
    <rect id="Rectángulo_48982" data-name="Rectángulo 48982" width="4.738" height="4.738" transform="translate(94.845 153.363)" fill="#ded9e9"/>
    <rect id="Rectángulo_48983" data-name="Rectángulo 48983" width="4.738" height="4.738" transform="translate(101.069 153.363)" fill="#ded9e9"/>
    <rect id="Rectángulo_48984" data-name="Rectángulo 48984" width="4.738" height="4.738" transform="translate(88.621 160.655)" fill="#ded9e9"/>
    <rect id="Rectángulo_48985" data-name="Rectángulo 48985" width="4.738" height="4.738" transform="translate(94.845 160.655)" fill="#ded9e9"/>
    <rect id="Rectángulo_48986" data-name="Rectángulo 48986" width="4.738" height="4.738" transform="translate(101.069 160.655)" fill="#ded9e9"/>
    <rect id="Rectángulo_48987" data-name="Rectángulo 48987" width="4.738" height="4.738" transform="translate(88.621 167.946)" fill="#ded9e9"/>
    <rect id="Rectángulo_48988" data-name="Rectángulo 48988" width="4.738" height="4.738" transform="translate(94.845 167.946)" fill="#ded9e9"/>
    <rect id="Rectángulo_48989" data-name="Rectángulo 48989" width="4.738" height="4.738" transform="translate(101.069 167.946)" fill="#ded9e9"/>
    <rect id="Rectángulo_48990" data-name="Rectángulo 48990" width="4.738" height="4.738" transform="translate(88.621 175.238)" fill="#ded9e9"/>
    <rect id="Rectángulo_48991" data-name="Rectángulo 48991" width="4.738" height="4.738" transform="translate(94.845 175.238)" fill="#ded9e9"/>
    <rect id="Rectángulo_48992" data-name="Rectángulo 48992" width="4.738" height="4.738" transform="translate(101.069 175.238)" fill="#ded9e9"/>
    <rect id="Rectángulo_48993" data-name="Rectángulo 48993" width="4.738" height="4.738" transform="translate(88.621 182.529)" fill="#ded9e9"/>
    <rect id="Rectángulo_48994" data-name="Rectángulo 48994" width="4.738" height="4.738" transform="translate(94.845 182.529)" fill="#ded9e9"/>
    <rect id="Rectángulo_48995" data-name="Rectángulo 48995" width="4.738" height="4.738" transform="translate(101.069 182.529)" fill="#ded9e9"/>
    <rect id="Rectángulo_48996" data-name="Rectángulo 48996" width="4.738" height="4.738" transform="translate(88.621 189.644)" fill="#ded9e9"/>
    <rect id="Rectángulo_48997" data-name="Rectángulo 48997" width="4.738" height="4.738" transform="translate(94.845 189.644)" fill="#ded9e9"/>
    <rect id="Rectángulo_48998" data-name="Rectángulo 48998" width="4.738" height="4.738" transform="translate(101.069 189.644)" fill="#ded9e9"/>
    <rect id="Rectángulo_48999" data-name="Rectángulo 48999" width="4.738" height="4.738" transform="translate(88.621 196.758)" fill="#ded9e9"/>
    <rect id="Rectángulo_49000" data-name="Rectángulo 49000" width="4.738" height="4.738" transform="translate(94.845 196.758)" fill="#ded9e9"/>
    <rect id="Rectángulo_49001" data-name="Rectángulo 49001" width="4.738" height="4.738" transform="translate(101.069 196.758)" fill="#ded9e9"/>
    <rect id="Rectángulo_49002" data-name="Rectángulo 49002" width="27.083" height="84.839" transform="translate(26.385 151.909)" fill="#f3f2f4"/>
    <rect id="Rectángulo_49003" data-name="Rectángulo 49003" width="27.083" height="63.788" transform="translate(53.564 170.473)" fill="#f3f2f4"/>
    <rect id="Rectángulo_49004" data-name="Rectángulo 49004" width="4.738" height="4.738" transform="translate(31.333 158.551)" fill="#ded9e9"/>
    <rect id="Rectángulo_49005" data-name="Rectángulo 49005" width="4.738" height="4.738" transform="translate(37.557 158.551)" fill="#ded9e9"/>
    <rect id="Rectángulo_49006" data-name="Rectángulo 49006" width="4.738" height="4.738" transform="translate(43.781 158.551)" fill="#ded9e9"/>
    <rect id="Rectángulo_49007" data-name="Rectángulo 49007" width="4.738" height="4.738" transform="translate(31.333 165.843)" fill="#ded9e9"/>
    <rect id="Rectángulo_49008" data-name="Rectángulo 49008" width="4.738" height="4.738" transform="translate(37.557 165.843)" fill="#ded9e9"/>
    <rect id="Rectángulo_49009" data-name="Rectángulo 49009" width="4.738" height="4.738" transform="translate(43.781 165.843)" fill="#ded9e9"/>
    <rect id="Rectángulo_49010" data-name="Rectángulo 49010" width="4.738" height="4.738" transform="translate(31.333 173.134)" fill="#ded9e9"/>
    <rect id="Rectángulo_49011" data-name="Rectángulo 49011" width="4.738" height="4.738" transform="translate(37.557 173.134)" fill="#ded9e9"/>
    <rect id="Rectángulo_49012" data-name="Rectángulo 49012" width="4.738" height="4.738" transform="translate(43.781 173.134)" fill="#ded9e9"/>
    <rect id="Rectángulo_49013" data-name="Rectángulo 49013" width="4.738" height="4.738" transform="translate(31.333 180.426)" fill="#ded9e9"/>
    <rect id="Rectángulo_49014" data-name="Rectángulo 49014" width="4.738" height="4.738" transform="translate(37.557 180.426)" fill="#ded9e9"/>
    <rect id="Rectángulo_49015" data-name="Rectángulo 49015" width="4.738" height="4.738" transform="translate(43.781 180.426)" fill="#ded9e9"/>
    <rect id="Rectángulo_49016" data-name="Rectángulo 49016" width="4.738" height="4.738" transform="translate(31.333 187.717)" fill="#ded9e9"/>
    <rect id="Rectángulo_49017" data-name="Rectángulo 49017" width="4.738" height="4.738" transform="translate(37.557 187.717)" fill="#ded9e9"/>
    <rect id="Rectángulo_49018" data-name="Rectángulo 49018" width="4.738" height="4.738" transform="translate(43.781 187.717)" fill="#ded9e9"/>
    <rect id="Rectángulo_49019" data-name="Rectángulo 49019" width="4.738" height="4.738" transform="translate(31.333 195.009)" fill="#ded9e9"/>
    <rect id="Rectángulo_49020" data-name="Rectángulo 49020" width="4.738" height="4.738" transform="translate(37.557 195.009)" fill="#ded9e9"/>
    <rect id="Rectángulo_49021" data-name="Rectángulo 49021" width="4.738" height="4.738" transform="translate(43.781 195.009)" fill="#ded9e9"/>
    <rect id="Rectángulo_49022" data-name="Rectángulo 49022" width="4.738" height="4.738" transform="translate(31.333 202.3)" fill="#ded9e9"/>
    <rect id="Rectángulo_49023" data-name="Rectángulo 49023" width="4.738" height="4.738" transform="translate(37.557 202.3)" fill="#ded9e9"/>
    <rect id="Rectángulo_49024" data-name="Rectángulo 49024" width="4.738" height="4.738" transform="translate(43.781 202.3)" fill="#ded9e9"/>
    <rect id="Rectángulo_49025" data-name="Rectángulo 49025" width="4.738" height="4.738" transform="translate(57.846 178.056)" fill="#ded9e9"/>
    <rect id="Rectángulo_49026" data-name="Rectángulo 49026" width="4.738" height="4.738" transform="translate(64.07 178.056)" fill="#ded9e9"/>
    <rect id="Rectángulo_49027" data-name="Rectángulo 49027" width="4.738" height="4.738" transform="translate(70.295 178.056)" fill="#ded9e9"/>
    <rect id="Rectángulo_49028" data-name="Rectángulo 49028" width="4.738" height="4.738" transform="translate(57.846 185.348)" fill="#ded9e9"/>
    <rect id="Rectángulo_49029" data-name="Rectángulo 49029" width="4.738" height="4.738" transform="translate(64.07 185.348)" fill="#ded9e9"/>
    <rect id="Rectángulo_49030" data-name="Rectángulo 49030" width="4.738" height="4.738" transform="translate(70.295 185.348)" fill="#ded9e9"/>
    <rect id="Rectángulo_49031" data-name="Rectángulo 49031" width="4.738" height="4.738" transform="translate(57.846 192.639)" fill="#ded9e9"/>
    <rect id="Rectángulo_49032" data-name="Rectángulo 49032" width="4.738" height="4.738" transform="translate(64.07 192.639)" fill="#ded9e9"/>
    <rect id="Rectángulo_49033" data-name="Rectángulo 49033" width="4.738" height="4.738" transform="translate(70.295 192.639)" fill="#ded9e9"/>
    <rect id="Rectángulo_49034" data-name="Rectángulo 49034" width="4.738" height="4.738" transform="translate(57.846 199.931)" fill="#ded9e9"/>
    <rect id="Rectángulo_49035" data-name="Rectángulo 49035" width="4.738" height="4.738" transform="translate(64.07 199.931)" fill="#ded9e9"/>
    <rect id="Rectángulo_49036" data-name="Rectángulo 49036" width="4.738" height="4.738" transform="translate(70.295 199.931)" fill="#ded9e9"/>
    <rect id="Rectángulo_49037" data-name="Rectángulo 49037" width="27.082" height="130.01" transform="translate(317.835 61.029)" fill="#f3f2f4"/>
    <rect id="Rectángulo_49038" data-name="Rectángulo 49038" width="4.738" height="4.738" transform="translate(322.783 67.787)" fill="#ded9e9"/>
    <rect id="Rectángulo_49039" data-name="Rectángulo 49039" width="4.738" height="4.738" transform="translate(329.007 67.787)" fill="#ded9e9"/>
    <rect id="Rectángulo_49040" data-name="Rectángulo 49040" width="4.738" height="4.738" transform="translate(335.232 67.787)" fill="#ded9e9"/>
    <rect id="Rectángulo_49041" data-name="Rectángulo 49041" width="4.738" height="4.738" transform="translate(322.783 75.079)" fill="#ded9e9"/>
    <rect id="Rectángulo_49042" data-name="Rectángulo 49042" width="4.738" height="4.738" transform="translate(329.007 75.079)" fill="#ded9e9"/>
    <rect id="Rectángulo_49043" data-name="Rectángulo 49043" width="4.738" height="4.738" transform="translate(335.232 75.079)" fill="#ded9e9"/>
    <rect id="Rectángulo_49044" data-name="Rectángulo 49044" width="4.738" height="4.738" transform="translate(322.783 82.37)" fill="#ded9e9"/>
    <rect id="Rectángulo_49045" data-name="Rectángulo 49045" width="4.738" height="4.738" transform="translate(329.007 82.37)" fill="#ded9e9"/>
    <rect id="Rectángulo_49046" data-name="Rectángulo 49046" width="4.738" height="4.738" transform="translate(335.232 82.37)" fill="#ded9e9"/>
    <rect id="Rectángulo_49047" data-name="Rectángulo 49047" width="4.738" height="4.738" transform="translate(322.783 89.662)" fill="#ded9e9"/>
    <rect id="Rectángulo_49048" data-name="Rectángulo 49048" width="4.738" height="4.738" transform="translate(329.007 89.662)" fill="#ded9e9"/>
    <rect id="Rectángulo_49049" data-name="Rectángulo 49049" width="4.738" height="4.738" transform="translate(335.232 89.662)" fill="#ded9e9"/>
    <rect id="Rectángulo_49050" data-name="Rectángulo 49050" width="4.738" height="4.738" transform="translate(322.783 96.953)" fill="#ded9e9"/>
    <rect id="Rectángulo_49051" data-name="Rectángulo 49051" width="4.738" height="4.738" transform="translate(329.007 96.953)" fill="#ded9e9"/>
    <rect id="Rectángulo_49052" data-name="Rectángulo 49052" width="4.738" height="4.738" transform="translate(335.232 96.953)" fill="#ded9e9"/>
    <rect id="Rectángulo_49053" data-name="Rectángulo 49053" width="4.738" height="4.738" transform="translate(322.783 104.245)" fill="#ded9e9"/>
    <rect id="Rectángulo_49054" data-name="Rectángulo 49054" width="4.738" height="4.738" transform="translate(329.007 104.245)" fill="#ded9e9"/>
    <rect id="Rectángulo_49055" data-name="Rectángulo 49055" width="4.738" height="4.738" transform="translate(335.232 104.245)" fill="#ded9e9"/>
    <rect id="Rectángulo_49056" data-name="Rectángulo 49056" width="4.738" height="4.738" transform="translate(322.783 111.536)" fill="#ded9e9"/>
    <rect id="Rectángulo_49057" data-name="Rectángulo 49057" width="4.738" height="4.738" transform="translate(329.007 111.536)" fill="#ded9e9"/>
    <rect id="Rectángulo_49058" data-name="Rectángulo 49058" width="4.738" height="4.738" transform="translate(335.232 111.536)" fill="#ded9e9"/>
    <rect id="Rectángulo_49059" data-name="Rectángulo 49059" width="4.738" height="4.738" transform="translate(322.783 118.828)" fill="#ded9e9"/>
    <rect id="Rectángulo_49060" data-name="Rectángulo 49060" width="4.738" height="4.738" transform="translate(329.007 118.828)" fill="#ded9e9"/>
    <rect id="Rectángulo_49061" data-name="Rectángulo 49061" width="4.738" height="4.738" transform="translate(335.232 118.828)" fill="#ded9e9"/>
    <rect id="Rectángulo_49062" data-name="Rectángulo 49062" width="4.738" height="4.738" transform="translate(322.783 126.119)" fill="#ded9e9"/>
    <rect id="Rectángulo_49063" data-name="Rectángulo 49063" width="4.738" height="4.738" transform="translate(329.007 126.119)" fill="#ded9e9"/>
    <rect id="Rectángulo_49064" data-name="Rectángulo 49064" width="4.738" height="4.738" transform="translate(335.232 126.119)" fill="#ded9e9"/>
    <rect id="Rectángulo_49065" data-name="Rectángulo 49065" width="4.738" height="4.738" transform="translate(322.783 133.411)" fill="#ded9e9"/>
    <rect id="Rectángulo_49066" data-name="Rectángulo 49066" width="4.738" height="4.738" transform="translate(329.007 133.411)" fill="#ded9e9"/>
    <rect id="Rectángulo_49067" data-name="Rectángulo 49067" width="4.738" height="4.738" transform="translate(335.232 133.411)" fill="#ded9e9"/>
    <rect id="Rectángulo_49068" data-name="Rectángulo 49068" width="4.738" height="4.738" transform="translate(322.783 140.702)" fill="#ded9e9"/>
    <rect id="Rectángulo_49069" data-name="Rectángulo 49069" width="4.738" height="4.738" transform="translate(329.007 140.702)" fill="#ded9e9"/>
    <rect id="Rectángulo_49070" data-name="Rectángulo 49070" width="4.738" height="4.738" transform="translate(335.232 140.702)" fill="#ded9e9"/>
    <rect id="Rectángulo_49071" data-name="Rectángulo 49071" width="4.738" height="4.738" transform="translate(322.783 147.994)" fill="#ded9e9"/>
    <rect id="Rectángulo_49072" data-name="Rectángulo 49072" width="4.738" height="4.738" transform="translate(329.007 147.994)" fill="#ded9e9"/>
    <rect id="Rectángulo_49073" data-name="Rectángulo 49073" width="4.738" height="4.738" transform="translate(335.232 147.994)" fill="#ded9e9"/>
    <rect id="Rectángulo_49074" data-name="Rectángulo 49074" width="4.738" height="4.738" transform="translate(322.783 155.108)" fill="#ded9e9"/>
    <rect id="Rectángulo_49075" data-name="Rectángulo 49075" width="4.738" height="4.738" transform="translate(329.007 155.108)" fill="#ded9e9"/>
    <rect id="Rectángulo_49076" data-name="Rectángulo 49076" width="4.738" height="4.738" transform="translate(335.232 155.108)" fill="#ded9e9"/>
    <rect id="Rectángulo_49077" data-name="Rectángulo 49077" width="4.738" height="4.738" transform="translate(322.783 162.222)" fill="#ded9e9"/>
    <rect id="Rectángulo_49078" data-name="Rectángulo 49078" width="4.738" height="4.738" transform="translate(329.007 162.222)" fill="#ded9e9"/>
    <rect id="Rectángulo_49079" data-name="Rectángulo 49079" width="4.738" height="4.738" transform="translate(335.232 162.222)" fill="#ded9e9"/>
    <rect id="Rectángulo_49080" data-name="Rectángulo 49080" width="21.568" height="57.829" transform="translate(348.685 127.749)" fill="#f3f2f4"/>
    <rect id="Rectángulo_49081" data-name="Rectángulo 49081" width="4.738" height="4.738" transform="translate(353.987 132.421)" fill="#ded9e9"/>
    <rect id="Rectángulo_49082" data-name="Rectángulo 49082" width="4.738" height="4.738" transform="translate(360.211 132.421)" fill="#ded9e9"/>
    <rect id="Rectángulo_49083" data-name="Rectángulo 49083" width="4.738" height="4.738" transform="translate(353.987 139.712)" fill="#ded9e9"/>
    <rect id="Rectángulo_49084" data-name="Rectángulo 49084" width="4.738" height="4.738" transform="translate(360.211 139.712)" fill="#ded9e9"/>
    <rect id="Rectángulo_49085" data-name="Rectángulo 49085" width="4.738" height="4.738" transform="translate(353.987 147.004)" fill="#ded9e9"/>
    <rect id="Rectángulo_49086" data-name="Rectángulo 49086" width="4.738" height="4.738" transform="translate(360.211 147.004)" fill="#ded9e9"/>
    <rect id="Rectángulo_49087" data-name="Rectángulo 49087" width="4.738" height="4.738" transform="translate(353.987 154.295)" fill="#ded9e9"/>
    <rect id="Rectángulo_49088" data-name="Rectángulo 49088" width="4.738" height="4.738" transform="translate(360.211 154.295)" fill="#ded9e9"/>
    <rect id="Rectángulo_49089" data-name="Rectángulo 49089" width="4.738" height="4.738" transform="translate(353.987 161.587)" fill="#ded9e9"/>
    <rect id="Rectángulo_49090" data-name="Rectángulo 49090" width="4.738" height="4.738" transform="translate(360.211 161.587)" fill="#ded9e9"/>
    <rect id="Rectángulo_49091" data-name="Rectángulo 49091" width="4.738" height="4.738" transform="translate(353.987 168.878)" fill="#ded9e9"/>
    <rect id="Rectángulo_49092" data-name="Rectángulo 49092" width="4.738" height="4.738" transform="translate(360.211 168.878)" fill="#ded9e9"/>
    <g id="Grupo_85303" data-name="Grupo 85303" transform="translate(-0.308 0.128)">
      <g id="Grupo_85302" data-name="Grupo 85302" clip-path="url(#clip-path)">
        <path id="Trazado_117696" data-name="Trazado 117696" d="M432.442,62.191a7.693,7.693,0,0,0-12.04-8.237,6.441,6.441,0,0,0-12.735,1.584,6.666,6.666,0,0,0-6.563-.9c-2.137.891-3.974,3.9-3.974,7.881Z" transform="translate(-167.659 -20.801)" fill="#e8e4ed"/>
        <path id="Trazado_117697" data-name="Trazado 117697" d="M455.7,259.306a6.974,6.974,0,0,0-10.914-7.467,5.838,5.838,0,0,0-11.544,1.436,6.043,6.043,0,0,0-5.949-.819c-1.938.808-3.6,3.537-3.6,7.144Z" transform="translate(-178.895 -104.704)" fill="#e8e4ed"/>
        <path id="Trazado_117698" data-name="Trazado 117698" d="M691.021,442.91a6.974,6.974,0,0,0-10.914-7.467,5.838,5.838,0,0,0-11.544,1.436,6.043,6.043,0,0,0-5.949-.819c-1.938.808-3.6,3.537-3.6,7.144Z" transform="translate(-278.43 -182.365)" fill="#e8e4ed"/>
        <path id="Trazado_117699" data-name="Trazado 117699" d="M695.564,221.952a4.553,4.553,0,0,0-7.125-4.875,3.812,3.812,0,0,0-7.537.938,3.946,3.946,0,0,0-3.884-.535c-1.265.528-2.352,2.31-2.352,4.664Z" transform="translate(-285.052 -90.678)" fill="#e8e4ed"/>
        <path id="Trazado_117700" data-name="Trazado 117700" d="M219.815,445.917a4.553,4.553,0,0,0-7.125-4.875,3.812,3.812,0,0,0-7.537.938,3.946,3.946,0,0,0-3.884-.535c-1.265.528-2.352,2.31-2.352,4.664Z" transform="translate(-83.819 -185.411)" fill="#e8e4ed"/>
        <path id="Trazado_117701" data-name="Trazado 117701" d="M225.908,116.79a4.553,4.553,0,0,0-7.125-4.875,3.812,3.812,0,0,0-7.537.938,3.946,3.946,0,0,0-3.884-.535c-1.265.528-2.352,2.31-2.352,4.664Z" transform="translate(-86.396 -46.196)" fill="#e8e4ed"/>
        <path id="Trazado_117702" data-name="Trazado 117702" d="M458.554,41.4l19.023,4.8a1.032,1.032,0,0,1,.177,1.939L458.7,56.854a1.032,1.032,0,0,1-1.462-.941l.029-13.517a1.032,1.032,0,0,1,1.284-1" transform="translate(-193.084 -17.63)" fill="#ffd54f"/>
        <line id="Línea_277" data-name="Línea 277" x1="0.071" y2="32.719" transform="translate(264.127 18.967)" fill="none" stroke="#1028a7" stroke-miterlimit="10" stroke-width="3"/>
        <path id="Trazado_117703" data-name="Trazado 117703" d="M457.908,31.791a2.339,2.339,0,1,1-1.7-2.84,2.339,2.339,0,0,1,1.7,2.84" transform="translate(-191.418 -12.348)" fill="#1028a7"/>
        <path id="Trazado_117704" data-name="Trazado 117704" d="M99.293,331.13l19.023,4.8a1.032,1.032,0,0,1,.177,1.939l-19.052,8.717a1.032,1.032,0,0,1-1.462-.941l.029-13.517a1.032,1.032,0,0,1,1.284-1" transform="translate(-41.124 -140.181)" fill="#ffd54f"/>
        <line id="Línea_278" data-name="Línea 278" x1="0.07" y2="32.183" transform="translate(56.827 186.148)" fill="none" stroke="#1028a7" stroke-miterlimit="10" stroke-width="3"/>
        <path id="Trazado_117705" data-name="Trazado 117705" d="M98.647,321.523a2.339,2.339,0,1,1-1.7-2.84,2.338,2.338,0,0,1,1.7,2.84" transform="translate(-39.458 -134.899)" fill="#1028a7"/>
        <path id="Trazado_117706" data-name="Trazado 117706" d="M217.869,229.442l16.195,6.857a1.484,1.484,0,0,1,0,2.733l-16.23,6.859Z" transform="translate(-91.82 -97.182)" fill="#ffd54f"/>
        <line id="Línea_279" data-name="Línea 279" x1="0.07" y2="32.183" transform="translate(126.54 128.343)" fill="none" stroke="#1028a7" stroke-miterlimit="10" stroke-width="3"/>
        <path id="Trazado_117707" data-name="Trazado 117707" d="M219.462,221.344a2.339,2.339,0,1,1-1.7-2.84,2.338,2.338,0,0,1,1.7,2.84" transform="translate(-90.56 -92.525)" fill="#1028a7"/>
        <path id="Trazado_117708" data-name="Trazado 117708" d="M592.805,264.529l21.126,5.331a1.146,1.146,0,0,1,.2,2.153l-21.159,9.681a1.146,1.146,0,0,1-1.623-1.045l.033-15.011a1.146,1.146,0,0,1,1.426-1.109" transform="translate(-249.809 -112.009)" fill="#ffd54f"/>
        <line id="Línea_280" data-name="Línea 280" x1="0.078" y2="35.742" transform="translate(341.506 147.189)" fill="none" stroke="#1028a7" stroke-miterlimit="10" stroke-width="3"/>
        <path id="Trazado_117709" data-name="Trazado 117709" d="M592.089,253.86a2.6,2.6,0,1,1-1.883-3.154,2.6,2.6,0,0,1,1.883,3.154" transform="translate(-247.959 -106.143)" fill="#1028a7"/>
        <path id="Trazado_117710" data-name="Trazado 117710" d="M653.344,292.291v45.066s38.6-22.533,38.8-22.533Z" transform="translate(-276.033 -123.766)" fill="#b3b7d4"/>
        <path id="Trazado_117711" data-name="Trazado 117711" d="M222.1,308.61c-13.4,0-25.486-5.126-34.043-14.434a48.431,48.431,0,0,1-12.433-32.735l0-.459c-.076-16.377-.18-38.8-7.71-45.549-1.279-1.145-3.6-2.6-8.986-2.035-10.5,1.108-13.147,7.863-15.333,26.332-.823,6.947-1.533,12.948-4.227,17.749-3.144,5.6-7.7,11.757-17.622,14.9-7.454,2.357-17.611,2.926-33.964,1.9-19.777-1.241-43.9.044-43.9.044l-.212-21.6c.455-.042,23.781-.468,45.411.889,13.286.834,21.682.523,26.423-.977,2.777-.879,3.916-1.916,5.807-5.284.7-1.393,1.314-6.6,1.722-10.052.912-7.7,2.046-17.285,6.179-25.661,5.422-10.989,14.947-17.5,27.545-18.83,10.055-1.061,18.457,1.363,24.977,7.2,14.378,12.879,14.5,38.379,14.6,60.877l0,.459c.06,12.792,8.149,26.558,25.769,26.558,7.339,0,12.885-2.063,16.953-6.307,6.816-7.112,10.144-21.081,9.369-39.332-.888-20.92-1.254-108.235,1.632-124.008,3.021-16.507,18.692-29.438,35.675-29.438h0c12.408,0,21.625,3.734,28.178,11.413,7.27,8.52,10.8,21.736,10.8,40.4-.006,35.3.885,65.909,2.246,78.164,1.878.678,6.5,1.8,16.33,1.692,8.128-.088,52.008-.6,52.079-.608l.973,21.4c-.452.058-46.253.165-57.434-.114a65.145,65.145,0,0,1-17.51-2.4c-4.893-1.52-13.305-5.472-14.663-14.866C304.707,209.909,304,170.3,304,140.626c0-16.615-3.176-23.83-5.843-26.956-1.75-2.051-4.594-4.147-12.426-4.147-6.939,0-14.091,5.821-15.306,12.457-2.243,12.259-2.348,95.015-1.312,119.4a108.962,108.962,0,0,1-2.33,29.354c-2.455,10.426-6.754,18.9-12.779,25.186-8.069,8.419-18.8,12.687-31.9,12.687" transform="translate(-18.151 -37.7)" fill="#b3b7d4"/>
        <path id="Trazado_117712" data-name="Trazado 117712" d="M242.842,302.447l-1.794-4.873c9.58-3.526,15.518-9.121,18.687-17.608l4.865,1.817c-3.738,10.011-10.652,16.577-21.758,20.664m-29.872-2.623c-7.935-5.239-14.377-14.1-17.676-24.31l4.942-1.6c2.943,9.108,8.627,16.971,15.6,21.573ZM93.857,272.2l-28.848-.38.069-5.193,28.848.38Zm29.4-.93-1.23-5.045c6.332-1.544,10.329-4.694,13.8-10.873,1.015-1.809,1.617-5.052,1.982-7.334l5.128.819c-.7,4.367-1.47,7.075-2.581,9.056-4.2,7.478-9.308,11.479-17.1,13.378m144.814-18.886-5.193-.02c.025-6.976.1-16.978.2-28.927l5.193.047c-.108,11.939-.178,21.931-.2,28.9m-75.317-6.174c-.624-12.238-2.213-20.925-5-27.34l4.763-2.069c3.043,7,4.767,16.264,5.424,29.144Zm176.485-9.8c-1.631,0-3.262-.009-4.884-.027l.058-5.193c1.655.018,3.317.02,4.985.027,7.227,0,15.217-.16,23.752-.474l.192,5.19c-8.6.317-16.653.477-23.942.477Zm-34.075-2.059c-.852-.153-1.665-.317-2.418-.488-7.223-1.636-10.993-12.49-11.416-15.414-.442-3.065-.815-6.205-1.139-9.6l5.17-.493c.316,3.31.679,6.369,1.11,9.35.339,2.346,3.607,10.228,7.423,11.093.679.154,1.416.3,2.192.443Zm-186.8-13.229-4.82-1.932c4.32-10.78,11.966-16.822,22.729-17.958q.524-.055,1.037-.095l.4,5.179q-.438.033-.887.08c-8.943.944-14.807,5.623-18.454,14.726m120.209-26.532-5.193-.059c.123-10.671.248-20.4.372-28.906l5.193.076c-.124,8.5-.249,18.225-.372,28.89m50.112-14.724c-.155-6.956-.231-14.637-.231-23.481v-.329c0-1.744-.013-3.444-.038-5.051l5.192-.083c.027,1.635.039,3.363.039,5.134v.329c0,8.8.076,16.447.231,23.364Zm-49.193-43.04-5.191-.169.04-1.142a53.375,53.375,0,0,1,8.915-27.431l4.258,2.972a47.965,47.965,0,0,0-7.984,24.655Zm45.934-13.816c-2.839-10.719-7.852-16.87-15.775-19.358l1.555-4.955c9.654,3.032,15.947,10.549,19.24,22.983Z" transform="translate(-27.178 -41.879)" fill="#fff"/>
      </g>
    </g>
    <g id="Grupo_85305" data-name="Grupo 85305" transform="translate(37.598 51.243)">
      <g id="Grupo_85304" data-name="Grupo 85304" clip-path="url(#clip-path-2)">
        <path id="Trazado_117713" data-name="Trazado 117713" d="M465.778,91.857c-7.455-.9-15.068,2.381-20.159,7.9s-7.393,14.327-8.609,21.737-.154,14.028.083,21.534l28.685,96.341,35.6,19.4,27.257-10.778c-11.278-1.452-23.254-3.02-30.4-11.862-5.307-6.564-4.722-14.494-5.307-20.811,0,0,4.33-18.716,4.051-18.158s.977-47.907.977-47.907l-.279-26.538-8.241-21.37s-22.833-9.393-23.653-9.492" transform="translate(-222.192 -90.039)" fill="#ffa726"/>
        <path id="Trazado_117714" data-name="Trazado 117714" d="M327.852,383.6c-7.642,5.97-30.3,2.647-38.784-2.052-10.871-6.021-13.958-16.034-17.031-36.116l1.642-2.257.841-23.523L271.3,292.318,259.34,278.747c-2.947-3.193-11.242-5.6-18.23-3.1-4.091,1.463-8.806,5.247-11.54,8.624-5.387,6.652-5.846,14.185-7.861,22.5h12.042l-7.025,19.476-.836,32.949,61.883,44.78s44.323-16.514,44.991-16.78-4.913-3.6-4.913-3.6" transform="translate(-131.366 -167.401)" fill="#ffa726"/>
      </g>
    </g>
    <g id="Grupo_85307" data-name="Grupo 85307" transform="translate(-0.308 0.128)">
      <g id="Grupo_85306" data-name="Grupo 85306" clip-path="url(#clip-path)">
        <path id="Trazado_117720" data-name="Trazado 117720" d="M94.7,60.048a6.974,6.974,0,0,0-10.914-7.467,5.838,5.838,0,0,0-11.544,1.436A6.043,6.043,0,0,0,66.3,53.2c-1.938.808-3.6,3.537-3.6,7.144Z" transform="translate(-26.198 -20.422)" fill="#e8e4ed"/>
        <path id="Trazado_117721" data-name="Trazado 117721" d="M571.318,195.114A12.529,12.529,0,0,0,551.711,181.7a10.489,10.489,0,0,0-20.74,2.58,10.856,10.856,0,0,0-10.688-1.471c-3.481,1.452-6.472,6.355-6.472,12.835Z" transform="translate(-217.013 -73.481)" fill="#a8cefc"/>
      </g>
    </g>
    <g id="Grupo_85309" data-name="Grupo 85309" transform="translate(296.49 100.056)">
      <g id="Grupo_85308" data-name="Grupo 85308" clip-path="url(#clip-path-4)">
        <path id="Trazado_117722" data-name="Trazado 117722" d="M572.253,200.3s.078-.191.244-.559l.744-1.635c.664-1.443,1.641-3.569,2.906-6.322l10.907-23.6.154.114a169.188,169.188,0,0,0-24.994,28.116l-.605.857.378-.979a129.677,129.677,0,0,1,5.779-12.667c2.212-4.291,4.67-8.643,7.195-13.094l.213.183a85.183,85.183,0,0,0-12.414,12.284c-3.873,4.6-7.509,9.607-11.19,14.706l-.254-.158,3.932-7.431,9.176-17.334.229.183a66.688,66.688,0,0,0-11.1,12.7c-3.143,4.536-5.856,9.2-8.491,13.717l-.244-.137L559.579,172.2l.215.12c-6.111,10.621-12.066,19.573-17.265,26.838l-.453.634.294-.722,8.6-21.133,2.294-5.6q.392-.945.6-1.438c.135-.322.21-.484.21-.484s-.059.168-.186.493l-.573,1.447-2.249,5.618L542.54,199.14l-.16-.088c5.176-7.274,11.109-16.233,17.2-26.853l.215.12-14.731,27.054-.245-.138c2.632-4.523,5.345-9.192,8.494-13.742a66.953,66.953,0,0,1,11.146-12.758l.6-.515-.369.7q-4.5,8.5-9.174,17.335l-3.934,7.43-.254-.158c3.681-5.1,7.323-10.108,11.207-14.72A85.35,85.35,0,0,1,575,170.485l.572-.448-.359.632c-2.529,4.449-4.988,8.8-7.2,13.079a129.975,129.975,0,0,0-5.781,12.634l-.227-.121a168.488,168.488,0,0,1,25.076-28.112l.354-.317-.2.43-10.987,23.564-2.953,6.3-.769,1.624c-.174.365-.269.548-.269.548" transform="translate(-525.767 -171.05)" fill="#a8cefc"/>
        <path id="Trazado_117723" data-name="Trazado 117723" d="M521.311,206.735a6.816,6.816,0,0,1,.567-.867c.384-.544.926-1.34,1.58-2.333a76.031,76.031,0,0,0,8.248-16.6c.4-1.121.7-2.034.905-2.669a6.877,6.877,0,0,1,.349-.975,6.774,6.774,0,0,1-.237,1.009c-.168.646-.444,1.571-.816,2.7a66.091,66.091,0,0,1-8.272,16.649c-.679.981-1.249,1.76-1.662,2.284a6.782,6.782,0,0,1-.661.8" transform="translate(-516.983 -177.589)" fill="#a8cefc"/>
      </g>
    </g>
    <g id="Grupo_85311" data-name="Grupo 85311" transform="translate(-0.308 0.128)">
      <g id="Grupo_85310" data-name="Grupo 85310" clip-path="url(#clip-path)">
        <path id="Trazado_117725" data-name="Trazado 117725" d="M688.483,137.81a9.744,9.744,0,0,0-15.249-10.433,8.157,8.157,0,0,0-16.129,2.006,8.445,8.445,0,0,0-8.312-1.144c-2.707,1.13-5.033,4.943-5.033,9.982Z" transform="translate(-271.978 -51.283)" fill="#a8cefc"/>
      </g>
    </g>
    <g id="Grupo_85313" data-name="Grupo 85313" transform="translate(371.471 69.773)">
      <g id="Grupo_85312" data-name="Grupo 85312" clip-path="url(#clip-path-6)">
        <path id="Trazado_117726" data-name="Trazado 117726" d="M685.79,136.411s.688-2,2.3-5.515c1.6-3.519,4.239-8.478,7.7-14.552l.151.129a65.638,65.638,0,0,0-9.164,9c-3.046,3.565-6.037,7.655-9.171,12.008l-.232-.144,10.184-19.266.228.182a51.507,51.507,0,0,0-8.617,9.861c-2.432,3.509-4.546,7.141-6.607,10.678l-.259-.146,11.48-21.027.237.133c-4.68,8.134-9.323,15.133-13.435,20.871l-.517.721.335-.821,6.665-16.331,1.817-4.414.479-1.143c.109-.257.172-.385.172-.385s-.044.136-.144.4l-.452,1.153-1.766,4.434L670.6,138.6l-.182-.1c4.088-5.748,8.708-12.753,13.369-20.885l.237.132-11.457,21.04-.259-.146c2.059-3.538,4.176-7.178,6.617-10.7a51.69,51.69,0,0,1,8.67-9.915l.594-.509-.366.691L677.62,137.468l-.232-.144c3.141-4.348,6.145-8.438,9.208-12.005a65.416,65.416,0,0,1,9.224-9l.41-.321-.259.451c-3.486,6.06-6.149,11-7.778,14.5-.824,1.745-1.413,3.118-1.807,4.048l-.439,1.062c-.1.238-.158.358-.158.358" transform="translate(-654.888 -118.841)" fill="#fff"/>
        <path id="Trazado_117727" data-name="Trazado 117727" d="M649.59,146.847a4.158,4.158,0,0,1,.43-.682c.3-.425.714-1.047,1.22-1.82a60.407,60.407,0,0,0,6.412-12.9c.311-.871.553-1.579.714-2.072a4.205,4.205,0,0,1,.284-.755,4.11,4.11,0,0,1-.172.788c-.126.5-.338,1.224-.625,2.107a50.467,50.467,0,0,1-6.436,12.953c-.53.762-.977,1.366-1.3,1.77a4.085,4.085,0,0,1-.525.613" transform="translate(-646.224 -124.179)" fill="#fff"/>
        <path id="Trazado_117728" data-name="Trazado 117728" d="M637.064,147.91a.506.506,0,0,1,.064-.12l.211-.338.836-1.291,3.147-4.77,10.759-16.127.256.147c-.848,1.766-1.709,3.613-2.562,5.513-2.216,4.927-4.131,9.656-5.693,13.807l-.241-.116a109.237,109.237,0,0,0,6.129-11.714c.658-1.466,1.148-2.634,1.481-3.432.161-.385.287-.688.381-.913a2.11,2.11,0,0,1,.144-.309,2.031,2.031,0,0,1-.1.325c-.085.229-.2.537-.343.928-.309.809-.776,1.988-1.414,3.466a101.8,101.8,0,0,1-6.045,11.787l-.24-.116c1.544-4.162,3.451-8.9,5.67-13.836.855-1.9,1.718-3.751,2.57-5.518l.256.146L641.481,141.5l-3.221,4.721-.877,1.263-.233.323a.529.529,0,0,1-.086.1" transform="translate(-640.926 -122.762)" fill="#fff"/>
      </g>
    </g>
    <g id="Grupo_85315" data-name="Grupo 85315" transform="translate(-0.308 0.128)">
      <g id="Grupo_85314" data-name="Grupo 85314" clip-path="url(#clip-path)">
        <path id="Trazado_117730" data-name="Trazado 117730" d="M289.408,49.578a8.276,8.276,0,0,0-12.952-8.861,6.928,6.928,0,0,0-13.7,1.7,7.171,7.171,0,0,0-7.06-.972c-2.3.96-4.275,4.2-4.275,8.478Z" transform="translate(-106.027 -15.039)" fill="#a8cefc"/>
      </g>
    </g>
    <g id="Grupo_85317" data-name="Grupo 85317" transform="translate(145.087 20.329)">
      <g id="Grupo_85316" data-name="Grupo 85316" clip-path="url(#clip-path-8)">
        <path id="Trazado_117731" data-name="Trazado 117731" d="M287.073,48.346s.032-.108.109-.314l.349-.912c.32-.8.8-1.971,1.491-3.462,1.357-2.99,3.6-7.2,6.536-12.364l.151.13a55.768,55.768,0,0,0-7.779,7.646c-2.586,3.028-5.126,6.5-7.786,10.2l-.232-.144,8.648-16.364.228.182a43.7,43.7,0,0,0-7.314,8.371c-2.065,2.979-3.861,6.063-5.611,9.067l-.259-.146,9.752-17.858.237.133c-3.976,6.908-7.921,12.853-11.416,17.726l-.518.721.336-.821,5.667-13.868,1.548-3.747.408-.969c.093-.218.148-.327.148-.327s-.036.116-.12.338l-.381.98-1.5,3.768-5.58,13.9-.182-.1c3.47-4.883,7.393-10.832,11.351-17.739l.237.133-9.729,17.87-.259-.146c1.748-3.005,3.547-6.1,5.621-9.089a43.892,43.892,0,0,1,7.367-8.425l.594-.509-.366.691-8.669,16.353-.232-.144c2.668-3.692,5.221-7.167,7.823-10.2a55.576,55.576,0,0,1,7.839-7.647l.41-.321-.26.451c-2.962,5.146-5.225,9.338-6.611,12.31-.7,1.481-1.2,2.647-1.538,3.437l-.375.9c-.085.2-.136.3-.136.3" transform="translate(-260.827 -33.423)" fill="#fff"/>
        <path id="Trazado_117732" data-name="Trazado 117732" d="M256.376,57.253a2.983,2.983,0,0,1,.358-.585c.248-.363.6-.892,1.029-1.55a52.205,52.205,0,0,0,5.444-10.956c.266-.738.474-1.339.613-1.756a3.033,3.033,0,0,1,.25-.639,3.021,3.021,0,0,1-.138.672c-.1.428-.282,1.042-.524,1.792a42.281,42.281,0,0,1-5.468,11.005c-.452.646-.834,1.158-1.112,1.5a2.984,2.984,0,0,1-.452.515" transform="translate(-253.517 -38.001)" fill="#fff"/>
        <path id="Trazado_117733" data-name="Trazado 117733" d="M245.737,58.147a2.936,2.936,0,0,1,.23-.391l.707-1.1L249.34,52.6l9.131-13.7.256.147c-.72,1.5-1.451,3.069-2.176,4.682-1.882,4.183-3.509,8.2-4.837,11.724l-.24-.116a93.364,93.364,0,0,0,5.211-9.943c.56-1.244.979-2.235,1.264-2.913l.326-.774a1.436,1.436,0,0,1,.125-.261,1.544,1.544,0,0,1-.085.277l-.289.789c-.26.688-.655,1.69-1.2,2.946A85.954,85.954,0,0,1,251.7,55.476l-.241-.116c1.31-3.536,2.929-7.564,4.814-11.754.726-1.616,1.459-3.186,2.183-4.687l.256.147L249.5,52.71l-2.741,4.006-.748,1.07a2.894,2.894,0,0,1-.275.361" transform="translate(-249.017 -36.789)" fill="#fff"/>
      </g>
    </g>
    <g id="Grupo_85319" data-name="Grupo 85319" transform="translate(-0.308 0.128)">
      <g id="Grupo_85318" data-name="Grupo 85318" clip-path="url(#clip-path)">
        <path id="Trazado_117735" data-name="Trazado 117735" d="M479.878,408a7.455,7.455,0,0,0-11.667-7.982,6.241,6.241,0,0,0-12.341,1.535,6.461,6.461,0,0,0-6.36-.876c-2.071.864-3.851,3.782-3.851,7.637Z" transform="translate(-188.186 -167.247)" fill="#a8cefc"/>
      </g>
    </g>
    <g id="Grupo_85321" data-name="Grupo 85321" transform="translate(257.165 227.968)">
      <g id="Grupo_85320" data-name="Grupo 85320" clip-path="url(#clip-path-10)">
        <path id="Trazado_117736" data-name="Trazado 117736" d="M477.743,406.864s.028-.1.1-.283.178-.467.313-.822c.287-.719.723-1.777,1.341-3.12,1.22-2.694,3.237-6.491,5.883-11.14l.151.13a50.281,50.281,0,0,0-7,6.887c-2.328,2.728-4.616,5.857-7.012,9.188l-.232-.144,7.79-14.742.228.182a39.4,39.4,0,0,0-6.587,7.539c-1.859,2.683-3.477,5.461-5.054,8.167l-.259-.146,8.786-16.086.237.132c-3.583,6.223-7.138,11.578-10.287,15.967l-.518.722.336-.822,5.11-12.491,1.4-3.374.369-.873c.084-.2.135-.293.135-.293s-.032.1-.107.3l-.342.883-1.346,3.4-5.022,12.526-.182-.1c3.125-4.4,6.656-9.759,10.221-15.981l.237.133-8.763,16.1-.259-.146c1.575-2.707,3.2-5.493,5.063-8.189a39.616,39.616,0,0,1,6.64-7.592l.594-.508-.366.691-7.81,14.731-.232-.144c2.4-3.326,4.7-6.456,7.049-9.185a50,50,0,0,1,7.064-6.889l.41-.321-.259.451c-2.669,4.635-4.71,8.41-5.96,11.086-.632,1.334-1.084,2.384-1.388,3.095l-.339.811c-.077.182-.123.272-.123.272" transform="translate(-454.1 -393.421)" fill="#a8cefc"/>
        <path id="Trazado_117737" data-name="Trazado 117737" d="M450.121,414.918c-.038-.028.473-.741,1.242-1.928a47.694,47.694,0,0,0,4.9-9.867c.482-1.329.741-2.167.787-2.154a2.436,2.436,0,0,1-.118.607c-.093.387-.251.939-.467,1.616a37.687,37.687,0,0,1-4.928,9.916c-.409.582-.754,1.042-1.005,1.349a2.461,2.461,0,0,1-.413.461" transform="translate(-447.545 -397.575)" fill="#a8cefc"/>
        <path id="Trazado_117738" data-name="Trazado 117738" d="M440.538,415.717a2.356,2.356,0,0,1,.2-.354l.634-.991,2.4-3.655L452,398.372l.256.146c-.649,1.351-1.306,2.764-1.96,4.217-1.7,3.769-3.161,7.386-4.358,10.56l-.241-.116a84.589,84.589,0,0,0,4.7-8.953c.505-1.121.883-2.013,1.141-2.623l.3-.7a1.242,1.242,0,0,1,.115-.235,1.168,1.168,0,0,1-.074.25l-.257.712c-.234.62-.589,1.524-1.074,2.655a77.123,77.123,0,0,1-4.615,9.027l-.241-.116c1.179-3.186,2.638-6.815,4.336-10.589.654-1.455,1.315-2.871,1.967-4.223l.256.147-8.307,12.288-2.473,3.606-.676.962a2.386,2.386,0,0,1-.25.324" transform="translate(-443.493 -396.477)" fill="#a8cefc"/>
      </g>
    </g>
    <g id="Grupo_85323" data-name="Grupo 85323" transform="translate(-0.308 0.128)">
      <g id="Grupo_85322" data-name="Grupo 85322" clip-path="url(#clip-path)">
        <path id="Trazado_117740" data-name="Trazado 117740" d="M96.513,138.706A11.076,11.076,0,0,0,79.18,126.847a9.272,9.272,0,0,0-18.334,2.281,9.6,9.6,0,0,0-9.449-1.3c-3.077,1.284-5.722,5.618-5.722,11.346Z" transform="translate(-19 -50.687)" fill="#a8cefc"/>
      </g>
    </g>
    <g id="Grupo_85325" data-name="Grupo 85325" transform="translate(26.367 68.959)">
      <g id="Grupo_85324" data-name="Grupo 85324" clip-path="url(#clip-path-12)">
        <path id="Trazado_117741" data-name="Trazado 117741" d="M97.307,143.255s.068-.169.215-.495l.657-1.446c.586-1.278,1.449-3.157,2.567-5.591l9.637-20.867.153.114a149.573,149.573,0,0,0-22.09,24.856l-.6.848.372-.97c2.815-7.348,6.992-14.921,11.469-22.777l.213.183A75.258,75.258,0,0,0,88.929,127.97c-3.423,4.069-6.637,8.491-9.892,13l-.254-.158,3.477-6.569,8.112-15.323.229.182a58.977,58.977,0,0,0-9.81,11.222c-2.778,4.009-5.176,8.129-7.505,12.125l-.245-.137,13.051-23.9.215.121c-5.4,9.389-10.668,17.3-15.266,23.724l-.454.634.294-.722,7.611-18.68c.886-2.16,1.568-3.822,2.031-4.949l.528-1.271c.12-.284.187-.428.187-.428s-.051.149-.163.437l-.5,1.279-1.986,4.968L71.05,142.236l-.16-.088c4.575-6.431,9.819-14.351,15.2-23.74l.215.121L73.286,142.445l-.244-.137c2.326-4,4.724-8.127,7.509-12.15a59.122,59.122,0,0,1,9.855-11.282l.6-.516-.369.7-8.11,15.325-3.477,6.569-.254-.158c3.255-4.507,6.474-8.936,9.909-13.014a75.424,75.424,0,0,1,11.02-10.892l.575-.451-.362.634c-4.483,7.853-8.659,15.406-11.476,22.728l-.227-.122a148.936,148.936,0,0,1,22.172-24.85l.355-.317-.2.43-9.718,20.829-2.613,5.569-.681,1.436c-.155.321-.239.482-.239.482" transform="translate(-56.212 -117.399)" fill="#fff"/>
        <path id="Trazado_117742" data-name="Trazado 117742" d="M52.305,148.979a5.317,5.317,0,0,1,.5-.771c.337-.482.815-1.186,1.392-2.065a70.181,70.181,0,0,0,4.089-7.114,69.978,69.978,0,0,0,3.2-7.557c.353-.99.625-1.8.806-2.357a5.414,5.414,0,0,1,.315-.86,5.284,5.284,0,0,1-.2.894c-.146.571-.389,1.389-.716,2.392a58.259,58.259,0,0,1-3.133,7.621,58.131,58.131,0,0,1-4.182,7.1c-.6.867-1.107,1.555-1.474,2.016a5.293,5.293,0,0,1-.59.7" transform="translate(-48.479 -123.213)" fill="#fff"/>
      </g>
    </g>
  </g>
</svg>
