<svg id="Grupo_85329" data-name="Grupo 85329" xmlns="http://www.w3.org/2000/svg" xmlns:xlink="http://www.w3.org/1999/xlink" width="327.901" height="283.317" viewBox="0 0 327.901 283.317">
  <defs>
    <clipPath id="clip-path">
      <rect id="Rectángulo_49101" data-name="Rectángulo 49101" width="327.901" height="283.317" fill="none"/>
    </clipPath>
  </defs>
  <g id="Grupo_85328" data-name="Grupo 85328" clip-path="url(#clip-path)">
    <path id="Trazado_117745" data-name="Trazado 117745" d="M315.844,233.914H11.108A11.107,11.107,0,0,1,0,222.807V20.263A11.108,11.108,0,0,1,11.108,9.155H315.844a11.108,11.108,0,0,1,11.108,11.108V222.807a11.107,11.107,0,0,1-11.108,11.107" transform="translate(0 -1.374)" fill="#fff"/>
    <rect id="Rectángulo_49099" data-name="Rectángulo 49099" width="104.436" height="9.913" transform="translate(205.543 53.361)" fill="#d3e5e8"/>
    <path id="Trazado_117746" data-name="Trazado 117746" d="M26.543,17.233a4.536,4.536,0,1,0,4.537,4.536,4.537,4.537,0,0,0-4.537-4.536" transform="translate(-3.303 -2.586)" fill="#acedf8"/>
    <path id="Trazado_117747" data-name="Trazado 117747" d="M63.209,17.233a4.536,4.536,0,1,0,4.537,4.536,4.537,4.537,0,0,0-4.537-4.536" transform="translate(-8.805 -2.586)" fill="#acedf8"/>
    <path id="Trazado_117748" data-name="Trazado 117748" d="M99.875,17.233a4.536,4.536,0,1,0,4.537,4.536,4.537,4.537,0,0,0-4.537-4.536" transform="translate(-14.308 -2.586)" fill="#acedf8"/>
    <path id="Trazado_117749" data-name="Trazado 117749" d="M136.541,17.233a4.536,4.536,0,1,0,4.537,4.536,4.537,4.537,0,0,0-4.537-4.536" transform="translate(-19.811 -2.586)" fill="#acedf8"/>
    <path id="Trazado_117750" data-name="Trazado 117750" d="M173.207,17.233a4.536,4.536,0,1,0,4.537,4.536,4.537,4.537,0,0,0-4.537-4.536" transform="translate(-25.314 -2.586)" fill="#acedf8"/>
    <path id="Trazado_117751" data-name="Trazado 117751" d="M209.873,17.233a4.536,4.536,0,1,0,4.537,4.536,4.537,4.537,0,0,0-4.537-4.536" transform="translate(-30.817 -2.586)" fill="#acedf8"/>
    <path id="Trazado_117752" data-name="Trazado 117752" d="M246.54,17.233a4.536,4.536,0,1,0,4.537,4.536,4.537,4.537,0,0,0-4.537-4.536" transform="translate(-36.319 -2.586)" fill="#acedf8"/>
    <path id="Trazado_117753" data-name="Trazado 117753" d="M283.206,17.233a4.536,4.536,0,1,0,4.537,4.536,4.537,4.537,0,0,0-4.537-4.536" transform="translate(-41.822 -2.586)" fill="#acedf8"/>
    <path id="Trazado_117754" data-name="Trazado 117754" d="M319.872,17.233a4.536,4.536,0,1,0,4.537,4.536,4.537,4.537,0,0,0-4.537-4.536" transform="translate(-47.325 -2.586)" fill="#acedf8"/>
    <path id="Trazado_117755" data-name="Trazado 117755" d="M356.538,17.233a4.536,4.536,0,1,0,4.537,4.536,4.537,4.537,0,0,0-4.537-4.536" transform="translate(-52.828 -2.586)" fill="#acedf8"/>
    <path id="Trazado_117756" data-name="Trazado 117756" d="M26.807,20.141a3.05,3.05,0,0,0,3.05-3.05,10.967,10.967,0,0,1,16.806-9.31h8.851L53.642,5.756A17.093,17.093,0,0,0,23.757,17.092a3.049,3.049,0,0,0,3.05,3.05" transform="translate(-3.565)" fill="#6b949c"/>
    <path id="Trazado_117757" data-name="Trazado 117757" d="M63.469,20.141a3.049,3.049,0,0,0,3.05-3.05,10.967,10.967,0,0,1,16.806-9.31h8.851L90.3,5.756A17.093,17.093,0,0,0,60.419,17.092a3.05,3.05,0,0,0,3.05,3.05" transform="translate(-9.068)" fill="#56767d"/>
    <path id="Trazado_117758" data-name="Trazado 117758" d="M100.132,20.141a3.05,3.05,0,0,0,3.05-3.05,10.967,10.967,0,0,1,16.806-9.31h8.851l-1.872-2.026A17.093,17.093,0,0,0,97.082,17.092a3.049,3.049,0,0,0,3.05,3.05" transform="translate(-14.57)" fill="#6b949c"/>
    <path id="Trazado_117759" data-name="Trazado 117759" d="M136.795,20.141a3.05,3.05,0,0,0,3.05-3.05,10.967,10.967,0,0,1,16.806-9.31H165.5L163.63,5.756a17.093,17.093,0,0,0-29.885,11.336,3.049,3.049,0,0,0,3.05,3.05" transform="translate(-20.072)" fill="#56767d"/>
    <path id="Trazado_117760" data-name="Trazado 117760" d="M173.458,20.141a3.05,3.05,0,0,0,3.05-3.05,10.967,10.967,0,0,1,16.806-9.31h8.851l-1.872-2.026a17.093,17.093,0,0,0-29.885,11.336,3.049,3.049,0,0,0,3.049,3.05" transform="translate(-25.575)" fill="#6b949c"/>
    <path id="Trazado_117761" data-name="Trazado 117761" d="M210.12,20.141a3.049,3.049,0,0,0,3.05-3.05,10.967,10.967,0,0,1,16.806-9.31h8.852l-1.872-2.026A17.093,17.093,0,0,0,207.07,17.092a3.05,3.05,0,0,0,3.05,3.05" transform="translate(-31.077)" fill="#56767d"/>
    <path id="Trazado_117762" data-name="Trazado 117762" d="M246.783,20.141a3.05,3.05,0,0,0,3.05-3.05,10.967,10.967,0,0,1,16.806-9.31h8.851l-1.872-2.026a17.093,17.093,0,0,0-29.885,11.336,3.049,3.049,0,0,0,3.05,3.05" transform="translate(-36.579)" fill="#6b949c"/>
    <path id="Trazado_117763" data-name="Trazado 117763" d="M283.446,20.141a3.05,3.05,0,0,0,3.049-3.05A10.967,10.967,0,0,1,303.3,7.782h8.851l-1.872-2.026A17.093,17.093,0,0,0,280.4,17.092a3.049,3.049,0,0,0,3.05,3.05" transform="translate(-42.081)" fill="#56767d"/>
    <path id="Trazado_117764" data-name="Trazado 117764" d="M320.109,20.141a3.049,3.049,0,0,0,3.049-3.05,10.967,10.967,0,0,1,16.806-9.31h8.851l-1.872-2.026a17.093,17.093,0,0,0-29.885,11.336,3.049,3.049,0,0,0,3.05,3.05" transform="translate(-47.584)" fill="#6b949c"/>
    <path id="Trazado_117765" data-name="Trazado 117765" d="M370.09,0h-.146c-9.426,0-16.222,7.668-16.222,17.093a3.05,3.05,0,0,0,3.271,3.042,3.21,3.21,0,0,0,2.83-3.255c.114-5.964,4.13-10.781,10.121-10.781a5.879,5.879,0,0,1,5.033,3.482,11.09,11.09,0,0,1,5.06,9.309C383.409,8.644,377.278.062,370.09,0" transform="translate(-53.086 0)" fill="#56767d"/>
    <path id="Trazado_117766" data-name="Trazado 117766" d="M190.394,49.128H25.588a3.746,3.746,0,0,1,0-7.492H190.394a3.746,3.746,0,0,1,0,7.492" transform="translate(-3.278 -6.249)" fill="#ffd54f"/>
    <path id="Trazado_117767" data-name="Trazado 117767" d="M342.528,49.128H245.584a3.746,3.746,0,1,1,0-7.492h96.944a3.746,3.746,0,0,1,0,7.492" transform="translate(-36.295 -6.249)" fill="#ffd54f"/>
    <path id="Trazado_117768" data-name="Trazado 117768" d="M340.983,69.712H248.825a1.332,1.332,0,1,1,0-2.664h92.159a1.332,1.332,0,1,1,0,2.664" transform="translate(-37.143 -10.062)" fill="#fff"/>
    <path id="Trazado_117769" data-name="Trazado 117769" d="M91.368,71.7H25.587a3.746,3.746,0,1,1,0-7.491H91.368a3.746,3.746,0,1,1,0,7.491" transform="translate(-3.278 -9.636)" fill="#ffd54f"/>
    <path id="Trazado_117770" data-name="Trazado 117770" d="M204.465,71.7h-85.12a3.746,3.746,0,1,1,0-7.491h85.12a3.746,3.746,0,1,1,0,7.491" transform="translate(-17.349 -9.636)" fill="#ffd54f"/>
    <path id="Rectángulo_49100" data-name="Rectángulo 49100" d="M3.759,0h283.9a3.76,3.76,0,0,1,3.76,3.76V137.374a3.76,3.76,0,0,1-3.76,3.76H3.759A3.759,3.759,0,0,1,0,137.375V3.759A3.759,3.759,0,0,1,3.759,0Z" transform="translate(18.025 74.859)" fill="none" stroke="#d3e5e8" stroke-linecap="round" stroke-linejoin="round" stroke-width="2"/>
    <path id="Trazado_117771" data-name="Trazado 117771" d="M62.993,98.622H35.209a4.142,4.142,0,0,0-4.13,4.13v27.784a4.142,4.142,0,0,0,4.13,4.13H62.993a4.142,4.142,0,0,0,4.13-4.13V102.752a4.142,4.142,0,0,0-4.13-4.13" transform="translate(-4.664 -14.801)" fill="#34af00"/>
    <path id="Trazado_117772" data-name="Trazado 117772" d="M119.137,98.622H91.353a4.142,4.142,0,0,0-4.13,4.13v27.784a4.142,4.142,0,0,0,4.13,4.13h27.784a4.142,4.142,0,0,0,4.13-4.13V102.752a4.142,4.142,0,0,0-4.13-4.13" transform="translate(-13.09 -14.801)" fill="#d3e5e8"/>
    <path id="Trazado_117773" data-name="Trazado 117773" d="M175.282,98.622H147.5a4.142,4.142,0,0,0-4.13,4.13v27.784a4.142,4.142,0,0,0,4.13,4.13h27.784a4.142,4.142,0,0,0,4.13-4.13V102.752a4.142,4.142,0,0,0-4.13-4.13" transform="translate(-21.516 -14.801)" fill="#d3e5e8"/>
    <path id="Trazado_117774" data-name="Trazado 117774" d="M231.427,98.622H203.643a4.142,4.142,0,0,0-4.13,4.13v27.784a4.142,4.142,0,0,0,4.13,4.13h27.784a4.142,4.142,0,0,0,4.13-4.13V102.752a4.142,4.142,0,0,0-4.13-4.13" transform="translate(-29.943 -14.801)" fill="#ffd54f"/>
    <path id="Trazado_117775" data-name="Trazado 117775" d="M287.572,98.622H259.788a4.142,4.142,0,0,0-4.13,4.13v27.784a4.142,4.142,0,0,0,4.13,4.13h27.784a4.142,4.142,0,0,0,4.13-4.13V102.752a4.142,4.142,0,0,0-4.13-4.13" transform="translate(-38.369 -14.801)" fill="#d3e5e8"/>
    <path id="Trazado_117776" data-name="Trazado 117776" d="M343.717,98.622H315.933a4.142,4.142,0,0,0-4.13,4.13v27.784a4.142,4.142,0,0,0,4.13,4.13h27.784a4.142,4.142,0,0,0,4.13-4.13V102.752a4.142,4.142,0,0,0-4.13-4.13" transform="translate(-46.795 -14.801)" fill="#d3e5e8"/>
    <path id="Trazado_117777" data-name="Trazado 117777" d="M62.993,149.9H35.209a4.142,4.142,0,0,0-4.13,4.13v27.784a4.142,4.142,0,0,0,4.13,4.13H62.993a4.142,4.142,0,0,0,4.13-4.13V154.031a4.142,4.142,0,0,0-4.13-4.13" transform="translate(-4.664 -22.497)" fill="#d3e5e8"/>
    <path id="Trazado_117778" data-name="Trazado 117778" d="M119.137,149.9H91.353a4.142,4.142,0,0,0-4.13,4.13v27.784a4.142,4.142,0,0,0,4.13,4.13h27.784a4.142,4.142,0,0,0,4.13-4.13V154.031a4.142,4.142,0,0,0-4.13-4.13" transform="translate(-13.09 -22.497)" fill="#d3e5e8"/>
    <path id="Trazado_117779" data-name="Trazado 117779" d="M175.282,149.9H147.5a4.142,4.142,0,0,0-4.13,4.13v27.784a4.142,4.142,0,0,0,4.13,4.13h27.784a4.142,4.142,0,0,0,4.13-4.13V154.031a4.142,4.142,0,0,0-4.13-4.13" transform="translate(-21.516 -22.497)" fill="#d3e5e8"/>
    <path id="Trazado_117780" data-name="Trazado 117780" d="M231.427,149.9H203.643a4.142,4.142,0,0,0-4.13,4.13v27.784a4.142,4.142,0,0,0,4.13,4.13h27.784a4.142,4.142,0,0,0,4.13-4.13V154.031a4.142,4.142,0,0,0-4.13-4.13" transform="translate(-29.943 -22.497)" fill="#ffd54f"/>
    <path id="Trazado_117781" data-name="Trazado 117781" d="M287.572,149.9H259.788a4.142,4.142,0,0,0-4.13,4.13v27.784a4.142,4.142,0,0,0,4.13,4.13h27.784a4.142,4.142,0,0,0,4.13-4.13V154.031a4.142,4.142,0,0,0-4.13-4.13" transform="translate(-38.369 -22.497)" fill="#d3e5e8"/>
    <path id="Trazado_117782" data-name="Trazado 117782" d="M343.717,149.9H315.933a4.142,4.142,0,0,0-4.13,4.13v27.784a4.142,4.142,0,0,0,4.13,4.13h27.784a4.142,4.142,0,0,0,4.13-4.13V154.031a4.142,4.142,0,0,0-4.13-4.13" transform="translate(-46.795 -22.497)" fill="#d3e5e8"/>
    <path id="Trazado_117783" data-name="Trazado 117783" d="M62.993,201.18H35.209a4.142,4.142,0,0,0-4.13,4.13v27.784a4.142,4.142,0,0,0,4.13,4.13H62.993a4.142,4.142,0,0,0,4.13-4.13V205.31a4.142,4.142,0,0,0-4.13-4.13" transform="translate(-4.664 -30.193)" fill="#d3e5e8"/>
    <path id="Trazado_117784" data-name="Trazado 117784" d="M119.137,201.18H91.353a4.142,4.142,0,0,0-4.13,4.13v27.784a4.142,4.142,0,0,0,4.13,4.13h27.784a4.142,4.142,0,0,0,4.13-4.13V205.31a4.142,4.142,0,0,0-4.13-4.13" transform="translate(-13.09 -30.193)" fill="#34af00"/>
    <path id="Trazado_117785" data-name="Trazado 117785" d="M175.282,201.18H147.5a4.142,4.142,0,0,0-4.13,4.13v27.784a4.142,4.142,0,0,0,4.13,4.13h27.784a4.142,4.142,0,0,0,4.13-4.13V205.31a4.142,4.142,0,0,0-4.13-4.13" transform="translate(-21.516 -30.193)" fill="#d3e5e8"/>
    <path id="Trazado_117786" data-name="Trazado 117786" d="M231.427,201.18H203.643a4.142,4.142,0,0,0-4.13,4.13v27.784a4.142,4.142,0,0,0,4.13,4.13h27.784a4.142,4.142,0,0,0,4.13-4.13V205.31a4.142,4.142,0,0,0-4.13-4.13" transform="translate(-29.943 -30.193)" fill="#d3e5e8"/>
    <path id="Trazado_117787" data-name="Trazado 117787" d="M287.572,201.18H259.788a4.142,4.142,0,0,0-4.13,4.13v27.784a4.142,4.142,0,0,0,4.13,4.13h27.784a4.142,4.142,0,0,0,4.13-4.13V205.31a4.142,4.142,0,0,0-4.13-4.13" transform="translate(-38.369 -30.193)" fill="#34af00"/>
    <path id="Trazado_117788" data-name="Trazado 117788" d="M343.717,201.18H315.933a4.142,4.142,0,0,0-4.13,4.13v27.784a4.142,4.142,0,0,0,4.13,4.13h27.784a4.142,4.142,0,0,0,4.13-4.13V205.31a4.142,4.142,0,0,0-4.13-4.13" transform="translate(-46.795 -30.193)" fill="#d3e5e8"/>
    <path id="Trazado_117789" data-name="Trazado 117789" d="M42.111,126.729h0a2.468,2.468,0,0,1,0-3.48l13.594-13.594a2.461,2.461,0,0,1,3.48,3.48L45.592,126.729a2.468,2.468,0,0,1-3.48,0" transform="translate(-6.212 -16.349)" fill="#fff"/>
    <path id="Trazado_117790" data-name="Trazado 117790" d="M42.111,109.654h0a2.468,2.468,0,0,1,3.48,0l13.594,13.594a2.461,2.461,0,0,1-3.48,3.48L42.111,113.135a2.468,2.468,0,0,1,0-3.48" transform="translate(-6.212 -16.349)" fill="#fff"/>
    <path id="Trazado_117791" data-name="Trazado 117791" d="M97.881,229.286h0a2.468,2.468,0,0,1,0-3.48l13.594-13.594a2.461,2.461,0,1,1,3.48,3.48l-13.594,13.594a2.468,2.468,0,0,1-3.48,0" transform="translate(-14.582 -31.741)" fill="#fff"/>
    <path id="Trazado_117792" data-name="Trazado 117792" d="M97.881,212.212h0a2.468,2.468,0,0,1,3.48,0l13.594,13.594a2.461,2.461,0,0,1-3.48,3.48L97.881,215.693a2.468,2.468,0,0,1,0-3.48" transform="translate(-14.582 -31.741)" fill="#fff"/>
    <path id="Trazado_117793" data-name="Trazado 117793" d="M172.889,117.914h-20.9a1.625,1.625,0,0,0,0,3.25h20.9a1.625,1.625,0,1,0,0-3.25" transform="translate(-22.567 -17.696)" fill="#fff"/>
    <path id="Trazado_117794" data-name="Trazado 117794" d="M151.992,113.178h20.9a1.625,1.625,0,1,0,0-3.25h-20.9a1.625,1.625,0,0,0,0,3.25" transform="translate(-22.567 -16.498)" fill="#fff"/>
    <path id="Trazado_117795" data-name="Trazado 117795" d="M172.889,125.9h-20.9a1.625,1.625,0,1,0,0,3.25h20.9a1.625,1.625,0,1,0,0-3.25" transform="translate(-22.567 -18.895)" fill="#fff"/>
    <path id="Trazado_117796" data-name="Trazado 117796" d="M285.179,220.471h-20.9a1.625,1.625,0,0,0,0,3.251h20.9a1.625,1.625,0,0,0,0-3.251" transform="translate(-39.419 -33.088)" fill="#fff"/>
    <path id="Trazado_117797" data-name="Trazado 117797" d="M264.282,215.735h20.9a1.625,1.625,0,0,0,0-3.25h-20.9a1.625,1.625,0,0,0,0,3.25" transform="translate(-39.419 -31.889)" fill="#fff"/>
    <path id="Trazado_117798" data-name="Trazado 117798" d="M285.179,228.458h-20.9a1.625,1.625,0,0,0,0,3.25h20.9a1.625,1.625,0,0,0,0-3.25" transform="translate(-39.419 -34.287)" fill="#fff"/>
    <path id="Trazado_117799" data-name="Trazado 117799" d="M275.515,106.108l2.959,6a.759.759,0,0,0,.569.413l6.616.961a.755.755,0,0,1,.418,1.288l-4.787,4.666a.754.754,0,0,0-.218.668l1.13,6.589a.755.755,0,0,1-1.1.8l-5.917-3.111a.756.756,0,0,0-.7,0l-5.917,3.111a.755.755,0,0,1-1.1-.8l1.13-6.589a.754.754,0,0,0-.218-.668l-4.787-4.666a.755.755,0,0,1,.418-1.288l6.616-.961a.759.759,0,0,0,.569-.413l2.959-6a.755.755,0,0,1,1.354,0" transform="translate(-39.526 -15.861)" fill="#fff"/>
    <path id="Trazado_117800" data-name="Trazado 117800" d="M218.319,103.849A13.579,13.579,0,1,0,231.9,117.428a13.579,13.579,0,0,0-13.579-13.579m0,25.2a11.623,11.623,0,1,1,11.623-11.623,11.623,11.623,0,0,1-11.623,11.623" transform="translate(-30.727 -15.586)" fill="#fff"/>
    <path id="Trazado_117801" data-name="Trazado 117801" d="M220.426,117.884a1.651,1.651,0,1,0,1.651,1.651,1.651,1.651,0,0,0-1.651-1.651" transform="translate(-32.833 -17.692)" fill="#fff"/>
    <path id="Trazado_117802" data-name="Trazado 117802" d="M217.794,115.653l-3.327-4.124a.668.668,0,0,0-1.039.839l3.38,4.189a2.25,2.25,0,0,1,.986-.9" transform="translate(-32.009 -16.701)" fill="#fff"/>
    <path id="Trazado_117803" data-name="Trazado 117803" d="M225.942,114.579,223.3,116.36a2.249,2.249,0,0,1,.906,1.758l2.83-1.911a.982.982,0,0,0-1.1-1.628" transform="translate(-33.513 -17.171)" fill="#fff"/>
    <path id="Trazado_117804" data-name="Trazado 117804" d="M53.147,179.138h0a5.1,5.1,0,0,1-5.355-4.8l-.348-6.371a5.085,5.085,0,0,1,10.155-.555l.348,6.371a5.1,5.1,0,0,1-4.8,5.354" transform="translate(-7.119 -24.404)" fill="#ffbe84"/>
    <path id="Trazado_117805" data-name="Trazado 117805" d="M25.053,224.191l-.136,0a5.1,5.1,0,0,1-4.964-5.231c.728-27.749,19.5-40.58,20.3-41.113a5.1,5.1,0,0,1,5.677,8.473c-.675.462-15.2,10.666-15.779,32.907a5.1,5.1,0,0,1-5.1,4.966" transform="translate(-2.994 -26.562)" fill="#008f75"/>
    <path id="Trazado_117806" data-name="Trazado 117806" d="M37.8,307.5a5.081,5.081,0,0,1-2.378-.592l-8.554-4.52a5.1,5.1,0,0,1-2.207-6.731l4.6-9.494a5.1,5.1,0,1,1,9.179,4.445l-2.452,5.063,4.2,2.219A5.1,5.1,0,0,1,37.8,307.5" transform="translate(-3.624 -42.515)" fill="#634e47"/>
    <path id="Trazado_117807" data-name="Trazado 117807" d="M25.121,225.092h0a4.714,4.714,0,0,1,4.7,4.7v4.594a4.7,4.7,0,1,1-9.4,0v-4.594a4.714,4.714,0,0,1,4.7-4.7" transform="translate(-3.065 -33.781)" fill="#ffbe84"/>
    <path id="Trazado_117808" data-name="Trazado 117808" d="M4.083,259.916l24.57,5.544a3.755,3.755,0,0,0,4.476-2.829l5.544-24.57a3.755,3.755,0,0,0-2.829-4.477l-24.57-5.543A3.756,3.756,0,0,0,6.8,230.87L1.256,255.44a3.754,3.754,0,0,0,2.828,4.476" transform="translate(-0.175 -34.21)" fill="#34af00"/>
    <path id="Trazado_117809" data-name="Trazado 117809" d="M27.557,228.111h0a1.587,1.587,0,0,1,2.206-.387l4.159,2.918a1.583,1.583,0,1,1-1.818,2.591l-4.16-2.918a1.588,1.588,0,0,1-.387-2.2" transform="translate(-4.093 -34.134)" fill="#ffbe84"/>
    <path id="Trazado_117810" data-name="Trazado 117810" d="M33.925,287a5.952,5.952,0,0,1-5.433-8.368l9-20.246.211-26.824a5.949,5.949,0,0,1,5.949-5.9H43.7a5.95,5.95,0,0,1,5.9,6l-.221,28.063a5.932,5.932,0,0,1-.513,2.37L39.364,283.47A5.952,5.952,0,0,1,33.925,287" transform="translate(-4.199 -33.867)" fill="#004057"/>
    <path id="Trazado_117811" data-name="Trazado 117811" d="M58.77,224.683H45.251c-4.063,0-7.226-3.694-7.035-8.095l1.466-33.644a6.569,6.569,0,0,1,6.566-6.167H57.773a6.568,6.568,0,0,1,6.565,6.167L65.8,216.588c.192,4.4-2.971,8.095-7.034,8.095" transform="translate(-5.734 -26.53)" fill="#00b191"/>
    <path id="Trazado_117812" data-name="Trazado 117812" d="M64.582,312.322a5.1,5.1,0,0,1-5.1-5.1v-11.5a5.1,5.1,0,0,1,10.2,0v4.923l4.113-1.06a5.1,5.1,0,1,1,2.546,9.875l-10.485,2.7a5.045,5.045,0,0,1-1.273.162" transform="translate(-8.927 -43.616)" fill="#80655c"/>
    <path id="Trazado_117813" data-name="Trazado 117813" d="M69.043,183.062a30.6,30.6,0,0,1-7.568-.89,5.1,5.1,0,0,1,2.7-9.834c.183.046,8.6,2.172,15.02-2.432,4.913-3.52,7.74-10.247,8.4-19.992a5.1,5.1,0,0,1,10.176.69c-.882,13-5.172,22.309-12.751,27.674a27.456,27.456,0,0,1-15.982,4.783" transform="translate(-8.665 -21.785)" fill="#00b191"/>
    <path id="Trazado_117814" data-name="Trazado 117814" d="M64.019,293.97a5.949,5.949,0,0,1-5.949-5.949V258.4l-2.3-25.244a5.949,5.949,0,0,1,11.85-1.082l2.33,25.514q.024.269.025.541V288.02a5.949,5.949,0,0,1-5.949,5.949" transform="translate(-8.365 -34.017)" fill="#00516e"/>
    <path id="Trazado_117815" data-name="Trazado 117815" d="M38.209,225.949V227.4a11.118,11.118,0,0,0,10.845,11.312h5.914A11.118,11.118,0,0,0,65.813,227.4v-1.455Z" transform="translate(-5.734 -33.91)" fill="#00516e"/>
    <path id="Trazado_117816" data-name="Trazado 117816" d="M55.184,166.986h0a13.514,13.514,0,0,1-16.234-9.979l-1.775-7.439a13.474,13.474,0,1,1,26.212-6.255l1.775,7.439a13.514,13.514,0,0,1-9.979,16.234" transform="translate(-5.524 -19.955)" fill="#ffbe84"/>
    <path id="Trazado_117817" data-name="Trazado 117817" d="M44.977,163.861h0a5.615,5.615,0,0,1-6.745-4.146l-3.69-15.462a9.664,9.664,0,1,1,18.8-4.486l1.8,7.552a13.77,13.77,0,0,1-10.168,16.541" transform="translate(-5.145 -19.863)" fill="#634e47"/>
    <path id="Trazado_117818" data-name="Trazado 117818" d="M56.921,143.473l-10.3,2.459A6.339,6.339,0,0,1,39,141.252l-.455-1.9a6.339,6.339,0,0,1,4.681-7.614l15.326-3.658a4.733,4.733,0,0,1,5.684,3.494,9.911,9.911,0,0,1-7.318,11.9" transform="translate(-5.759 -19.202)" fill="#634e47"/>
    <path id="Trazado_117819" data-name="Trazado 117819" d="M61.467,155.284h0a3.189,3.189,0,0,1-3.831-2.354l-.75-3.141a3.18,3.18,0,1,1,6.186-1.475l.749,3.14a3.189,3.189,0,0,1-2.354,3.831" transform="translate(-8.524 -21.892)" fill="#ffbe84"/>
    <path id="Trazado_117820" data-name="Trazado 117820" d="M95.96,148.5h0a1.587,1.587,0,0,1-2.206.387L89.6,145.97a1.583,1.583,0,1,1,1.818-2.591l4.16,2.917a1.589,1.589,0,0,1,.387,2.206" transform="translate(-13.345 -21.475)" fill="#ffbe84"/>
    <path id="Trazado_117821" data-name="Trazado 117821" d="M114.087,110.41l-24.571-5.544a3.755,3.755,0,0,0-4.476,2.829L79.5,132.264a3.754,3.754,0,0,0,2.827,4.477l24.57,5.543a3.755,3.755,0,0,0,4.476-2.828l5.543-24.57a3.753,3.753,0,0,0-2.827-4.476" transform="translate(-11.917 -15.724)" fill="#ffd54f"/>
    <path id="Trazado_117822" data-name="Trazado 117822" d="M98.029,150.122h0a4.713,4.713,0,0,1-4.7-4.7v-4.593a4.7,4.7,0,1,1,9.4,0v4.593a4.713,4.713,0,0,1-4.7,4.7" transform="translate(-14.007 -20.43)" fill="#ffbe84"/>
    <path id="Trazado_117823" data-name="Trazado 117823" d="M151.651,233.789h0a5.1,5.1,0,0,1-5.354-4.8l-.348-6.371a5.085,5.085,0,0,1,10.155-.555l.348,6.371a5.1,5.1,0,0,1-4.8,5.354" transform="translate(-21.902 -32.605)" fill="#ffbe84"/>
    <path id="Trazado_117824" data-name="Trazado 117824" d="M121.751,329.205a6.079,6.079,0,0,1-.688-.04,5.95,5.95,0,0,1-5.23-6.592l1.068-9.27a5.949,5.949,0,0,1,4.717-5.147l11.612-2.263a6.139,6.139,0,0,1,7.317,4.46c.659,3.22-2.437,6.67-5.655,7.33l-6.663,1.266-.575,4.987a5.952,5.952,0,0,1-5.9,5.269" transform="translate(-17.378 -45.888)" fill="#002f40"/>
    <path id="Trazado_117825" data-name="Trazado 117825" d="M133.68,313.862a5.95,5.95,0,0,1-1.032-11.809l13.227-2.344-8.52-13.148a5.949,5.949,0,1,1,9.986-6.47l13.4,20.675a5.95,5.95,0,0,1-3.954,9.093l-22.059,3.911a6,6,0,0,1-1.045.092" transform="translate(-19.17 -41.628)" fill="#4a3a35"/>
    <path id="Trazado_117826" data-name="Trazado 117826" d="M143.6,234.5a5.134,5.134,0,0,1-4.648-2.962c-.358-.767-8.593-19.065,5.87-43.067a5.1,5.1,0,1,1,8.735,5.264c-11.523,19.125-5.6,32.954-5.343,33.534A5.095,5.095,0,0,1,143.6,234.5" transform="translate(-20.456 -27.915)" fill="#003c52"/>
    <path id="Trazado_117827" data-name="Trazado 117827" d="M152.756,191.193h0a1.588,1.588,0,0,0,1,2l4.817,1.613a1.583,1.583,0,1,0,1.005-3l-4.817-1.614a1.588,1.588,0,0,0-2,1" transform="translate(-22.913 -28.532)" fill="#ffbe84"/>
    <path id="Trazado_117828" data-name="Trazado 117828" d="M165.716,150.115l19.053,16.475a3.756,3.756,0,0,1,.383,5.281l-16.475,19.053a3.756,3.756,0,0,1-5.281.383l-19.053-16.475a3.754,3.754,0,0,1-.383-5.281L160.436,150.5a3.754,3.754,0,0,1,5.281-.383" transform="translate(-21.469 -22.393)" fill="#34af00"/>
    <path id="Trazado_117829" data-name="Trazado 117829" d="M149.1,190.111h0a4.714,4.714,0,0,0,6.572.99l3.7-2.728a4.7,4.7,0,0,0-5.582-7.563l-3.7,2.728a4.714,4.714,0,0,0-.99,6.572" transform="translate(-22.24 -26.999)" fill="#ffbe84"/>
    <path id="Trazado_117830" data-name="Trazado 117830" d="M157.275,279.334H143.756c-4.063,0-7.226-3.694-7.035-8.095l1.466-33.644a6.569,6.569,0,0,1,6.566-6.167h11.525a6.568,6.568,0,0,1,6.565,6.167l1.466,33.644c.192,4.4-2.971,8.095-7.034,8.095" transform="translate(-20.518 -34.732)" fill="#00516e"/>
    <path id="Trazado_117831" data-name="Trazado 117831" d="M184.5,327.461a5.951,5.951,0,0,1-5.95-5.949l.01-9.941c0-3.286,2.653-7.512,5.939-7.512A6.045,6.045,0,0,1,190.566,310l-.263,3.836,3.2-.79a5.949,5.949,0,0,1,2.97,11.522l-10.485,2.7a5.94,5.94,0,0,1-1.485.189" transform="translate(-26.796 -45.633)" fill="#004057"/>
    <path id="Trazado_117832" data-name="Trazado 117832" d="M181.177,247.866c-14.792,0-23.413-6.342-23.9-6.713a5.1,5.1,0,0,1,6.12-8.158c.578.42,12.849,9.039,33.9,1.8a5.1,5.1,0,0,1,3.316,9.645,59.6,59.6,0,0,1-19.439,3.427" transform="translate(-23.3 -34.816)" fill="#00516e"/>
    <path id="Trazado_117833" data-name="Trazado 117833" d="M180.856,312.914c-.114,0-.228,0-.343-.01a5.949,5.949,0,0,1-5.6-6.277l1.226-21.559-14.322,4.052a5.949,5.949,0,1,1-3.24-11.449l22.356-6.325a5.948,5.948,0,0,1,7.559,6.063l-1.7,29.893a5.949,5.949,0,0,1-5.934,5.612" transform="translate(-23.149 -40.69)" fill="#634e47"/>
    <path id="Trazado_117834" data-name="Trazado 117834" d="M136.714,278.909v1.455a11.118,11.118,0,0,0,10.845,11.312h5.914a11.118,11.118,0,0,0,10.845-11.312v-1.455Z" transform="translate(-20.518 -41.858)" fill="#634e47"/>
    <path id="Trazado_117835" data-name="Trazado 117835" d="M151.6,222.158h0a13.515,13.515,0,0,1-16.085-10.218l-1.665-7.465a13.474,13.474,0,1,1,26.3-5.866l1.665,7.464A13.514,13.514,0,0,1,151.6,222.158" transform="translate(-20.039 -28.225)" fill="#ffbe84"/>
    <path id="Trazado_117836" data-name="Trazado 117836" d="M157.539,206.638s7.07-.934,8.388.688c2.194,2.7,3.656,14.128-1.887,14.6-6.5.549-8.4-11.464-6.5-15.283" transform="translate(-23.538 -30.972)" fill="#f76d0f"/>
    <path id="Trazado_117837" data-name="Trazado 117837" d="M141.612,218.711h0a5.614,5.614,0,0,1-6.683-4.245l-2.432-10.9a14.435,14.435,0,0,1,10.914-17.18,4.951,4.951,0,0,1,5.893,3.743l2.72,12.193a13.77,13.77,0,0,1-10.412,16.389" transform="translate(-19.833 -27.955)" fill="#f76d0f"/>
    <path id="Trazado_117838" data-name="Trazado 117838" d="M151.26,199.363,143.48,201.1a6.39,6.39,0,0,1-7.605-4.831c-.985-4.416,3.658-9.245,8.075-10.23l8.909-1.987a4.866,4.866,0,0,1,5.792,3.678,9.776,9.776,0,0,1-7.392,11.635" transform="translate(-20.372 -27.604)" fill="#f76d0f"/>
    <path id="Trazado_117839" data-name="Trazado 117839" d="M158.082,210.524h0a3.189,3.189,0,0,1-3.8-2.411l-.7-3.152a3.18,3.18,0,0,1,6.207-1.385l.7,3.152a3.189,3.189,0,0,1-2.411,3.795" transform="translate(-23.038 -30.179)" fill="#ffbe84"/>
    <path id="Trazado_117840" data-name="Trazado 117840" d="M207.144,238.376h0a1.587,1.587,0,0,1-1.75-1.4l-.569-5.049a1.583,1.583,0,1,1,3.146-.354l.569,5.049a1.588,1.588,0,0,1-1.4,1.75" transform="translate(-30.738 -34.544)" fill="#ffbe84"/>
    <path id="Trazado_117841" data-name="Trazado 117841" d="M244.024,227.626l-12.116-22.082a3.756,3.756,0,0,0-5.083-1.481l-22.082,12.116a3.756,3.756,0,0,0-1.481,5.083l12.117,22.082a3.753,3.753,0,0,0,5.083,1.481l22.082-12.116a3.756,3.756,0,0,0,1.481-5.083" transform="translate(-30.436 -30.557)" fill="#ffd54f"/>
    <path id="Trazado_117842" data-name="Trazado 117842" d="M206.093,241.227h0a4.713,4.713,0,0,1,.41-6.634l3.442-3.042a4.714,4.714,0,0,1,6.634.409h0a4.714,4.714,0,0,1-.41,6.634l-3.442,3.042a4.713,4.713,0,0,1-6.634-.41" transform="translate(-30.754 -34.575)" fill="#ffbe84"/>
  </g>
</svg>
