<svg id="Grupo_92327" data-name="Grupo 92327" xmlns="http://www.w3.org/2000/svg" xmlns:xlink="http://www.w3.org/1999/xlink" width="340.83" height="232.763" viewBox="0 0 340.83 232.763">
  <defs>
    <clipPath id="clip-path">
      <rect id="Rectángulo_52118" data-name="Rectángulo 52118" width="340.83" height="232.763" fill="none"/>
    </clipPath>
  </defs>
  <g id="Grupo_92324" data-name="Grupo 92324">
    <g id="Grupo_92323" data-name="Grupo 92323" clip-path="url(#clip-path)">
      <path id="Trazado_121758" data-name="Trazado 121758" d="M38.01,213.975s-43.745-22.855-33.2-74.246S58.274,76.143,75.929,79.915c33.09,7.071-20.972,27.935-33.886-7.876C25.839,27.108,83.613-6.91,137.168,1.894,171.587,7.552,188.2,24.029,218.8,34.382c30.487,10.316,43.273-3.5,31.128-11.509-11.53-7.6-53.393,4.8-39.02,21.8,19.681,23.275,67.113-12.786,103.874,27.368s4.849,90.635-23.413,94.845-15.869-36.358,28.261-4.21-11.613,67-11.613,67" transform="translate(-0.779 -0.123)" fill="none" stroke="#34af00" stroke-miterlimit="10" stroke-width="5"/>
    </g>
  </g>
  <g id="Grupo_92326" data-name="Grupo 92326">
    <g id="Grupo_92325" data-name="Grupo 92325" clip-path="url(#clip-path)">
      <path id="Trazado_121759" data-name="Trazado 121759" d="M337.616,306.635H3.215a3.214,3.214,0,1,1,0-6.429H340.83v3.215a3.214,3.214,0,0,1-3.214,3.214" transform="translate(0 -73.871)" fill="#34af00"/>
      <path id="Trazado_121760" data-name="Trazado 121760" d="M123.386,306.635H3.214A3.214,3.214,0,0,1,0,303.421v-3.215H126.6v3.215a3.214,3.214,0,0,1-3.214,3.214" transform="translate(0 -73.871)" fill="#324700"/>
      <path id="Trazado_121761" data-name="Trazado 121761" d="M219.994,137.683c-14.32,27.518-30.411,38.729-30.411,38.729l13.9,22.185,24.265-25.216Z" transform="translate(-46.651 -33.88)" fill="#324700"/>
      <path id="Trazado_121762" data-name="Trazado 121762" d="M264.416,128.97l-35.506,6.568c-2.249,67.178-3.092,122.524-3.092,122.524h63.733s1.849-102.869-8.4-125.313Z" transform="translate(-55.567 -31.736)" fill="#324700"/>
      <line id="Línea_298" data-name="Línea 298" y1="1.464" x2="17.298" transform="translate(204.727 130.005)" fill="none" stroke="#6876eb" stroke-miterlimit="10" stroke-width="4"/>
      <path id="Trazado_121763" data-name="Trazado 121763" d="M261.014,155.228s10.979,74.923,1.426,105.239" transform="translate(-64.227 -38.197)" fill="none" stroke="#6876eb" stroke-miterlimit="10" stroke-width="1"/>
      <path id="Trazado_121764" data-name="Trazado 121764" d="M245.766,205.006a79.055,79.055,0,0,0,24.353,4.72c13.748.451,5.195,7.767-15.187,6.379" transform="translate(-60.475 -50.446)" fill="none" stroke="#6876eb" stroke-miterlimit="10" stroke-width="1"/>
      <path id="Trazado_121765" data-name="Trazado 121765" d="M249.391,122l8.763,23.281,12.063-20.55-7.951-12.993Z" transform="translate(-61.367 -27.495)" fill="#e9a394"/>
      <path id="Trazado_121766" data-name="Trazado 121766" d="M261.014,149.52,277.372,145l-4.3-16.034Z" transform="translate(-64.227 -31.736)" fill="#0a0e00"/>
      <path id="Trazado_121767" data-name="Trazado 121767" d="M249.076,132.209l-8.878,9.916,15.693,8.192Z" transform="translate(-59.105 -32.533)" fill="#0a0e00"/>
      <path id="Trazado_121768" data-name="Trazado 121768" d="M200.1,203.535s5.185-10.812-5.948-24.738c-6.174-7.723-9.018-21.049-9.018-21.049l-9.276,1.411,8.494,44.376Z" transform="translate(-43.274 -38.817)" fill="#e9a394"/>
      <path id="Trazado_121769" data-name="Trazado 121769" d="M168.465,139.293l-3.8,3.452,5.076,4.481-15.9-.271-.342,5.455,16.854,2.207,9.276-1.411Z" transform="translate(-37.773 -34.276)" fill="#e9a394"/>
      <path id="Trazado_121770" data-name="Trazado 121770" d="M171.733,148.508l-15.254-6.292-.984,2.71,12.73,5.351Z" transform="translate(-38.263 -34.995)" fill="#e9a394"/>
      <path id="Trazado_121771" data-name="Trazado 121771" d="M299.207,133.982s20.49,11.666,26.96,55.366L302.4,195.083Z" transform="translate(-73.626 -32.969)" fill="#1c145e"/>
      <path id="Trazado_121772" data-name="Trazado 121772" d="M237.658,87.017l-7.738,19.8,5.918,1.821,1.821,11.153,18.891-4.325L259.281,85.2Z" transform="translate(-56.576 -20.964)" fill="#e9a394"/>
      <path id="Trazado_121773" data-name="Trazado 121773" d="M252.191,92.2H237.744l1.576-4.269,12.871-.8Z" transform="translate(-58.502 -21.441)" fill="#e37a82"/>
      <path id="Trazado_121774" data-name="Trazado 121774" d="M257.317,94.7S248.1,92.793,248.1,83.258c0,0-13.676,1.861-18.4-5.562-5.592-8.794,2.954-18.9,10.011-16.845,0,0-4.447,4.407,2.307,4.926,4.817.369,13.62-6.039,16.762.159,0,0,24.245,5.538,6.145,28.128Z" transform="translate(-56.078 -14.907)" fill="#16005c"/>
      <path id="Trazado_121775" data-name="Trazado 121775" d="M247.346,82.607s-18.281,3.532-22.1-9.577C223.006,65.367,230.688,61,230.688,61" transform="translate(-55.325 -15.011)" fill="none" stroke="#16005c" stroke-miterlimit="10" stroke-width="2"/>
      <path id="Trazado_121776" data-name="Trazado 121776" d="M249.056,102.229a6.9,6.9,0,1,1-6.279-7.471A6.9,6.9,0,0,1,249.056,102.229Z" transform="translate(-57.895 -23.31)" fill="none" stroke="#16005c" stroke-miterlimit="10" stroke-width="0.5"/>
      <line id="Línea_299" data-name="Línea 299" x2="9.828" y2="0.538" transform="translate(190.815 76.089)" fill="none" stroke="#16005c" stroke-miterlimit="10" stroke-width="0.5"/>
      <path id="Trazado_121777" data-name="Trazado 121777" d="M277.659,105.614c0,4.274-5.726,7.738-10,7.738s-5.477-3.464-5.477-7.738a7.739,7.739,0,0,1,15.477,0" transform="translate(-64.515 -24.084)" fill="#e9a394"/>
      <path id="Trazado_121778" data-name="Trazado 121778" d="M324.913,208.326v35.685H307.119l-1.481-31.034Z" transform="translate(-75.208 -51.263)" fill="#e9a394"/>
      <path id="Trazado_121779" data-name="Trazado 121779" d="M224.563,189.51l.747-24.865-11.527,36.067Z" transform="translate(-52.605 -40.514)" fill="#0a0e00"/>
      <path id="Trazado_121780" data-name="Trazado 121780" d="M250.607,127.716l11.033-2.368-9.046,7.714Z" transform="translate(-61.667 -30.844)" fill="#e37a82"/>
      <path id="Trazado_121781" data-name="Trazado 121781" d="M242.842,103.586c0,1.521-.592,2.755-1.321,2.755s-1.322-1.233-1.322-2.755.592-2.755,1.322-2.755,1.321,1.233,1.321,2.755" transform="translate(-59.106 -24.811)" fill="#16005c"/>
      <path id="Trazado_121782" data-name="Trazado 121782" d="M245.75,94.938c0-3.691-2.939-1.206-2.939-1.206Z" transform="translate(-59.748 -22.863)" fill="#16005c"/>
      <path id="Trazado_121783" data-name="Trazado 121783" d="M242.811,116.909l4.2-1.119s1.8,15.59-4.2,1.119" transform="translate(-59.748 -28.492)" fill="#fff"/>
      <path id="Trazado_121784" data-name="Trazado 121784" d="M122.672,209.925s28.358-4.388,28.915,45.062c.09,8.025,5.2,22.978,5.2,22.978h-25.7Z" transform="translate(-30.186 -51.632)" fill="#ffa726"/>
      <path id="Trazado_121785" data-name="Trazado 121785" d="M77.749,204.138,60.61,208.184l5.229,68.383h66.687s-2.237-54.1-27.385-70.336Z" transform="translate(-14.914 -50.232)" fill="#ffd54f"/>
      <path id="Trazado_121786" data-name="Trazado 121786" d="M55.963,209.452c-17.665,4.029-13.53,17.588-10.119,45.43-8.817,7.161-.358,10.384-.358,10.384-9.683,10.265,2.4,12.569,2.4,12.569H80.131s-6.49-72.415-24.168-68.383" transform="translate(-10.268 -51.5)" fill="#ffd54f"/>
      <line id="Línea_300" data-name="Línea 300" x1="7.739" y1="35.525" transform="translate(60.207 175.015)" fill="none" stroke="#ffa726" stroke-miterlimit="10" stroke-width="1"/>
      <path id="Trazado_121787" data-name="Trazado 121787" d="M49.891,292.6s5.445-12.5,22.653-18.786c14.268-5.21,35.139,8.316,48.5-4.536l2.474,14.47L82.14,292.6Z" transform="translate(-12.277 -66.26)" fill="#e9a394"/>
      <path id="Trazado_121788" data-name="Trazado 121788" d="M118.133,156.6l12.758,19.42-8.187,2.922-1.415,15.782-24.6-8.548L99,154.075Z" transform="translate(-23.791 -37.913)" fill="#e9a394"/>
      <path id="Trazado_121789" data-name="Trazado 121789" d="M95.919,184.482,83.343,199.3l16.128,19.765,7.274-23.086Z" transform="translate(-20.508 -45.395)" fill="#e37a82"/>
      <path id="Trazado_121790" data-name="Trazado 121790" d="M104.606,168.648l18-6.244-3.271-4.979-17.778,1.849Z" transform="translate(-24.989 -38.737)" fill="#e37a82"/>
      <path id="Trazado_121791" data-name="Trazado 121791" d="M96.828,170.364s5.449,10.909,1.658-10.119c0,0,5.17.581,9.219-6.243,0,0-1.258,11.12,10.62,0s-3.222-19.82-21.673-16.547c-15.993,2.837-32,11.874-8.607,42.508Z" transform="translate(-18.765 -33.652)" fill="#16005c"/>
      <path id="Trazado_121792" data-name="Trazado 121792" d="M94.8,183.451a8.97,8.97,0,0,1-5.529,3.459,8.547,8.547,0,0,1-9.307-7.208c-.639-4.384,1.576-6.662,5.961-7.3a10.883,10.883,0,0,1,7.459,1.859c.646.807,1.415,9.19,1.415,9.19" transform="translate(-19.65 -42.4)" fill="#e9a394"/>
      <path id="Trazado_121793" data-name="Trazado 121793" d="M122.462,174.225c.406,1.5.2,2.858-.452,3.036s-1.519-.892-1.926-2.391-.2-2.858.452-3.036,1.519.892,1.926,2.391" transform="translate(-29.497 -42.278)" fill="#16005c"/>
      <path id="Trazado_121794" data-name="Trazado 121794" d="M116.067,169.626s-.639-3.606,2.708-1.87Z" transform="translate(-28.548 -41.163)" fill="#16005c"/>
      <path id="Trazado_121795" data-name="Trazado 121795" d="M80.672,202.266l2.92-3.353-1.071-2.486,6.61-2.361,18.961,9.536.7,7.281-3.209-1.013-5.238,19.525Z" transform="translate(-19.851 -47.753)" fill="#ffd54f"/>
      <path id="Trazado_121796" data-name="Trazado 121796" d="M103.383,210.146l11,3.847-.7-7.281" transform="translate(-25.439 -50.866)" fill="none" stroke="#ffa726" stroke-miterlimit="10" stroke-width="1"/>
      <path id="Trazado_121797" data-name="Trazado 121797" d="M104.126,167.911s2.212,12.874,5.447,15.521c1.062.869,3.074-1.342,12.33-1.527,5.661-.114,5.656,19.643-1.855,19.076s-18.925-5.249-20.635-19.649c-1.5-12.632,4.713-13.421,4.713-13.421" transform="translate(-24.405 -41.318)" fill="#16005c"/>
      <path id="Trazado_121798" data-name="Trazado 121798" d="M117.968,191.674s1.909,3.555,5.671,1.147" transform="translate(-29.028 -47.165)" fill="none" stroke="#c4c6c5" stroke-miterlimit="10" stroke-width="1"/>
      <path id="Trazado_121799" data-name="Trazado 121799" d="M154.238,289.423H90.932v4.69a3.44,3.44,0,0,0,3.439,3.44h59.867a3.44,3.44,0,0,0,3.439-3.44v-1.251a3.44,3.44,0,0,0-3.439-3.439" transform="translate(-22.376 -71.218)" fill="#324700"/>
      <path id="Trazado_121800" data-name="Trazado 121800" d="M215.7,227.057H142.062a4.348,4.348,0,0,0-4.313,3.8l-5.933,46.453a4.348,4.348,0,0,0,4.313,4.9h73.641a4.349,4.349,0,0,0,4.314-3.8l5.933-46.452a4.349,4.349,0,0,0-4.314-4.9" transform="translate(-32.427 -55.872)" fill="#324700"/>
      <path id="Trazado_121801" data-name="Trazado 121801" d="M220.43,227.057H146.789a4.348,4.348,0,0,0-4.313,3.8l-5.933,46.453a4.348,4.348,0,0,0,4.313,4.9H214.5a4.349,4.349,0,0,0,4.314-3.8l5.933-46.452a4.349,4.349,0,0,0-4.314-4.9" transform="translate(-33.59 -55.872)" fill="#34af00"/>
      <path id="Trazado_121802" data-name="Trazado 121802" d="M199.928,261.261a8.266,8.266,0,0,1-8.026,7.263,6.418,6.418,0,0,1-6.5-7.263A8.266,8.266,0,0,1,193.428,254a6.418,6.418,0,0,1,6.5,7.263" transform="translate(-45.612 -62.501)" fill="#fff"/>
      <line id="Línea_301" data-name="Línea 301" x1="91.663" transform="translate(93.571 225.941)" fill="none" stroke="#1c145e" stroke-miterlimit="10" stroke-width="1"/>
      <path id="Trazado_121803" data-name="Trazado 121803" d="M299.415,205.269l30.429.577-6.9-37.224-16.181,1.832s-7.288,10.757-1.533,19.121c6.494,9.437-6.486,9.789-5.817,15.694" transform="translate(-73.671 -41.493)" fill="#16005c"/>
      <path id="Trazado_121804" data-name="Trazado 121804" d="M306.765,171.052s-7.288,10.757-1.533,19.121c6.494,9.438-6.486,9.789-5.817,15.694" transform="translate(-73.671 -42.091)" fill="none" stroke="#7079f1" stroke-miterlimit="10" stroke-width="2"/>
      <path id="Trazado_121805" data-name="Trazado 121805" d="M310.323,211.267s-13.845,13.586-21.146,64.785h15.412Z" transform="translate(-71.158 -51.986)" fill="#7079f1"/>
      <path id="Trazado_121806" data-name="Trazado 121806" d="M349.183,205.728,343.157,274.3H298.395l5.572-26.189s-17.042-8.891,8.624-38.6l6.379-3.282,27.714-2.093Z" transform="translate(-73.426 -50.232)" fill="#c3c8ff"/>
      <path id="Trazado_121807" data-name="Trazado 121807" d="M315.95,251.97s-2.683,4.6-.1,8.286l-3.8,25.811" transform="translate(-76.785 -62.002)" fill="none" stroke="#7079f1" stroke-miterlimit="10" stroke-width="1"/>
      <line id="Línea_302" data-name="Línea 302" x2="25.927" y2="0.765" transform="translate(232.909 197.995)" fill="none" stroke="#7079f1" stroke-miterlimit="10" stroke-width="1"/>
      <line id="Línea_303" data-name="Línea 303" x1="2.742" y1="32.981" transform="translate(261.205 177.921)" fill="none" stroke="#7079f1" stroke-miterlimit="10" stroke-width="1"/>
      <path id="Trazado_121808" data-name="Trazado 121808" d="M363.792,206.247s2.472,3.11,5.333,10.321c4.058,10.226,8.9,28.7,8.58,58.248H357.767Z" transform="translate(-88.035 -50.751)" fill="#c3c8ff"/>
      <path id="Trazado_121809" data-name="Trazado 121809" d="M359.861,294.5s-9.963-22.784-35.022-16.264c-27.361,7.119-37.521,5.789-37.521,5.789L285.244,294.5Z" transform="translate(-70.19 -68.178)" fill="#e9a394"/>
      <path id="Trazado_121810" data-name="Trazado 121810" d="M346.717,272.272l-8.891,1.988,20.2,19.064h19.036s-8.2-19.893-30.34-21.052" transform="translate(-83.129 -66.998)" fill="#7079f1"/>
      <line id="Línea_304" data-name="Línea 304" y1="1.294" x2="4.235" transform="translate(264.138 209.894)" fill="none" stroke="#c3c8ff" stroke-miterlimit="10" stroke-width="1"/>
      <path id="Trazado_121811" data-name="Trazado 121811" d="M280.71,285.424l-13-2.689-9.32,13.164h20.247Z" transform="translate(-63.582 -69.573)" fill="#e9a394"/>
      <path id="Trazado_121812" data-name="Trazado 121812" d="M317.224,239.105l24.159-24.159-4.488-2.119,16.92-8.194-7.77-4.944H327.962L317.224,213.11l2.967.745-2.967,2.081Z" transform="translate(-78.059 -49.137)" fill="#7079f1"/>
      <path id="Trazado_121813" data-name="Trazado 121813" d="M334.115,202.584l7.891-5.454-8.519-19.05-13.2,8.294,3.72,15.8-6.778,31.613Z" transform="translate(-78.059 -43.82)" fill="#e9a394"/>
      <path id="Trazado_121814" data-name="Trazado 121814" d="M322.69,193.49l9.267-4.833-8.274,9.052Z" transform="translate(-79.404 -46.423)" fill="#e37a82"/>
      <path id="Trazado_121815" data-name="Trazado 121815" d="M298.914,157.083l-4.046,22.426h6.07l6.816,9.371,17.358-9.052-12.14-27.049Z" transform="translate(-72.558 -37.595)" fill="#e9a394"/>
      <path id="Trazado_121816" data-name="Trazado 121816" d="M298.8,164.791l-.406,2.463L314.4,165.07,314.157,162Z" transform="translate(-73.425 -39.864)" fill="#e37a82"/>
      <path id="Trazado_121817" data-name="Trazado 121817" d="M342.587,149.984c-4.007-10.863-8.906-15.05-8.907-15.051-9.82-9.759-26.606,1.069-26.606,1.069-21.511-5.207-12.779,21.5-12.779,21.5l17.518-2.149c2.449,14.7,11.209,7.254,11.209,7.254l4.086,7.369s-4.122,3.643.176,9.888c3.538,5.143-4.935,6.9-2.745,12.369l33.862-7.018c0-22.279-8.571-15.6-15.813-35.231" transform="translate(-71.985 -32.2)" fill="#16005c"/>
      <path id="Trazado_121818" data-name="Trazado 121818" d="M292.772,159.276s-3.1-15.248,2.593-20.21c2.967-2.588,12.312-1.463,12.312-1.463" transform="translate(-71.835 -33.8)" fill="none" stroke="#7079f1" stroke-miterlimit="10" stroke-width="2"/>
      <path id="Trazado_121819" data-name="Trazado 121819" d="M378.909,195.046s2.7-10.14-12.03-21.639" transform="translate(-90.278 -42.67)" fill="none" stroke="#16005c" stroke-miterlimit="10" stroke-width="2"/>
      <path id="Trazado_121820" data-name="Trazado 121820" d="M338.553,171.94a7.295,7.295,0,1,1-7.294-7.294,7.294,7.294,0,0,1,7.294,7.294" transform="translate(-79.718 -40.514)" fill="#e9a394"/>
      <path id="Trazado_121821" data-name="Trazado 121821" d="M308.926,186.778l4.522-1.111s1.587,12.9-4.522,1.111" transform="translate(-76.017 -45.687)" fill="#fff"/>
      <path id="Trazado_121822" data-name="Trazado 121822" d="M303.931,175.758s1.439-8.772,4.588,0" transform="translate(-74.788 -42.289)" fill="none" stroke="#1c145e" stroke-miterlimit="10" stroke-width="0.5"/>
      <path id="Trazado_121823" data-name="Trazado 121823" d="M305.4,167.748s1.753-2.969,3.83,0Z" transform="translate(-75.151 -40.953)" fill="#16005c"/>
      <path id="Trazado_121824" data-name="Trazado 121824" d="M206.587,60.437A13.522,13.522,0,1,0,187.46,76.922a19.422,19.422,0,0,1,7.006,6.332l.511.768,10.131-3.642-.094-.913a20.18,20.18,0,0,1,1.426-9.49,13.472,13.472,0,0,0,.147-9.539" transform="translate(-44.377 -12.669)" fill="#c3c8ff"/>
      <path id="Trazado_121825" data-name="Trazado 121825" d="M206.587,60.437A13.522,13.522,0,1,0,187.46,76.922a19.422,19.422,0,0,1,7.006,6.332l.511.768,10.131-3.642-.094-.913a20.18,20.18,0,0,1,1.426-9.49,13.472,13.472,0,0,0,.147-9.539" transform="translate(-44.377 -12.669)" fill="#ffd54f"/>
      <path id="Trazado_121826" data-name="Trazado 121826" d="M200.191,85.259,192.116,73.87A2.142,2.142,0,0,1,194.8,71.93c2.535.366,4.049,4.366,2.239,3.721s-2.449-5.348.974-6.065,4.565,7.058,2.675,5.56-1.493-6.448,2.173-6.489l2.15,16.426" transform="translate(-47.274 -16.894)" fill="none" stroke="#fff" stroke-miterlimit="10" stroke-width="1"/>
      <path id="Trazado_121827" data-name="Trazado 121827" d="M209.477,97.016l-4.757,1.711a3.481,3.481,0,0,1-4.453-2.1l-1.006-2.8a3.481,3.481,0,0,1,2.1-4.453l4.757-1.711a3.48,3.48,0,0,1,4.453,2.1l1.006,2.8a3.48,3.48,0,0,1-2.1,4.453" transform="translate(-48.981 -21.522)" fill="#16005c"/>
      <rect id="Rectángulo_52119" data-name="Rectángulo 52119" width="15.225" height="7.432" transform="translate(147.299 68.761) rotate(-19.775)" fill="#6876eb"/>
      <line id="Línea_305" data-name="Línea 305" x1="1.429" y1="8.194" transform="translate(147.712 27.173)" fill="none" stroke="#c3c8ff" stroke-miterlimit="10" stroke-width="1"/>
      <line id="Línea_306" data-name="Línea 306" x1="6.844" y1="6.685" transform="translate(131.973 33.564)" fill="none" stroke="#c3c8ff" stroke-miterlimit="10" stroke-width="1"/>
      <line id="Línea_307" data-name="Línea 307" x1="7.809" y2="0.559" transform="translate(123.875 52.393)" fill="none" stroke="#c3c8ff" stroke-miterlimit="10" stroke-width="1"/>
      <line id="Línea_308" data-name="Línea 308" y1="6.518" x2="3.515" transform="translate(160.398 33.34)" fill="none" stroke="#c3c8ff" stroke-miterlimit="10" stroke-width="1"/>
      <path id="Trazado_121828" data-name="Trazado 121828" d="M357.758,121.714h48.423a3.818,3.818,0,0,0,3.6-3.049l5-27.607a2.475,2.475,0,0,0-2.5-3.049H363.867a3.819,3.819,0,0,0-3.6,3.049l-5,27.607a2.475,2.475,0,0,0,2.5,3.049" transform="translate(-87.407 -21.657)" fill="#ffa726"/>
      <path id="Trazado_121829" data-name="Trazado 121829" d="M403.3,109.33a2.57,2.57,0,0,0,2.593,3.167,3.966,3.966,0,0,0,3.74-3.167,2.57,2.57,0,0,0-2.593-3.167,3.966,3.966,0,0,0-3.74,3.167" transform="translate(-99.226 -26.123)" fill="#fff"/>
      <path id="Trazado_121830" data-name="Trazado 121830" d="M390.538,109.33a2.57,2.57,0,0,0,2.593,3.167,3.966,3.966,0,0,0,3.74-3.167,2.57,2.57,0,0,0-2.593-3.167,3.966,3.966,0,0,0-3.74,3.167" transform="translate(-96.087 -26.123)" fill="#fff"/>
      <path id="Trazado_121831" data-name="Trazado 121831" d="M377.78,109.33a2.57,2.57,0,0,0,2.593,3.167,3.967,3.967,0,0,0,3.74-3.167,2.57,2.57,0,0,0-2.593-3.167,3.966,3.966,0,0,0-3.74,3.167" transform="translate(-92.947 -26.123)" fill="#fff"/>
      <path id="Trazado_121832" data-name="Trazado 121832" d="M387.664,130.05l-16.826,10,3.016-10.789Z" transform="translate(-91.252 -31.807)" fill="#ffa726"/>
      <path id="Trazado_121833" data-name="Trazado 121833" d="M133.048,116.286H84.625a3.818,3.818,0,0,1-3.6-3.049l-5-27.607a2.475,2.475,0,0,1,2.5-3.049h48.423a3.819,3.819,0,0,1,3.6,3.049l5,27.607a2.475,2.475,0,0,1-2.5,3.049" transform="translate(-18.694 -20.321)" fill="#ffa726"/>
      <path id="Trazado_121834" data-name="Trazado 121834" d="M104.871,103.9a2.57,2.57,0,0,1-2.593,3.167,3.966,3.966,0,0,1-3.74-3.167,2.57,2.57,0,0,1,2.593-3.167,3.966,3.966,0,0,1,3.74,3.167" transform="translate(-24.234 -24.788)" fill="#fff"/>
      <path id="Trazado_121835" data-name="Trazado 121835" d="M117.629,103.9a2.57,2.57,0,0,1-2.593,3.167,3.966,3.966,0,0,1-3.74-3.167,2.57,2.57,0,0,1,2.593-3.167,3.966,3.966,0,0,1,3.74,3.167" transform="translate(-27.374 -24.788)" fill="#fff"/>
      <path id="Trazado_121836" data-name="Trazado 121836" d="M130.386,103.9a2.57,2.57,0,0,1-2.593,3.167,3.966,3.966,0,0,1-3.74-3.167,2.57,2.57,0,0,1,2.593-3.167,3.966,3.966,0,0,1,3.74,3.167" transform="translate(-30.513 -24.788)" fill="#fff"/>
      <path id="Trazado_121837" data-name="Trazado 121837" d="M128.766,124.659l2.655,9.653,10.743-10.328Z" transform="translate(-31.685 -30.509)" fill="#ffa726"/>
    </g>
  </g>
</svg>
