<svg id="Grupo_92541" data-name="Grupo 92541" xmlns="http://www.w3.org/2000/svg" xmlns:xlink="http://www.w3.org/1999/xlink" width="290" height="250.445" viewBox="0 0 290 250.445">
  <defs>
    <clipPath id="clip-path">
      <rect id="Rectángulo_52271" data-name="Rectángulo 52271" width="290" height="250.445" fill="none"/>
    </clipPath>
  </defs>
  <g id="Grupo_92540" data-name="Grupo 92540" clip-path="url(#clip-path)">
    <path id="Trazado_123585" data-name="Trazado 123585" d="M225.26,0H104.591V213.326h160.6V31.228C252.231,4.867,225.26,0,225.26,0" transform="translate(-73.102 0)" fill="#f4f4f4"/>
    <rect id="Rectángulo_52223" data-name="Rectángulo 52223" width="52.926" height="11.66" transform="translate(123.566 21.495)" fill="#c4c4c4"/>
    <rect id="Rectángulo_52224" data-name="Rectángulo 52224" width="52.926" height="3.244" transform="translate(123.566 36.501)" fill="#c4c4c4"/>
    <rect id="Rectángulo_52225" data-name="Rectángulo 52225" width="52.926" height="3.245" transform="translate(123.566 40.556)" fill="#c4c4c4"/>
    <path id="Trazado_123586" data-name="Trazado 123586" d="M505.4,0c12.167,17.439,6.692,37.109,6.692,37.109,19.67-11.559,33.242-5.881,33.242-5.881C532.371,4.867,505.4,0,505.4,0" transform="translate(-353.243 0)" fill="#d8d8d8"/>
    <rect id="Rectángulo_52226" data-name="Rectángulo 52226" width="7.706" height="61.24" transform="translate(57.256 62.051)" fill="#34af00"/>
    <rect id="Rectángulo_52227" data-name="Rectángulo 52227" width="7.706" height="38.258" transform="translate(66.99 85.033)" fill="#ffa726"/>
    <rect id="Rectángulo_52228" data-name="Rectángulo 52228" width="7.705" height="49.343" transform="translate(77.535 73.947)" fill="#324700"/>
    <path id="Trazado_123587" data-name="Trazado 123587" d="M167.62,228.87V143.8h-1.014v86.081h85.574V228.87Z" transform="translate(-116.447 -100.509)" fill="#3c3c3b"/>
    <rect id="Rectángulo_52229" data-name="Rectángulo 52229" width="7.706" height="31.837" transform="translate(112.007 91.454)" fill="#ffa726"/>
    <rect id="Rectángulo_52230" data-name="Rectángulo 52230" width="7.705" height="49.343" transform="translate(102.477 73.947)" fill="#34af00"/>
    <rect id="Rectángulo_52231" data-name="Rectángulo 52231" width="7.706" height="42.99" transform="translate(122.146 80.301)" fill="#324700"/>
    <path id="Trazado_123588" data-name="Trazado 123588" d="M328.036,79.054a13.383,13.383,0,1,1-13.383-13.383,13.383,13.383,0,0,1,13.383,13.383" transform="translate(-210.568 -45.9)" fill="#bf8d48"/>
    <rect id="Rectángulo_52232" data-name="Rectángulo 52232" width="10.004" height="10.004" transform="translate(138.639 82.059)" fill="#34af00"/>
    <rect id="Rectángulo_52233" data-name="Rectángulo 52233" width="10.004" height="10.004" transform="translate(138.639 98.281)" fill="#324700"/>
    <rect id="Rectángulo_52234" data-name="Rectángulo 52234" width="10.004" height="10.004" transform="translate(138.639 114.504)" fill="#ffa726"/>
    <rect id="Rectángulo_52235" data-name="Rectángulo 52235" width="22.982" height="2.974" transform="translate(153.51 82.059)" fill="#c4c4c4"/>
    <rect id="Rectángulo_52236" data-name="Rectángulo 52236" width="22.982" height="4.322" transform="translate(153.51 86.421)" fill="#c4c4c4"/>
    <rect id="Rectángulo_52237" data-name="Rectángulo 52237" width="22.982" height="2.974" transform="translate(153.51 98.282)" fill="#c4c4c4"/>
    <rect id="Rectángulo_52238" data-name="Rectángulo 52238" width="22.982" height="4.322" transform="translate(153.51 102.643)" fill="#c4c4c4"/>
    <rect id="Rectángulo_52239" data-name="Rectángulo 52239" width="22.982" height="2.974" transform="translate(153.51 114.504)" fill="#c4c4c4"/>
    <rect id="Rectángulo_52240" data-name="Rectángulo 52240" width="22.982" height="4.322" transform="translate(153.51 118.866)" fill="#c4c4c4"/>
    <rect id="Rectángulo_52241" data-name="Rectángulo 52241" width="65.701" height="16.628" transform="translate(50.159 137.486)" fill="#c4c4c4"/>
    <rect id="Rectángulo_52242" data-name="Rectángulo 52242" width="27.376" height="26.091" transform="translate(50.159 157.628)" fill="#335951"/>
    <rect id="Rectángulo_52243" data-name="Rectángulo 52243" width="34.473" height="1.758" transform="translate(81.387 157.628)" fill="#c4c4c4"/>
    <rect id="Rectángulo_52244" data-name="Rectángulo 52244" width="34.473" height="1.757" transform="translate(81.387 161.685)" fill="#c4c4c4"/>
    <rect id="Rectángulo_52245" data-name="Rectángulo 52245" width="34.473" height="1.757" transform="translate(81.387 165.74)" fill="#c4c4c4"/>
    <rect id="Rectángulo_52246" data-name="Rectángulo 52246" width="34.473" height="1.757" transform="translate(81.387 169.796)" fill="#c4c4c4"/>
    <rect id="Rectángulo_52247" data-name="Rectángulo 52247" width="34.473" height="1.757" transform="translate(81.387 173.851)" fill="#c4c4c4"/>
    <rect id="Rectángulo_52248" data-name="Rectángulo 52248" width="34.473" height="1.757" transform="translate(81.387 177.907)" fill="#c4c4c4"/>
    <rect id="Rectángulo_52249" data-name="Rectángulo 52249" width="34.473" height="1.757" transform="translate(81.387 181.962)" fill="#c4c4c4"/>
    <rect id="Rectángulo_52250" data-name="Rectángulo 52250" width="65.701" height="6.894" transform="translate(50.159 187.775)" fill="#c4c4c4"/>
    <rect id="Rectángulo_52251" data-name="Rectángulo 52251" width="50.493" height="3.92" transform="translate(125.999 137.485)" fill="#c4c4c4"/>
    <rect id="Rectángulo_52252" data-name="Rectángulo 52252" width="50.493" height="28.93" transform="translate(125.999 145.8)" fill="#c4c4c4"/>
    <rect id="Rectángulo_52253" data-name="Rectángulo 52253" width="34.473" height="1.757" transform="translate(142.019 177.029)" fill="#c4c4c4"/>
    <rect id="Rectángulo_52254" data-name="Rectángulo 52254" width="34.473" height="1.757" transform="translate(142.019 181.084)" fill="#c4c4c4"/>
    <rect id="Rectángulo_52255" data-name="Rectángulo 52255" width="34.473" height="1.757" transform="translate(142.019 185.14)" fill="#c4c4c4"/>
    <path id="Rectángulo_52256" data-name="Rectángulo 52256" d="M16.553,0H93.066a16.553,16.553,0,0,1,16.553,16.553v109.6a16.55,16.55,0,0,1-16.55,16.55H16.549A16.549,16.549,0,0,1,0,126.158V16.553A16.553,16.553,0,0,1,16.553,0Z" transform="translate(180.38 93.869)" fill="#352f2d"/>
    <path id="Trazado_123589" data-name="Trazado 123589" d="M715.859,346.042H634.47a4.983,4.983,0,0,0-4.983,4.983v22.7a4.983,4.983,0,0,0,4.983,4.983h81.389a4.983,4.983,0,0,0,4.983-4.983v-22.7a4.983,4.983,0,0,0-4.983-4.983" transform="translate(-439.971 -241.861)" fill="#88bfb7"/>
    <path id="Trazado_123590" data-name="Trazado 123590" d="M780.06,346.042h-10.7l-24.265,31.582a4.455,4.455,0,0,0-.61,1.084h10.949l23.841-31.029a4.4,4.4,0,0,0,.786-1.637" transform="translate(-520.348 -241.861)" fill="#ccfef8"/>
    <path id="Trazado_123591" data-name="Trazado 123591" d="M838.6,365.647a2.406,2.406,0,0,0,3.374-.442l14.723-19.163h-6.069l-12.471,16.231a2.406,2.406,0,0,0,.442,3.374" transform="translate(-585.469 -241.861)" fill="#ccfef8"/>
    <path id="Rectángulo_52257" data-name="Rectángulo 52257" d="M11.212,0h0A11.211,11.211,0,0,1,22.423,11.211V32.527A11.212,11.212,0,0,1,11.212,43.739h0A11.212,11.212,0,0,1,0,32.527V11.212A11.212,11.212,0,0,1,11.212,0Z" transform="translate(258.309 181.832)" fill="#34af00"/>
    <path id="Rectángulo_52258" data-name="Rectángulo 52258" d="M10.063,0h0A10.065,10.065,0,0,1,20.128,10.065v0A10.064,10.064,0,0,1,10.065,20.128h0A10.065,10.065,0,0,1,0,10.064v0A10.063,10.063,0,0,1,10.063,0Z" transform="translate(189.723 205.443)" fill="#776b69"/>
    <path id="Rectángulo_52259" data-name="Rectángulo 52259" d="M10.064,0h0A10.064,10.064,0,0,1,20.128,10.064v0A10.065,10.065,0,0,1,10.064,20.128h0A10.064,10.064,0,0,1,0,10.064v0A10.064,10.064,0,0,1,10.064,0Z" transform="translate(212.367 205.443)" fill="#776b69"/>
    <path id="Rectángulo_52260" data-name="Rectángulo 52260" d="M10.063,0h0A10.063,10.063,0,0,1,20.128,10.063v0A10.064,10.064,0,0,1,10.064,20.128h0A10.064,10.064,0,0,1,0,10.065v0A10.063,10.063,0,0,1,10.063,0Z" transform="translate(235.621 205.443)" fill="#776b69"/>
    <path id="Rectángulo_52261" data-name="Rectángulo 52261" d="M10.063,0h0A10.064,10.064,0,0,1,20.128,10.064v0A10.064,10.064,0,0,1,10.065,20.128h0A10.064,10.064,0,0,1,0,10.064v0A10.063,10.063,0,0,1,10.063,0Z" transform="translate(189.723 181.832)" fill="#776b69"/>
    <path id="Rectángulo_52262" data-name="Rectángulo 52262" d="M10.064,0h0A10.064,10.064,0,0,1,20.128,10.064v0A10.064,10.064,0,0,1,10.064,20.128h0A10.064,10.064,0,0,1,0,10.064v0A10.064,10.064,0,0,1,10.064,0Z" transform="translate(212.367 181.832)" fill="#776b69"/>
    <path id="Rectángulo_52263" data-name="Rectángulo 52263" d="M10.063,0h0A10.064,10.064,0,0,1,20.128,10.064v0A10.064,10.064,0,0,1,10.064,20.128h0A10.063,10.063,0,0,1,0,10.065v0A10.063,10.063,0,0,1,10.063,0Z" transform="translate(235.621 181.832)" fill="#776b69"/>
    <rect id="Rectángulo_52264" data-name="Rectángulo 52264" width="20.128" height="20.128" rx="10.064" transform="translate(189.418 158.163)" fill="#776b69"/>
    <rect id="Rectángulo_52265" data-name="Rectángulo 52265" width="20.128" height="20.128" rx="10.064" transform="translate(212.062 158.163)" fill="#776b69"/>
    <rect id="Rectángulo_52266" data-name="Rectángulo 52266" width="20.128" height="20.128" rx="10.064" transform="translate(235.315 158.163)" fill="#776b69"/>
    <path id="Rectángulo_52267" data-name="Rectángulo 52267" d="M10.064,0h2.294A10.064,10.064,0,0,1,22.423,10.064v0A10.064,10.064,0,0,1,12.359,20.129H10.064A10.064,10.064,0,0,1,0,10.065v0A10.064,10.064,0,0,1,10.064,0Z" transform="translate(258.309 158.163)" fill="#ffd54f"/>
    <path id="Rectángulo_52268" data-name="Rectángulo 52268" d="M5.052,0h55.92a5.052,5.052,0,0,1,5.052,5.052v0A5.052,5.052,0,0,1,60.973,10.1H5.052A5.052,5.052,0,0,1,0,5.052v0A5.052,5.052,0,0,1,5.052,0Z" transform="translate(189.418 142.66)" fill="#34af00"/>
    <rect id="Rectángulo_52269" data-name="Rectángulo 52269" width="21.019" height="10.451" rx="5.226" transform="translate(259.713 142.66)" fill="#ffd54f"/>
    <path id="Trazado_123592" data-name="Trazado 123592" d="M14.859,407.387a4.571,4.571,0,0,1-6.419-.776l-7.465-9.52a4.573,4.573,0,0,1,.776-6.42l2.474-1.94a4.573,4.573,0,0,1,6.42.776l7.465,9.52a4.574,4.574,0,0,1-.777,6.421Z" transform="translate(0 -271.017)" fill="#352f2d"/>
    <path id="Trazado_123593" data-name="Trazado 123593" d="M96.563,497.954a4.569,4.569,0,0,0-.729-1.356L41.776,427.661,38.6,423.614l-2.809-3.582c-.056-.072-.118-.138-.178-.2a4.57,4.57,0,0,0-6.242-.572l-5.848,4.586a4.573,4.573,0,0,0-.777,6.42l2.808,3.581,3.175,4.048L82.79,506.827A4.538,4.538,0,0,0,84,507.9c.175.145.354.282.536.415,4.62,3.407,11.045,3.559,12.1,2.734,1.318-1.032,2.61-7.7-.069-13.093" transform="translate(-15.219 -292.353)" fill="#ffd54f"/>
    <path id="Trazado_123594" data-name="Trazado 123594" d="M265.342,719.37a1.524,1.524,0,0,1-2.14-.259l-4.879-6.221a1.524,1.524,0,1,1,2.4-1.882l4.878,6.222a1.524,1.524,0,0,1-.259,2.14" transform="translate(-180.325 -496.541)" fill="#352f2d"/>
    <path id="Trazado_123595" data-name="Trazado 123595" d="M128.764,514.633c1.318-1.033,2.611-7.7-.069-13.093a4.552,4.552,0,0,0-.729-1.356L73.908,431.246,70.734,427.2l-2.809-3.581c-.057-.072-.118-.138-.178-.2l48.92,88.486c4.62,3.406,11.045,3.559,12.1,2.734" transform="translate(-47.352 -295.939)" fill="#ffa726"/>
    <rect id="Rectángulo_52270" data-name="Rectángulo 52270" width="16.576" height="5.144" transform="matrix(0.787, -0.617, 0.617, 0.787, 10.339, 141.488)" fill="#352f2d"/>
    <path id="Trazado_123596" data-name="Trazado 123596" d="M71.056,463.285a1.872,1.872,0,0,1-2.63-.318L47.853,436.731a1.874,1.874,0,0,1,2.949-2.312l20.573,26.236a1.873,1.873,0,0,1-.318,2.63" transform="translate(-33.167 -303.13)" fill="#352f2d"/>
    <path id="Trazado_123597" data-name="Trazado 123597" d="M695.3,38.611V72h33.388A33.387,33.387,0,0,0,695.3,38.611" transform="translate(-485.97 -26.987)" fill="#ffa726"/>
    <path id="Trazado_123598" data-name="Trazado 123598" d="M609.5,49.156a33.388,33.388,0,1,0,24.714,55.838L609.5,82.544Z" transform="translate(-402.668 -34.357)" fill="#34af00"/>
    <path id="Trazado_123599" data-name="Trazado 123599" d="M696.054,156.29l24.713,22.45a33.267,33.267,0,0,0,8.674-22.45Z" transform="translate(-486.498 -109.237)" fill="#324700"/>
    <path id="Trazado_123600" data-name="Trazado 123600" d="M478.917,754.313c0-2.544-1.492-4.607-3.331-4.607H436.731c-1.84,0-3.331,2.063-3.331,4.607v4.832c0,.144.006.286.016.427-.005.091-.016.182-.016.274,0,5.6,10.189,10.139,22.759,10.139s22.759-4.539,22.759-10.139c0-.092-.01-.183-.017-.274.01-.141.017-.283.017-.427Z" transform="translate(-302.919 -523.997)" fill="#f4bd31"/>
    <path id="Trazado_123601" data-name="Trazado 123601" d="M478.917,739.14c0,5.6-10.19,10.14-22.759,10.14s-22.759-4.54-22.759-10.14S443.589,729,456.159,729s22.759,4.539,22.759,10.14" transform="translate(-302.919 -509.525)" fill="#f2d453"/>
    <path id="Trazado_123602" data-name="Trazado 123602" d="M462.119,722.241c0-2.544-1.491-4.606-3.331-4.606H419.932c-1.839,0-3.33,2.063-3.33,4.606v4.832c0,.144.006.286.016.427-.005.092-.016.182-.016.275,0,5.6,10.189,10.139,22.758,10.139s22.759-4.539,22.759-10.139c0-.092-.01-.183-.016-.275.01-.141.016-.283.016-.427Z" transform="translate(-291.178 -501.581)" fill="#f4bd31"/>
    <path id="Trazado_123603" data-name="Trazado 123603" d="M462.119,707.069c0,5.6-10.19,10.14-22.759,10.14s-22.758-4.539-22.758-10.14,10.189-10.139,22.758-10.139,22.759,4.539,22.759,10.139" transform="translate(-291.178 -487.11)" fill="#f2d453"/>
    <path id="Trazado_123604" data-name="Trazado 123604" d="M484.917,690.666c0-2.543-1.492-4.607-3.331-4.607H442.731c-1.839,0-3.331,2.063-3.331,4.607V695.5c0,.144.006.286.016.426-.005.091-.016.182-.016.274,0,5.6,10.189,10.14,22.759,10.14s22.759-4.54,22.759-10.14c0-.092-.01-.183-.017-.274.01-.14.017-.282.017-.426Z" transform="translate(-307.113 -479.512)" fill="#f4bd31"/>
    <path id="Trazado_123605" data-name="Trazado 123605" d="M484.917,675.5c0,5.6-10.19,10.139-22.759,10.139S439.4,681.1,439.4,675.5s10.189-10.139,22.759-10.139,22.759,4.539,22.759,10.139" transform="translate(-307.113 -465.042)" fill="#f2d453"/>
    <path id="Trazado_123606" data-name="Trazado 123606" d="M308.648,770.793c.054-2.455-1.341-4.477-3.116-4.517l-37.5-.83c-1.775-.039-3.258,1.92-3.313,4.375l-.1,4.663c0,.139,0,.276.006.411-.008.089-.019.176-.021.265-.12,5.4,9.616,10,21.746,10.271s22.06-3.895,22.179-9.3c0-.088-.006-.176-.009-.265.012-.136.021-.272.024-.411Z" transform="translate(-184.941 -534.998)" fill="#f4bd31"/>
    <path id="Trazado_123607" data-name="Trazado 123607" d="M308.972,757.088c-.119,5.4-10.049,9.567-22.179,9.3s-21.866-4.867-21.746-10.271,10.049-9.567,22.179-9.3,21.865,4.867,21.745,10.271" transform="translate(-185.251 -521.969)" fill="#f2d453"/>
    <path id="Trazado_123608" data-name="Trazado 123608" d="M98.017,727.994c0-2.556-1.5-4.629-3.347-4.629H55.629c-1.849,0-3.347,2.073-3.347,4.629v4.855c0,.144.006.287.016.429-.006.091-.016.183-.016.276,0,5.626,10.238,10.188,22.868,10.188s22.867-4.562,22.867-10.188c0-.093-.01-.184-.016-.276.009-.142.016-.284.016-.429Z" transform="translate(-36.542 -505.586)" fill="#f4bd31"/>
    <path id="Trazado_123609" data-name="Trazado 123609" d="M98.017,712.75c0,5.627-10.238,10.188-22.867,10.188s-22.868-4.561-22.868-10.188S62.52,702.562,75.15,702.562s22.867,4.561,22.867,10.188" transform="translate(-36.542 -491.046)" fill="#f2d453"/>
    <path id="Trazado_123610" data-name="Trazado 123610" d="M367.507,661.671c-1.775-1.707-4.215-2.051-5.449-.766l-26.065,27.114c-1.234,1.284-.795,3.708.981,5.414l3.372,3.242c.1.1.2.188.308.276.06.064.117.133.181.195,3.908,3.755,13.911-.309,22.342-9.081s12.1-18.925,8.191-22.682c-.064-.062-.135-.116-.2-.173-.092-.1-.187-.2-.287-.3Z" transform="translate(-234.349 -461.387)" fill="#f4bd31"/>
    <path id="Trazado_123611" data-name="Trazado 123611" d="M366.153,660.441c3.908,3.756.241,13.912-8.191,22.683S339.528,695.96,335.62,692.2s-.24-13.912,8.191-22.683,18.434-12.837,22.342-9.08" transform="translate(-233.484 -460.628)" fill="#f2d453"/>
    <path id="Trazado_123612" data-name="Trazado 123612" d="M86.017,700.93c0-2.556-1.5-4.629-3.347-4.629H43.629c-1.849,0-3.347,2.073-3.347,4.629v4.856c0,.144.006.287.016.429-.006.091-.016.183-.016.275,0,5.626,10.238,10.188,22.868,10.188s22.867-4.561,22.867-10.188c0-.093-.01-.184-.016-.275.009-.142.016-.284.016-.429Z" transform="translate(-28.155 -486.67)" fill="#f4bd31"/>
    <path id="Trazado_123613" data-name="Trazado 123613" d="M86.017,685.685c0,5.627-10.238,10.188-22.867,10.188s-22.868-4.561-22.868-10.188S50.52,675.5,63.15,675.5s22.867,4.561,22.867,10.188" transform="translate(-28.155 -472.13)" fill="#f2d453"/>
  </g>
</svg>
