<svg xmlns="http://www.w3.org/2000/svg" width="1328" height="670" viewBox="0 0 1328 670">
  <g id="Grupo_92542" data-name="Grupo 92542" transform="translate(-136.333 -460)">
    <line id="Línea_309" data-name="Línea 309" y2="88" transform="translate(800.333 541)" fill="none" stroke="#bf8d48" stroke-width="3"/>
    <path id="Trazado_183767" data-name="Trazado 183767" d="M34.211,0H234.789C253.683,0,269,20.819,269,46.5S253.683,93,234.789,93H34.211C15.317,93,0,72.181,0,46.5S15.317,0,34.211,0Z" transform="translate(665.333 460)" fill="#ffd54f"/>
    <text id="Implementación_de_BPG_en_la_producción_porcina_" data-name="Implementación de BPG
 en la producción porcina
" transform="translate(798.333 500)" font-size="18" font-family="Roboto-Bold, Roboto" font-weight="700"><tspan x="-97.603" y="0">Implementación de BPG</tspan><tspan x="-101.672" y="24" xml:space="preserve"> en la producción porcina</tspan><tspan x="0" y="48"></tspan></text>
    <text id="se_desarrolla" data-name="se desarrolla" transform="translate(854.333 591)" fill="#12263f" font-size="16" font-family="Roboto-Bold, Roboto" font-weight="700"><tspan x="-46.414" y="0">se desarrolla</tspan></text>
    <line id="Línea_260" data-name="Línea 260" x2="1030" transform="translate(284.833 628.5)" fill="none" stroke="#bf8d48" stroke-width="3"/>
    <line id="Línea_247" data-name="Línea 247" y2="53" transform="translate(284.333 627)" fill="none" stroke="#bf8d48" stroke-width="3"/>
    <line id="Línea_310" data-name="Línea 310" y2="53" transform="translate(633.333 627)" fill="none" stroke="#bf8d48" stroke-width="3"/>
    <line id="Línea_311" data-name="Línea 311" y2="53" transform="translate(972.333 627)" fill="none" stroke="#bf8d48" stroke-width="3"/>
    <line id="Línea_312" data-name="Línea 312" y2="53" transform="translate(1315.333 627)" fill="none" stroke="#bf8d48" stroke-width="3"/>
    <line id="Línea_261" data-name="Línea 261" x2="21.5" transform="translate(180.333 860)" fill="none" stroke="#bf8d48" stroke-width="3"/>
    <line id="Línea_322" data-name="Línea 322" x2="21.5" transform="translate(868.333 860)" fill="none" stroke="#bf8d48" stroke-width="3"/>
    <line id="Línea_324" data-name="Línea 324" x2="21.5" transform="translate(1213.333 860)" fill="none" stroke="#bf8d48" stroke-width="3"/>
    <line id="Línea_317" data-name="Línea 317" x2="21.5" transform="translate(527.333 860)" fill="none" stroke="#bf8d48" stroke-width="3"/>
    <line id="Línea_262" data-name="Línea 262" x2="21.5" transform="translate(180.333 937.5)" fill="none" stroke="#bf8d48" stroke-width="3"/>
    <line id="Línea_321" data-name="Línea 321" x2="21.5" transform="translate(868.333 937.5)" fill="none" stroke="#bf8d48" stroke-width="3"/>
    <line id="Línea_325" data-name="Línea 325" x2="21.5" transform="translate(1213.333 937.5)" fill="none" stroke="#bf8d48" stroke-width="3"/>
    <line id="Línea_316" data-name="Línea 316" x2="21.5" transform="translate(527.333 937.5)" fill="none" stroke="#bf8d48" stroke-width="3"/>
    <line id="Línea_313" data-name="Línea 313" x2="21.5" transform="translate(180.333 1015.5)" fill="none" stroke="#bf8d48" stroke-width="3"/>
    <line id="Línea_318" data-name="Línea 318" x2="21.5" transform="translate(868.333 1015.5)" fill="none" stroke="#bf8d48" stroke-width="3"/>
    <line id="Línea_326" data-name="Línea 326" x2="21.5" transform="translate(1213.333 1015.5)" fill="none" stroke="#bf8d48" stroke-width="3"/>
    <line id="Línea_314" data-name="Línea 314" x2="21.5" transform="translate(180.333 1093.5)" fill="none" stroke="#bf8d48" stroke-width="3"/>
    <line id="Línea_319" data-name="Línea 319" x2="21.5" transform="translate(868.333 1093.5)" fill="none" stroke="#bf8d48" stroke-width="3"/>
    <line id="Línea_251" data-name="Línea 251" y2="359" transform="translate(180.333 736)" fill="none" stroke="#bf8d48" stroke-width="3"/>
    <line id="Línea_320" data-name="Línea 320" y2="359" transform="translate(868.333 736)" fill="none" stroke="#bf8d48" stroke-width="3"/>
    <line id="Línea_323" data-name="Línea 323" y2="280" transform="translate(1213.333 736)" fill="none" stroke="#bf8d48" stroke-width="3"/>
    <line id="Línea_315" data-name="Línea 315" y2="202" transform="translate(527.333 736)" fill="none" stroke="#bf8d48" stroke-width="3"/>
    <path id="Trazado_183767-2" data-name="Trazado 183767" d="M23.4,0H160.6C173.523,0,184,16.118,184,36s-10.477,36-23.4,36H23.4C10.477,72,0,55.882,0,36S10.477,0,23.4,0Z" transform="translate(199.333 822)" fill="#e0efaa"/>
    <path id="Trazado_183767-3" data-name="Trazado 183767" d="M23.4,0H160.6C173.523,0,184,16.118,184,36s-10.477,36-23.4,36H23.4C10.477,72,0,55.882,0,36S10.477,0,23.4,0Z" transform="translate(887.333 822)" fill="#e0efaa"/>
    <path id="Trazado_183767-4" data-name="Trazado 183767" d="M23.4,0H160.6C173.523,0,184,16.118,184,36s-10.477,36-23.4,36H23.4C10.477,72,0,55.882,0,36S10.477,0,23.4,0Z" transform="translate(1232.333 822)" fill="#e0efaa"/>
    <path id="Trazado_183767-5" data-name="Trazado 183767" d="M23.4,0H160.6C173.523,0,184,16.118,184,36s-10.477,36-23.4,36H23.4C10.477,72,0,55.882,0,36S10.477,0,23.4,0Z" transform="translate(546.333 822)" fill="#e0efaa"/>
    <path id="Trazado_183767-6" data-name="Trazado 183767" d="M23.4,0H160.6C173.523,0,184,16.118,184,36s-10.477,36-23.4,36H23.4C10.477,72,0,55.882,0,36S10.477,0,23.4,0Z" transform="translate(199.333 902)" fill="#e0efaa"/>
    <path id="Trazado_183767-7" data-name="Trazado 183767" d="M23.4,0H160.6C173.523,0,184,16.118,184,36s-10.477,36-23.4,36H23.4C10.477,72,0,55.882,0,36S10.477,0,23.4,0Z" transform="translate(887.333 902)" fill="#e0efaa"/>
    <path id="Trazado_183767-8" data-name="Trazado 183767" d="M23.4,0H160.6C173.523,0,184,16.118,184,36s-10.477,36-23.4,36H23.4C10.477,72,0,55.882,0,36S10.477,0,23.4,0Z" transform="translate(1232.333 902)" fill="#e0efaa"/>
    <path id="Trazado_183767-9" data-name="Trazado 183767" d="M23.4,0H160.6C173.523,0,184,16.118,184,36s-10.477,36-23.4,36H23.4C10.477,72,0,55.882,0,36S10.477,0,23.4,0Z" transform="translate(546.333 902)" fill="#e0efaa"/>
    <path id="Trazado_183767-10" data-name="Trazado 183767" d="M23.4,0H160.6C173.523,0,184,16.118,184,36s-10.477,36-23.4,36H23.4C10.477,72,0,55.882,0,36S10.477,0,23.4,0Z" transform="translate(199.333 980)" fill="#e0efaa"/>
    <path id="Trazado_183767-11" data-name="Trazado 183767" d="M23.4,0H160.6C173.523,0,184,16.118,184,36s-10.477,36-23.4,36H23.4C10.477,72,0,55.882,0,36S10.477,0,23.4,0Z" transform="translate(887.333 980)" fill="#e0efaa"/>
    <path id="Trazado_183767-12" data-name="Trazado 183767" d="M29.505,0h172.99C218.79,0,232,18.795,232,41.979s-13.21,41.979-29.505,41.979H29.505C13.21,83.959,0,65.164,0,41.979S13.21,0,29.505,0Z" transform="translate(1232.333 980)" fill="#e0efaa"/>
    <path id="Trazado_183767-13" data-name="Trazado 183767" d="M23.4,0H160.6C173.523,0,184,16.118,184,36s-10.477,36-23.4,36H23.4C10.477,72,0,55.882,0,36S10.477,0,23.4,0Z" transform="translate(199.333 1058)" fill="#e0efaa"/>
    <path id="Trazado_183767-14" data-name="Trazado 183767" d="M23.4,0H160.6C173.523,0,184,16.118,184,36s-10.477,36-23.4,36H23.4C10.477,72,0,55.882,0,36S10.477,0,23.4,0Z" transform="translate(887.333 1058)" fill="#e0efaa"/>
    <text id="Componentes" transform="translate(226.333 864)" fill="#12263f" font-size="16" font-family="Roboto-Bold, Roboto" font-weight="700"><tspan x="0" y="0">Componentes</tspan></text>
    <text id="Tipo" transform="translate(914.333 864)" fill="#12263f" font-size="16" font-family="Roboto-Bold, Roboto" font-weight="700"><tspan x="0" y="0">Tipo</tspan></text>
    <text id="Métodos_y_técnicas" data-name="Métodos y técnicas" transform="translate(1259.333 864)" fill="#12263f" font-size="16" font-family="Roboto-Bold, Roboto" font-weight="700"><tspan x="0" y="0">Métodos y técnicas</tspan></text>
    <text id="Tipos_procedimientos" data-name="Tipos 
procedimientos" transform="translate(573.333 852)" fill="#12263f" font-size="16" font-family="Roboto-Bold, Roboto" font-weight="700"><tspan x="0" y="0">Tipos </tspan><tspan x="0" y="24">procedimientos</tspan></text>
    <text id="Certificación" transform="translate(226.333 943)" fill="#12263f" font-size="16" font-family="Roboto-Bold, Roboto" font-weight="700"><tspan x="0" y="0">Certificación</tspan></text>
    <text id="Formatos" transform="translate(914.333 943)" fill="#12263f" font-size="16" font-family="Roboto-Bold, Roboto" font-weight="700"><tspan x="0" y="0">Formatos</tspan></text>
    <text id="Responsabilidades" transform="translate(1259.333 943)" fill="#12263f" font-size="16" font-family="Roboto-Bold, Roboto" font-weight="700"><tspan x="0" y="0">Responsabilidades</tspan></text>
    <text id="Métodos_y_técnicas_de_programación_" data-name="Métodos y técnicas
de programación
" transform="translate(568.333 932)" fill="#12263f" font-size="16" font-family="Roboto-Bold, Roboto" font-weight="700"><tspan x="0" y="0">Métodos y técnicas</tspan><tspan x="0" y="24">de programación</tspan><tspan x="0" y="48"></tspan></text>
    <text id="Recursos" transform="translate(226.333 1021)" fill="#12263f" font-size="16" font-family="Roboto-Bold, Roboto" font-weight="700"><tspan x="0" y="0">Recursos</tspan></text>
    <text id="Diligenciamiento" transform="translate(914.333 1021)" fill="#12263f" font-size="16" font-family="Roboto-Bold, Roboto" font-weight="700"><tspan x="0" y="0">Diligenciamiento</tspan></text>
    <text id="Recursos_para_la_implementación_de_buenas_prácticas_ganaderas_" data-name="Recursos para la 
implementación de buenas 
prácticas ganaderas 
" transform="translate(1259.333 1004)" fill="#12263f" font-size="16" font-family="Roboto-Bold, Roboto" font-weight="700"><tspan x="0" y="0">Recursos para la </tspan><tspan x="0" y="24">implementación de buenas </tspan><tspan x="0" y="48">prácticas ganaderas </tspan><tspan x="0" y="72"></tspan></text>
    <text id="Cronograma_de_actividades" data-name="Cronograma de 
actividades" transform="translate(226.333 1088)" fill="#12263f" font-size="16" font-family="Roboto-Bold, Roboto" font-weight="700"><tspan x="0" y="0">Cronograma de </tspan><tspan x="0" y="24">actividades</tspan></text>
    <text id="Trámite" transform="translate(914.333 1100)" fill="#12263f" font-size="16" font-family="Roboto-Bold, Roboto" font-weight="700"><tspan x="0" y="0">Trámite</tspan></text>
    <text id="se_contempla_" data-name="se contempla
" transform="translate(254.333 795)" font-size="18" font-family="Roboto-Bold, Roboto" font-weight="700"><tspan x="-54.532" y="0">se contempla</tspan><tspan x="0" y="24"></tspan></text>
    <text id="se_contempla_2" data-name="se contempla
" transform="translate(942.333 795)" font-size="18" font-family="Roboto-Bold, Roboto" font-weight="700"><tspan x="-54.532" y="0">se contempla</tspan><tspan x="0" y="24"></tspan></text>
    <text id="se_identifica_" data-name="se identifica
" transform="translate(1282.333 795)" font-size="18" font-family="Roboto-Bold, Roboto" font-weight="700"><tspan x="-49.518" y="0">se identifica</tspan><tspan x="0" y="24"></tspan></text>
    <text id="se_contempla_3" data-name="se contempla
" transform="translate(601.333 795)" font-size="18" font-family="Roboto-Bold, Roboto" font-weight="700"><tspan x="-54.532" y="0">se contempla</tspan><tspan x="0" y="24"></tspan></text>
    <path id="Trazado_183767-15" data-name="Trazado 183767" d="M37.645,0H258.355C279.146,0,296,18.58,296,41.5S279.146,83,258.355,83H37.645C16.854,83,0,64.42,0,41.5S16.854,0,37.645,0Z" transform="translate(136.333 665)" fill="#b8ff9a"/>
    <text id="Plan_de_implementación" data-name="Plan de implementación" transform="translate(285.333 713)" font-size="18" font-family="Roboto-Bold, Roboto" font-weight="700"><tspan x="-97.743" y="0">Plan de implementación</tspan></text>
    <path id="Trazado_183767-16" data-name="Trazado 183767" d="M37.645,0H258.355C279.146,0,296,18.58,296,41.5S279.146,83,258.355,83H37.645C16.854,83,0,64.42,0,41.5S16.854,0,37.645,0Z" transform="translate(480.333 665)" fill="#b8ff9a"/>
    <text id="Protocolos" transform="translate(633.333 713)" font-size="18" font-family="Roboto-Bold, Roboto" font-weight="700"><tspan x="-43.901" y="0">Protocolos</tspan></text>
    <path id="Trazado_183767-17" data-name="Trazado 183767" d="M37.645,0H258.355C279.146,0,296,18.58,296,41.5S279.146,83,258.355,83H37.645C16.854,83,0,64.42,0,41.5S16.854,0,37.645,0Z" transform="translate(824.333 665)" fill="#b8ff9a"/>
    <text id="Documentación_y_registros" data-name="Documentación y registros" transform="translate(977.333 713)" font-size="18" font-family="Roboto-Bold, Roboto" font-weight="700"><tspan x="-108.536" y="0">Documentación y registros</tspan></text>
    <path id="Trazado_183767-18" data-name="Trazado 183767" d="M37.645,0H258.355C279.146,0,296,18.58,296,41.5S279.146,83,258.355,83H37.645C16.854,83,0,64.42,0,41.5S16.854,0,37.645,0Z" transform="translate(1168.333 665)" fill="#b8ff9a"/>
    <text id="Capacitación_del_talento_humano" data-name="Capacitación del talento humano" transform="translate(1321.333 713)" font-size="18" font-family="Roboto-Bold, Roboto" font-weight="700"><tspan x="-132.781" y="0">Capacitación del talento humano</tspan></text>
  </g>
</svg>
